<?xml version="1.0" encoding="utf-8"?>
<!-- Generator: Adobe Illustrator 27.5.0, SVG Export Plug-In . SVG Version: 6.00 Build 0)  -->
<svg version="1.1" xmlns="http://www.w3.org/2000/svg" xmlns:xlink="http://www.w3.org/1999/xlink" x="0px" y="0px"
	 viewBox="0 0 3710 3710" style="enable-background:new 0 0 3710 3710;" xml:space="preserve">
<g id="Background">
	<g>
		<g>
			<rect style="fill:#FFFFFF;" width="3710" height="3710"/>
		</g>
	</g>
</g>
<g id="Illustration">
	<g>
		<linearGradient id="SVGID_1_" gradientUnits="userSpaceOnUse" x1="3608.1602" y1="4052.8662" x2="1138.0098" y2="985.0944">
			<stop  offset="0" style="stop-color:#B37CFF"/>
			<stop  offset="1" style="stop-color:#F895E7"/>
		</linearGradient>
		<path style="opacity:0.3;fill:url(#SVGID_1_);" d="M2928.606,2843.048c-56.738,59.732-110.424,98.252-152.84,128.686
			c-498.588,357.743-1088.551,253.462-1213.935,227.996c-185.152-37.605-543.048-110.296-801.8-414.583
			C368.562,2324.786,429.52,1599.5,733.17,1120.729c55.542-87.575,348.934-573.639,945.251-651.589
			c360.885-47.174,781.56,47.97,1086.202,303.2C3404.093,1308.089,3358.569,2390.396,2928.606,2843.048z"/>
		<g>
			<g>
				
					<linearGradient id="SVGID_00000148658632772173996910000001971465790283914369_" gradientUnits="userSpaceOnUse" x1="1536.7555" y1="398.9998" x2="1616.0551" y2="1326.8049" gradientTransform="matrix(0.9831 0.1858 -0.2039 1.2043 -303.5166 -285.1238)">
					<stop  offset="0" style="stop-color:#A737D5"/>
					<stop  offset="0.0451" style="stop-color:#AA38D1"/>
					<stop  offset="1" style="stop-color:#EF497A"/>
				</linearGradient>
				<path style="fill:url(#SVGID_00000148658632772173996910000001971465790283914369_);" d="M1235.185,2348.097
					c0,0,126.756-1118.362-107.523-1852.256c-15.749-49.334-71.08-55.366-97.499-10.468
					C853.501,785.599,399.088,1729.481,1235.185,2348.097z"/>
				<path style="opacity:0.5;fill:#FFFFFF;" d="M1172.586,2247.117c1.272,3.31-2.669,6.119-4.303,3.069
					c-60.292-112.475-267.78-628.926-149.326-1441.17c0.381-2.609,3.589-2.354,3.393,0.273
					C1007.988,1002.911,971.518,1723.587,1172.586,2247.117z"/>
			</g>
			<g>
				
					<linearGradient id="SVGID_00000138537414824755925420000006254305524089691295_" gradientUnits="userSpaceOnUse" x1="1180.1123" y1="903.0582" x2="2222.1643" y2="2410.3093" gradientTransform="matrix(0.9889 0.1485 -0.1485 0.9889 -626.1772 -150.3442)">
					<stop  offset="0" style="stop-color:#CB236D"/>
					<stop  offset="1" style="stop-color:#4C246D"/>
				</linearGradient>
				<path style="fill:url(#SVGID_00000138537414824755925420000006254305524089691295_);" d="M466.627,613.744
					c-3.603-6.838,4.49-13.842,10.687-9.223c98.921,73.724,444.642,365.24,523.834,889.731
					c72.456,479.886,44.679,828.439,29.111,957.68c-3.08,25.557-32.53,38.365-53.302,23.159
					c-123.113-90.119-454.638-360.498-475.953-672.688C475.535,1429.335,638.584,940.073,466.627,613.744z"/>
				<path style="opacity:0.5;fill:#FFFFFF;" d="M668.769,980.154c0,0,267.469,332.576,332.073,1458.78
					C1000.842,2438.934,875.961,1310.556,668.769,980.154z"/>
			</g>
		</g>
		<g>
			<g>
				<g style="opacity:0.3;">
					
						<linearGradient id="SVGID_00000116937117145219268090000008777512297008790929_" gradientUnits="userSpaceOnUse" x1="3975.4678" y1="-1356.4213" x2="4615.2988" y2="-1356.4213" gradientTransform="matrix(0.6691 0.7431 -0.7431 0.6691 -1146.6945 -1390.9475)">
						<stop  offset="0" style="stop-color:#B37CFF"/>
						<stop  offset="1" style="stop-color:#F895E7"/>
					</linearGradient>
					<path style="fill:url(#SVGID_00000116937117145219268090000008777512297008790929_);" d="M2342.571,834.69
						c-3.793-4.213-3.868-10.7,0.011-15.002c8.48-9.414,17.498-18.598,26.797-27.299c4.525-4.233,11.624-3.998,15.855,0.526
						c0.05,0.055,0.098,0.109,0.146,0.163c4.078,4.529,3.796,11.511-0.675,15.693c-8.836,8.266-17.4,16.991-25.457,25.932
						c-4.145,4.602-11.24,4.974-15.843,0.825C2343.109,835.261,2342.832,834.98,2342.571,834.69z M2415.672,769.842
						c-0.293-0.326-0.572-0.674-0.831-1.041c-3.576-5.058-2.375-12.06,2.684-15.636c10.392-7.343,21.2-14.316,32.124-20.721
						c5.344-3.134,12.189-1.353,15.353,4c3.133,5.345,1.337,12.218-4.003,15.349c-10.384,6.089-20.651,12.713-30.526,19.694
						C2425.782,774.804,2419.424,774.008,2415.672,769.842z M2501.234,722.702c-0.835-0.928-1.53-2.013-2.033-3.234
						c-2.357-5.728,0.371-12.285,6.099-14.645c11.74-4.839,23.838-9.226,35.957-13.04c5.911-1.856,12.203,1.432,14.067,7.333
						c1.859,5.908-1.425,12.208-7.333,14.067c-11.509,3.621-22.994,7.786-34.144,12.381
						C2509.34,727.422,2504.318,726.128,2501.234,722.702z M2595.207,695.873c-1.381-1.534-2.354-3.466-2.719-5.653
						c-1.02-6.11,3.108-11.89,9.217-12.91c12.535-2.089,25.31-3.662,37.969-4.676c6.17-0.488,11.575,4.114,12.076,10.288
						c0.494,6.174-4.113,11.58-10.288,12.076c-12.023,0.962-24.157,2.454-36.067,4.444
						C2601.472,700.093,2597.686,698.626,2595.207,695.873z M2692.802,690.673c-1.937-2.151-3.044-5.045-2.861-8.161
						c0.361-6.186,5.669-10.906,11.852-10.542c12.653,0.741,25.456,2.034,38.044,3.848c6.132,0.878,10.39,6.563,9.506,12.698
						c-0.883,6.131-6.568,10.386-12.702,9.506c-11.966-1.725-24.133-2.954-36.158-3.658
						C2697.415,694.185,2694.708,692.789,2692.802,690.673z M2789.11,707.191c-2.508-2.786-3.566-6.763-2.448-10.629
						c1.722-5.952,7.939-9.38,13.891-7.661c12.196,3.526,24.396,7.62,36.252,12.171c5.786,2.222,8.672,8.708,6.452,14.493
						c-2.217,5.781-8.707,8.671-14.49,6.452c-11.268-4.323-22.855-8.214-34.444-11.564
						C2792.236,709.851,2790.463,708.694,2789.11,707.191z M3083.987,994.772c-1.039-1.154-1.852-2.541-2.351-4.117
						c-3.636-11.49-7.823-22.976-12.447-34.135c-2.37-5.722,0.347-12.285,6.068-14.653c5.723-2.373,12.284,0.344,14.656,6.068
						c4.869,11.753,9.281,23.85,13.112,35.948c1.87,5.907-1.405,12.21-7.31,14.079
						C3091.385,999.334,3086.84,997.94,3083.987,994.772z M2879.304,744.618c-3.114-3.458-3.855-8.642-1.475-12.94
						c3.002-5.421,9.828-7.381,15.247-4.381c11.109,6.15,22.084,12.859,32.623,19.94c5.125,3.478,6.513,10.423,3.056,15.567
						c-3.454,5.141-10.424,6.509-15.568,3.055c-10.007-6.726-20.429-13.096-30.977-18.937
						C2881.09,746.299,2880.115,745.518,2879.304,744.618z M3044.187,905.532c-0.495-0.55-0.946-1.155-1.336-1.818
						c-6.119-10.391-12.772-20.653-19.763-30.507c-3.584-5.054-2.395-12.056,2.656-15.64c5.052-3.582,12.074-2.417,15.64,2.656
						c7.355,10.369,14.355,21.168,20.797,32.1c3.144,5.338,1.366,12.216-3.971,15.359
						C3053.537,910.436,3047.682,909.413,3044.187,905.532z M2958.877,801.253c-3.788-4.207-3.869-10.682-0.004-14.987
						c4.138-4.611,11.229-4.993,15.843-0.858c9.439,8.473,18.64,17.467,27.34,26.737c0.056,0.055,0.11,0.116,0.163,0.174
						c4.072,4.523,3.797,11.492-0.659,15.678c-4.518,4.242-11.615,4.02-15.855-0.498c-8.268-8.802-17.008-17.344-25.977-25.393
						C2959.428,801.832,2959.142,801.547,2958.877,801.253z"/>
					
						<linearGradient id="SVGID_00000108282929103347818840000011686746187676875936_" gradientUnits="userSpaceOnUse" x1="4646.4028" y1="-1524.9497" x2="4683.771" y2="-1524.9497" gradientTransform="matrix(0.6691 0.7431 -0.7431 0.6691 -1146.6945 -1390.9475)">
						<stop  offset="0" style="stop-color:#B37CFF"/>
						<stop  offset="1" style="stop-color:#F895E7"/>
					</linearGradient>
					<path style="fill:url(#SVGID_00000108282929103347818840000011686746187676875936_);" d="M3100.863,1071.706
						c-1.478-1.641-2.49-3.734-2.786-6.093c-0.721-5.739-1.579-11.556-2.537-17.296c-1.025-6.108,3.099-11.894,9.207-12.915
						c6.11-1.026,11.902,3.095,12.916,9.21c1.013,6.036,1.911,12.155,2.673,18.193c0.775,6.145-3.581,11.759-9.724,12.532
						C3106.822,1075.816,3103.238,1074.344,3100.863,1071.706z"/>
				</g>
				<g style="opacity:0.3;">
					
						<linearGradient id="SVGID_00000092429898841604038730000011176713135338695320_" gradientUnits="userSpaceOnUse" x1="4840.3643" y1="-1239.4092" x2="4866.0068" y2="-1239.4092" gradientTransform="matrix(0.6691 0.7431 -0.7431 0.6691 -1146.6945 -1390.9475)">
						<stop  offset="0" style="stop-color:#B37CFF"/>
						<stop  offset="1" style="stop-color:#F895E7"/>
					</linearGradient>
					<path style="fill:url(#SVGID_00000092429898841604038730000011176713135338695320_);" d="M3007.743,1400.759
						c-3.622-4.023-3.893-10.191-0.386-14.54c3.632-4.499,7.23-9.152,10.693-13.826c3.689-4.978,10.714-6.024,15.69-2.336
						c4.998,3.704,6.022,10.715,2.336,15.691c-3.647,4.92-7.436,9.82-11.258,14.559c-3.89,4.821-10.952,5.575-15.774,1.686
						C3008.571,1401.612,3008.138,1401.197,3007.743,1400.759z"/>
					
						<linearGradient id="SVGID_00000111890907746176186850000017932883663720722817_" gradientUnits="userSpaceOnUse" x1="4212.4463" y1="-947.7323" x2="4871.4878" y2="-947.7323" gradientTransform="matrix(0.6691 0.7431 -0.7431 0.6691 -1146.6945 -1390.9475)">
						<stop  offset="0" style="stop-color:#B37CFF"/>
						<stop  offset="1" style="stop-color:#F895E7"/>
					</linearGradient>
					<path style="fill:url(#SVGID_00000111890907746176186850000017932883663720722817_);" d="M2343.177,1419.349
						c-3.454-3.835-6.855-7.745-10.204-11.725c-3.986-4.742-3.377-11.817,1.363-15.805s11.853-3.37,15.806,1.36
						c7.729,9.187,15.812,18.039,24.124,26.406c4.362,4.406,4.343,11.496-0.051,15.862c-4.397,4.369-11.501,4.344-15.865-0.051
						C2353.208,1430.221,2348.104,1424.821,2343.177,1419.349z M2298.036,1359.807c-0.419-0.466-0.806-0.975-1.153-1.523
						c-6.688-10.578-13.002-21.558-18.764-32.633c-2.86-5.494-0.723-12.268,4.77-15.126c5.497-2.859,12.289-0.724,15.129,4.773
						c5.474,10.519,11.474,20.947,17.826,31.002c3.311,5.235,1.748,12.163-3.485,15.472
						C2307.669,1364.736,2301.626,1363.794,2298.036,1359.807z M2402.755,1474.287c-3.539-3.93-3.898-9.941-0.575-14.298
						c3.76-4.927,10.797-5.872,15.724-2.116c9.42,7.189,19.278,14.07,29.306,20.453c5.221,3.336,6.764,10.262,3.438,15.487
						c-3.33,5.226-10.264,6.765-15.489,3.437c-10.558-6.722-20.94-13.971-30.863-21.54
						C2403.728,1475.276,2403.215,1474.798,2402.755,1474.287z M2255.905,1273.341c-0.953-1.058-1.715-2.318-2.224-3.74
						c-4.196-11.778-7.94-23.879-11.126-35.962c-1.579-5.99,1.996-12.124,7.985-13.702c5.993-1.581,12.127,1.99,13.706,7.986
						c3.026,11.473,6.579,22.963,10.566,34.149c2.082,5.834-0.967,12.252-6.801,14.33
						C2263.602,1277.974,2258.856,1276.619,2255.905,1273.341z M2485.148,1523.754c-2.902-3.224-3.785-7.989-1.862-12.185
						c2.581-5.632,9.24-8.105,14.873-5.523c10.765,4.937,21.896,9.481,33.082,13.509c5.828,2.098,8.854,8.524,6.752,14.355
						c-2.1,5.827-8.523,8.848-14.351,6.75c-11.777-4.239-23.495-9.023-34.833-14.221
						C2487.375,1525.782,2486.142,1524.858,2485.148,1523.754z M2576.404,1553.945c-2.32-2.577-3.417-6.191-2.643-9.843
						c1.289-6.06,7.245-9.928,13.305-8.64c11.621,2.469,23.482,4.477,35.251,5.97c6.147,0.77,10.498,6.381,9.719,12.536
						c-0.78,6.147-6.392,10.495-12.539,9.719c-12.386-1.571-24.867-3.684-37.095-6.284
						C2579.995,1556.893,2577.934,1555.645,2576.404,1553.945z M2672.07,1563.524c-1.765-1.96-2.849-4.545-2.876-7.391
						c-0.063-6.193,4.909-11.265,11.103-11.327c11.892-0.118,23.904-0.738,35.711-1.847c6.165-0.578,11.635,3.945,12.214,10.121
						c0.577,6.167-3.951,11.635-10.121,12.215c-12.424,1.164-25.07,1.82-37.581,1.944
						C2677.171,1567.271,2674.149,1565.832,2672.07,1563.524z M2767.542,1552.011c-1.223-1.358-2.129-3.033-2.577-4.938
						c-1.415-6.031,2.326-12.065,8.357-13.479c11.571-2.714,23.154-5.952,34.431-9.627c5.89-1.919,12.225,1.306,14.141,7.186
						c1.92,5.891-1.3,12.222-7.19,14.141c-11.878,3.872-24.078,7.282-36.258,10.139
						C2774.318,1556.401,2770.19,1554.953,2767.542,1552.011z M2858.192,1519.808c-0.688-0.764-1.279-1.637-1.751-2.607
						c-2.71-5.569-0.389-12.284,5.18-14.991c10.66-5.186,21.24-10.893,31.448-16.973c5.324-3.169,12.214-1.405,15.375,3.9
						c3.171,5.322,1.423,12.208-3.901,15.378c-10.747,6.398-21.885,12.409-33.109,17.866
						C2866.834,1524.62,2861.452,1523.429,2858.192,1519.808z M2939.498,1468.511c-0.154-0.171-0.302-0.349-0.448-0.531
						c-3.857-4.846-3.054-11.904,1.793-15.76c6.843-5.445,13.597-11.164,20.083-17.004c2.348-2.114,4.667-4.252,6.956-6.405
						c4.514-4.245,11.614-4.028,15.856,0.486c4.386,4.485,4.027,11.61-0.483,15.853c-2.41,2.267-4.847,4.511-7.318,6.737
						c-6.822,6.142-13.931,12.161-21.128,17.886C2950.145,1473.487,2943.434,1472.883,2939.498,1468.511z"/>
					
						<linearGradient id="SVGID_00000117644742885368235800000002100585873032260540_" gradientUnits="userSpaceOnUse" x1="4146.7534" y1="-808.8171" x2="4183.645" y2="-808.8171" gradientTransform="matrix(0.6691 0.7431 -0.7431 0.6691 -1146.6945 -1390.9475)">
						<stop  offset="0" style="stop-color:#B37CFF"/>
						<stop  offset="1" style="stop-color:#F895E7"/>
					</linearGradient>
					<path style="fill:url(#SVGID_00000117644742885368235800000002100585873032260540_);" d="M2233.823,1179.453
						c-1.492-1.657-2.506-3.772-2.796-6.15c-0.73-6.029-1.345-12.187-1.83-18.304c-0.491-6.177,4.118-11.58,10.293-12.069
						c6.176-0.488,11.58,4.113,12.069,10.293c0.461,5.81,1.047,11.66,1.738,17.384c0.747,6.146-3.635,11.737-9.786,12.482
						C2239.742,1183.545,2236.183,1182.074,2233.823,1179.453z"/>
				</g>
				<g>
					
						<linearGradient id="SVGID_00000026873034598987363380000008480927506840513947_" gradientUnits="userSpaceOnUse" x1="5942.7368" y1="-497.6448" x2="3591.9338" y2="-1529.7026" gradientTransform="matrix(0.6691 0.7431 -0.7431 0.6691 -1146.6945 -1390.9475)">
						<stop  offset="0" style="stop-color:#A737D5"/>
						<stop  offset="1" style="stop-color:#EF497A"/>
					</linearGradient>
					<path style="fill:url(#SVGID_00000026873034598987363380000008480927506840513947_);" d="M2340.635,1103.646
						c-0.341,2.21,0.757,4.394,2.735,5.437l56.437,29.767c2.286,29.71,9.324,59.27,21.322,87.49l-36.353,52.387
						c-1.276,1.838-1.244,4.282,0.077,6.086l45.219,61.749c1.322,1.805,3.643,2.571,5.779,1.911l60.917-18.846
						c23.284,19.956,49.339,35.589,76.975,46.734l11.344,62.791c0.398,2.201,2.148,3.907,4.358,4.248l75.637,11.688
						c2.212,0.341,4.395-0.757,5.438-2.735l29.767-56.437c29.71-2.285,59.27-9.325,87.49-21.323l52.388,36.354
						c1.837,1.275,4.281,1.244,6.086-0.077l61.749-45.22c1.804-1.321,2.572-3.642,1.91-5.779l-18.846-60.917
						c19.957-23.283,35.59-49.338,46.735-76.973l62.792-11.345c2.199-0.398,3.906-2.148,4.248-4.358l11.687-75.638
						c0.343-2.211-0.757-4.394-2.735-5.438l-56.438-29.767c-2.284-29.71-9.324-59.27-21.322-87.49l36.354-52.388
						c1.275-1.837,1.244-4.281-0.077-6.086l-45.221-61.748c-1.321-1.805-3.642-2.572-5.779-1.911l-60.917,18.846
						c-23.283-19.957-49.339-35.59-76.974-46.735l-11.344-62.789c-0.397-2.201-2.148-3.908-4.358-4.249l-75.637-11.687
						c-2.21-0.342-4.394,0.757-5.438,2.735l-29.767,56.437c-29.71,2.285-59.27,9.325-87.49,21.323l-52.388-36.354
						c-1.836-1.275-4.281-1.244-6.086,0.078l-61.748,45.219c-1.804,1.322-2.572,3.642-1.912,5.779l18.846,60.917
						c-19.956,23.283-35.588,49.339-46.735,76.973l-62.79,11.345c-2.201,0.397-3.907,2.147-4.249,4.358L2340.635,1103.646z"/>
					<path style="opacity:0.56;fill:#FFFFFF;" d="M2621.372,1168.587c-25.094-27.869-26.663-70.766-2.055-100.497
						c27.052-32.679,75.64-37.257,108.319-10.21c15.836,13.101,25.612,31.588,27.539,52.042c1.93,20.458-4.224,40.444-17.329,56.273
						c-27.052,32.68-75.64,37.257-108.318,10.21C2626.581,1173.967,2623.86,1171.35,2621.372,1168.587z M2722.506,1077.76
						c-1.938-2.152-4.042-4.175-6.314-6.056c-25.053-20.739-62.312-17.225-83.049,7.827c-20.739,25.056-17.242,62.315,7.827,83.052
						c25.053,20.739,62.311,17.225,83.048-7.826c10.048-12.14,14.766-27.46,13.288-43.148
						C2736.103,1098.859,2730.922,1087.107,2722.506,1077.76z"/>
					<path style="opacity:0.56;fill:#FFFFFF;" d="M2539.85,1244.107c-4.31-4.786-8.404-9.817-12.262-15.084l0,0
						c-1.215-1.657-2.402-3.336-3.563-5.031c-5.722-8.365-10.769-17.172-15.064-26.284c-0.059-0.124-0.117-0.248-0.176-0.372
						c-0.165-0.353-0.329-0.706-0.49-1.062c-0.319-0.688-0.63-1.381-0.94-2.072c-0.813-1.82-0.316-3.893,1.089-5.161
						c0.342-0.308,0.739-0.568,1.18-0.765c2.262-1.01,4.91,0.012,5.923,2.27c5.196,11.644,11.683,22.805,19.281,33.173
						c37.717,51.521,97.852,77.133,157.287,73.287c33.059-2.135,65.901-13.388,94.552-34.372c5.025-3.678,9.827-7.584,14.391-11.696
						c30.721-27.668,50.825-64.751,57.222-106.161c7.351-47.566-4.262-95.149-32.699-133.979
						c-58.737-80.19-171.682-97.617-251.839-38.915c-4.943,3.619-9.684,7.476-14.205,11.549
						c-19.596,17.65-35.112,39.392-45.358,63.719c-0.265,0.629-0.655,1.165-1.132,1.592c-1.25,1.126-3.089,1.499-4.744,0.801
						c-2.282-0.969-3.361-3.589-2.393-5.878c10.757-25.54,27.046-48.369,47.618-66.899c4.746-4.276,9.722-8.323,14.908-12.123
						c84.157-61.632,202.773-43.276,264.383,40.85c29.855,40.766,42.043,90.716,34.326,140.652
						c-6.715,43.473-27.821,82.403-60.071,111.451c-4.793,4.316-9.834,8.415-15.105,12.278
						c-40.769,29.854-90.72,42.046-140.654,34.331C2607.836,1297.486,2568.899,1276.368,2539.85,1244.107z"/>
				</g>
			</g>
			<g>
				<g style="opacity:0.3;">
					
						<linearGradient id="SVGID_00000018938904265113937090000000149345927271605426_" gradientUnits="userSpaceOnUse" x1="3594.8667" y1="-823.5155" x2="3613.1042" y2="-823.5155" gradientTransform="matrix(0.6691 0.7431 -0.7431 0.6691 -1146.6945 -1390.9475)">
						<stop  offset="0" style="stop-color:#B37CFF"/>
						<stop  offset="1" style="stop-color:#F895E7"/>
					</linearGradient>
					<path style="fill:url(#SVGID_00000018938904265113937090000000149345927271605426_);" d="M1866.774,748.026
						c-2.005-2.227-2.4-5.587-0.745-8.269c3.084-5.007,6.364-9.99,9.746-14.807c2.198-3.13,6.515-3.886,9.651-1.689
						c3.145,2.189,3.886,6.52,1.688,9.651c-3.223,4.59-6.349,9.339-9.293,14.117c-2.003,3.255-6.272,4.267-9.532,2.264
						C1867.71,748.935,1867.206,748.506,1866.774,748.026z"/>
					
						<linearGradient id="SVGID_00000050643278573628465660000015138107940112520592_" gradientUnits="userSpaceOnUse" x1="3587.4832" y1="-1028.4" x2="3944.9211" y2="-1028.4" gradientTransform="matrix(0.6691 0.7431 -0.7431 0.6691 -1146.6945 -1390.9475)">
						<stop  offset="0" style="stop-color:#B37CFF"/>
						<stop  offset="1" style="stop-color:#F895E7"/>
					</linearGradient>
					<path style="fill:url(#SVGID_00000050643278573628465660000015138107940112520592_);" d="M1898.777,705.412
						c-2.349-2.609-2.388-6.626,0.019-9.28c6.798-7.506,14.062-14.747,21.583-21.519c1.584-1.426,3.189-2.839,4.812-4.241
						c2.902-2.499,7.303-1.929,9.776,0.716c2.5,2.897,2.177,7.271-0.716,9.771c-1.553,1.339-3.088,2.689-4.601,4.051
						c-7.175,6.46-14.102,13.367-20.587,20.521c-2.57,2.838-6.948,3.052-9.786,0.487
						C1899.102,705.753,1898.933,705.586,1898.777,705.412z M1953.24,658.421c-0.219-0.244-0.429-0.506-0.615-0.784
						c-2.128-3.182-1.277-7.486,1.902-9.616c10.198-6.834,20.912-13.094,31.838-18.603c3.417-1.725,7.587-0.33,9.305,3.065
						c1.723,3.42,0.352,7.58-3.065,9.305c-10.424,5.257-20.642,11.23-30.37,17.745
						C1959.339,661.474,1955.509,660.94,1953.24,658.421z M2017.472,626.041c-0.588-0.653-1.06-1.431-1.376-2.307
						c-1.286-3.603,0.598-7.567,4.201-8.853c11.545-4.114,23.477-7.556,35.458-10.214c3.74-0.832,7.43,1.518,8.264,5.264
						c0.83,3.732-1.528,7.434-5.26,8.263c-11.426,2.537-22.799,5.812-33.809,9.74
						C2022.225,628.903,2019.294,628.065,2017.472,626.041z M2087.702,610.442c-0.96-1.066-1.594-2.438-1.746-3.972
						c-0.361-3.808,2.434-7.195,6.242-7.556c12.227-1.163,24.627-1.576,36.867-1.227c3.824,0.112,6.831,3.309,6.724,7.124
						c-0.107,3.824-3.295,6.835-7.124,6.728c-11.664-0.336-23.498,0.06-35.154,1.169
						C2091.239,612.924,2089.121,612.017,2087.702,610.442z M2159.609,612.468c-1.34-1.488-2.027-3.546-1.703-5.682
						c0.574-3.78,4.107-6.378,7.89-5.807c12.124,1.847,24.251,4.456,36.04,7.762c3.692,1.027,5.837,4.855,4.803,8.539
						s-4.859,5.836-8.539,4.802c-11.251-3.152-22.816-5.644-34.386-7.402C2162.066,614.429,2160.643,613.617,2159.609,612.468z
						 M2228.836,631.883c-1.736-1.928-2.311-4.761-1.243-7.316c1.476-3.527,5.534-5.187,9.064-3.714
						c11.312,4.736,22.435,10.225,33.053,16.314c3.322,1.92,4.463,6.141,2.563,9.459c-1.901,3.318-6.138,4.466-9.454,2.563
						c-10.127-5.807-20.727-11.038-31.511-15.553C2230.33,633.229,2229.5,632.62,2228.836,631.883z M2291.2,667.625
						c-2.173-2.413-2.409-6.102-0.387-8.791c2.299-3.058,6.643-3.674,9.703-1.377c9.771,7.343,19.208,15.398,28.054,23.938
						c2.713,2.71,2.825,7.051,0.166,9.8c-2.657,2.752-7.042,2.827-9.796,0.172c-8.433-8.152-17.434-15.833-26.751-22.834
						C2291.823,668.257,2291.494,667.952,2291.2,667.625z M2363.826,746.971c-0.267-0.297-0.516-0.624-0.735-0.977
						c-5.342-8.572-11.248-17.002-17.554-25.057c-0.949-1.225-1.895-2.418-2.853-3.594c-2.407-2.977-1.954-7.336,1.02-9.745
						c2.975-2.419,7.438-2.013,9.746,1.016c1.017,1.26,2.026,2.523,3.02,3.808c6.586,8.418,12.778,17.254,18.378,26.245
						c2.024,3.249,1.033,7.518-2.215,9.542C2369.741,750.011,2366.033,749.422,2363.826,746.971z"/>
				</g>
				<g style="opacity:0.3;">
					
						<linearGradient id="SVGID_00000020362553588166740220000003513892277124087729_" gradientUnits="userSpaceOnUse" x1="3747.0039" y1="-685.7449" x2="4154.9648" y2="-685.7449" gradientTransform="matrix(0.6691 0.7431 -0.7431 0.6691 -1146.6945 -1390.9475)">
						<stop  offset="0" style="stop-color:#B37CFF"/>
						<stop  offset="1" style="stop-color:#F895E7"/>
					</linearGradient>
					<path style="fill:url(#SVGID_00000020362553588166740220000003513892277124087729_);" d="M1901.191,1100.02
						c-2.531-2.81-2.337-7.146,0.45-9.723c2.807-2.596,7.193-2.426,9.788,0.386c7.818,8.46,16.218,16.514,24.969,23.939
						c2.876,2.486,3.28,6.847,0.801,9.767c-2.478,2.919-6.849,3.273-9.767,0.801c-9.173-7.791-17.983-16.231-26.177-25.099
						C1901.234,1100.068,1901.212,1100.042,1901.191,1100.02z M1878.743,1072.592c-0.168-0.186-0.322-0.379-0.472-0.585
						c-7.069-9.772-13.614-20.074-19.457-30.618c-1.851-3.35-0.646-7.562,2.702-9.415c3.35-1.861,7.568-0.624,9.42,2.697
						c5.574,10.062,11.82,19.891,18.563,29.219c2.243,3.098,1.546,7.43-1.553,9.67
						C1885.045,1075.657,1881.079,1075.186,1878.743,1072.592z M1955.137,1145.777c-2.055-2.283-2.405-5.745-0.641-8.436
						c2.095-3.194,6.389-4.087,9.589-1.989c9.64,6.319,19.74,12.105,30.031,17.195c3.428,1.715,4.833,5.853,3.132,9.283
						c-1.693,3.427-5.853,4.834-9.283,3.138c-10.787-5.337-21.376-11.406-31.477-18.033
						C1955.977,1146.599,1955.526,1146.209,1955.137,1145.777z M1844.481,1010.658c-0.527-0.585-0.963-1.271-1.277-2.045
						c-4.515-11.193-8.383-22.778-11.492-34.431c-0.989-3.697,1.209-7.494,4.907-8.483c3.687-0.98,7.486,1.216,8.478,4.907
						c2.968,11.111,6.656,22.153,10.958,32.826c1.429,3.548-0.287,7.587-3.835,9.016
						C1849.447,1013.565,1846.374,1012.76,1844.481,1010.658z M2018.539,1177.133c-1.641-1.823-2.263-4.463-1.392-6.935
						c1.269-3.615,5.225-5.511,8.833-4.244c10.845,3.814,22.036,7.002,33.272,9.471c3.744,0.821,6.101,4.521,5.277,8.258
						c-0.823,3.737-4.521,6.101-8.257,5.278c-11.778-2.595-23.515-5.934-34.886-9.929
						C2020.252,1178.632,2019.288,1177.965,2018.539,1177.133z M2087.615,1192.365c-1.256-1.395-1.943-3.29-1.751-5.302
						c0.367-3.808,3.752-6.601,7.56-6.234c11.473,1.104,23.111,1.522,34.587,1.244c3.83-0.094,7.006,2.937,7.095,6.758
						c0.094,3.825-2.93,6.998-6.753,7.091c-12.035,0.294-24.235-0.142-36.256-1.299
						C2090.304,1194.451,2088.733,1193.607,2087.615,1192.365z M2158.358,1190.611c-0.883-0.98-1.498-2.22-1.7-3.626
						c-0.559-3.785,2.062-7.306,5.849-7.862c11.4-1.666,22.798-4.054,33.872-7.092c3.684-1.005,7.501,1.162,8.51,4.851
						c1.011,3.691-1.157,7.501-4.851,8.514c-11.612,3.181-23.566,5.688-35.523,7.442
						C2162.132,1193.185,2159.856,1192.275,2158.358,1190.611z"/>
					
						<linearGradient id="SVGID_00000101787933325240750810000014766954205662598272_" gradientUnits="userSpaceOnUse" x1="3702.1567" y1="-660.2253" x2="3730.0576" y2="-660.2253" gradientTransform="matrix(0.6691 0.7431 -0.7431 0.6691 -1146.6945 -1390.9475)">
						<stop  offset="0" style="stop-color:#B37CFF"/>
						<stop  offset="1" style="stop-color:#F895E7"/>
					</linearGradient>
					<path style="fill:url(#SVGID_00000101787933325240750810000014766954205662598272_);" d="M1826.155,941.966
						c-0.894-0.993-1.51-2.254-1.709-3.678c-0.818-5.873-1.463-11.796-1.926-17.608c-0.301-3.813,2.545-7.153,6.36-7.457
						c3.807-0.291,7.146,2.547,7.456,6.36c0.438,5.542,1.056,11.193,1.833,16.798c0.527,3.79-2.121,7.29-5.909,7.815
						C1829.896,944.523,1827.642,943.617,1826.155,941.966z"/>
				</g>
				<g>
					
						<linearGradient id="SVGID_00000027605530092831330850000008842656345887184306_" gradientUnits="userSpaceOnUse" x1="5758.3052" y1="-78.1794" x2="3407.5039" y2="-1110.2363" gradientTransform="matrix(0.6691 0.7431 -0.7431 0.6691 -1146.6945 -1390.9475)">
						<stop  offset="0" style="stop-color:#A737D5"/>
						<stop  offset="1" style="stop-color:#EF497A"/>
					</linearGradient>
					<path style="fill:url(#SVGID_00000027605530092831330850000008842656345887184306_);" d="M1896.518,886.359
						c-0.229,1.478,0.506,2.94,1.83,3.638l37.765,19.919c1.529,19.88,6.239,39.66,14.268,58.544l-24.326,35.055
						c-0.854,1.229-0.833,2.865,0.052,4.072l30.258,41.319c0.885,1.208,2.438,1.721,3.867,1.279l40.763-12.611
						c15.58,13.354,33.015,23.815,51.508,31.273l7.591,42.016c0.267,1.472,1.438,2.614,2.917,2.843l50.613,7.821
						c1.48,0.228,2.941-0.507,3.639-1.83l19.919-37.765c19.881-1.529,39.661-6.239,58.545-14.268l35.055,24.327
						c1.23,0.853,2.865,0.833,4.072-0.051l41.32-30.259c1.208-0.884,1.721-2.438,1.278-3.867l-12.611-40.763
						c13.354-15.58,23.815-33.015,31.272-51.507l42.018-7.592c1.472-0.266,2.614-1.437,2.842-2.915l7.821-50.614
						c0.229-1.479-0.507-2.94-1.83-3.638l-37.766-19.919c-1.528-19.88-6.239-39.66-14.267-58.544l24.326-35.056
						c0.853-1.229,0.833-2.864-0.052-4.072l-30.259-41.32c-0.884-1.207-2.437-1.72-3.867-1.278l-40.763,12.611
						c-15.58-13.354-33.016-23.815-51.508-31.273l-7.591-42.015c-0.266-1.473-1.438-2.615-2.916-2.844l-50.613-7.821
						c-1.479-0.228-2.94,0.506-3.639,1.83l-19.919,37.764c-19.881,1.529-39.661,6.24-58.544,14.268l-35.056-24.327
						c-1.228-0.853-2.865-0.832-4.072,0.053l-41.319,30.258c-1.208,0.885-1.721,2.437-1.279,3.867l12.611,40.763
						c-13.353,15.58-23.814,33.015-31.273,51.507l-42.016,7.592c-1.473,0.266-2.614,1.437-2.844,2.916L1896.518,886.359z"/>
					<path style="opacity:0.56;fill:#FFFFFF;" d="M2083.633,930.379c-7.479-8.305-12.082-18.746-13.15-30.073
						c-1.313-13.935,2.881-27.548,11.808-38.331c18.417-22.255,51.513-25.376,73.778-6.956c22.256,18.489,25.377,51.53,6.953,73.786
						c-8.925,10.785-21.516,17.448-35.449,18.758c-13.937,1.316-27.552-2.876-38.335-11.807
						C2087.226,934.087,2085.352,932.288,2083.633,930.379z M2151.32,869.612c-1.247-1.385-2.609-2.694-4.085-3.92
						c-16.377-13.548-40.721-11.253-54.273,5.12c-6.562,7.929-9.652,17.945-8.683,28.192c0.967,10.255,5.874,19.506,13.798,26.082
						l0,0c7.932,6.564,17.948,9.65,28.195,8.685c10.254-0.967,19.515-5.868,26.082-13.802
						C2164.68,905.076,2163.894,883.576,2151.32,869.612z"/>
					<path style="opacity:0.56;fill:#FFFFFF;" d="M2026.822,982.872c-2.933-3.258-5.723-6.691-8.371-10.298
						c-5.251-7.166-9.779-14.874-13.464-22.931c-0.163-0.363-0.326-0.726-0.489-1.09c-1.257-2.811-0.488-6.011,1.682-7.97
						c0.528-0.475,1.14-0.877,1.822-1.181c3.493-1.56,7.578,0.023,9.146,3.504c3.37,7.554,7.571,14.778,12.48,21.474l0.002,0.003
						c0.268,0.368,0.544,0.734,0.815,1.096c11.762,15.742,27.002,27.956,44.397,35.951c9.442,4.339,19.527,7.43,30.046,9.153
						c0.086,0.014,0.171,0.028,0.256,0.042c0.264,0.04,0.523,0.085,0.784,0.122c30.793,4.756,61.597-2.76,86.734-21.17
						c3.255-2.38,6.361-4.908,9.317-7.57c19.887-17.912,32.901-41.92,37.047-68.73c4.756-30.794-2.765-61.593-21.173-86.728
						c-18.406-25.114-45.507-41.602-76.298-46.365c-30.792-4.756-61.597,2.76-86.734,21.17c-3.2,2.34-6.268,4.839-9.194,7.473
						c-12.688,11.429-22.731,25.501-29.362,41.25c-0.41,0.97-1.011,1.799-1.748,2.457c-1.931,1.738-4.771,2.316-7.325,1.238
						c-3.522-1.495-5.183-5.544-3.695-9.078c7.422-17.621,18.659-33.37,32.848-46.155c3.278-2.952,6.708-5.745,10.286-8.364
						c28.129-20.598,62.589-29.008,97.043-23.684c34.448,5.326,64.771,23.715,85.358,51.868
						c20.598,28.124,29.011,62.582,23.682,97.036c-4.631,29.993-19.193,56.851-41.443,76.891c-3.303,2.974-6.781,5.805-10.418,8.469
						C2146.398,1040.631,2071.046,1031.988,2026.822,982.872z"/>
				</g>
			</g>
		</g>
		<g>
			
				<linearGradient id="SVGID_00000137101815997203955330000002026566949778675382_" gradientUnits="userSpaceOnUse" x1="1281.7208" y1="2400.9768" x2="3661.2993" y2="825.8846">
				<stop  offset="0" style="stop-color:#2B3582"/>
				<stop  offset="1" style="stop-color:#150E42"/>
			</linearGradient>
			<path style="fill:url(#SVGID_00000137101815997203955330000002026566949778675382_);" d="M610.707,2748.057
				c0,24.573,20.125,44.678,44.721,44.678H3073.76c24.596,0,44.721-20.105,44.721-44.678l20.123-1389.749
				c0-24.572-28.951-72.545-82.009-68.94l-2363.461-61.154c-30.862-0.798-60.701,11.08-82.555,32.863
				c-21.854,21.783-33.812,51.566-33.083,82.399L610.707,2748.057z"/>
			
				<linearGradient id="SVGID_00000136378078552880522080000015838882576295474108_" gradientUnits="userSpaceOnUse" x1="2526.2009" y1="1265.1675" x2="880.1211" y2="3087.9751">
				<stop  offset="0" style="stop-color:#53D8FF"/>
				<stop  offset="1" style="stop-color:#3840F7"/>
			</linearGradient>
			<path style="fill:url(#SVGID_00000136378078552880522080000015838882576295474108_);" d="M654.858,2705.194
				c0,23.269,19.039,42.309,42.309,42.309H3015.44c23.27,0,42.309-19.04,42.309-42.309l18.989-1261.626
				c-2.236-75.922-68.798-103.208-109.147-101.597L702.429,1281.2c-21.682-0.582-42.644,7.772-58.001,23.089
				c-15.356,15.317-23.802,36.279-23.258,57.962L654.858,2705.194z"/>
			<g>
				<path style="fill:#FFFFFF;" d="M3032.699,1932.455c-0.031,0-0.062,0-0.093,0c-3.426-0.038-6.161-2.211-6.109-4.857l1.501-78.951
					c0.05-2.617,2.816-4.714,6.195-4.714c0.031,0,0.062,0,0.093,0c3.426,0.038,6.161,2.211,6.109,4.857l-1.501,78.951
					C3038.844,1930.358,3036.078,1932.455,3032.699,1932.455z"/>
				<path style="fill:#FFFFFF;" d="M3036.381,1738.985c-0.031,0-0.062,0-0.093,0c-3.426-0.038-6.161-2.216-6.109-4.857
					l5.753-302.383c-0.108-17.961-7.173-32.302-21.002-42.527c-25.814-19.083-66.797-18.109-68.524-18.047l-723.996-14.981
					c-3.422-0.067-6.124-2.268-6.031-4.909c0.09-2.641,2.72-4.89,6.365-4.651l723.566,14.981
					c4.502-0.205,48.137-0.788,77.198,20.698c16.348,12.087,24.7,28.74,24.824,49.485l-5.756,302.478
					C3042.527,1736.889,3039.76,1738.985,3036.381,1738.985z"/>
			</g>
			
				<linearGradient id="SVGID_00000001660165784764451820000008039846639188191406_" gradientUnits="userSpaceOnUse" x1="1818.1538" y1="2739.938" x2="1365.3623" y2="828.1467">
				<stop  offset="0" style="stop-color:#2B3582"/>
				<stop  offset="1" style="stop-color:#150E42"/>
			</linearGradient>
			<path style="fill:url(#SVGID_00000001660165784764451820000008039846639188191406_);" d="M466.765,2908.102h2753.513
				c3.109,0,5.654-2.544,5.654-5.654v-110.801c0-3.109-2.544-5.654-5.654-5.654H466.765c-3.11,0-5.654,2.544-5.654,5.654v110.801
				C461.112,2905.557,463.656,2908.102,466.765,2908.102z"/>
			<path style="opacity:0.38;fill:#FFFFFF;" d="M2318.005,2698.06H727.324c-10.77,0-19.5-8.73-19.5-19.5V1669.056
				c0-10.77,8.73-19.5,19.5-19.5h1590.681c10.77,0,19.5,8.73,19.5,19.5V2678.56
				C2337.505,2689.329,2328.774,2698.06,2318.005,2698.06z"/>
			<path style="opacity:0.38;fill:#FFFFFF;" d="M2979.198,2689.028h-574.985c-7.456,0-13.501-6.045-13.501-13.501v-376.192
				c0-7.456,6.045-13.501,13.501-13.501h574.985c7.456,0,13.501,6.045,13.501,13.501v376.192
				C2992.699,2682.983,2986.655,2689.028,2979.198,2689.028z"/>
			<path style="opacity:0.38;fill:#FFFFFF;" d="M2979.198,2248.029h-574.985c-7.456,0-13.501-6.045-13.501-13.501v-372.402
				c0-7.456,6.045-13.501,13.501-13.501h574.985c7.456,0,13.501,6.045,13.501,13.501v372.402
				C2992.699,2241.984,2986.655,2248.029,2979.198,2248.029z"/>
			<path style="opacity:0.38;fill:#FFFFFF;" d="M2982.524,1810.398H2407.54c-7.456,0-13.501-6.045-13.501-13.501v-369.083
				c0-7.456,6.045-13.501,13.501-13.501h574.985c7.456,0,13.501,6.045,13.501,13.501v369.083
				C2996.025,1804.354,2989.981,1810.398,2982.524,1810.398z"/>
			<path style="opacity:0.38;fill:#FFFFFF;" d="M2294.721,1607.171H763.918c-25.469,0-46.116-20.647-46.116-46.116v-143.026
				c0-25.81,21.182-46.596,46.988-46.108l1530.802,28.925c25.125,0.475,45.245,20.978,45.245,46.108v114.101
				C2340.837,1586.524,2320.19,1607.171,2294.721,1607.171z"/>
			<path style="opacity:0.52;fill-rule:evenodd;clip-rule:evenodd;fill:#FFFFFF;" d="M2631.532,1690.007v-136.363
				c0-14.571,15.861-23.602,28.391-16.166l114.904,68.182c12.274,7.283,12.274,25.05,0,32.332l-114.904,68.182
				C2647.392,1713.609,2631.532,1704.578,2631.532,1690.007z"/>
			<path style="opacity:0.52;fill-rule:evenodd;clip-rule:evenodd;fill:#FFFFFF;" d="M2641.51,2132.138v-136.363
				c0-14.571,15.861-23.602,28.391-16.166l114.904,68.182c12.274,7.283,12.274,25.05,0,32.332l-114.904,68.182
				C2657.37,2155.74,2641.51,2146.708,2641.51,2132.138z"/>
			<path style="opacity:0.52;fill-rule:evenodd;clip-rule:evenodd;fill:#FFFFFF;" d="M2641.511,2561.515v-136.363
				c0-14.571,15.861-23.602,28.391-16.166l114.904,68.181c12.274,7.283,12.274,25.05,0,32.333l-114.904,68.182
				C2657.372,2585.117,2641.511,2576.085,2641.511,2561.515z"/>
			<g>
				<g>
					<path style="fill:#FFFFFF;" d="M2237.186,1586.075c39.904-11.566,62.704-53.885,50.926-94.522s-53.675-64.203-93.579-52.637
						c-39.904,11.566-62.704,53.885-50.925,94.522C2155.386,1574.075,2197.283,1597.641,2237.186,1586.075z M2234.054,1575.267
						c-34.042,9.867-69.785-10.238-79.833-44.905c-10.048-34.667,9.403-70.77,43.445-80.637
						c34.042-9.867,69.784,10.238,79.833,44.905C2287.546,1529.297,2268.096,1565.4,2234.054,1575.267z"/>
				</g>
				<g>
					<path style="fill:#FFFFFF;" d="M2274.829,1549.154l91.474,57.38c3.837,2.407,4.896,8.047,2.298,12.241l-0.427,0.689
						c-2.298,3.711-6.782,4.739-9.993,2.29l-86.985-66.345L2274.829,1549.154z"/>
				</g>
			</g>
			<path style="opacity:0.76;fill:#FFFFFF;" d="M2057.289,1547.301H858.55c-16.995,0-30.631-13.396-30.131-29.603l1.682-54.546
				c0.492-15.95,14.501-28.468,31.216-27.894l1197.726,41.148c16.774,0.576,29.823,14.112,29.025,30.107l-0.669,13.398
				C2086.634,1535.244,2073.38,1547.301,2057.289,1547.301z"/>
		</g>
		
			<linearGradient id="SVGID_00000048470447950722458800000005303119488837634751_" gradientUnits="userSpaceOnUse" x1="1294.1421" y1="1232.7863" x2="1066.9226" y2="1692.2755">
			<stop  offset="0" style="stop-color:#FDF53F"/>
			<stop  offset="1" style="stop-color:#D93C65"/>
		</linearGradient>
		<path style="fill:url(#SVGID_00000048470447950722458800000005303119488837634751_);" d="M1225.91,1326.2
			c-5.911,0.23-121.359,121.602-121.359,121.602l77.572,25.958l-76.975,116.282l160.039-130.317l-75.576-41.525l97.229-83.875
			L1225.91,1326.2z"/>
		
			<linearGradient id="SVGID_00000106121955318788340020000014664485619989815731_" gradientUnits="userSpaceOnUse" x1="993.2529" y1="987.2927" x2="801.3775" y2="1820.4326">
			<stop  offset="0" style="stop-color:#FDF53F"/>
			<stop  offset="1" style="stop-color:#D93C65"/>
		</linearGradient>
		<path style="fill:url(#SVGID_00000106121955318788340020000014664485619989815731_);" d="M860.498,1175.32
			c-5.86,5.115-23.813,224.63-23.813,224.63l100.815-37.472l17.217,182.546l56.203-265.479l-111.623,19.893l30.263-166.101
			L860.498,1175.32z"/>
		<g>
			<g>
				<g>
					
						<linearGradient id="SVGID_00000161632518878864370180000012673489135976961667_" gradientUnits="userSpaceOnUse" x1="-2197.8359" y1="3123.9966" x2="-1740.4537" y2="4132.6362" gradientTransform="matrix(0.9982 0.0603 -0.0407 0.674 5174.9619 398.3538)">
						<stop  offset="0" style="stop-color:#A737D5"/>
						<stop  offset="0.0451" style="stop-color:#AA38D1"/>
						<stop  offset="1" style="stop-color:#EF497A"/>
					</linearGradient>
					<path style="fill:url(#SVGID_00000161632518878864370180000012673489135976961667_);" d="M2959.119,2963.22
						c0,0-188.092-434.521-45.685-892.296c0.93-2.989,6.22-2.415,6.609,0.724C2954.375,2348.515,2964.611,2648.365,2959.119,2963.22
						z"/>
					<path style="opacity:0.5;fill:#FFFFFF;" d="M2958.371,2954.072c-1.054,0-2.024-0.693-2.323-1.76
						c-33.368-118.55-46.06-319.995-50.83-468.107c-5.166-160.398-2.418-294.541-2.39-295.876c0.028-1.331,0.915-2.378,2.468-2.364
						c1.333,0.028,2.392,1.132,2.364,2.468s-2.774,135.369,2.387,295.64c4.763,147.839,17.414,348.85,50.653,466.928
						c0.361,1.283-0.387,2.618-1.673,2.982C2958.81,2954.043,2958.588,2954.072,2958.371,2954.072z"/>
				</g>
				<g>
					
						<linearGradient id="SVGID_00000065783020819864715430000017464166877755697572_" gradientUnits="userSpaceOnUse" x1="-1960.3866" y1="2459.7527" x2="-1509.6406" y2="3453.7578" gradientTransform="matrix(0.988 0.1543 -0.1266 0.8104 5239.6157 485.2058)">
						<stop  offset="0" style="stop-color:#A737D5"/>
						<stop  offset="0.0451" style="stop-color:#AA38D1"/>
						<stop  offset="1" style="stop-color:#EF497A"/>
					</linearGradient>
					<path style="fill:url(#SVGID_00000065783020819864715430000017464166877755697572_);" d="M3002.192,2892.406
						c0,0-116.195-533.144,103.402-1072.656c1.434-3.523,6.651-2.491,6.516,1.297
						C3100.267,2155.189,3060.383,2515.314,3002.192,2892.406z"/>
					<path style="opacity:0.5;fill:#FFFFFF;" d="M3003.374,2880.91c-1.231,0-2.283-0.939-2.401-2.189
						c-26.152-275.881,73.351-912.672,74.358-919.074c0.208-1.312,1.427-2.227,2.762-2.01c1.319,0.208,2.22,1.444,2.012,2.765
						c-1.007,6.393-100.418,642.589-74.325,917.866c0.127,1.326-0.847,2.505-2.175,2.633
						C3003.527,2880.905,3003.449,2880.91,3003.374,2880.91z"/>
				</g>
				<g>
					
						<linearGradient id="SVGID_00000122715157280055121410000002767704527560688559_" gradientUnits="userSpaceOnUse" x1="-1633.8309" y1="2923.0037" x2="-1185.6185" y2="3911.4219" gradientTransform="matrix(0.9571 0.2897 -0.2008 0.6634 5237.4668 968.2844)">
						<stop  offset="0" style="stop-color:#A737D5"/>
						<stop  offset="0.0451" style="stop-color:#AA38D1"/>
						<stop  offset="1" style="stop-color:#EF497A"/>
					</linearGradient>
					<path style="fill:url(#SVGID_00000122715157280055121410000002767704527560688559_);" d="M3020.63,3036.968
						c0,0-55.668-465.095,220.873-883.642c1.806-2.733,6.842-1.061,6.29,2.096C3199.097,2433.83,3119.839,2729.699,3020.63,3036.968
						z"/>
					<path style="opacity:0.5;fill:#FFFFFF;" d="M3023.341,3027.899c-0.017,0-0.033,0-0.05,0c-1.333-0.028-2.392-1.132-2.366-2.463
						c2.477-123.126,49.999-323.113,89.43-469.197c42.703-158.2,85.37-289.021,85.797-290.323c0.413-1.269,1.779-1.963,3.045-1.547
						c1.269,0.415,1.96,1.779,1.545,3.048c-0.425,1.302-43.059,132.024-85.729,290.106
						c-39.358,145.815-86.793,345.378-89.258,468.008C3025.73,3026.847,3024.652,3027.899,3023.341,3027.899z"/>
				</g>
			</g>
			
				<linearGradient id="SVGID_00000111889740062054584170000009498562235397098678_" gradientUnits="userSpaceOnUse" x1="-1701.392" y1="3267.0654" x2="-889.8634" y2="2013.5449" gradientTransform="matrix(-1 0 0 1 1574.4001 0)">
				<stop  offset="0" style="stop-color:#CB236D"/>
				<stop  offset="1" style="stop-color:#4C246D"/>
			</linearGradient>
			<path style="fill:url(#SVGID_00000111889740062054584170000009498562235397098678_);" d="M2879.432,2779.557h255.646
				c19.135,0,33.448,18.01,29.896,36.812c-15.264,80.789-46.18,152.166-78.314,211.879c-7.179,13.34-21.079,21.859-36.229,21.859
				h-83.42c-15.382,0-29.488-8.364-36.896-21.844c-40.109-72.983-59.712-145.404-76.068-216.268
				C2850.278,2795.668,2862.676,2779.557,2879.432,2779.557z"/>
		</g>
		<g>
			<g>
				
					<linearGradient id="SVGID_00000010297807985000611790000003114839361885603996_" gradientUnits="userSpaceOnUse" x1="1147.3854" y1="2419.0298" x2="531.3694" y2="3489.4841">
					<stop  offset="0" style="stop-color:#CB236D"/>
					<stop  offset="1" style="stop-color:#4C246D"/>
				</linearGradient>
				<path style="fill:url(#SVGID_00000010297807985000611790000003114839361885603996_);" d="M1077.916,2314.85l-196.031-67.707
					c0,0-66.596,139.725-70.397,186.567c-3.206,39.518,5.592,78.126,5.333,84.934l-11.886,238.888
					c-1.064,9.647-4.217,18.948-9.241,27.253l-122.92,210.264c-4.427,6.856-14.737,18.75-9.673,25.149
					c5.833,7.373,4.879,20.565,18.378,26.116c5.082,2.089,28.806-21.727,32.427-25.859l183.498-209.423
					c6.037-6.89,10.34-15.121,12.55-24.01l52.51-195.37c33.266,97.826,72.734,421.526,79.807,486.582
					c0.74,6.811,3.989,78.972,10.813,79.578c12.782,1.136,24.587-2.814,35.244-4.39c7.231-1.073,4.781-55.781,5.252-63.077
					C1119.379,2690.228,1077.916,2314.85,1077.916,2314.85z"/>
				
					<linearGradient id="SVGID_00000057828366418012884130000016070145984221674112_" gradientUnits="userSpaceOnUse" x1="-1240.6166" y1="2555.2991" x2="-1414.7249" y2="3317.5066" gradientTransform="matrix(1 0 0 1 2020.1289 0)">
					<stop  offset="0" style="stop-color:#2B3582"/>
					<stop  offset="1" style="stop-color:#150E42"/>
				</linearGradient>
				<path style="fill:url(#SVGID_00000057828366418012884130000016070145984221674112_);" d="M662.644,3011.609
					c0,0-59.514,9.556-45.004,54.051c14.509,44.494,36.756,126.712,65.774,110.269c29.018-16.444-15.706-112.676,7.393-134.075
					C663.101,3020.198,662.644,3011.609,662.644,3011.609z"/>
				
					<linearGradient id="SVGID_00000075161377552526869600000015213427423767775401_" gradientUnits="userSpaceOnUse" x1="-1083.2324" y1="3039.7063" x2="-581.627" y2="3541.3115" gradientTransform="matrix(1 0 0 1 2020.1289 0)">
					<stop  offset="0" style="stop-color:#2B3582"/>
					<stop  offset="1" style="stop-color:#150E42"/>
				</linearGradient>
				<path style="fill:url(#SVGID_00000075161377552526869600000015213427423767775401_);" d="M1050.976,3152.714
					c0,0-38.691,56.101,0,66.741c38.69,10.639,116.072,38.426,137.351,17.278c21.28-21.148-98.308-87.73-98.308-87.73
					C1075.219,3157.261,1061.468,3161.394,1050.976,3152.714z"/>
			</g>
			
				<linearGradient id="SVGID_00000116215948721438919910000016095725556814931587_" gradientUnits="userSpaceOnUse" x1="-2445.3484" y1="1876.5061" x2="-2418.8101" y2="1749.1221" gradientTransform="matrix(0.8529 0.9823 0.7551 -0.6556 900.5223 6895.394)">
				<stop  offset="0" style="stop-color:#F9B776"/>
				<stop  offset="1" style="stop-color:#F47960"/>
			</linearGradient>
			<path style="fill:url(#SVGID_00000116215948721438919910000016095725556814931587_);" d="M1084.585,2047.194
				c0,0,358.597-120.176,84.536-228.031c0,0,14.312-104.034,16.405-122.009c-7.16-0.749-31.622,9.631-37.309,39.222
				c-5.423,28.216-21.013,42.884-21.013,42.884s-5.03-30.443-21.43-29.891l5.907,52.042c0,0,10.222,36.45,29.352,38.452
				c8.221,2.669,184.392,74.831-41.692,106.911c0,0-32.261-6.518-33.993-0.022C1060.076,1966.531,1069.69,2017.55,1084.585,2047.194
				z"/>
			
				<linearGradient id="SVGID_00000154409780746931087490000014890924854841855934_" gradientUnits="userSpaceOnUse" x1="1063.625" y1="2113.9092" x2="482.1232" y2="2939.4329">
				<stop  offset="0" style="stop-color:#FDF53F"/>
				<stop  offset="1" style="stop-color:#D93C65"/>
			</linearGradient>
			<path style="fill:url(#SVGID_00000154409780746931087490000014890924854841855934_);" d="M798.32,2457.73
				c101.057-264.859,37.562-475.761,37.562-475.761c71.646-98.763,196.575-74.93,196.575-74.93s115.021,100.807,100.311,168.201
				c-27.512,126.047-24.988,431.238-24.988,431.238S861.179,2526.321,798.32,2457.73z"/>
			
				<linearGradient id="SVGID_00000166676648066923452090000003295231296738220437_" gradientUnits="userSpaceOnUse" x1="-1664.811" y1="3153.603" x2="-1684.5226" y2="2995.9099" gradientTransform="matrix(0.8892 0.4574 -0.4574 0.8892 3886.8235 -71.659)">
				<stop  offset="0" style="stop-color:#F9B776"/>
				<stop  offset="1" style="stop-color:#F47960"/>
			</linearGradient>
			<path style="fill:url(#SVGID_00000166676648066923452090000003295231296738220437_);" d="M969.78,1816.448l-24.098,84.459
				c-9.19,10.637,2.909,14.346,16.383,18.349c22.066,6.555,52.01,12.081,68.729,0.887c1.702-1.139,3.068-2.714,4.245-4.39v-59.797
				c4.95-7.05-10.532-7.91-15.938-14.617l-19.651-24.383C991.885,1807.567,977.663,1807.324,969.78,1816.448z"/>
			<g>
				<path style="fill:#FFFFFF;" d="M1096.979,1729.778c2.019-0.918,3.983-2.019,5.881-3.359
					c12.792-9.038,17.937-25.537,19.677-41.103c0.95-8.497,1.083-17.383-2.215-25.271c-2.266-5.42-6.04-10.079-10.152-14.274
					c-8.914-9.094-19.947-16.493-32.376-19.265c-4.698-1.048-9.704-1.488-13.759-4.083c-3.197-2.046-5.459-5.223-7.918-8.114
					c-12.22-14.366-30.872-22.632-49.706-23.616c-18.834-0.984-37.709,4.978-53.515,15.268c-6.672,4.344-13.152,9.278-20.84,11.733
					c-7.188,2.295-12.675-0.015-19.944-1.981c-35.45-9.587-68.246,8.746-85.595,39.107c-6.718,11.756-10.195,24.918-11.011,38.381
					c-0.915,15.09,4.552,27.639-4.617,41.535c-6.213,9.416-15.032,17.106-19.912,27.277c-5.056,10.539-4.926,23.213-0.426,33.918
					c5.732,13.634,18.414,18.708,29.941,26.83c3.569,2.515,7.259,5.297,8.931,9.33c3.147,7.588-1.957,15.89-2.845,24.056
					c-1.161,10.672,5.213,20.981,13.559,27.732c13.964,11.295,33.298,14.564,50.982,11.427c39.399-6.99,64.335-39.186,87.229-69.167
					c11.779-15.425,23.556-30.851,35.336-46.276c4.343-5.687,8.706-14.309,14.327-18.664c5.17-4.005,12.832-5.886,18.424-9.722
					c8.954-6.141,16.633-14.549,27.319-16.211C1081.758,1734.019,1089.716,1733.081,1096.979,1729.778z"/>
				<g>
					
						<linearGradient id="SVGID_00000116232657694056022340000008785573869247998868_" gradientUnits="userSpaceOnUse" x1="79.7052" y1="2528.1912" x2="299.7868" y2="2136.52" gradientTransform="matrix(-0.9136 -0.5081 -0.486 0.8739 2323.615 -234.2647)">
						<stop  offset="0" style="stop-color:#F9B776"/>
						<stop  offset="1" style="stop-color:#F47960"/>
					</linearGradient>
					<path style="fill:url(#SVGID_00000116232657694056022340000008785573869247998868_);" d="M1063.516,1708.268
						c0,0,28.194,34.919,24.959,98.94c-3.237,64.02-34.613,76.957-59.58,67.24c-24.966-9.718-59.382-29.499-78.008-82.38
						C932.26,1739.186,1025.929,1664.558,1063.516,1708.268z"/>
					<path style="fill:#FFFFFF;" d="M994.764,1781.337c-0.46-0.014,7.969-25.778,8.732-27.412
						c5.079-10.876,13.419-23.472,25.954-26.462c13.474-3.214,43.277,5.427,52.456,14.71c17.498-4.304,22.938-11.043,31.612-26.838
						c21.654-39.432-13.344-81.33-45.357-87.118c-30.651-5.542-72.37,22.317-94.974,43.679
						c-46.138,43.603-68.691,77.426-54.971,118.201c13.719,40.775,44.535,28.178,44.535,28.178s-30.516-53.734,2.308-60.119
						c15.82-3.077,24.455,23.018,24.455,23.018L994.764,1781.337z"/>
				</g>
			</g>
			
				<linearGradient id="SVGID_00000109736058260708951370000010564878132961773485_" gradientUnits="userSpaceOnUse" x1="-1802.2432" y1="3214.9124" x2="-1968.3578" y2="2865.5825" gradientTransform="matrix(0.8892 0.4574 -0.4574 0.8892 3886.8235 -71.659)">
				<stop  offset="0" style="stop-color:#F9B776"/>
				<stop  offset="1" style="stop-color:#F47960"/>
			</linearGradient>
			<path style="fill:url(#SVGID_00000109736058260708951370000010564878132961773485_);" d="M886.664,1739.306
				c0,0-287.119,126.965-9.612,201.574c23.74,39.972,8.537,90.935-0.872,111.548c-3.567,7.814-12.856,11.152-20.612,7.462
				c-70.203-33.397-379.451-197.14-7.775-332.043c5.401-1.96,9.588-6.275,11.491-11.696c4.324-12.317,33.492-35.325,42.093-49.95
				c9.582-16.293,53.405-40.346,67.336-28.509c9.503,8.075-4.215,24.577-11.621,34.609l-44.134,35.882
				c-8.641,11.705-3.468,10.407,9.926,16.089c0,0,9.332,1.399,9.087,3.855C931.2,1735.852,886.664,1739.306,886.664,1739.306z"/>
		</g>
		<g>
			<path style="fill:#FFFFFF;" d="M1575.251,2358.722c-134.188,0-243.356-109.17-243.356-243.355s109.169-243.355,243.356-243.355
				c134.187,0,243.355,109.169,243.355,243.355S1709.438,2358.722,1575.251,2358.722z M1575.251,1912.792
				c-111.701,0-202.576,90.875-202.576,202.575c0,111.7,90.875,202.575,202.576,202.575c111.699,0,202.574-90.875,202.574-202.575
				C1777.825,2003.667,1686.95,1912.792,1575.251,1912.792z"/>
			<path style="fill-rule:evenodd;clip-rule:evenodd;fill:#FFFFFF;" d="M1499.016,2209.084v-174.955
				c0-18.694,20.349-30.281,36.426-20.741l147.423,87.478c15.748,9.344,15.748,32.139,0,41.482l-147.423,87.479
				C1519.365,2239.366,1499.016,2227.779,1499.016,2209.084z"/>
		</g>
		<g>
			
				<linearGradient id="SVGID_00000136411631203964013380000005566802015379826827_" gradientUnits="userSpaceOnUse" x1="-1249.4415" y1="1525.7749" x2="-1145.3553" y2="1786.8729" gradientTransform="matrix(1 0 0 1 3460.0818 0)">
				<stop  offset="0" style="stop-color:#2B3582"/>
				<stop  offset="1" style="stop-color:#150E42"/>
			</linearGradient>
			<path style="fill:url(#SVGID_00000136411631203964013380000005566802015379826827_);" d="M2272.357,1666.224
				c0,0,35.09,17.068,41.542,36.675c5.177,15.732,43.977,17.76,47.81,48.701c1.979,15.975,13.8,28.768,29.711,31.207
				c39.628,6.074,100.698,26.652,110.47,95.455c7.458,52.517-19.314,72.43-47.41,79.323c-20.636,5.062-34.35,25.135-30.176,45.969
				c4.004,19.983-1.967,43.084-36.586,61.352c-77.579,40.936-155.054-96.98-155.054-96.98l-15.877-240.81L2272.357,1666.224z"/>
			
				<linearGradient id="SVGID_00000129175349513561765400000002716900217964296098_" gradientUnits="userSpaceOnUse" x1="-1602.9625" y1="1535.088" x2="-1410.6721" y2="1972.592" gradientTransform="matrix(0.9776 -0.2106 0.2106 0.9776 3209.6619 -113.5247)">
				<stop  offset="0" style="stop-color:#F9B776"/>
				<stop  offset="1" style="stop-color:#F47960"/>
			</linearGradient>
			<path style="fill:url(#SVGID_00000129175349513561765400000002716900217964296098_);" d="M1850.226,1609.136
				c0,0,154.897,245.005,339.089,292.328c0,0-35.89,102.222-63.592,113.921c0,0-226.607-189.078-284.842-371.435L1850.226,1609.136z
				"/>
			
				<linearGradient id="SVGID_00000096768747920122507930000016266249852193750192_" gradientUnits="userSpaceOnUse" x1="-868.9471" y1="3197.3513" x2="-780.686" y2="3197.3513" gradientTransform="matrix(1 0 0 1 3460.0818 0)">
				<stop  offset="0" style="stop-color:#A737D5"/>
				<stop  offset="1" style="stop-color:#EF497A"/>
			</linearGradient>
			<path style="fill:url(#SVGID_00000096768747920122507930000016266249852193750192_);" d="M2591.24,3176.184l5.021,41.27
				c0.952,7.829,7.116,14.02,14.953,14.915c13.23,1.511,34.461,3.061,55.234,0.865c9.118-0.964,15.037-10.196,12.26-18.934
				c-5.064-15.932-14.328-39.848-27.685-53.922h-45.781C2596.776,3160.377,2590.218,3167.781,2591.24,3176.184z"/>
			
				<linearGradient id="SVGID_00000110438523478726311440000008008946503566459038_" gradientUnits="userSpaceOnUse" x1="-1241.8956" y1="3545.4045" x2="-1114.8816" y2="2060.9265" gradientTransform="matrix(1 0 0 1 3460.0818 0)">
				<stop  offset="0" style="stop-color:#F9B776"/>
				<stop  offset="1" style="stop-color:#F47960"/>
			</linearGradient>
			<path style="fill:url(#SVGID_00000110438523478726311440000008008946503566459038_);" d="M2232.663,2692.729l-7.727,45.455
				c0,0,25.877,262.111,30.48,366.956c0.722,16.438-3.531,32.682-12.158,46.692l-44.996,73.068l114.355-67.48l2.277-13.955
				l-18.72-25.739l24.52-293.63c1.44-17.249-2.119-34.549-10.252-49.828l-23.654-44.437L2232.663,2692.729z"/>
			
				<linearGradient id="SVGID_00000141426053430843402870000006559881351871633587_" gradientUnits="userSpaceOnUse" x1="-1279.0004" y1="3181.2371" x2="-1136.1871" y2="3181.2371" gradientTransform="matrix(1 0 0 1 3460.0818 0)">
				<stop  offset="0" style="stop-color:#A737D5"/>
				<stop  offset="1" style="stop-color:#EF497A"/>
			</linearGradient>
			<path style="fill:url(#SVGID_00000141426053430843402870000006559881351871633587_);" d="M2190.731,3235.486h36.493
				c6.831,0,13.273-3.136,17.438-8.549c11.377-14.782,34.947-43.623,46.218-44.376c15.172-1.013,13.231,52.925,13.231,52.925h8.505
				l10.773-67.025c2.711-16.864-5.676-33.57-20.819-41.471c0,0-3.469,25.649-22.274,36.995s-76.528,51.975-76.528,51.975
				s-7.07-1.008-14.832,0.395C2177.422,3218.435,2179.031,3235.486,2190.731,3235.486z"/>
			
				<linearGradient id="SVGID_00000045602241713955961820000014447575510890161339_" gradientUnits="userSpaceOnUse" x1="-986.399" y1="3567.4929" x2="-859.3515" y2="2082.6248" gradientTransform="matrix(1 0 0 1 3460.0818 0)">
				<stop  offset="0" style="stop-color:#F9B776"/>
				<stop  offset="1" style="stop-color:#F47960"/>
			</linearGradient>
			<path style="fill:url(#SVGID_00000045602241713955961820000014447575510890161339_);" d="M2389.293,2714.319
				c0,0,151.595,287.56,175.692,353.215c24.098,65.655,32.54,120.426,32.863,125.612c0.505,8.104,10.585,15.878,38.371,15.878
				c14.34,0,21.362-5.748,24.801-11.312c2.934-4.747,3.085-10.686,0.613-15.689c-8.769-17.747-36.597-74.46-46.904-100.183
				c-12.305-30.712-38.774-169.893-53.291-218.284c-14.517-48.391-30.925-100.884-94.141-149.236
				C2467.297,2714.319,2423.902,2671.815,2389.293,2714.319z"/>
			
				<linearGradient id="SVGID_00000097489652804221169410000016606996467681450683_" gradientUnits="userSpaceOnUse" x1="-1238.7579" y1="2048.4001" x2="-1175.248" y2="2637.6348" gradientTransform="matrix(1 0 0 1 3460.0818 0)">
				<stop  offset="0" style="stop-color:#FDF53F"/>
				<stop  offset="1" style="stop-color:#D93C65"/>
			</linearGradient>
			<path style="fill:url(#SVGID_00000097489652804221169410000016606996467681450683_);" d="M2293.528,2243.136
				c-39.104-165.702,59.959-259.421,59.959-259.421c-62.507-60-176.395-87.302-176.395-87.302s-108.673,79.45-95.781,141.637
				c7.556,36.448,76.387,218.317,76.387,218.317S2221.345,2286.49,2293.528,2243.136z"/>
			
				<linearGradient id="SVGID_00000131341031432647885100000004829805421716419472_" gradientUnits="userSpaceOnUse" x1="-888.9142" y1="2077.3274" x2="-1206.4668" y2="2585.4111" gradientTransform="matrix(1 0 0 1 3460.0818 0)">
				<stop  offset="0" style="stop-color:#CB236D"/>
				<stop  offset="1" style="stop-color:#4C246D"/>
			</linearGradient>
			<path style="fill:url(#SVGID_00000131341031432647885100000004829805421716419472_);" d="M2380.228,2325.17
				c-15.914-47.943-86.7-82.034-86.7-82.034c-72.183,43.353-135.83,13.231-135.83,13.231s-14.274,54.558-4.422,105.261
				c9.852,50.703,71.66,376.555,71.66,376.555c97.39,19.733,247.174-19.854,247.174-19.854
				C2410.077,2608.194,2396.142,2373.113,2380.228,2325.17z"/>
			
				<linearGradient id="SVGID_00000142855962059241676450000006727552126738259080_" gradientUnits="userSpaceOnUse" x1="-1255.8248" y1="2082.1538" x2="-1231.9656" y2="1907.6058" gradientTransform="matrix(1 0 0 1 3460.0818 0)">
				<stop  offset="0" style="stop-color:#F9B776"/>
				<stop  offset="1" style="stop-color:#F47960"/>
			</linearGradient>
			<path style="fill:url(#SVGID_00000142855962059241676450000006727552126738259080_);" d="M2248.137,1786.912l31.793,142.807
				c3.044,12.579-8.423,10.52-21.141,8.123c-20.827-3.926-47.669-12.013-56.643-28.219c-0.913-1.649-1.369-3.514-1.627-5.382
				l-13.659-99.026c-1.083-7.856,3.163-15.482,10.414-18.696l26.357-11.687C2233.78,1770.332,2245.526,1776.123,2248.137,1786.912z"
				/>
			<g>
				
					<linearGradient id="SVGID_00000173873257402979552430000017264937131117895860_" gradientUnits="userSpaceOnUse" x1="-1431.9167" y1="1725.9319" x2="-1223.7355" y2="1355.4391" gradientTransform="matrix(0.9809 -0.1943 0.1943 0.9809 3230.9917 -99.2406)">
					<stop  offset="0" style="stop-color:#F9B776"/>
					<stop  offset="1" style="stop-color:#F47960"/>
				</linearGradient>
				<path style="fill:url(#SVGID_00000173873257402979552430000017264937131117895860_);" d="M2187.241,1656.729
					c0,0-33.847,22.912-48.391,81.259c-14.544,58.348,9.092,79.277,33.319,77.994c24.228-1.282,59.356-8.775,89.793-50.634
					C2292.399,1723.49,2231.595,1628.732,2187.241,1656.729z"/>
				
					<linearGradient id="SVGID_00000133518733444002522780000000378856105590092930_" gradientUnits="userSpaceOnUse" x1="-1387.1455" y1="1403.2916" x2="-1283.0551" y2="1664.4003" gradientTransform="matrix(0.9809 -0.1943 0.1943 0.9809 3230.9917 -99.2406)">
					<stop  offset="0" style="stop-color:#2B3582"/>
					<stop  offset="1" style="stop-color:#150E42"/>
				</linearGradient>
				<path style="fill:url(#SVGID_00000133518733444002522780000000378856105590092930_);" d="M2231.269,1741.815
					c0,0,12.402-83.607-57.013-70.818l-14.036,14.613c0,0-33.976-38.264,3.624-67.188c37.6-28.924,89.777-21.517,118.644,31.14
					c28.867,52.657,39.344,89.658,15.148,122.378c-24.196,32.72-42.396,4.658-42.396,4.658s11.096-28.319,1.889-40.472
					c-9.207-12.152-21.086,7.067-21.086,7.067L2231.269,1741.815z"/>
				
					<linearGradient id="SVGID_00000141444110137752476650000009888604097443145090_" gradientUnits="userSpaceOnUse" x1="-1387.6036" y1="1750.8347" x2="-1179.4224" y2="1380.342" gradientTransform="matrix(0.9809 -0.1943 0.1943 0.9809 3230.9917 -99.2406)">
					<stop  offset="0" style="stop-color:#F9B776"/>
					<stop  offset="1" style="stop-color:#F47960"/>
				</linearGradient>
				<path style="fill:url(#SVGID_00000141444110137752476650000009888604097443145090_);" d="M2240.756,1748.975
					c0,0,6.123-43.015,28.092-30.718c21.969,12.297-7.917,40.182-19.9,49.67L2240.756,1748.975z"/>
			</g>
			<g>
				
					<linearGradient id="SVGID_00000136400205497334162880000003203505697430336177_" gradientUnits="userSpaceOnUse" x1="-1640.9626" y1="1551.7902" x2="-1448.6721" y2="1989.2944" gradientTransform="matrix(0.9776 -0.2106 0.2106 0.9776 3209.6619 -113.5247)">
					<stop  offset="0" style="stop-color:#F9B776"/>
					<stop  offset="1" style="stop-color:#F47960"/>
				</linearGradient>
				<path style="fill:url(#SVGID_00000136400205497334162880000003203505697430336177_);" d="M1851.291,1659.574
					c-0.469,5.054,18.325,8.547,24.306-12.999c-1.644-9.354-4.564-50.317-11.736-56.68
					c-38.199-33.894-106.315-72.022-106.315-72.022c-7.618,11.631,2.373,19.291,2.373,19.291l34.002,22.947
					c-3.547,11.748-8.723,22.134-9.308,35.546c-0.443,10.157,3.308,20.101,10.05,27.805c6.767,7.732,15.877,17.715,24.089,25.295
					C1834.294,1663.103,1851.291,1659.574,1851.291,1659.574z"/>
				
					<linearGradient id="SVGID_00000135682824084536046570000006083394939502113154_" gradientUnits="userSpaceOnUse" x1="439.697" y1="1607.8893" x2="491.4754" y2="1607.8893" gradientTransform="matrix(-1 0 0 1 2294.6487 0)">
					<stop  offset="0" style="stop-color:#F9B776"/>
					<stop  offset="1" style="stop-color:#F47960"/>
				</linearGradient>
				<path style="fill:url(#SVGID_00000135682824084536046570000006083394939502113154_);" d="M1832.821,1642.876l5.197-2.138
					c-0.69-1.682-17.008-41.332-24.899-49.58c-2.999-3.129-4.447-5.809-4.313-7.97c0.067-1.169,0.646-2.324,1.745-3.5l27.513,14.714
					l12.153,19.027l4.736-3.029l-12.94-20.267l-32.227-17.231l-1.455,1.184c-3.259,2.665-4.944,5.527-5.137,8.756
					c-0.237,3.846,1.678,7.836,5.857,12.205C1814.997,1601.258,1828.226,1631.677,1832.821,1642.876z"/>
			</g>
			<g>
				
					<linearGradient id="SVGID_00000051350903726024147320000000188918538286536076_" gradientUnits="userSpaceOnUse" x1="-2480.8274" y1="2190.3376" x2="-2709.6514" y2="2253.0522" gradientTransform="matrix(0.9988 -0.0494 0.0494 0.9988 4675.9155 -55.0328)">
					<stop  offset="0" style="stop-color:#2B3582"/>
					<stop  offset="1" style="stop-color:#150E42"/>
				</linearGradient>
				<path style="fill:url(#SVGID_00000051350903726024147320000000188918538286536076_);" d="M2258.095,2330.554
					c-0.217,0.011-0.434,0.016-0.653,0.015l-284.029-0.307c-7.021-0.006-12.707-5.644-12.7-12.591
					c0.007-6.95,5.725-12.69,12.728-12.566l284.029,0.307c7.021,0.006,12.707,5.644,12.7,12.591
					C2270.162,2324.734,2264.813,2330.226,2258.095,2330.554z"/>
				
					<linearGradient id="SVGID_00000175292386841261343580000000435136524954006460_" gradientUnits="userSpaceOnUse" x1="-2721.4236" y1="2109.2131" x2="-2882.8298" y2="2279.8096" gradientTransform="matrix(1 0 0 1 4717.3848 0)">
					<stop  offset="0" style="stop-color:#2B3582"/>
					<stop  offset="1" style="stop-color:#150E42"/>
				</linearGradient>
				<path style="fill:url(#SVGID_00000175292386841261343580000000435136524954006460_);" d="M1718.084,2075.398h236.541
					c17.45,0,33.332,9.963,40.775,25.58l109.353,229.427h-293.957c-11.245,0-21.348-6.798-25.481-17.146l-84.798-212.301
					C1695.616,2088.691,1704.753,2075.398,1718.084,2075.398z"/>
				
					<linearGradient id="SVGID_00000183236769313262805060000005264088576375635328_" gradientUnits="userSpaceOnUse" x1="-2819.2969" y1="2151.8521" x2="-2892.2576" y2="2261.7224" gradientTransform="matrix(1 0 0 1 4717.3848 0)">
					<stop  offset="0" style="stop-color:#53D8FF"/>
					<stop  offset="1" style="stop-color:#3840F7"/>
				</linearGradient>
				<path style="fill:url(#SVGID_00000183236769313262805060000005264088576375635328_);" d="M1884.73,2193.032
					c5.126,15.757,1.339,31.06-8.458,34.18c-9.797,3.12-21.895-7.124-27.021-22.881c-5.126-15.757-1.339-31.06,8.458-34.18
					S1879.604,2177.275,1884.73,2193.032z"/>
			</g>
			
				<linearGradient id="SVGID_00000111903174387738927200000004095574951181220789_" gradientUnits="userSpaceOnUse" x1="-347.9395" y1="2307.9143" x2="151.0534" y2="2099.1667" gradientTransform="matrix(-1 0 0 1 2294.6487 0)">
				<stop  offset="0" style="stop-color:#F9B776"/>
				<stop  offset="1" style="stop-color:#F47960"/>
			</linearGradient>
			<path style="fill:url(#SVGID_00000111903174387738927200000004095574951181220789_);" d="M2353.895,1984.057
				c38.754,39.107,87.924,212.447,63.529,241.399c-21.48,33.706-94.616,79.586-164.26,79.647h-102.753
				c43.177-45.875,72.905-57.512,108.315-25.432c28.095-12.004,64.524-58.507,88.84-79.27c9.547-8.152,11.8-22.058,5.415-32.867
				c-19.317-32.701-43.542-66.323-51.245-98.886C2300.081,2030.488,2328.321,1986.812,2353.895,1984.057z"/>
		</g>
	</g>
</g>
</svg>
