<?xml version="1.0" encoding="utf-8"?>
<!-- Generator: Adobe Illustrator 27.5.0, SVG Export Plug-In . SVG Version: 6.00 Build 0)  -->
<svg version="1.1" xmlns="http://www.w3.org/2000/svg" xmlns:xlink="http://www.w3.org/1999/xlink" x="0px" y="0px"
	 viewBox="0 0 750 500" style="enable-background:new 0 0 750 500;" xml:space="preserve">
<g id="BACKGROUND">
	<rect transform="matrix(-1 -1.224647e-16 1.224647e-16 -1 750 500)" style="fill:#EDEEF1;" width="750" height="500"/>
	
		<rect y="444.288" transform="matrix(-1 -1.224647e-16 1.224647e-16 -1 750 944.2884)" style="fill:#DCDEE2;" width="750" height="55.712"/>
	<g>
		<g style="opacity:0.5;">
			<g>
				<g>
					<g>
						<ellipse style="fill:#DCDEE2;" cx="705.998" cy="302.588" rx="10.803" ry="12.004"/>
					</g>
				</g>
			</g>
		</g>
		<g>
			<g>
				<g>
					<path style="fill:#DCDEE2;" d="M699.149,340.7c0,10.206-8.014,18.479-17.899,18.479c-9.886,0-17.899-8.273-17.899-18.479
						c0-10.206,8.014-18.48,17.899-18.48C691.135,322.22,699.149,330.493,699.149,340.7z"/>
				</g>
			</g>
			<g>
				<g>
					<path style="fill:#DCDEE2;" d="M286.744,58.157c0,10.206-8.014,18.479-17.899,18.479c-9.886,0-17.9-8.273-17.9-18.479
						c0-10.206,8.014-18.48,17.9-18.48C278.73,39.678,286.744,47.951,286.744,58.157z"/>
				</g>
			</g>
			<g>
				<g>
					<ellipse style="fill:#DCDEE2;" cx="224.511" cy="52.535" rx="9.72" ry="10.035"/>
				</g>
			</g>
			<g>
				<path style="fill:#DCDEE2;" d="M705.998,168.486c-0.01-69.426-56.001-145.5-125.685-150.096
					c-1.224-0.081-2.459-0.19-3.709-0.211c-118.392-2.004-107.55,75.329-198.292,86.839
					c-98.656,12.514-199.835-72.623-296.21,18.858C4.587,197.454-12.302,420.447,273.097,429.904
					C501.441,437.471,706.028,375.621,705.998,168.486z"/>
			</g>
		</g>
	</g>
</g>
<g id="OBJECTS">
	<g>
		<g>
			<path style="fill:#FFFFFF;" d="M131.139,22.723c0,1.609,1.305,2.914,2.914,2.914s2.914-1.305,2.914-2.914
				c0-1.61-1.305-2.915-2.914-2.915S131.139,21.113,131.139,22.723z"/>
			<path style="fill:#FFFFFF;" d="M109.555,22.723c0,1.609,1.305,2.914,2.915,2.914c1.61,0,2.914-1.305,2.914-2.914
				c0-1.61-1.305-2.915-2.914-2.915C110.86,19.808,109.555,21.113,109.555,22.723z"/>
			<path style="fill:#FFFFFF;" d="M87.972,22.723c0,1.609,1.305,2.914,2.914,2.914c1.61,0,2.914-1.305,2.914-2.914
				c0-1.61-1.305-2.915-2.914-2.915C89.276,19.808,87.972,21.113,87.972,22.723z"/>
			<path style="fill:#FFFFFF;" d="M66.388,22.723c0,1.609,1.305,2.914,2.914,2.914c1.61,0,2.915-1.305,2.915-2.914
				c0-1.61-1.305-2.915-2.915-2.915C67.693,19.808,66.388,21.113,66.388,22.723z"/>
			<path style="fill:#FFFFFF;" d="M44.804,22.723c0,1.609,1.305,2.914,2.914,2.914c1.61,0,2.914-1.305,2.914-2.914
				c0-1.61-1.305-2.915-2.914-2.915C46.109,19.808,44.804,21.113,44.804,22.723z"/>
			<path style="fill:#FFFFFF;" d="M23.221,22.723c0,1.609,1.305,2.914,2.914,2.914c1.61,0,2.915-1.305,2.915-2.914
				c0-1.61-1.305-2.915-2.915-2.915C24.526,19.808,23.221,21.113,23.221,22.723z"/>
			<path style="fill:#FFFFFF;" d="M131.139,40.833c0,1.61,1.305,2.914,2.914,2.914s2.914-1.305,2.914-2.914
				c0-1.61-1.305-2.914-2.914-2.914S131.139,39.223,131.139,40.833z"/>
			<path style="fill:#FFFFFF;" d="M109.555,40.833c0,1.61,1.305,2.914,2.915,2.914c1.61,0,2.914-1.305,2.914-2.914
				c0-1.61-1.305-2.914-2.914-2.914C110.86,37.918,109.555,39.223,109.555,40.833z"/>
			<path style="fill:#FFFFFF;" d="M87.972,40.833c0,1.61,1.305,2.914,2.914,2.914c1.61,0,2.914-1.305,2.914-2.914
				c0-1.61-1.305-2.914-2.914-2.914C89.276,37.918,87.972,39.223,87.972,40.833z"/>
			<path style="fill:#FFFFFF;" d="M66.388,40.833c0,1.61,1.305,2.914,2.914,2.914c1.61,0,2.915-1.305,2.915-2.914
				c0-1.61-1.305-2.914-2.915-2.914C67.693,37.918,66.388,39.223,66.388,40.833z"/>
			<path style="fill:#FFFFFF;" d="M44.804,40.833c0,1.61,1.305,2.914,2.914,2.914c1.61,0,2.914-1.305,2.914-2.914
				c0-1.61-1.305-2.914-2.914-2.914C46.109,37.918,44.804,39.223,44.804,40.833z"/>
			<path style="fill:#FFFFFF;" d="M23.221,40.833c0,1.61,1.305,2.914,2.914,2.914c1.61,0,2.915-1.305,2.915-2.914
				c0-1.61-1.305-2.914-2.915-2.914C24.526,37.918,23.221,39.223,23.221,40.833z"/>
			<path style="fill:#FFFFFF;" d="M131.139,58.942c0,1.61,1.305,2.915,2.914,2.915s2.914-1.305,2.914-2.915
				c0-1.61-1.305-2.914-2.914-2.914S131.139,57.333,131.139,58.942z"/>
			<path style="fill:#FFFFFF;" d="M109.555,58.942c0,1.61,1.305,2.915,2.915,2.915c1.61,0,2.914-1.305,2.914-2.915
				c0-1.61-1.305-2.914-2.914-2.914C110.86,56.028,109.555,57.333,109.555,58.942z"/>
			<path style="fill:#FFFFFF;" d="M87.972,58.942c0,1.61,1.305,2.915,2.914,2.915c1.61,0,2.914-1.305,2.914-2.915
				c0-1.61-1.305-2.914-2.914-2.914C89.276,56.028,87.972,57.333,87.972,58.942z"/>
			<path style="fill:#FFFFFF;" d="M66.388,58.942c0,1.61,1.305,2.915,2.914,2.915c1.61,0,2.915-1.305,2.915-2.915
				c0-1.61-1.305-2.914-2.915-2.914C67.693,56.028,66.388,57.333,66.388,58.942z"/>
			<path style="fill:#FFFFFF;" d="M44.804,58.942c0,1.61,1.305,2.915,2.914,2.915c1.61,0,2.914-1.305,2.914-2.915
				c0-1.61-1.305-2.914-2.914-2.914C46.109,56.028,44.804,57.333,44.804,58.942z"/>
			<path style="fill:#FFFFFF;" d="M23.221,58.942c0,1.61,1.305,2.915,2.914,2.915c1.61,0,2.915-1.305,2.915-2.915
				c0-1.61-1.305-2.914-2.915-2.914C24.526,56.028,23.221,57.333,23.221,58.942z"/>
		</g>
	</g>
	<line style="fill:none;stroke:#39393B;stroke-miterlimit:10;" x1="750" y1="442.213" x2="0" y2="442.213"/>
	<g>
		<polygon style="fill:#169B5B;" points="40.081,191.852 37.295,199.32 29.434,197.999 34.509,204.145 29.434,210.292 
			37.295,208.971 40.081,216.439 42.867,208.971 50.727,210.292 45.653,204.145 50.727,197.999 42.867,199.32 		"/>
		<polygon style="fill:#DF615C;" points="250.945,286.698 248.525,293.185 241.698,292.037 246.105,297.376 241.698,302.715 
			248.525,301.567 250.945,308.054 253.365,301.567 260.193,302.715 255.785,297.376 260.193,292.037 253.365,293.185 		"/>
	</g>
	<g>
		<g>
			<g>
				<g>
					<g>
						<ellipse style="fill:#DCDEE2;" cx="375" cy="52.957" rx="37.244" ry="36.781"/>
					</g>
				</g>
				<g>
					<g>
						<g>
							<ellipse style="fill:#FFFFFF;" cx="375" cy="52.957" rx="30.278" ry="29.902"/>
						</g>
					</g>
				</g>
			</g>
			<g>
				<g>
					<path style="fill:#DCDEE2;" d="M374.999,56.068c0.234,0,0.462-0.107,0.608-0.302l14.853-19.749
						c0.25-0.332,0.179-0.8-0.156-1.046c-0.335-0.247-0.81-0.178-1.06,0.155l-14.493,19.27l-16.471-7.139
						c-0.383-0.166-0.83,0.006-0.998,0.384c-0.168,0.378,0.006,0.82,0.389,0.986l17.024,7.379
						C374.794,56.047,374.897,56.068,374.999,56.068z"/>
				</g>
			</g>
		</g>
	</g>
	<g>
		<defs>
			<path id="SVGID_1_" d="M705.998,168.486c-0.01-69.426-56.001-145.5-125.685-150.096c-1.224-0.081-2.459-0.19-3.709-0.211
				c-118.392-2.004-107.55,75.329-198.292,86.839c-98.656,12.514-199.835-72.623-296.21,18.858
				C4.587,197.454-12.302,420.447,273.097,429.904C501.441,437.471,706.028,375.621,705.998,168.486z"/>
		</defs>
		<clipPath id="SVGID_00000144309771804449759310000012754809278089905577_">
			<use xlink:href="#SVGID_1_"  style="overflow:visible;"/>
		</clipPath>
		<g style="clip-path:url(#SVGID_00000144309771804449759310000012754809278089905577_);">
			<path style="fill:#EDEEF1;" d="M601.327,66.586h1.646c0,0,1.234,36.122,11.602,54.553H602.15h-12.425
				C600.093,102.708,601.327,66.586,601.327,66.586z"/>
			
				<rect x="576.745" y="177.318" transform="matrix(-1 -1.224647e-16 1.224647e-16 -1 1204.7529 375.3921)" style="fill:#EDEEF1;" width="51.262" height="20.756"/>
			
				<rect x="587.627" y="121.14" transform="matrix(-1 -1.224647e-16 1.224647e-16 -1 1204.7527 245.6116)" style="fill:#EDEEF1;" width="29.498" height="3.333"/>
			
				<rect x="587.627" y="127.311" transform="matrix(-1 -1.224647e-16 1.224647e-16 -1 1204.7527 275.357)" style="fill:#EDEEF1;" width="29.498" height="20.735"/>
			
				<rect x="585.899" y="124.472" transform="matrix(-1 -1.224647e-16 1.224647e-16 -1 1204.6705 251.783)" style="fill:#DCDEE2;" width="32.872" height="2.839"/>
			<path style="fill:#DCDEE2;" d="M591.118,144.922h1.932c0.284,0,0.515-0.231,0.515-0.515v-12.585c0-0.146-0.062-0.285-0.17-0.383
				l-0.966-0.872c-0.196-0.177-0.494-0.177-0.69,0l-0.966,0.872c-0.108,0.098-0.17,0.237-0.17,0.383v12.585
				C590.602,144.692,590.833,144.922,591.118,144.922z"/>
			<g>
				<path style="fill:#DCDEE2;" d="M583.366,195.094h1.932c0.285,0,0.515-0.231,0.515-0.515v-9.623c0-0.146-0.062-0.285-0.17-0.382
					l-0.966-0.872c-0.196-0.177-0.495-0.177-0.691,0l-0.966,0.872c-0.108,0.098-0.17,0.237-0.17,0.382v9.623
					C582.851,194.863,583.082,195.094,583.366,195.094z"/>
				<path style="fill:#DCDEE2;" d="M590.584,195.094h1.932c0.285,0,0.515-0.231,0.515-0.515v-9.623c0-0.146-0.062-0.285-0.17-0.382
					l-0.966-0.872c-0.196-0.177-0.495-0.177-0.691,0l-0.966,0.872c-0.108,0.098-0.17,0.237-0.17,0.382v9.623
					C590.069,194.863,590.299,195.094,590.584,195.094z"/>
				<path style="fill:#DCDEE2;" d="M597.802,195.094h1.932c0.284,0,0.515-0.231,0.515-0.515v-9.623c0-0.146-0.062-0.285-0.17-0.382
					l-0.966-0.872c-0.196-0.177-0.495-0.177-0.691,0l-0.966,0.872c-0.108,0.098-0.17,0.237-0.17,0.382v9.623
					C597.286,194.863,597.517,195.094,597.802,195.094z"/>
				<path style="fill:#DCDEE2;" d="M605.019,195.094h1.932c0.285,0,0.515-0.231,0.515-0.515v-9.623c0-0.146-0.062-0.285-0.17-0.382
					l-0.966-0.872c-0.196-0.177-0.495-0.177-0.691,0l-0.966,0.872c-0.108,0.098-0.17,0.237-0.17,0.382v9.623
					C604.504,194.863,604.735,195.094,605.019,195.094z"/>
				<path style="fill:#DCDEE2;" d="M612.237,195.094h1.932c0.285,0,0.515-0.231,0.515-0.515v-9.623c0-0.146-0.062-0.285-0.17-0.382
					l-0.966-0.872c-0.196-0.177-0.495-0.177-0.691,0l-0.966,0.872c-0.108,0.098-0.17,0.237-0.17,0.382v9.623
					C611.722,194.863,611.953,195.094,612.237,195.094z"/>
				<path style="fill:#DCDEE2;" d="M619.455,195.094h1.932c0.285,0,0.515-0.231,0.515-0.515v-9.623c0-0.146-0.062-0.285-0.17-0.382
					l-0.966-0.872c-0.196-0.177-0.494-0.177-0.691,0l-0.966,0.872c-0.108,0.098-0.17,0.237-0.17,0.382v9.623
					C618.94,194.863,619.17,195.094,619.455,195.094z"/>
			</g>
			<path style="fill:#DCDEE2;" d="M597.98,144.922h1.932c0.284,0,0.515-0.231,0.515-0.515v-12.585c0-0.146-0.062-0.285-0.17-0.383
				l-0.966-0.872c-0.196-0.177-0.494-0.177-0.691,0l-0.966,0.872c-0.108,0.098-0.17,0.237-0.17,0.383v12.585
				C597.464,144.692,597.695,144.922,597.98,144.922z"/>
			<path style="fill:#DCDEE2;" d="M604.842,144.922h1.931c0.285,0,0.515-0.231,0.515-0.515v-12.585c0-0.146-0.062-0.285-0.17-0.383
				l-0.966-0.872c-0.196-0.177-0.495-0.177-0.691,0l-0.966,0.872c-0.108,0.098-0.17,0.237-0.17,0.383v12.585
				C604.326,144.692,604.557,144.922,604.842,144.922z"/>
			<path style="fill:#DCDEE2;" d="M611.703,144.922h1.932c0.285,0,0.515-0.231,0.515-0.515v-12.585c0-0.146-0.062-0.285-0.17-0.383
				l-0.966-0.872c-0.196-0.177-0.494-0.177-0.69,0l-0.966,0.872c-0.108,0.098-0.17,0.237-0.17,0.383v12.585
				C611.188,144.692,611.419,144.922,611.703,144.922z"/>
			<polygon style="fill:#EDEEF1;" points="587.627,148.046 602.376,148.046 617.125,148.046 628.008,177.318 602.376,177.318 
				576.745,177.318 			"/>
			<g>
				<g>
					<rect x="590.988" y="156.936" style="fill:#EDEEF1;" width="4.324" height="6.051"/>
					<rect x="585.952" y="167.056" style="fill:#EDEEF1;" width="4.323" height="6.051"/>
					<rect x="595.502" y="167.056" style="fill:#EDEEF1;" width="4.323" height="6.051"/>
					<rect x="605.051" y="167.056" style="fill:#EDEEF1;" width="4.324" height="6.051"/>
					<rect x="614.601" y="167.056" style="fill:#EDEEF1;" width="4.324" height="6.051"/>
					<rect x="600.276" y="156.936" style="fill:#EDEEF1;" width="4.324" height="6.051"/>
					<rect x="609.564" y="156.936" style="fill:#EDEEF1;" width="4.324" height="6.051"/>
				</g>
				<g>
					<polygon style="fill:#DCDEE2;" points="593.089,152.922 596.457,158.822 589.722,158.822 					"/>
					<polygon style="fill:#DCDEE2;" points="588.051,163.043 591.419,168.942 584.685,168.942 					"/>
					<polygon style="fill:#DCDEE2;" points="600.969,168.942 594.235,168.942 597.601,163.043 					"/>
					<polygon style="fill:#DCDEE2;" points="610.518,168.942 603.785,168.942 607.151,163.043 					"/>
					<polygon style="fill:#DCDEE2;" points="620.068,168.942 613.335,168.942 616.701,163.043 					"/>
					<polygon style="fill:#DCDEE2;" points="602.376,152.922 605.744,158.822 599.01,158.822 					"/>
					<polygon style="fill:#DCDEE2;" points="611.664,152.922 615.032,158.822 608.297,158.822 					"/>
				</g>
			</g>
			
				<rect x="572.857" y="198.074" transform="matrix(-1 -1.224647e-16 1.224647e-16 -1 1204.7527 439.264)" style="fill:#EDEEF1;" width="59.038" height="43.116"/>
			
				<rect x="574.112" y="177.236" transform="matrix(-1 -1.224647e-16 1.224647e-16 -1 1204.7527 357.2075)" style="fill:#DCDEE2;" width="56.528" height="2.736"/>
			<g>
				
					<rect x="581.824" y="201.447" transform="matrix(-1 -1.224647e-16 1.224647e-16 -1 1204.7527 442.6375)" style="opacity:0.9;fill:#FFFFFF;" width="41.104" height="39.743"/>
				
					<rect x="585.116" y="204.63" transform="matrix(-1 -1.224647e-16 1.224647e-16 -1 1204.7527 442.6375)" style="fill:#EDEEF1;" width="34.521" height="33.378"/>
				
					<ellipse transform="matrix(0.9966 -0.0823 0.0823 0.9966 -16.163 50.2975)" style="fill:#EDEEF1;" cx="602.376" cy="221.319" rx="16.689" ry="16.689"/>
				
					<ellipse transform="matrix(0.7071 -0.7071 0.7071 0.7071 19.936 490.7672)" style="fill:#DCDEE2;" cx="602.376" cy="221.319" rx="12.246" ry="12.246"/>
				
					<ellipse transform="matrix(0.7541 -0.6567 0.6567 0.7541 2.7615 450.0134)" style="opacity:0.9;fill:#FFFFFF;" cx="602.376" cy="221.319" rx="8.053" ry="8.053"/>
				<path style="fill:#DCDEE2;" d="M601.433,219.526v-4.286c0-0.521,0.422-0.943,0.943-0.943c0.521,0,0.943,0.422,0.943,0.943v4.286
					c0.65,0.345,1.109,1.007,1.109,1.793c0,0.204-0.061,0.388-0.116,0.574l8.996,9.516c0.358,0.378,0.341,0.975-0.038,1.332
					c-0.181,0.172-0.414,0.258-0.647,0.258c-0.25,0-0.5-0.099-0.685-0.296l-8.942-9.459c-0.199,0.064-0.4,0.125-0.619,0.125
					c-1.132,0-2.052-0.92-2.052-2.051C600.325,220.533,600.783,219.871,601.433,219.526z"/>
			</g>
			
				<rect x="572.857" y="241.19" transform="matrix(-1 -1.224647e-16 1.224647e-16 -1 1204.7527 494.5578)" style="fill:#EDEEF1;" width="59.038" height="12.178"/>
			
				<rect x="572.857" y="253.368" transform="matrix(-1 -1.224647e-16 1.224647e-16 -1 1204.7527 629.721)" style="fill:#EDEEF1;" width="59.038" height="122.986"/>
			<rect x="572.857" y="294.674" style="fill:#DCDEE2;" width="59.038" height="2.633"/>
			<rect x="572.857" y="302.902" style="fill:#DCDEE2;" width="59.038" height="2.633"/>
			<rect x="572.857" y="336.309" style="fill:#DCDEE2;" width="59.038" height="2.633"/>
			<rect x="572.857" y="344.537" style="fill:#DCDEE2;" width="59.038" height="2.633"/>
			
				<rect x="599.764" y="63.583" transform="matrix(-1 -1.224647e-16 1.224647e-16 -1 1204.3003 130.1691)" style="fill:#DCDEE2;" width="4.772" height="3.003"/>
			
				<rect x="601.541" y="45.193" transform="matrix(-1 -1.224647e-16 1.224647e-16 -1 1204.3 108.7757)" style="fill:#EDEEF1;" width="1.219" height="18.39"/>
			<g>
				
					<rect x="579.95" y="259.219" transform="matrix(-1 -1.224647e-16 1.224647e-16 -1 1166.6389 549.3831)" style="fill:#DCDEE2;" width="6.739" height="30.944"/>
				
					<rect x="592.654" y="259.219" transform="matrix(-1 -1.224647e-16 1.224647e-16 -1 1192.0481 549.3831)" style="fill:#DCDEE2;" width="6.739" height="30.944"/>
				
					<rect x="605.359" y="259.219" transform="matrix(-1 -1.224647e-16 1.224647e-16 -1 1217.4575 549.3831)" style="fill:#DCDEE2;" width="6.739" height="30.944"/>
				
					<rect x="618.064" y="259.219" transform="matrix(-1 -1.224647e-16 1.224647e-16 -1 1242.8667 549.3831)" style="fill:#DCDEE2;" width="6.739" height="30.944"/>
			</g>
			<g>
				
					<rect x="579.95" y="310.074" transform="matrix(-1 -1.224647e-16 1.224647e-16 -1 1166.6389 642.4748)" style="fill:#DCDEE2;" width="6.739" height="22.328"/>
				
					<rect x="592.654" y="310.074" transform="matrix(-1 -1.224647e-16 1.224647e-16 -1 1192.0481 642.4748)" style="fill:#DCDEE2;" width="6.739" height="22.328"/>
				
					<rect x="605.359" y="310.074" transform="matrix(-1 -1.224647e-16 1.224647e-16 -1 1217.4575 642.4748)" style="fill:#DCDEE2;" width="6.739" height="22.328"/>
				
					<rect x="618.064" y="310.074" transform="matrix(-1 -1.224647e-16 1.224647e-16 -1 1242.8667 642.4748)" style="fill:#DCDEE2;" width="6.739" height="22.328"/>
			</g>
			<g>
				
					<rect x="579.95" y="354.026" transform="matrix(-1 -1.224647e-16 1.224647e-16 -1 1166.6389 730.3788)" style="fill:#DCDEE2;" width="6.739" height="22.328"/>
				
					<rect x="592.654" y="354.026" transform="matrix(-1 -1.224647e-16 1.224647e-16 -1 1192.0481 730.3788)" style="fill:#DCDEE2;" width="6.739" height="22.328"/>
				
					<rect x="605.359" y="354.026" transform="matrix(-1 -1.224647e-16 1.224647e-16 -1 1217.4575 730.3788)" style="fill:#DCDEE2;" width="6.739" height="22.328"/>
				
					<rect x="618.064" y="354.026" transform="matrix(-1 -1.224647e-16 1.224647e-16 -1 1242.8667 730.3788)" style="fill:#DCDEE2;" width="6.739" height="22.328"/>
			</g>
		</g>
	</g>
	<g>
		<g style="opacity:0.15;">
			<g>
				<path style="fill:#39393B;" d="M263.105,474.821c0,4.329-57.669,7.839-128.807,7.839c-71.138,0-128.807-3.509-128.807-7.839
					c0-4.329,57.669-7.838,128.807-7.838C205.436,466.983,263.105,470.492,263.105,474.821z"/>
			</g>
		</g>
		<g>
			<g>
				<g>
					<path style="fill:#FFAC94;" d="M126.262,256.644l13.011,47.574l-4.638-5.346c1.719,0.912,3.707,1.615,5.908,2.108
						c2.199,0.495,4.599,0.781,7.107,0.911c2.509,0.13,5.125,0.108,7.798-0.003c2.674-0.112,5.407-0.312,8.18-0.548l0.015-0.001
						c4.092-0.349,7.692,2.685,8.041,6.777c0.333,3.901-2.436,7.359-6.238,7.975c-2.861,0.456-5.77,0.888-8.755,1.233
						c-2.984,0.344-6.044,0.604-9.213,0.675c-3.167,0.068-6.449-0.049-9.842-0.541c-3.386-0.492-6.899-1.375-10.332-2.855
						c-2.197-0.948-3.762-2.751-4.473-4.853l-0.165-0.494l-15.609-46.786c-1.755-5.259,1.086-10.945,6.345-12.699
						c5.259-1.755,10.945,1.086,12.699,6.345C126.157,256.28,126.216,256.478,126.262,256.644z"/>
				</g>
			</g>
			<g>
				<g>
					<g>
						<g>
							<g>
								<g>
									<g>
										<path style="fill:#39393B;" d="M131.273,429.112c-0.194,0-0.391-0.033-0.583-0.102l-68.161-24.574
											c-0.893-0.322-1.356-1.307-1.034-2.2c0.322-0.893,1.307-1.357,2.2-1.034l68.161,24.574c0.893,0.322,1.356,1.307,1.034,2.2
											C132.638,428.676,131.977,429.112,131.273,429.112z"/>
									</g>
								</g>
							</g>
						</g>
					</g>
					<g>
						<g>
							<path style="fill:#39393B;" d="M60.281,429.112c-0.703,0-1.363-0.435-1.617-1.134c-0.323-0.893,0.139-1.879,1.031-2.202
								l68.97-24.979c0.893-0.323,1.879,0.138,2.202,1.031c0.323,0.893-0.138,1.879-1.031,2.202l-68.97,24.979
								C60.673,429.079,60.475,429.112,60.281,429.112z"/>
						</g>
					</g>
					<g>
						<g>
							<g>
								<g>
									<g>
										<g>
											<g>
												<path style="fill:#39393B;" d="M137.335,473.03c-1.451,0-2.715-1.074-2.913-2.552l-12.311-91.924H70.593l-12.119,91.918
													c-0.212,1.611-1.69,2.745-3.302,2.532c-1.611-0.212-2.745-1.691-2.532-3.302l12.456-94.475
													c0.193-1.464,1.441-2.558,2.917-2.558h56.672c1.474,0,2.72,1.091,2.916,2.552l12.653,94.475
													c0.216,1.611-0.915,3.091-2.526,3.307C137.596,473.021,137.465,473.03,137.335,473.03z"/>
											</g>
										</g>
									</g>
								</g>
							</g>
						</g>
					</g>
					<g>
						<g>
							<path style="fill:#39393B;" d="M108.271,375.612H71.464c-11.661,0-24.148-6.382-25.938-17.904
								c-2.394-15.408-2.986-30.329-2.318-44.022c0.756-15.486,8.151-29.894,20.325-39.495l0,0c0,0,7.352,32.041-1.893,76.263
								C65.171,367.258,108.271,375.612,108.271,375.612z"/>
						</g>
					</g>
				</g>
				<g>
					<g>
						<g>
							<g>
								<g>
									<g>
										<g>
											<g>
												<g>
													<g>
														<path style="fill:#DF615C;" d="M193.424,433.64h-16.439c0,0-3.805-18.247-5.081-28.48
															c-1.278-10.232-1.94-34.491-1.94-34.491s-13.102,4.255-40.526,2.652c-60.766-3.55-37.725-48.194-37.725-48.194
															c2.053,2.836,14.629,0.869,23.225,2.224c26.383,2.532,49.262,12.887,62.994,18.811
															c3.307,1.426,6.246,2.935,8.82,4.522c3.311,2.041,5.382,8.232,6.63,16.375
															C197.133,391.534,193.424,433.64,193.424,433.64z"/>
													</g>
												</g>
											</g>
										</g>
									</g>
								</g>
							</g>
							<g>
								<g>
									<g>
										<g>
											<g>
												<g>
													<g>
														<g>
															<g>
																<path style="fill:#EDEEF1;" d="M193.738,425.157c-0.004,0-0.008,0-0.013,0l-18.281-0.392
																	c-0.325-0.007-0.583-0.276-0.576-0.601c0.007-0.325,0.273-0.59,0.601-0.576l18.281,0.392
																	c0.325,0.007,0.583,0.276,0.576,0.601C194.32,424.902,194.058,425.157,193.738,425.157z"/>
															</g>
														</g>
													</g>
												</g>
											</g>
										</g>
									</g>
								</g>
							</g>
						</g>
						<g>
							<g>
								<g>
									<g>
										<g>
											<g>
												<g>
													<g>
														<g>
															<g>
																<polygon style="fill:#FFAC94;" points="192.971,454.704 181.367,454.704 179.132,441.09 177.909,433.64 
																	192.326,433.64 192.554,441.09 																"/>
															</g>
														</g>
													</g>
												</g>
											</g>
										</g>
									</g>
								</g>
							</g>
							<g>
								<g>
									<g>
										<g>
											<g>
												<g>
													<polygon style="fill:#EBB12B;" points="192.971,454.704 181.367,454.704 179.703,444.568 179.132,441.09 
														192.554,441.09 192.665,444.696 													"/>
												</g>
											</g>
										</g>
									</g>
								</g>
								<g>
									<g>
										<g>
											<g>
												<g>
													<polygon style="fill:#BA7056;" points="192.665,444.696 179.703,444.568 179.132,441.09 192.554,441.09 													
														"/>
												</g>
											</g>
										</g>
									</g>
								</g>
							</g>
							<g>
								<g>
									<g>
										<g>
											<g>
												<g>
													<g>
														<g>
															<path style="fill:#084FC7;" d="M221.606,473.03h-43.89c-0.326-0.593-0.504-1.434-0.576-2.437
																c-0.275-3.714,0.908-9.638,1.489-13.373c0.071-0.437,0.132-0.843,0.178-1.212c0.081-0.625,0.131-1.145,0.131-1.527
																c0-3.048,2.698-2.526,2.698-2.526c4.442,4.357,9.47-2.174,12.406-0.032c0,0,0.119,0.087,0.388,0.297
																c0.247,0.194,0.621,0.496,1.141,0.932c0.748,0.625,1.798,1.533,3.22,2.811c3.483,3.135,9.409,5.204,14.455,7.314
																c0.643,0.269,1.24,0.538,1.794,0.805c0.421,0.202,0.817,0.407,1.191,0.609c4.124,2.227,5.437,4.355,5.734,5.902
																C222.252,472.077,221.606,473.03,221.606,473.03z"/>
														</g>
													</g>
												</g>
											</g>
										</g>
									</g>
								</g>
								<g>
									<g>
										<g>
											<g>
												<g>
													<g>
														<g>
															<path style="fill:#EDEEF1;" d="M216.232,464.691c-1.131,0.9-3.645,2.7-5.661,2.7c-0.089,0-0.178-0.002-0.265-0.01
																c-1.424-0.119-6.654-2.69-10.91-5.028c-2.439-1.341-4.666-2.66-6.268-3.717c-2.627-1.731-3.082-2.393-3.186-2.852
																c-0.384-1.731,2.48-2.939,4.488-3.564c0.247,0.194,0.621,0.496,1.141,0.932c-2.494,0.68-4.543,1.746-4.448,2.352
																c0.245,0.514,2.842,2.494,9.053,5.894c4.739,2.593,9.233,4.69,10.23,4.773c1.351,0.109,3.337-1.121,4.634-2.089
																C215.462,464.284,215.858,464.489,216.232,464.691z"/>
														</g>
													</g>
												</g>
											</g>
										</g>
									</g>
								</g>
								<g>
									<g>
										<g>
											<g>
												<g>
													<g>
														<g>
															<g>
																<g>
																	<g>
																		<path style="fill:#EDEEF1;" d="M221.606,473.03h-43.889c-0.327-0.593-0.504-1.434-0.577-2.438h44.826
																			C222.251,472.076,221.606,473.03,221.606,473.03z"/>
																	</g>
																</g>
															</g>
														</g>
													</g>
												</g>
											</g>
										</g>
									</g>
								</g>
								<g>
									<g>
										<g>
											<g>
												<g>
													<g>
														<g>
															<g>
																<g>
																	<g>
																		<g>
																			<path style="fill:#EDEEF1;" d="M182.195,473.03h-1.304c1.301-1.487,2.518-3.767,2.359-7.027
																				c-0.212-4.337-2.813-7.26-4.621-8.783c0.07-0.436,0.131-0.844,0.178-1.212c1.949,1.489,5.232,4.75,5.488,9.943
																				C184.447,469.064,183.426,471.387,182.195,473.03z"/>
																		</g>
																	</g>
																</g>
															</g>
														</g>
													</g>
												</g>
											</g>
										</g>
									</g>
								</g>
								<g>
									<g>
										<g>
											<g>
												<g>
													<g>
														<g>
															<g>
																<g>
																	<g>
																		<path style="fill:#FFFFFF;" d="M198.048,458.552c-0.324,0-0.62-0.22-0.701-0.549
																			c-0.096-0.387,0.14-0.78,0.528-0.876l2.742-0.68c0.387-0.097,0.78,0.14,0.876,0.527
																			c0.096,0.388-0.14,0.78-0.528,0.876l-2.742,0.681C198.164,458.545,198.105,458.552,198.048,458.552z"/>
																	</g>
																</g>
															</g>
														</g>
													</g>
												</g>
											</g>
										</g>
									</g>
								</g>
								<g>
									<g>
										<g>
											<g>
												<g>
													<g>
														<g>
															<g>
																<g>
																	<g>
																		<path style="fill:#FFFFFF;" d="M195.323,456.27c-0.324,0-0.62-0.22-0.701-0.549
																			c-0.096-0.388,0.14-0.78,0.528-0.876l2.742-0.681c0.387-0.097,0.78,0.14,0.876,0.528
																			c0.096,0.388-0.14,0.78-0.528,0.876l-2.742,0.681C195.44,456.263,195.381,456.27,195.323,456.27z"/>
																	</g>
																</g>
															</g>
														</g>
													</g>
												</g>
											</g>
										</g>
									</g>
								</g>
								<g>
									<g>
										<g>
											<g>
												<g>
													<g>
														<g>
															<g>
																<g>
																	<g>
																		<path style="fill:#FFFFFF;" d="M200.789,460.146c-0.324,0-0.62-0.22-0.701-0.549
																			c-0.096-0.387,0.14-0.78,0.528-0.876l2.742-0.681c0.388-0.097,0.78,0.14,0.876,0.528
																			c0.096,0.388-0.14,0.78-0.528,0.876l-2.742,0.681C200.906,460.139,200.847,460.146,200.789,460.146z"/>
																	</g>
																</g>
															</g>
														</g>
													</g>
												</g>
											</g>
										</g>
									</g>
								</g>
								<g>
									<g>
										<g>
											<g>
												<g>
													<g>
														<g>
															<path style="fill:#FFFFFF;" d="M203.531,461.678c-0.325,0-0.62-0.22-0.701-0.549c-0.096-0.388,0.14-0.78,0.528-0.876
																l2.742-0.681c0.388-0.097,0.78,0.14,0.876,0.528c0.096,0.387-0.14,0.78-0.528,0.876l-2.742,0.681
																C203.647,461.671,203.589,461.678,203.531,461.678z"/>
														</g>
													</g>
												</g>
											</g>
										</g>
									</g>
								</g>
								<g>
									<g>
										<g>
											<g>
												<g>
													<g>
														<g>
															<g>
																<g>
																	<g>
																		<path style="fill:#FFFFFF;" d="M206.52,463.095c-0.325,0-0.62-0.22-0.701-0.549
																			c-0.096-0.388,0.14-0.78,0.528-0.876l2.742-0.681c0.388-0.096,0.78,0.14,0.876,0.528
																			c0.096,0.387-0.14,0.78-0.528,0.876l-2.741,0.681C206.636,463.088,206.578,463.095,206.52,463.095z"/>
																	</g>
																</g>
															</g>
														</g>
													</g>
												</g>
											</g>
										</g>
									</g>
								</g>
								<g>
									<g>
										<g>
											<g>
												<g>
													<g>
														<g>
															<g>
																<g>
																	<g>
																		<path style="fill:#FFFFFF;" d="M209.762,464.303c-0.324,0-0.62-0.22-0.701-0.549
																			c-0.096-0.387,0.14-0.78,0.528-0.876l2.742-0.68c0.388-0.097,0.78,0.14,0.876,0.528
																			c0.096,0.387-0.14,0.78-0.528,0.876l-2.742,0.681C209.878,464.296,209.82,464.303,209.762,464.303z"/>
																	</g>
																</g>
															</g>
														</g>
													</g>
												</g>
											</g>
										</g>
									</g>
								</g>
							</g>
						</g>
					</g>
					<g>
						<g>
							<g>
								<path style="fill:#084FC7;" d="M61.281,310.976c0,0-0.52,3.544,4.23,4.541l49.513,1.651c0,0,3.346-1.682,2.743-5.828
									C117.767,311.339,96.862,299.598,61.281,310.976z"/>
							</g>
						</g>
						<g>
							<g>
								<g>
									<g>
										<path style="fill:#FFAC94;" d="M115.703,327.352c-25.701,14.137-53.764,2.754-53.764,2.754
											c1.373-3.746,2.39-7.97,3.127-11.812c0.856-4.47,1.337-8.418,1.556-10.494c10.933-0.6,37.731-1.74,48.232,0.751
											l0.083,4.207L115.703,327.352z"/>
									</g>
								</g>
							</g>
							<g>
								<g>
									<g>
										<path style="fill:#F28268;" d="M96.719,320.571c-0.19,1.325-0.788,2.335-1.337,2.257
											c-0.548-0.079-0.838-1.217-0.648-2.542c0.19-1.325,0.789-2.336,1.337-2.257C96.619,318.108,96.909,319.246,96.719,320.571
											z"/>
									</g>
								</g>
							</g>
							<g>
								<g>
									<g>
										<path style="fill:#F28268;" d="M114.938,312.758c-10.944-0.665-32.48-0.896-49.871,5.535
											c0.856-4.47,1.337-8.418,1.556-10.494c10.933-0.6,37.731-1.74,48.232,0.751L114.938,312.758z"/>
									</g>
								</g>
							</g>
						</g>
						<g>
							<g>
								<g>
									<g>
										<g>
											<path style="fill:#084FC7;" d="M127.148,292.423c-0.103,0.317-0.227,0.614-0.369,0.893
												c-0.052,0.105-0.107,0.21-0.164,0.312c-1.376,2.553-3.507,4.765-5.291,6.34c-0.371,0.325-0.727,0.625-1.057,0.893
												c-0.66,0.535-1.219,0.95-1.603,1.225c-0.354,0.253-0.561,0.384-0.561,0.384c-0.002,0.024-0.004,0.048-0.006,0.076
												c-0.02,0.19-0.035,0.391-0.052,0.603c-0.061,0.808-0.116,1.773-0.155,2.872c-0.035,0.884-0.059,1.854-0.083,2.896
												c-0.013,0.773-0.028,1.581-0.037,2.422c-14.525-6.488-44.437-2.393-56.486-0.365c0.221-1.042,0.422-2.059,0.607-3.055
												c0.852-4.595,1.33-8.733,1.52-12.437c0.286-5.517-0.197-13.806-1.367-22.369c-0.074-0.557-0.153-1.109-0.234-1.666
												c-0.052-0.363-0.107-0.723-0.166-1.085c-0.411-2.688-0.889-5.381-1.435-7.993c-2.376-11.398-0.707-23.361,10.847-24.776
												c0.839-0.103,1.666-0.197,2.468-0.282c5.447-0.581,9.928-0.78,11.173-0.828c0.227-0.009,0.408,0.262,0.408,0.262
												l22.275,6.213l2.125,0.616c1.221,0.393,2.35,0.773,3.394,1.144c0.446,0.162,0.878,0.319,1.293,0.474
												c1.083,0.406,2.066,0.804,2.957,1.197c1.789,0.791,3.206,1.561,4.326,2.359c4.901,3.479,4.141,7.41,4.016,15.173
												c0,0.035-0.002,0.07-0.002,0.105c-0.002,0.098-0.002,0.197-0.004,0.299c-0.002,0.044,0,0.09,0,0.133
												c-0.004,0.317-0.004,0.633-0.002,0.95c0.007,1.002,0.042,2,0.103,2.998c0.083,1.465,0.214,2.922,0.374,4.35
												c0.063,0.572,0.129,1.142,0.199,1.706c0.066,0.531,0.133,1.059,0.203,1.581
												C127.255,282.84,128.362,288.796,127.148,292.423z"/>
										</g>
									</g>
								</g>
							</g>
							<g>
								<g>
									<g>
										<g>
											<path style="fill:#FFAC94;" d="M121.475,248.748c-0.46,5.126,0.8,13.582,4.108,19.659
												c-0.078-1.312-0.114-2.628-0.1-3.949c0.001-0.043-0.001-0.09,0-0.134c0.003-0.136,0.005-0.269,0.008-0.402
												C125.615,256.159,126.374,252.226,121.475,248.748z"/>
										</g>
									</g>
								</g>
							</g>
							<g>
								<g>
									<g>
										<g>
											<path style="fill:#FFAC94;" d="M80.384,257.765c-2.563,9.889-11.932,17.823-18.341,15.348
												c-0.076-0.556-0.155-1.109-0.236-1.665c-0.052-0.362-0.107-0.723-0.165-1.086c-0.41-2.689-0.891-5.38-1.436-7.993
												c-2.375-11.397-0.707-23.36,10.847-24.775c0.839-0.103,1.666-0.197,2.469-0.283
												C79.309,239.776,83.335,246.378,80.384,257.765z"/>
										</g>
									</g>
								</g>
							</g>
							<g>
								<g>
									<path style="fill:#FFAC94;" d="M81.705,250.225L96.72,305.13l-5.353-6.17c1.984,1.053,4.278,1.864,6.818,2.433
										c2.538,0.571,5.308,0.901,8.202,1.051c2.895,0.15,5.914,0.125,8.999-0.004c3.086-0.129,6.24-0.36,9.441-0.633l0.017-0.001
										c4.722-0.403,8.877,3.099,9.28,7.821c0.384,4.502-2.812,8.493-7.199,9.204c-3.301,0.526-6.659,1.025-10.104,1.423
										c-3.444,0.397-6.976,0.697-10.632,0.779c-3.655,0.079-7.442-0.057-11.358-0.625c-3.907-0.568-7.962-1.586-11.924-3.295
										c-2.536-1.094-4.342-3.175-5.162-5.6l-0.19-0.57L59.54,256.947c-2.025-6.069,1.254-12.631,7.323-14.656
										c6.069-2.025,12.631,1.254,14.656,7.323C81.583,249.805,81.651,250.033,81.705,250.225z"/>
								</g>
							</g>
							<g>
								<g>
									<path style="fill:#F28268;" d="M88.424,303.372c-0.154,0-0.305-0.081-0.387-0.224c-0.122-0.213-0.047-0.485,0.166-0.606
										c0.138-0.079,3.424-1.934,6.858-2.199c0.247-0.019,0.459,0.164,0.478,0.409c0.019,0.245-0.164,0.459-0.409,0.478
										c-3.231,0.249-6.454,2.067-6.486,2.085C88.574,303.353,88.499,303.372,88.424,303.372z"/>
								</g>
								<g>
									<path style="fill:#F28268;" d="M93.88,301.39c-0.079,0-0.158-0.021-0.23-0.065c-2.071-1.257-4.577-1.447-4.602-1.449
										c-0.245-0.017-0.43-0.23-0.412-0.475c0.017-0.245,0.224-0.427,0.475-0.412c0.111,0.008,2.748,0.208,5.001,1.575
										c0.21,0.128,0.277,0.401,0.15,0.611C94.177,301.314,94.03,301.39,93.88,301.39z"/>
								</g>
							</g>
						</g>
					</g>
					<g>
						<g>
							<g>
								<g>
									<g>
										<g>
											<g>
												<g>
													<path style="fill:#DF615C;" d="M164.803,433.697h-16.439c0,0-3.805-18.248-5.081-28.48
														c-1.278-10.232-1.94-34.491-1.94-34.491s-13.102,4.255-40.526,2.652c-60.766-3.55-37.725-48.194-37.725-48.194
														c2.053,2.836,17.453,6.743,26.049,8.098c26.382,2.532,46.438,7.012,60.169,12.936c3.307,1.426,6.246,2.935,8.82,4.523
														c3.311,2.041,5.382,8.232,6.63,16.375C168.512,391.591,164.803,433.697,164.803,433.697z"/>
												</g>
											</g>
										</g>
									</g>
								</g>
							</g>
						</g>
						<g>
							<g>
								<g>
									<g>
										<g>
											<g>
												<g>
													<g>
														<g>
															<path style="fill:#EDEEF1;" d="M165.117,425.214c-0.004,0-0.008,0-0.013,0l-18.281-0.392
																c-0.325-0.007-0.583-0.276-0.576-0.601c0.007-0.325,0.273-0.59,0.601-0.576l18.281,0.392
																c0.325,0.007,0.583,0.276,0.576,0.601C165.699,424.959,165.437,425.214,165.117,425.214z"/>
														</g>
													</g>
												</g>
											</g>
										</g>
									</g>
								</g>
							</g>
						</g>
					</g>
					<g>
						<g>
							<g>
								<g>
									<g>
										<g>
											<g>
												<g>
													<g>
														<g>
															<polygon style="fill:#FFAC94;" points="164.35,454.76 152.747,454.76 150.512,441.146 149.288,433.697 
																163.705,433.697 163.933,441.146 															"/>
														</g>
													</g>
												</g>
											</g>
										</g>
									</g>
								</g>
							</g>
						</g>
						<g>
							<g>
								<g>
									<g>
										<g>
											<g>
												<polygon style="fill:#EBB12B;" points="164.35,454.76 152.747,454.76 151.082,444.625 150.512,441.146 163.933,441.146 
													164.045,444.752 												"/>
											</g>
										</g>
									</g>
								</g>
							</g>
							<g>
								<g>
									<g>
										<g>
											<g>
												<polygon style="fill:#BA7056;" points="164.045,444.752 151.082,444.625 150.512,441.146 163.933,441.146 												
													"/>
											</g>
										</g>
									</g>
								</g>
							</g>
						</g>
						<g>
							<g>
								<g>
									<g>
										<g>
											<g>
												<g>
													<g>
														<path style="fill:#084FC7;" d="M192.986,473.087h-43.89c-0.326-0.593-0.504-1.434-0.576-2.437
															c-0.275-3.714,0.908-9.638,1.489-13.373c0.071-0.437,0.132-0.844,0.178-1.212c0.081-0.625,0.132-1.145,0.132-1.527
															c0-3.048,2.698-2.526,2.698-2.526c4.442,4.357,9.47-2.174,12.406-0.032c0,0,0.119,0.087,0.388,0.297
															c0.247,0.194,0.621,0.495,1.141,0.932c0.748,0.625,1.798,1.533,3.22,2.811c3.483,3.135,9.409,5.204,14.455,7.314
															c0.643,0.269,1.24,0.538,1.794,0.805c0.421,0.202,0.817,0.406,1.191,0.609c4.124,2.227,5.437,4.355,5.734,5.902
															C193.631,472.134,192.986,473.087,192.986,473.087z"/>
													</g>
												</g>
											</g>
										</g>
									</g>
								</g>
							</g>
							<g>
								<g>
									<g>
										<g>
											<g>
												<g>
													<g>
														<path style="fill:#EDEEF1;" d="M187.612,464.748c-1.131,0.9-3.645,2.7-5.661,2.7c-0.089,0-0.178-0.002-0.265-0.01
															c-1.424-0.119-6.654-2.69-10.91-5.028c-2.439-1.341-4.666-2.66-6.268-3.717c-2.627-1.731-3.082-2.393-3.186-2.852
															c-0.384-1.731,2.48-2.939,4.488-3.564c0.247,0.194,0.621,0.495,1.141,0.932c-2.494,0.68-4.543,1.745-4.448,2.352
															c0.245,0.514,2.842,2.494,9.053,5.894c4.739,2.593,9.233,4.69,10.23,4.773c1.351,0.109,3.337-1.12,4.634-2.089
															C186.841,464.341,187.238,464.545,187.612,464.748z"/>
													</g>
												</g>
											</g>
										</g>
									</g>
								</g>
							</g>
							<g>
								<g>
									<g>
										<g>
											<g>
												<g>
													<g>
														<g>
															<g>
																<g>
																	<path style="fill:#EDEEF1;" d="M192.985,473.087h-43.889c-0.327-0.593-0.504-1.434-0.577-2.438h44.826
																		C193.63,472.133,192.985,473.087,192.985,473.087z"/>
																</g>
															</g>
														</g>
													</g>
												</g>
											</g>
										</g>
									</g>
								</g>
							</g>
							<g>
								<g>
									<g>
										<g>
											<g>
												<g>
													<g>
														<g>
															<g>
																<g>
																	<g>
																		<path style="fill:#EDEEF1;" d="M153.574,473.087h-1.304c1.301-1.487,2.518-3.767,2.359-7.027
																			c-0.212-4.337-2.814-7.26-4.621-8.783c0.07-0.436,0.13-0.844,0.178-1.212c1.949,1.489,5.233,4.75,5.489,9.943
																			C155.826,469.121,154.805,471.443,153.574,473.087z"/>
																	</g>
																</g>
															</g>
														</g>
													</g>
												</g>
											</g>
										</g>
									</g>
								</g>
							</g>
							<g>
								<g>
									<g>
										<g>
											<g>
												<g>
													<g>
														<g>
															<g>
																<g>
																	<path style="fill:#FFFFFF;" d="M169.427,458.609c-0.324,0-0.62-0.22-0.701-0.549
																		c-0.096-0.387,0.14-0.78,0.528-0.876l2.742-0.681c0.387-0.097,0.78,0.14,0.876,0.527
																		c0.096,0.388-0.14,0.78-0.528,0.876l-2.742,0.681C169.543,458.602,169.484,458.609,169.427,458.609z"/>
																</g>
															</g>
														</g>
													</g>
												</g>
											</g>
										</g>
									</g>
								</g>
							</g>
							<g>
								<g>
									<g>
										<g>
											<g>
												<g>
													<g>
														<g>
															<g>
																<g>
																	<path style="fill:#FFFFFF;" d="M166.702,456.326c-0.325,0-0.62-0.22-0.701-0.549
																		c-0.096-0.388,0.14-0.78,0.528-0.876l2.742-0.681c0.387-0.097,0.78,0.14,0.876,0.528
																		c0.096,0.388-0.14,0.78-0.528,0.876l-2.742,0.681C166.819,456.319,166.76,456.326,166.702,456.326z"/>
																</g>
															</g>
														</g>
													</g>
												</g>
											</g>
										</g>
									</g>
								</g>
							</g>
							<g>
								<g>
									<g>
										<g>
											<g>
												<g>
													<g>
														<g>
															<g>
																<g>
																	<path style="fill:#FFFFFF;" d="M172.168,460.202c-0.324,0-0.62-0.22-0.701-0.549
																		c-0.096-0.388,0.14-0.78,0.527-0.876l2.742-0.681c0.388-0.097,0.78,0.14,0.876,0.528
																		c0.096,0.387-0.14,0.78-0.528,0.876l-2.742,0.68C172.285,460.195,172.226,460.202,172.168,460.202z"/>
																</g>
															</g>
														</g>
													</g>
												</g>
											</g>
										</g>
									</g>
								</g>
							</g>
							<g>
								<g>
									<g>
										<g>
											<g>
												<g>
													<g>
														<path style="fill:#FFFFFF;" d="M174.91,461.734c-0.325,0-0.62-0.22-0.701-0.549c-0.096-0.387,0.14-0.78,0.528-0.876
															l2.742-0.681c0.388-0.097,0.78,0.14,0.876,0.528c0.096,0.388-0.14,0.78-0.528,0.876l-2.742,0.681
															C175.026,461.727,174.968,461.734,174.91,461.734z"/>
													</g>
												</g>
											</g>
										</g>
									</g>
								</g>
							</g>
							<g>
								<g>
									<g>
										<g>
											<g>
												<g>
													<g>
														<g>
															<g>
																<g>
																	<path style="fill:#FFFFFF;" d="M177.899,463.151c-0.324,0-0.62-0.22-0.701-0.549
																		c-0.096-0.387,0.14-0.78,0.528-0.876l2.742-0.681c0.387-0.096,0.78,0.14,0.876,0.527
																		c0.096,0.387-0.14,0.78-0.528,0.876l-2.742,0.681C178.016,463.144,177.957,463.151,177.899,463.151z"/>
																</g>
															</g>
														</g>
													</g>
												</g>
											</g>
										</g>
									</g>
								</g>
							</g>
							<g>
								<g>
									<g>
										<g>
											<g>
												<g>
													<g>
														<g>
															<g>
																<g>
																	<path style="fill:#FFFFFF;" d="M181.141,464.36c-0.325,0-0.62-0.22-0.701-0.549
																		c-0.096-0.387,0.14-0.78,0.528-0.876l2.741-0.681c0.388-0.097,0.78,0.14,0.876,0.528
																		c0.096,0.388-0.14,0.78-0.528,0.876l-2.742,0.681C181.257,464.352,181.199,464.36,181.141,464.36z"/>
																</g>
															</g>
														</g>
													</g>
												</g>
											</g>
										</g>
									</g>
								</g>
							</g>
						</g>
					</g>
					<g>
						<g>
							<path style="fill:#BA7056;" d="M96.774,185.931c-2.878,7.666-11.425,11.548-19.091,8.67
								c-7.666-2.878-11.548-11.425-8.67-19.091c2.878-7.666,11.425-11.548,19.091-8.67
								C95.769,169.717,99.651,178.265,96.774,185.931z"/>
							<path style="fill:#EBB12B;" d="M99.863,187.07c0,0-3.349-6.838-9.259-3.515c-4.962,2.79-3.797,7.932-0.121,9.775
								C94.16,195.173,99.863,187.07,99.863,187.07z"/>
						</g>
						<path style="fill:#BA7056;" d="M86.139,202c0.589,11.284,10.214,19.954,21.499,19.365
							c11.284-0.589,19.954-10.214,19.365-21.498c-0.589-11.284-10.214-19.954-21.499-19.365
							C94.22,181.091,85.55,190.716,86.139,202z"/>
						<path style="fill:#F28268;" d="M114.578,213.01c-0.707,3.477,1.539,6.87,5.016,7.577c3.477,0.707,6.869-1.539,7.577-5.016
							c0.707-3.477-1.539-6.87-5.016-7.577C118.678,207.287,115.285,209.533,114.578,213.01z"/>
						<path style="fill:#FFAC94;" d="M106.841,227.005l-2.629,11.943c-0.829,4.254-3.368,3.21-7.549,2.36l0,0
							c-3.569-0.726-8.141-0.56-7.863-4.191l4.93-18.789L106.841,227.005z"/>
						<polygon style="fill:#F28268;" points="105.096,234.932 94.011,221.205 107.11,225.769 						"/>
						<path style="fill:#FFAC94;" d="M105.976,229.357L105.976,229.357c8.142,1.098,15.901-5.069,17.021-11.688l2.344-14.37
							c1.404-8.296-4.024-16.211-12.27-17.887l0,0c-8.441-1.717-18.154,3.434-19.87,11.875l-1.914,12.595
							C89.807,219.623,96.321,227.393,105.976,229.357z"/>
						<g>
							
								<path style="fill:none;stroke:#39393B;stroke-width:0.5063;stroke-linecap:round;stroke-linejoin:round;stroke-miterlimit:10;" d="
								M114.448,217.457l-0.021,1.985c-0.005,0.47-0.411,0.836-0.879,0.791l-1.089-0.103"/>
							<path style="fill:#39393B;" d="M108.794,205.852c0,0,3.345,0.526,3.054,1.868c0,0-0.222,0.903-3.126,0.389
								c-2.905-0.514-4.472-1.016-4.528-1.928C104.139,205.269,107.254,205.487,108.794,205.852z"/>
							<path style="fill:#39393B;" d="M121.346,208.265c0,0-2.67-0.845-3.154,0.372c0,0-0.306,0.829,2.042,1.515
								c2.348,0.686,3.188,0.543,3.557-0.101C124.208,209.323,122.639,208.553,121.346,208.265z"/>
							<path style="fill:#39393B;" d="M118.213,214.681c-0.128,0.772,0.395,1.501,1.167,1.628c0.772,0.128,1.501-0.395,1.629-1.166
								c0.128-0.772-0.395-1.501-1.166-1.628C119.069,213.387,118.34,213.909,118.213,214.681z"/>
							<path style="fill:#39393B;" d="M105.952,212.643c-0.128,0.772,0.395,1.501,1.166,1.629c0.772,0.128,1.501-0.395,1.629-1.166
								s-0.395-1.501-1.167-1.629C106.809,211.349,106.08,211.871,105.952,212.643z"/>
							
								<path style="fill:none;stroke:#39393B;stroke-width:0.5063;stroke-linecap:round;stroke-linejoin:round;stroke-miterlimit:10;" d="
								M112.37,223.224c0,0-1.732,1.233-3.877-0.858"/>
						</g>
						<path style="fill:#BA7056;" d="M117.28,184.761c0,0-5.154,2.314-7.938,6.797c-3.436,5.534-5.63,13.454-18.52,13.376
							c0,0-4.785-11.937,3.222-17.188c8.007-5.251,13.406-5.042,13.406-5.042L117.28,184.761z"/>
						<path style="fill:#BA7056;" d="M125.341,203.299c0,0-20.916-1.471-18.675-15.288c0,0,7.231-5.966,12.902-2.652
							C125.241,188.672,127.826,199.565,125.341,203.299z"/>
						<path style="fill:#BA7056;" d="M100.942,200.38c-0.063,0.334-5.91,10.764-5.91,10.764l-0.858-10.753L100.942,200.38z"/>
						<g>
							<path style="fill:#FFAC94;" d="M84.005,207.409c-0.712,3.502,1.55,6.918,5.051,7.63c3.502,0.712,6.918-1.549,7.63-5.051
								c0.712-3.502-1.549-6.918-5.051-7.63C88.133,201.645,84.717,203.907,84.005,207.409z"/>
							
								<path style="fill:none;stroke:#39393B;stroke-width:0.5063;stroke-linecap:round;stroke-linejoin:round;stroke-miterlimit:10;" d="
								M92.178,211.034c0,0,0.935-4.597-3.608-4.767"/>
						</g>
						<path style="fill:#FFAC94;" d="M91.443,236.242l-6.747,0.241c0,0,1.052,11.039,13.928,13.197
							c9.799,1.642,10.881-6.107,10.881-6.107l-8.623-3.884L91.443,236.242z"/>
						<g>
							<g>
								<g>
									<g>
										<g>
											<g>
												<path style="fill:#DF615C;" d="M103.271,216.512c-0.16,0.515,0.771,1.263,2.08,1.67c1.309,0.407,2.5,0.32,2.661-0.196
													c0.16-0.515-0.771-1.263-2.08-1.67C104.622,215.91,103.431,215.997,103.271,216.512z"/>
											</g>
										</g>
									</g>
								</g>
							</g>
						</g>
						<g>
							<g>
								<g>
									<g>
										<g>
											<g>
												<path style="fill:#DF615C;" d="M116.275,219.529c-0.16,0.515,0.771,1.263,2.08,1.67c1.309,0.407,2.5,0.32,2.66-0.196
													c0.16-0.515-0.771-1.263-2.08-1.67C117.626,218.926,116.435,219.014,116.275,219.529z"/>
											</g>
										</g>
									</g>
								</g>
							</g>
						</g>
					</g>
				</g>
			</g>
			<g>
				<g>
					<g>
						<g>
							<g>
								<g>
									<g>
										<g>
											<g>
												<g>
													<g>
														<path style="fill:#169B5B;" d="M225.364,324.529v3.644c0,2.098-1.267,3.797-2.832,3.797H25.584
															c-1.563,0-2.83-1.699-2.83-3.797v-3.644c0-2.096,1.267-3.795,2.83-3.795h196.948
															C224.097,320.734,225.364,322.433,225.364,324.529z"/>
													</g>
												</g>
											</g>
										</g>
									</g>
								</g>
							</g>
							<g>
								<g>
									<g>
										<g>
											<g>
												<g>
													<g>
														<rect x="22.754" y="325.684" style="fill:#EBB12B;" width="202.61" height="1.668"/>
													</g>
												</g>
											</g>
										</g>
									</g>
								</g>
							</g>
							<g>
								<g>
									<path style="fill:#EBB12B;" d="M219.446,341.337H34.315c-0.829,0-1.5-0.672-1.5-1.5v-7.911h188.131v7.911
										C220.946,340.666,220.274,341.337,219.446,341.337z"/>
								</g>
							</g>
							<g>
								<g>
									<g>
										<g>
											<g>
												<g>
													<g>
														<polygon style="fill:#169B5B;" points="33.633,474.236 65.686,341.337 54.43,341.337 22.377,474.236 														
															"/>
													</g>
												</g>
											</g>
										</g>
									</g>
								</g>
							</g>
							<g>
								<g>
									<g>
										<g>
											<g>
												<g>
													<g>
														<polygon style="fill:#169B5B;" points="222.848,474.236 190.794,341.337 202.051,341.337 234.104,474.236 
																													"/>
													</g>
												</g>
											</g>
										</g>
									</g>
								</g>
							</g>
						</g>
					</g>
				</g>
			</g>
			<g>
				<g>
					<g>
						<g>
							<g>
								<g>
									<g>
										
											<rect x="39.254" y="290.292" transform="matrix(0.9885 -0.1514 0.1514 0.9885 -45.496 9.7118)" style="fill:#EBB12B;" width="3.516" height="26.509"/>
									</g>
								</g>
							</g>
						</g>
						<g>
							<g>
								<g>
									<g>
										<polygon style="fill:#FFAC94;" points="40.743,290.179 37.267,290.712 38.032,288.057 38.429,286.684 39.218,287.876 
																					"/>
									</g>
								</g>
							</g>
						</g>
						<g>
							<g>
								<g>
									<g>
										
											<rect x="41.115" y="314.733" transform="matrix(0.9885 -0.1514 0.1514 0.9885 -47.3144 10.1338)" style="fill:#39393B;" width="3.516" height="1.926"/>
									</g>
								</g>
							</g>
						</g>
						<g>
							<g>
								<g>
									<g>
										<path style="fill:#DF615C;" d="M44.758,317.935l-3.013,0.461c-0.128,0.02-0.247-0.068-0.267-0.196l-0.197-1.286
											l3.476-0.533l0.197,1.286C44.973,317.796,44.886,317.915,44.758,317.935z"/>
									</g>
								</g>
							</g>
						</g>
						<g>
							<g>
								<g>
									<g>
										<polygon style="fill:#39393B;" points="39.218,287.876 38.032,288.057 38.429,286.684 										"/>
									</g>
								</g>
							</g>
						</g>
						<g>
							<g>
								<g>
									<g>
										
											<rect x="40.865" y="313.371" transform="matrix(0.9885 -0.1514 0.1514 0.9885 -47.054 10.0724)" style="fill:#BA7056;" width="3.516" height="1.381"/>
									</g>
								</g>
							</g>
						</g>
						<g>
							<g>
								<g>
									<g>
										<path style="fill:#BA7056;" d="M38.329,291.87l2.972,19.404c0.023,0.147,0.16,0.247,0.306,0.225l0,0
											c0.147-0.022,0.247-0.159,0.225-0.306l-2.973-19.405c-0.023-0.146-0.16-0.247-0.306-0.225l0,0
											C38.407,291.586,38.307,291.724,38.329,291.87z"/>
									</g>
								</g>
							</g>
						</g>
						<g>
							<g>
								<g>
									<g>
										<path style="fill:#BA7056;" d="M39.688,291.661l2.973,19.405c0.022,0.147,0.16,0.247,0.306,0.225l0,0
											c0.147-0.023,0.247-0.16,0.225-0.306l-2.972-19.404c-0.023-0.147-0.16-0.247-0.306-0.225l0,0
											C39.767,291.377,39.666,291.514,39.688,291.661z"/>
									</g>
								</g>
							</g>
						</g>
					</g>
					<g>
						<g>
							<g>
								<g>
									<g>
										
											<rect x="43.554" y="290.305" transform="matrix(1 -0.0033 0.0033 1 -1.0012 0.1511)" style="fill:#169B5B;" width="3.516" height="26.509"/>
									</g>
								</g>
							</g>
						</g>
						<g>
							<g>
								<g>
									<g>
										<polygon style="fill:#FFAC94;" points="47.027,290.3 43.511,290.312 44.66,287.8 45.256,286.5 45.861,287.796 										
											"/>
									</g>
								</g>
							</g>
						</g>
						<g>
							<g>
								<g>
									<g>
										
											<rect x="43.594" y="314.888" transform="matrix(1 -0.0033 0.0033 1 -1.0417 0.1513)" style="fill:#39393B;" width="3.516" height="1.926"/>
									</g>
								</g>
							</g>
						</g>
						<g>
							<g>
								<g>
									<g>
										<path style="fill:#DF615C;" d="M46.884,318.344l-3.048,0.01c-0.129,0-0.234-0.104-0.235-0.233l-0.004-1.301l3.516-0.012
											l0.004,1.301C47.118,318.239,47.014,318.344,46.884,318.344z"/>
									</g>
								</g>
							</g>
						</g>
						<g>
							<g>
								<g>
									<g>
										<polygon style="fill:#39393B;" points="45.861,287.796 44.66,287.8 45.256,286.5 										"/>
									</g>
								</g>
							</g>
						</g>
						<g>
							<g>
								<g>
									<g>
										
											<rect x="43.589" y="313.507" transform="matrix(1 -0.0033 0.0033 1 -1.0274 0.15)" style="fill:#EBB12B;" width="3.516" height="1.381"/>
									</g>
								</g>
							</g>
						</g>
						<g>
							<g>
								<g>
									<g>
										<path style="fill:#EBB12B;" d="M44.389,291.615l0.064,19.631c0,0.148,0.121,0.268,0.27,0.268l0,0
											c0.148-0.001,0.268-0.121,0.268-0.27l-0.064-19.63c0-0.149-0.121-0.268-0.27-0.268l0,0
											C44.508,291.345,44.389,291.466,44.389,291.615z"/>
									</g>
								</g>
							</g>
						</g>
						<g>
							<g>
								<g>
									<g>
										<path style="fill:#EBB12B;" d="M45.765,291.609l0.064,19.631c0,0.148,0.121,0.268,0.269,0.268l0,0
											c0.149,0,0.268-0.121,0.268-0.27l-0.064-19.631c0-0.148-0.121-0.268-0.27-0.268l0,0
											C45.884,291.34,45.764,291.461,45.765,291.609z"/>
									</g>
								</g>
							</g>
						</g>
					</g>
					<g>
						<g>
							<g>
								<g>
									<g>
										
											<rect x="36.234" y="301.79" transform="matrix(0.1406 -0.9901 0.9901 0.1406 -258.0027 309.8552)" style="fill:#084FC7;" width="26.509" height="3.516"/>
									</g>
								</g>
							</g>
						</g>
						<g>
							<g>
								<g>
									<g>
										<polygon style="fill:#FFAC94;" points="53.093,290.674 49.612,290.179 51.111,287.859 51.888,286.658 52.3,288.028 
																					"/>
									</g>
								</g>
							</g>
						</g>
						<g>
							<g>
								<g>
									<g>
										
											<rect x="46.002" y="314.755" transform="matrix(0.9901 0.1406 -0.1406 0.9901 44.8762 -3.579)" style="fill:#39393B;" width="3.516" height="1.926"/>
									</g>
								</g>
							</g>
						</g>
						<g>
							<g>
								<g>
									<g>
										<path style="fill:#DF615C;" d="M48.917,318.405l-3.018-0.429c-0.128-0.018-0.217-0.137-0.199-0.264l0.183-1.288
											l3.481,0.495l-0.183,1.288C49.164,318.335,49.045,318.423,48.917,318.405z"/>
									</g>
								</g>
							</g>
						</g>
						<g>
							<g>
								<g>
									<g>
										<polygon style="fill:#39393B;" points="52.3,288.028 51.111,287.859 51.888,286.658 										"/>
									</g>
								</g>
							</g>
						</g>
						<g>
							<g>
								<g>
									<g>
										
											<rect x="47.302" y="312.322" transform="matrix(0.1407 -0.9901 0.9901 0.1407 -269.7161 317.4056)" style="fill:#084FC7;" width="1.381" height="3.516"/>
									</g>
								</g>
							</g>
						</g>
						<g>
							<g>
								<g>
									<g>
										<path style="fill:#084FC7;" d="M50.294,291.595l-2.761,19.436c-0.021,0.147,0.081,0.283,0.228,0.304l0,0
											c0.147,0.021,0.283-0.081,0.304-0.228l2.761-19.436c0.021-0.147-0.081-0.283-0.228-0.304l0,0
											C50.451,291.346,50.315,291.448,50.294,291.595z"/>
									</g>
								</g>
							</g>
						</g>
						<g>
							<g>
								<g>
									<g>
										<path style="fill:#084FC7;" d="M51.656,291.787l-2.761,19.436c-0.021,0.147,0.081,0.283,0.228,0.304l0,0
											c0.147,0.021,0.283-0.081,0.304-0.228l2.761-19.436c0.021-0.147-0.081-0.283-0.228-0.304l0,0
											C51.813,291.538,51.677,291.64,51.656,291.787z"/>
									</g>
								</g>
							</g>
						</g>
					</g>
				</g>
				<g>
					<g>
						<g>
							<g>
								<g>
									<polygon style="fill:#DF615C;" points="54.235,300.786 54.052,302.208 53.885,303.498 53.631,305.46 53.468,306.736 
										53.212,308.714 53.049,309.974 52.792,311.968 52.631,313.211 52.371,315.22 52.214,316.448 51.952,318.474 
										51.795,319.686 51.66,320.734 37.842,320.734 37.707,319.686 37.549,318.474 37.288,316.448 37.131,315.22 36.87,313.211 
										36.71,311.968 36.453,309.974 36.289,308.714 36.034,306.736 35.87,305.46 35.617,303.498 35.45,302.208 35.267,300.786 
																			"/>
								</g>
							</g>
						</g>
					</g>
					<g>
						<g>
							<g>
								<g>
									<g>
										<polygon style="fill:#A92F4B;" points="54.052,302.208 53.885,303.498 35.617,303.498 35.45,302.208 										"/>
									</g>
								</g>
							</g>
						</g>
						<g>
							<g>
								<g>
									<g>
										<polygon style="fill:#A92F4B;" points="53.631,305.46 53.468,306.736 36.034,306.736 35.87,305.46 										"/>
									</g>
								</g>
							</g>
						</g>
						<g>
							<g>
								<g>
									<g>
										<polygon style="fill:#A92F4B;" points="53.212,308.714 53.049,309.974 36.453,309.974 36.289,308.714 										"/>
									</g>
								</g>
							</g>
						</g>
						<g>
							<g>
								<g>
									<g>
										<polygon style="fill:#A92F4B;" points="52.792,311.968 52.631,313.211 36.87,313.211 36.71,311.968 										"/>
									</g>
								</g>
							</g>
						</g>
						<g>
							<g>
								<g>
									<g>
										<polygon style="fill:#A92F4B;" points="52.371,315.22 52.214,316.448 37.288,316.448 37.131,315.22 										"/>
									</g>
								</g>
							</g>
						</g>
						<g>
							<g>
								<g>
									<g>
										<polygon style="fill:#A92F4B;" points="51.952,318.474 51.795,319.686 37.707,319.686 37.549,318.474 										"/>
									</g>
								</g>
							</g>
						</g>
					</g>
				</g>
			</g>
			<g>
				<g>
					<g>
						<g>
							<g>
								<path style="fill:#39393B;" d="M224.216,250.255l-11.784,49.834l-0.31,1.31l-0.793,3.357
									c-0.343,1.454-1.638,2.479-3.132,2.479h-79.381c-2.077,0-3.612-1.939-3.134-3.959l12.887-54.5
									c0.343-1.452,1.638-2.477,3.132-2.477h79.381C223.159,246.298,224.695,248.235,224.216,250.255z"/>
							</g>
						</g>
						<g>
							<polygon style="fill:#DCDEE2;" points="212.432,300.089 212.122,301.399 129.699,301.399 129.699,300.089 							"/>
						</g>
						<g>
							<g>
								<g>
									<g>
										<g>
											<g>
												<g>
													<g>
														<g>
															<path style="fill:#EBB12B;" d="M160.807,258.629c-0.659,3.532-4.057,6.396-7.589,6.396s-5.861-2.863-5.202-6.396
																c0.659-3.532,4.057-6.395,7.589-6.395S161.467,255.097,160.807,258.629z"/>
														</g>
													</g>
												</g>
											</g>
										</g>
									</g>
								</g>
							</g>
							<g>
								<g>
									<g>
										<g>
											<g>
												<g>
													<g>
														<g>
															<g>
																<g>
																	<path style="fill:#39393B;" d="M153.584,257.406c-0.132,0.706-0.488,1.279-0.795,1.279
																		c-0.307,0-0.449-0.573-0.317-1.279c0.132-0.707,0.488-1.279,0.795-1.279S153.715,256.699,153.584,257.406z"/>
																</g>
															</g>
														</g>
													</g>
												</g>
											</g>
										</g>
									</g>
								</g>
								<g>
									<g>
										<g>
											<g>
												<g>
													<g>
														<g>
															<g>
																<g>
																	<path style="fill:#39393B;" d="M156.92,257.406c-0.132,0.706-0.488,1.279-0.795,1.279
																		c-0.307,0-0.449-0.573-0.317-1.279c0.132-0.707,0.488-1.279,0.795-1.279
																		C156.91,256.126,157.052,256.699,156.92,257.406z"/>
																</g>
															</g>
														</g>
													</g>
												</g>
											</g>
										</g>
									</g>
								</g>
							</g>
							<g>
								<g>
									<g>
										<g>
											<g>
												<g>
													<g>
														<g>
															<g>
																<path style="fill:#39393B;" d="M153.887,261.743c-2.751,0-2.867-2.749-2.868-2.777
																	c-0.005-0.15,0.118-0.298,0.274-0.331c0.156-0.033,0.286,0.063,0.291,0.212c0.004,0.1,0.111,2.34,2.406,2.34
																	c2.298,0,3.241-2.244,3.279-2.34c0.061-0.15,0.228-0.245,0.371-0.212c0.144,0.033,0.211,0.181,0.151,0.331
																	C157.779,258.994,156.637,261.743,153.887,261.743z"/>
															</g>
														</g>
													</g>
												</g>
											</g>
										</g>
									</g>
								</g>
							</g>
						</g>
						<g>
							<g>
								<g>
									<g>
										<g>
											<g>
												<g>
													<path style="fill:#DF615C;" d="M197.503,288.488c0.069,3.308,5.674,7.451,5.674,7.451s6.51-4.143,7.301-7.451
														c0.858-3.586-3.238-4.686-6.271-1.983C201.764,283.802,197.427,284.902,197.503,288.488z"/>
												</g>
											</g>
										</g>
									</g>
								</g>
							</g>
						</g>
						<g>
							<g>
								<g>
									<g>
										<g>
											<g>
												<g>
													<path style="fill:#DCDEE2;" d="M185.645,278.896c-0.378,3.43-3.465,6.211-6.896,6.211s-5.904-2.781-5.527-6.211
														c0.378-3.43,3.465-6.211,6.896-6.211C183.549,272.685,186.023,275.466,185.645,278.896z"/>
												</g>
											</g>
										</g>
									</g>
								</g>
							</g>
						</g>
						<g>
							<g>
								<g>
									<g>
										<g>
											<g>
												<g>
													<path style="fill:#DCDEE2;" d="M144.847,246.297l-13.72,60.937h-2.311c-2.077,0-3.611-1.939-3.133-3.959l12.886-54.501
														c0.344-1.452,1.64-2.478,3.133-2.478H144.847z"/>
												</g>
											</g>
										</g>
									</g>
								</g>
							</g>
						</g>
						<g>
							<g>
								<g>
									<polygon style="fill:#FFFFFF;" points="167.84,307.233 165.432,320.775 173.386,320.775 175.794,307.233 									"/>
								</g>
							</g>
						</g>
						<g>
							<g>
								<g>
									<path style="fill:#FFFFFF;" d="M153.529,318.445l1.629-2.289c0.581-0.817,1.522-1.303,2.525-1.303h21.807
										c1.154,0,2.212,0.641,2.746,1.663l1.098,2.1c0.513,0.982-0.199,2.158-1.307,2.158h-27.296
										C153.532,320.775,152.834,319.422,153.529,318.445z"/>
								</g>
							</g>
						</g>
					</g>
				</g>
				<g>
					<g>
						<g>
							<path style="fill:#FFFFFF;" d="M108.094,320.769h65.506l0.711-2.472c0.447-1.555-0.72-3.104-2.337-3.104h-60.445
								c-1.084,0-2.037,0.718-2.337,1.76L108.094,320.769z"/>
						</g>
					</g>
				</g>
			</g>
		</g>
	</g>
	<g>
		<g>
			<defs>
				<circle id="SVGID_00000143605474967141213990000011546402384847466896_" cx="166.787" cy="175.669" r="23.699"/>
			</defs>
			<clipPath id="SVGID_00000052822246438708152100000010550756211094556858_">
				<use xlink:href="#SVGID_00000143605474967141213990000011546402384847466896_"  style="overflow:visible;"/>
			</clipPath>
			<g style="clip-path:url(#SVGID_00000052822246438708152100000010550756211094556858_);">
				<rect x="141.217" y="151.177" style="fill:#FFFFFF;" width="69.466" height="48.985"/>
				<g>
					<defs>
						
							<rect id="SVGID_00000176028272405775072640000001873329717771109037_" x="141.217" y="151.177" width="69.466" height="48.985"/>
					</defs>
					<clipPath id="SVGID_00000085225132918929477050000000169162956982146963_">
						<use xlink:href="#SVGID_00000176028272405775072640000001873329717771109037_"  style="overflow:visible;"/>
					</clipPath>
					<g style="clip-path:url(#SVGID_00000085225132918929477050000000169162956982146963_);">
						<g>
							<rect x="138.085" y="197.025" style="fill:#A92F4B;" width="81.69" height="3.137"/>
							<rect x="138.085" y="189.383" style="fill:#A92F4B;" width="81.69" height="3.137"/>
							<rect x="138.085" y="181.742" style="fill:#A92F4B;" width="81.69" height="3.137"/>
							<rect x="138.085" y="174.101" style="fill:#A92F4B;" width="81.69" height="3.137"/>
							<rect x="138.085" y="166.459" style="fill:#A92F4B;" width="81.69" height="3.137"/>
							<rect x="138.085" y="158.818" style="fill:#A92F4B;" width="81.69" height="3.137"/>
							<rect x="138.085" y="151.177" style="fill:#A92F4B;" width="81.69" height="3.137"/>
						</g>
						<g>
							<rect x="138.085" y="149.235" style="fill:#084FC7;" width="37.063" height="28.003"/>
							<g>
								<g>
									<polygon style="fill:#FFFFFF;" points="144.342,153.75 144.733,154.68 145.738,154.764 144.975,155.424 145.205,156.406 
										144.342,155.884 143.479,156.406 143.709,155.424 142.945,154.764 143.951,154.68 									"/>
									<polygon style="fill:#FFFFFF;" points="149.838,153.75 150.229,154.68 151.235,154.764 150.471,155.424 150.701,156.406 
										149.838,155.884 148.975,156.406 149.205,155.424 148.441,154.764 149.447,154.68 									"/>
									<polygon style="fill:#FFFFFF;" points="155.334,153.75 155.725,154.68 156.731,154.764 155.967,155.424 156.197,156.406 
										155.334,155.884 154.471,156.406 154.701,155.424 153.937,154.764 154.943,154.68 									"/>
									<polygon style="fill:#FFFFFF;" points="160.83,153.75 161.221,154.68 162.227,154.764 161.463,155.424 161.693,156.406 
										160.83,155.884 159.967,156.406 160.197,155.424 159.434,154.764 160.439,154.68 									"/>
									<polygon style="fill:#FFFFFF;" points="166.326,153.75 166.717,154.68 167.723,154.765 166.959,155.424 167.189,156.406 
										166.326,155.884 165.463,156.406 165.693,155.424 164.93,154.764 165.935,154.68 									"/>
									<polygon style="fill:#FFFFFF;" points="171.678,153.75 172.069,154.68 173.075,154.764 172.311,155.424 172.541,156.406 
										171.678,155.884 170.815,156.406 171.045,155.424 170.281,154.764 171.287,154.68 									"/>
								</g>
								<g>
									<polygon style="fill:#FFFFFF;" points="144.342,158.173 144.733,159.103 145.738,159.188 144.975,159.848 145.205,160.83 
										144.342,160.307 143.479,160.83 143.709,159.848 142.945,159.188 143.951,159.103 									"/>
									<polygon style="fill:#FFFFFF;" points="149.838,158.173 150.229,159.103 151.234,159.188 150.471,159.848 150.701,160.83 
										149.838,160.307 148.975,160.83 149.205,159.848 148.441,159.188 149.447,159.103 									"/>
									<polygon style="fill:#FFFFFF;" points="155.334,158.173 155.725,159.103 156.731,159.188 155.967,159.848 156.197,160.83 
										155.334,160.307 154.471,160.83 154.701,159.848 153.937,159.188 154.943,159.103 									"/>
									<polygon style="fill:#FFFFFF;" points="160.83,158.173 161.221,159.103 162.227,159.188 161.463,159.848 161.693,160.83 
										160.83,160.307 159.967,160.83 160.197,159.848 159.434,159.188 160.439,159.103 									"/>
									<polygon style="fill:#FFFFFF;" points="166.326,158.173 166.717,159.103 167.723,159.188 166.959,159.848 167.189,160.83 
										166.326,160.307 165.463,160.83 165.693,159.848 164.93,159.188 165.935,159.103 									"/>
									<polygon style="fill:#FFFFFF;" points="171.678,158.173 172.069,159.103 173.075,159.188 172.311,159.848 172.541,160.83 
										171.678,160.307 170.815,160.83 171.045,159.848 170.282,159.188 171.287,159.103 									"/>
								</g>
								<g>
									<polygon style="fill:#FFFFFF;" points="144.342,162.597 144.733,163.527 145.738,163.612 144.975,164.271 145.205,165.253 
										144.342,164.731 143.479,165.253 143.709,164.271 142.945,163.612 143.951,163.527 									"/>
									<polygon style="fill:#FFFFFF;" points="149.838,162.597 150.229,163.527 151.234,163.612 150.471,164.271 150.701,165.253 
										149.838,164.731 148.975,165.253 149.205,164.271 148.441,163.612 149.447,163.527 									"/>
									<polygon style="fill:#FFFFFF;" points="155.334,162.597 155.725,163.527 156.731,163.612 155.967,164.271 156.197,165.253 
										155.334,164.731 154.471,165.253 154.701,164.271 153.937,163.612 154.943,163.527 									"/>
									<polygon style="fill:#FFFFFF;" points="160.83,162.597 161.221,163.527 162.227,163.612 161.463,164.271 161.693,165.253 
										160.83,164.731 159.967,165.253 160.197,164.271 159.434,163.612 160.439,163.527 									"/>
									<polygon style="fill:#FFFFFF;" points="166.326,162.597 166.717,163.527 167.723,163.612 166.959,164.271 167.189,165.253 
										166.326,164.731 165.463,165.253 165.693,164.271 164.93,163.612 165.935,163.527 									"/>
									<polygon style="fill:#FFFFFF;" points="171.678,162.597 172.069,163.527 173.075,163.612 172.311,164.271 172.541,165.253 
										171.678,164.731 170.815,165.253 171.045,164.271 170.282,163.612 171.287,163.527 									"/>
								</g>
								<g>
									<polygon style="fill:#FFFFFF;" points="144.342,167.02 144.733,167.951 145.738,168.035 144.975,168.695 145.205,169.677 
										144.342,169.155 143.479,169.677 143.709,168.695 142.945,168.035 143.951,167.951 									"/>
									<polygon style="fill:#FFFFFF;" points="149.838,167.02 150.229,167.951 151.235,168.035 150.471,168.695 150.701,169.677 
										149.838,169.155 148.975,169.677 149.205,168.695 148.441,168.035 149.447,167.951 									"/>
									<polygon style="fill:#FFFFFF;" points="155.334,167.02 155.725,167.951 156.731,168.035 155.967,168.695 156.197,169.677 
										155.334,169.155 154.471,169.677 154.701,168.695 153.937,168.035 154.943,167.951 									"/>
									<polygon style="fill:#FFFFFF;" points="160.83,167.02 161.221,167.951 162.227,168.035 161.463,168.695 161.693,169.677 
										160.83,169.155 159.967,169.677 160.197,168.695 159.434,168.035 160.439,167.951 									"/>
									<polygon style="fill:#FFFFFF;" points="166.326,167.02 166.717,167.951 167.723,168.035 166.959,168.695 167.189,169.677 
										166.326,169.155 165.463,169.677 165.693,168.695 164.93,168.035 165.935,167.951 									"/>
									<polygon style="fill:#FFFFFF;" points="171.678,167.02 172.069,167.951 173.075,168.035 172.311,168.695 172.541,169.677 
										171.678,169.155 170.815,169.677 171.045,168.695 170.281,168.035 171.287,167.951 									"/>
								</g>
								<g>
									<polygon style="fill:#FFFFFF;" points="144.342,171.444 144.733,172.374 145.738,172.459 144.975,173.118 145.205,174.101 
										144.342,173.578 143.479,174.101 143.709,173.118 142.945,172.459 143.951,172.374 									"/>
									<polygon style="fill:#FFFFFF;" points="149.838,171.444 150.229,172.374 151.234,172.459 150.471,173.118 150.701,174.101 
										149.838,173.578 148.975,174.101 149.205,173.118 148.441,172.459 149.447,172.374 									"/>
									<polygon style="fill:#FFFFFF;" points="155.334,171.444 155.725,172.374 156.731,172.459 155.967,173.118 156.197,174.101 
										155.334,173.578 154.471,174.101 154.701,173.118 153.937,172.459 154.943,172.374 									"/>
									<polygon style="fill:#FFFFFF;" points="160.83,171.444 161.221,172.374 162.227,172.459 161.463,173.118 161.693,174.101 
										160.83,173.578 159.967,174.101 160.197,173.118 159.434,172.459 160.439,172.374 									"/>
									<polygon style="fill:#FFFFFF;" points="166.326,171.444 166.717,172.374 167.723,172.459 166.959,173.118 167.189,174.101 
										166.326,173.578 165.463,174.101 165.693,173.118 164.93,172.459 165.935,172.374 									"/>
									<polygon style="fill:#FFFFFF;" points="171.678,171.444 172.069,172.374 173.075,172.459 172.311,173.118 172.541,174.101 
										171.678,173.578 170.815,174.101 171.045,173.118 170.282,172.459 171.287,172.374 									"/>
								</g>
							</g>
						</g>
					</g>
				</g>
			</g>
		</g>
		
			<ellipse transform="matrix(0.2254 -0.9743 0.9743 0.2254 -46.6862 340.0171)" style="fill:#DCDEE2;" cx="190.486" cy="199.368" rx="21.675" ry="21.675"/>
		<g>
			<defs>
				
					<ellipse id="SVGID_00000147908293242786583400000006679092416929078147_" transform="matrix(0.5105 -0.8599 0.8599 0.5105 -78.1911 261.379)" cx="190.486" cy="199.368" rx="19.164" ry="19.164"/>
			</defs>
			<clipPath id="SVGID_00000139974333401845409800000017470357142319049863_">
				<use xlink:href="#SVGID_00000147908293242786583400000006679092416929078147_"  style="overflow:visible;"/>
			</clipPath>
			<g style="clip-path:url(#SVGID_00000139974333401845409800000017470357142319049863_);">
				
					<rect x="163.425" y="180.286" transform="matrix(-1 0.0042 -0.0042 -1 381.812 397.931)" style="fill:#084FC7;" width="54.122" height="38.165"/>
				<g>
					<defs>
						<polyline id="SVGID_00000160173998103893591880000001360788198253779621_" points="217.628,218.337 217.466,180.172 
							163.344,180.4 163.506,218.565 						"/>
					</defs>
					<clipPath id="SVGID_00000103969072749363685960000018404694141001215910_">
						<use xlink:href="#SVGID_00000160173998103893591880000001360788198253779621_"  style="overflow:visible;"/>
					</clipPath>
					<g style="clip-path:url(#SVGID_00000103969072749363685960000018404694141001215910_);">
						<g>
							
								<rect x="189.007" y="163.527" transform="matrix(-0.5622 -0.827 0.827 -0.5622 133.4136 470.0257)" style="fill:#FFFFFF;" width="4.22" height="72.346"/>
							
								<rect x="190.437" y="163.527" transform="matrix(-0.5622 -0.827 0.827 -0.5622 133.4099 470.0249)" style="fill:#A92F4B;" width="1.36" height="72.346"/>
						</g>
						<g>
							
								<rect x="188.377" y="163.529" transform="matrix(0.5552 -0.8317 0.8317 0.5552 -81.366 247.2653)" style="fill:#FFFFFF;" width="4.22" height="72.346"/>
							
								<rect x="189.807" y="163.529" transform="matrix(0.5552 -0.8317 0.8317 0.5552 -81.3676 247.2562)" style="fill:#A92F4B;" width="1.36" height="72.346"/>
						</g>
						<g>
							
								<rect x="185.748" y="170.614" transform="matrix(-0.0042 -1 1 -0.0042 -8.0767 390.6943)" style="fill:#FFFFFF;" width="9.476" height="57.509"/>
							
								<rect x="185.748" y="170.614" transform="matrix(-1 0.0042 -0.0042 -1 381.8119 397.9312)" style="fill:#FFFFFF;" width="9.476" height="57.509"/>
							
								<rect x="188.117" y="170.614" transform="matrix(-1 0.0042 -0.0042 -1 381.8118 397.9312)" style="fill:#A92F4B;" width="4.738" height="57.509"/>
							
								<rect x="188.117" y="170.614" transform="matrix(-0.0042 -1 1 -0.0042 -8.0767 390.6944)" style="fill:#A92F4B;" width="4.738" height="57.509"/>
						</g>
					</g>
				</g>
			</g>
		</g>
	</g>
	<g>
		<g>
			
				<rect x="614.139" y="208.947" transform="matrix(1 -0.0016 0.0016 1 -0.3636 1.0944)" style="fill:#DF615C;" width="105.906" height="26.601"/>
			<path style="fill:#FFFFFF;" d="M707.445,229.632l-81.428,0.133c-0.49,0.001-0.888-0.396-0.889-0.886l-0.021-13.127
				c-0.001-0.49,0.396-0.888,0.886-0.889l81.428-0.134c0.49-0.001,0.888,0.396,0.889,0.886l0.021,13.127
				C708.332,229.233,707.935,229.631,707.445,229.632z"/>
			<path style="fill:#DF615C;" d="M723.777,441.661l-112.601,0.184l-0.334-203.648c-0.002-1.413,1.141-2.56,2.554-2.563
				l107.485-0.176c1.413-0.002,2.56,1.141,2.562,2.554L723.777,441.661z"/>
			
				<rect x="628.167" y="247.611" transform="matrix(1 -0.0016 0.0016 1 -0.5648 1.0956)" style="fill:#DF615C;" width="78.301" height="194.142"/>
			
				<rect x="578.018" y="313.138" transform="matrix(0.0016 1 -1 0.0016 1011.8881 -322.2198)" style="fill:#DF615C;" width="178.601" height="65.053"/>
			
				<rect x="638.577" y="260.149" transform="matrix(1 -0.0016 0.0016 1 -0.5656 1.094)" style="fill:#DF615C;" width="57.484" height="171.031"/>
			
				<rect x="679.382" y="260.116" transform="matrix(1 -0.0016 0.0016 1 -0.4446 1.1216)" style="fill:#FFFFFF;" width="16.559" height="26.258"/>
			
				<rect x="658.092" y="260.149" transform="matrix(1 -0.0016 0.0016 1 -0.4477 1.0956)" style="fill:#FFFFFF;" width="18.215" height="26.258"/>
			<polygon style="fill:#DCDEE2;" points="695.963,286.36 679.404,286.387 695.92,260.102 			"/>
			<polygon style="fill:#DCDEE2;" points="676.329,286.392 659.77,286.419 676.286,260.134 			"/>
			
				<rect x="638.458" y="260.183" transform="matrix(1 -0.0016 0.0016 1 -0.4464 1.0588)" style="fill:#FFFFFF;" width="16.559" height="26.258"/>
			<polygon style="fill:#DCDEE2;" points="655.039,286.427 638.479,286.454 654.995,260.169 			"/>
			
				<rect x="679.43" y="289.449" transform="matrix(1 -0.0016 0.0016 1 -0.4979 1.1342)" style="fill:#FFFFFF;" width="16.559" height="26.258"/>
			
				<rect x="638.506" y="289.516" transform="matrix(1 -0.0016 0.0016 1 -0.4981 1.0667)" style="fill:#FFFFFF;" width="16.559" height="26.258"/>
			
				<rect x="658.14" y="289.482" transform="matrix(1 -0.0016 0.0016 1 -0.4958 1.0957)" style="fill:#FFFFFF;" width="18.215" height="26.258"/>
			<polygon style="fill:#DCDEE2;" points="696.01,315.22 679.451,315.247 695.967,288.962 			"/>
			<polygon style="fill:#DCDEE2;" points="676.376,315.252 659.817,315.279 676.333,288.994 			"/>
			<polygon style="fill:#DCDEE2;" points="655.086,315.287 638.527,315.314 655.043,289.029 			"/>
			
				<rect x="679.478" y="318.309" transform="matrix(1 -0.0016 0.0016 1 -0.5455 1.1343)" style="fill:#FFFFFF;" width="16.559" height="26.258"/>
			
				<rect x="638.554" y="318.376" transform="matrix(1 -0.0016 0.0016 1 -0.5397 1.0551)" style="fill:#FFFFFF;" width="16.559" height="26.258"/>
			
				<rect x="658.188" y="318.342" transform="matrix(1 -0.0016 0.0016 1 -0.545 1.0995)" style="fill:#FFFFFF;" width="18.215" height="26.258"/>
			<polygon style="fill:#DCDEE2;" points="696.058,344.08 679.498,344.107 696.015,317.822 			"/>
			<polygon style="fill:#DCDEE2;" points="676.423,344.112 659.864,344.139 676.38,317.854 			"/>
			<polygon style="fill:#DCDEE2;" points="655.133,344.147 638.574,344.174 655.09,317.889 			"/>
			
				<rect x="679.524" y="346.695" transform="matrix(1 -0.0016 0.0016 1 -0.5858 1.1219)" style="fill:#FFFFFF;" width="16.559" height="26.258"/>
			
				<rect x="638.6" y="346.763" transform="matrix(1 -0.0016 0.0016 1 -0.5881 1.0591)" style="fill:#FFFFFF;" width="16.559" height="26.258"/>
			
				<rect x="658.234" y="346.729" transform="matrix(1 -0.0016 0.0016 1 -0.5878 1.0923)" style="fill:#FFFFFF;" width="18.215" height="26.258"/>
			<polygon style="fill:#DCDEE2;" points="696.105,372.94 679.546,372.967 696.062,346.682 			"/>
			<polygon style="fill:#DCDEE2;" points="676.471,372.972 659.912,372.999 676.428,346.714 			"/>
			<polygon style="fill:#DCDEE2;" points="655.18,373.007 638.621,373.034 655.137,346.749 			"/>
			
				<rect x="679.572" y="375.556" transform="matrix(1 -0.0016 0.0016 1 -0.6399 1.1345)" style="fill:#FFFFFF;" width="16.559" height="26.258"/>
			
				<rect x="638.647" y="375.623" transform="matrix(1 -0.0017 0.0017 1 -0.6424 1.071)" style="fill:#FFFFFF;" width="16.559" height="26.258"/>
			
				<rect x="658.281" y="375.589" transform="matrix(1 -0.0016 0.0016 1 -0.6351 1.0924)" style="fill:#FFFFFF;" width="18.215" height="26.258"/>
			<polygon style="fill:#DCDEE2;" points="696.152,401.8 679.593,401.827 696.109,375.542 			"/>
			<polygon style="fill:#DCDEE2;" points="676.518,401.832 659.959,401.859 676.475,375.574 			"/>
			<polygon style="fill:#DCDEE2;" points="655.228,401.867 638.669,401.894 655.185,375.609 			"/>
			
				<rect x="679.62" y="404.888" transform="matrix(1 -0.0016 0.0016 1 -0.6857 1.1305)" style="fill:#FFFFFF;" width="16.559" height="26.258"/>
			
				<rect x="638.696" y="404.956" transform="matrix(1 -0.0016 0.0016 1 -0.6834 1.0594)" style="fill:#FFFFFF;" width="16.559" height="26.258"/>
			
				<rect x="658.33" y="404.922" transform="matrix(1 -0.0017 0.0017 1 -0.6899 1.1035)" style="fill:#FFFFFF;" width="18.215" height="26.258"/>
			<polygon style="fill:#DCDEE2;" points="696.201,431.133 679.641,431.16 696.157,404.875 			"/>
			<polygon style="fill:#DCDEE2;" points="676.566,431.165 660.007,431.192 676.523,404.907 			"/>
			<polygon style="fill:#DCDEE2;" points="655.276,431.2 638.717,431.227 655.233,404.942 			"/>
			<g>
				<g>
					
						<rect x="676.424" y="258.003" transform="matrix(1 -0.0016 0.0016 1 -0.5482 1.0808)" style="fill:#DF615C;" width="3.075" height="173.16"/>
					
						<rect x="655.134" y="258.037" transform="matrix(1 -0.0016 0.0016 1 -0.5483 1.0468)" style="fill:#DF615C;" width="3.075" height="173.16"/>
				</g>
			</g>
			<g>
				<g>
					
						<rect x="638.482" y="286.407" transform="matrix(1 -0.0016 0.0016 1 -0.4715 1.095)" style="fill:#DF615C;" width="57.484" height="3.075"/>
					
						<rect x="638.529" y="315.267" transform="matrix(1 -0.0016 0.0016 1 -0.5199 1.0974)" style="fill:#DF615C;" width="57.483" height="3.075"/>
					
						<rect x="638.577" y="344.127" transform="matrix(1 -0.0016 0.0016 1 -0.5656 1.094)" style="fill:#DF615C;" width="57.483" height="3.075"/>
					
						<rect x="638.624" y="372.987" transform="matrix(1 -0.0016 0.0016 1 -0.6128 1.0941)" style="fill:#DF615C;" width="57.484" height="3.075"/>
					
						<rect x="638.672" y="401.847" transform="matrix(1 -0.0016 0.0016 1 -0.6622 1.0977)" style="fill:#DF615C;" width="57.483" height="3.075"/>
				</g>
			</g>
		</g>
		<path style="fill:#DF615C;" d="M725.244,208.851c0-0.798,0.001-1.596-0.004-2.394c-0.004-0.637,0.088-1.243-0.099-1.87
			c-0.506-1.706-2.644-2.915-4.063-3.848c-1.889-1.242-3.859-2.362-5.86-3.412c-2.641-1.386-5.348-2.645-8.1-3.796
			c-3.263-1.365-6.59-2.575-9.967-3.628c-3.764-1.174-7.591-2.151-11.461-2.907c-4.154-0.812-8.358-1.37-12.583-1.635
			c-1.885-0.118-3.774-0.177-5.663-0.174c-4.322,0.007-8.642,0.342-12.917,0.975c-3.968,0.587-7.898,1.431-11.763,2.502
			c-3.509,0.972-6.966,2.132-10.356,3.462c-2.952,1.158-5.855,2.444-8.695,3.854c-2.304,1.144-4.568,2.368-6.781,3.68
			c-1.742,1.033-3.431,2.142-5.087,3.295c-0.282,0.197-0.578,0.373-0.86,0.571c-0.646,0.453-1.126,0.949-1.1,1.75
			c0.011,0.35,0.001,0.702,0.002,1.052c0.001,0.904,0.003,1.809,0.005,2.713L725.244,208.851z"/>
		<line style="fill:none;stroke:#39393B;stroke-miterlimit:10;" x1="625.116" y1="221.814" x2="708.321" y2="222.501"/>
	</g>
	<g>
		<g style="opacity:0.15;">
			<g>
				<path style="fill:#39393B;" d="M647.03,459.862c0,2.835-23.253,5.132-51.937,5.132c-28.684,0-51.937-2.298-51.937-5.132
					c0-2.834,23.253-5.132,51.937-5.132C623.777,454.73,647.03,457.028,647.03,459.862z"/>
			</g>
		</g>
		<g>
			<g>
				<g>
					<g>
						<g>
							<path style="fill:#EBB12B;" d="M579.463,413.338c0,0-24.478-4.839-31.31-21.917c-6.831-17.078,18.145-29.887,31.31-20.716
								C593.547,380.516,579.463,413.338,579.463,413.338z"/>
						</g>
					</g>
					<g>
						<g>
							<path style="fill:#39393B;" d="M594.019,458.205c-0.216,0-0.405-0.158-0.438-0.378
								c-2.345-15.862-11.797-38.685-19.313-55.037c-8.151-17.733-15.843-31.884-15.92-32.025c-0.117-0.215-0.038-0.484,0.177-0.601
								c0.215-0.117,0.484-0.038,0.601,0.177c0.077,0.141,7.784,14.319,15.947,32.079c7.54,16.405,17.025,39.312,19.385,55.277
								c0.036,0.242-0.131,0.467-0.373,0.503C594.062,458.203,594.04,458.205,594.019,458.205z"/>
						</g>
					</g>
				</g>
				<g>
					<g>
						<path style="fill:#39393B;" d="M578.544,411.686c-0.158,0-0.311-0.085-0.391-0.233c-10.647-19.831-27.936-34.218-28.11-34.361
							c-0.189-0.156-0.216-0.435-0.06-0.623c0.156-0.189,0.435-0.215,0.623-0.06c0.175,0.144,17.595,14.637,28.327,34.625
							c0.116,0.216,0.035,0.484-0.181,0.6C578.687,411.669,578.615,411.686,578.544,411.686z"/>
					</g>
				</g>
				<g>
					<g>
						<path style="fill:#39393B;" d="M579.028,413.106c-0.125,0-0.25-0.053-0.338-0.156c-7.765-9.14-15.716-14.822-21.02-17.979
							c-5.749-3.422-9.712-4.698-9.751-4.71c-0.233-0.074-0.362-0.323-0.288-0.556c0.074-0.233,0.323-0.362,0.556-0.289
							c0.164,0.052,4.078,1.31,9.907,4.776c5.369,3.193,13.418,8.939,21.271,18.184c0.159,0.186,0.136,0.466-0.051,0.624
							C579.231,413.071,579.129,413.106,579.028,413.106z"/>
					</g>
				</g>
				<g>
					<g>
						<path style="fill:#39393B;" d="M576.874,407.907c-0.184,0-0.356-0.116-0.419-0.3c-5.968-17.516-3.773-38.804-3.75-39.017
							c0.026-0.243,0.243-0.419,0.488-0.393c0.243,0.026,0.419,0.244,0.393,0.488c-0.023,0.211-2.196,21.309,3.708,38.637
							c0.079,0.232-0.045,0.483-0.276,0.562C576.969,407.899,576.921,407.907,576.874,407.907z"/>
					</g>
				</g>
				<g>
					<g>
						<path style="fill:#39393B;" d="M578.375,411.374c-0.213,0-0.401-0.154-0.436-0.371c-1.826-11.088-0.423-20.133,1.076-25.768
							c1.628-6.12,3.662-9.566,3.748-9.709c0.125-0.21,0.397-0.279,0.607-0.153c0.21,0.125,0.279,0.397,0.154,0.607
							c-0.021,0.035-2.068,3.508-3.662,9.519c-1.471,5.544-2.846,14.444-1.049,25.36c0.04,0.241-0.124,0.469-0.365,0.509
							C578.423,411.372,578.399,411.374,578.375,411.374z"/>
					</g>
				</g>
			</g>
			<g>
				<g>
					<g>
						<g>
							<path style="fill:#EBB12B;" d="M605.285,417.8c0,0,24.722-3.382,32.552-20.025c7.83-16.644-16.345-30.908-30.029-22.533
								C593.168,384.202,605.285,417.8,605.285,417.8z"/>
						</g>
					</g>
					<g>
						<g>
							<path style="fill:#39393B;" d="M595.907,456.754c-0.002,0-0.004,0-0.005,0c-0.245-0.003-0.441-0.204-0.438-0.448
								c0.097-8.169,1.879-17.475,5.296-27.658c2.729-8.134,6.502-16.845,11.214-25.893c8.019-15.398,16.094-26.587,16.175-26.698
								c0.144-0.198,0.421-0.242,0.619-0.099c0.198,0.144,0.242,0.421,0.099,0.619c-0.081,0.111-8.123,11.256-16.113,26.599
								c-7.362,14.139-16.185,34.836-16.403,53.14C596.347,456.559,596.15,456.754,595.907,456.754z"/>
						</g>
					</g>
				</g>
				<g>
					<g>
						<path style="fill:#39393B;" d="M606.326,416.205c-0.079,0-0.16-0.021-0.232-0.066c-0.208-0.128-0.273-0.401-0.145-0.609
							c11.896-19.319,30.144-32.755,30.326-32.888c0.198-0.144,0.475-0.101,0.619,0.097c0.144,0.198,0.101,0.475-0.097,0.619
							c-0.181,0.132-18.292,13.471-30.094,32.637C606.62,416.131,606.475,416.205,606.326,416.205z"/>
					</g>
				</g>
				<g>
					<g>
						<path style="fill:#39393B;" d="M605.76,417.594c-0.11,0-0.22-0.041-0.306-0.123c-0.177-0.169-0.183-0.45-0.014-0.626
							c8.387-8.764,16.762-14.024,22.311-16.893c6.025-3.115,10.006-4.139,10.172-4.181c0.236-0.06,0.478,0.084,0.538,0.321
							c0.06,0.237-0.084,0.478-0.32,0.538c-0.04,0.01-4.072,1.049-10.013,4.125c-5.481,2.838-13.755,8.039-22.047,16.703
							C605.993,417.548,605.876,417.594,605.76,417.594z"/>
					</g>
				</g>
				<g>
					<g>
						<path style="fill:#39393B;" d="M608.217,412.532c-0.056,0-0.112-0.011-0.167-0.033c-0.226-0.092-0.335-0.351-0.243-0.578
							c6.919-16.947,5.998-38.137,5.988-38.349c-0.012-0.244,0.177-0.452,0.421-0.464c0.241-0.013,0.452,0.177,0.464,0.421
							c0.01,0.214,0.942,21.594-6.053,38.727C608.557,412.428,608.392,412.532,608.217,412.532z"/>
					</g>
				</g>
				<g>
					<g>
						<path style="fill:#39393B;" d="M606.513,415.905c-0.032,0-0.065-0.003-0.098-0.011c-0.239-0.054-0.388-0.291-0.334-0.53
							c2.441-10.79,1.594-19.756,0.454-25.378c-1.236-6.095-3.074-9.684-3.092-9.719c-0.113-0.217-0.028-0.484,0.189-0.597
							c0.217-0.112,0.484-0.028,0.597,0.189c0.077,0.148,1.904,3.709,3.167,9.914c1.163,5.714,2.028,14.826-0.451,25.786
							C606.899,415.765,606.716,415.905,606.513,415.905z"/>
					</g>
				</g>
			</g>
			<g>
				<g>
					<g>
						<g>
							<path style="fill:#EBB12B;" d="M595.766,385.594c0,0-20.947-13.559-20.968-31.953c-0.022-18.394,27.922-21.043,36.755-7.65
								C621.003,360.321,595.766,385.594,595.766,385.594z"/>
						</g>
					</g>
					<g>
						<g>
							<path style="fill:#39393B;" d="M592.838,432.693c-0.034,0-0.068-0.004-0.103-0.012c-0.238-0.056-0.385-0.295-0.329-0.533
								c3.695-15.603,3.366-40.303,2.439-58.276c-1.005-19.49-2.91-35.484-2.929-35.644c-0.029-0.243,0.144-0.463,0.387-0.492
								c0.241-0.028,0.464,0.144,0.493,0.387c0.019,0.159,1.928,16.184,2.935,35.703c0.93,18.031,1.257,42.821-2.462,58.526
								C593.22,432.556,593.039,432.693,592.838,432.693z"/>
						</g>
					</g>
				</g>
				<g>
					<g>
						<path style="fill:#39393B;" d="M595.688,383.75c-0.222,0-0.414-0.167-0.44-0.393c-2.547-22.364-13.28-42.13-13.388-42.327
							c-0.118-0.214-0.039-0.484,0.175-0.601c0.214-0.118,0.484-0.039,0.601,0.175c0.109,0.198,10.925,20.111,13.492,42.653
							c0.028,0.243-0.147,0.463-0.39,0.49C595.721,383.749,595.704,383.75,595.688,383.75z"/>
					</g>
				</g>
				<g>
					<g>
						<path style="fill:#39393B;" d="M595.612,385.249c-0.185,0-0.357-0.117-0.42-0.302c-3.828-11.365-9.111-19.588-12.868-24.484
							c-4.073-5.308-7.282-7.96-7.314-7.987c-0.189-0.155-0.217-0.434-0.062-0.623c0.155-0.189,0.434-0.217,0.623-0.062
							c0.133,0.109,3.303,2.727,7.435,8.105c3.805,4.954,9.154,13.272,13.026,24.768c0.078,0.232-0.047,0.483-0.278,0.561
							C595.706,385.241,595.659,385.249,595.612,385.249z"/>
					</g>
				</g>
				<g>
					<g>
						<path style="fill:#39393B;" d="M595.536,379.621c-0.008,0-0.015,0-0.023,0c-0.244-0.013-0.432-0.221-0.42-0.465
							c0.942-18.481,10.864-37.443,10.965-37.632c0.115-0.216,0.383-0.299,0.599-0.184c0.216,0.114,0.299,0.382,0.185,0.598
							c-0.099,0.188-9.931,18.981-10.863,37.263C595.966,379.438,595.771,379.621,595.536,379.621z"/>
					</g>
				</g>
				<g>
					<g>
						<path style="fill:#39393B;" d="M595.647,383.398c-0.031,0-0.063-0.003-0.095-0.011c-0.239-0.052-0.39-0.289-0.338-0.527
							c2.409-10.975,7.077-18.919,10.568-23.651c3.791-5.137,6.969-7.64,7.102-7.744c0.192-0.15,0.471-0.116,0.622,0.077
							c0.15,0.193,0.116,0.471-0.077,0.622c-0.032,0.025-3.234,2.551-6.956,7.601c-3.432,4.658-8.022,12.479-10.394,23.285
							C596.034,383.257,595.851,383.398,595.647,383.398z"/>
					</g>
				</g>
			</g>
			<g>
				<g>
					<path style="fill:#39393B;" d="M621.358,430.311l-0.731,1.938l-0.461,1.228l-1.325,3.516l-0.463,1.228l-1.361,3.611
						l-0.461,1.226l-5.835,15.494h-31.879l-5.835-15.494l-0.461-1.226l-1.361-3.611l-0.463-1.228l-1.325-3.516l-0.461-1.228
						l-0.731-1.938c-0.501-1.328,0.48-2.746,1.899-2.746h49.352C620.876,427.565,621.857,428.983,621.358,430.311z"/>
				</g>
			</g>
			<g>
				<g>
					<g>
						<polygon style="fill:#EDEEF1;" points="620.627,432.249 620.166,433.477 569.398,433.477 568.937,432.249 						"/>
					</g>
				</g>
				<g>
					<g>
						<polygon style="fill:#EDEEF1;" points="618.842,436.993 618.379,438.221 571.186,438.221 570.723,436.993 						"/>
					</g>
				</g>
				<g>
					<g>
						<polygon style="fill:#EDEEF1;" points="617.018,441.832 616.557,443.058 573.008,443.058 572.547,441.832 						"/>
					</g>
				</g>
			</g>
		</g>
	</g>
	<g>
		<g>
			<path style="fill:#084FC7;" d="M711.852,117.684c-2.135-3.076-5.692-5.091-9.721-5.091H666.03c-3.765,0-7.12,1.76-9.285,4.503
				c-1.59,2.013-2.538,4.556-2.538,7.32v15.641c0,3.814,1.807,7.207,4.611,9.369c1.996,1.539,4.497,2.454,7.212,2.454h10.408v16.307
				l16.306-16.307h9.387c2.875,0,5.51-1.026,7.559-2.731c2.606-2.169,4.264-5.436,4.264-9.091v-15.641
				C713.954,121.915,713.178,119.595,711.852,117.684z"/>
			<g>
				<path style="fill:#FFFFFF;" d="M673.387,133.141c0,1.586-1.286,2.872-2.872,2.872c-1.586,0-2.872-1.286-2.872-2.872
					c0-1.586,1.286-2.872,2.872-2.872C672.101,130.269,673.387,131.555,673.387,133.141z"/>
				<path style="fill:#FFFFFF;" d="M686.941,133.141c0,1.586-1.286,2.872-2.872,2.872s-2.872-1.286-2.872-2.872
					c0-1.586,1.286-2.872,2.872-2.872S686.941,131.555,686.941,133.141z"/>
				<path style="fill:#FFFFFF;" d="M700.495,133.141c0,1.586-1.286,2.872-2.872,2.872s-2.872-1.286-2.872-2.872
					c0-1.586,1.286-2.872,2.872-2.872S700.495,131.555,700.495,133.141z"/>
			</g>
		</g>
		<g>
			<path style="fill:#084FC7;" d="M64.923,101.055c2.195-3.163,5.853-5.235,9.995-5.235h37.122c3.872,0,7.321,1.81,9.547,4.63
				c1.635,2.07,2.61,4.685,2.61,7.527v16.083c0,3.922-1.858,7.411-4.741,9.634c-2.052,1.582-4.624,2.523-7.416,2.523h-10.702v16.768
				l-16.768-16.768h-9.652c-2.956,0-5.665-1.055-7.772-2.809c-2.679-2.23-4.385-5.59-4.385-9.349v-16.083
				C62.762,105.405,63.56,103.02,64.923,101.055z"/>
		</g>
		<g>
			<path style="fill:#084FC7;" d="M529.737,250.222c2.195-3.163,5.853-5.235,9.995-5.235h37.122c3.872,0,7.321,1.81,9.547,4.63
				c1.635,2.07,2.61,4.685,2.61,7.527v16.083c0,3.922-1.858,7.411-4.741,9.634c-2.052,1.582-4.624,2.523-7.416,2.523h-10.702v16.768
				l-16.768-16.768h-9.652c-2.956,0-5.665-1.055-7.772-2.809c-2.679-2.23-4.385-5.59-4.385-9.348v-16.083
				C527.576,254.572,528.375,252.187,529.737,250.222z"/>
		</g>
	</g>
	<g>
		<g>
			<g>
				<polygon style="fill:#EDEEF1;" points="506.44,335.796 539.199,350.117 548.711,341.688 				"/>
				<polygon style="fill:#EDEEF1;" points="506.44,335.796 534.435,354.991 521.138,367.585 				"/>
			</g>
			<g>
				<polygon style="fill:#DCDEE2;" points="529.302,359.852 544.921,364.097 539.199,350.117 506.44,335.796 534.435,354.991 				
					"/>
				<polyline style="fill:none;stroke:#EDEEF1;stroke-miterlimit:10;" points="534.435,354.991 544.921,364.097 539.199,350.117 
									"/>
			</g>
		</g>
		<g>
			<g>
				<polygon style="fill:#EDEEF1;" points="196.93,102.885 164.17,117.206 154.658,108.776 				"/>
				<polygon style="fill:#EDEEF1;" points="196.93,102.885 168.934,122.08 182.232,134.673 				"/>
			</g>
			<g>
				<polygon style="fill:#DCDEE2;" points="174.067,126.941 158.449,131.185 164.17,117.206 196.93,102.885 168.934,122.08 				"/>
				<polyline style="fill:none;stroke:#EDEEF1;stroke-miterlimit:10;" points="168.934,122.08 158.449,131.185 164.17,117.206 				
					"/>
			</g>
		</g>
	</g>
</g>
<g id="TEXTS">
	
		<text transform="matrix(1 0 0 1 68.9903 122.5171)" style="fill:#FFFFFF; font-family:'PatrickHand-Regular'; font-size:18.3574px;">English</text>
	
		<text transform="matrix(1 0 0 1 539.8045 271.6842)" style="fill:#FFFFFF; font-family:'PatrickHand-Regular'; font-size:18.3574px;">Hello!</text>
</g>
</svg>
