<?xml version="1.0" encoding="utf-8"?>
<!-- Generator: Adobe Illustrator 27.5.0, SVG Export Plug-In . SVG Version: 6.00 Build 0)  -->
<svg version="1.1" xmlns="http://www.w3.org/2000/svg" xmlns:xlink="http://www.w3.org/1999/xlink" x="0px" y="0px"
	 viewBox="0 0 3710 3710" style="enable-background:new 0 0 3710 3710;" xml:space="preserve">
<g id="Background">
	<g>
		<g>
			<rect style="fill:#FFFFFF;" width="3710" height="3710"/>
		</g>
	</g>
</g>
<g id="Illustration">
	<g id="Branded_workshop">
		<path style="fill:#F4F7FA;" d="M3260.632,1597.092c-74.682-477.038-380.876-1063.114-985.797-1124.448
			c0,0-459.285-54.518-912.038,28.109c-268.71,49.039-504.329,195.018-653.419,404.826
			c-149.091,209.808-198.893,465.641-138.453,709.545c39.255,158.418,65.782,322.375,58.502,485.159
			c-12.67,283.311-5.38,547.76,276.36,716.719c251.562,150.861,568.156,283.915,870.192,307.22
			c205.261,15.837,435.449-9.791,633.282-61.942C3417.463,2796.502,3335.313,2074.13,3260.632,1597.092z"/>
		<g>
			<g>
				<path style="fill:#D8DEE8;" d="M2079.417,694.164L919.823,654.916c-26.511-0.897-48.047,19.643-48.047,45.881v2106.427
					c0,26.238,21.535,46.282,48.047,44.774l1159.593-65.939c23.983-1.364,43.389-22.639,43.389-47.525V740.691
					C2122.805,715.806,2103.4,694.976,2079.417,694.164z"/>
				<g style="opacity:0.3;">
					<path style="fill:#D8DEE8;" d="M1603.635,2249.601c-19.721-240.853,128.231-340.267,71.811-558.482
						c-69.74-269.732-337.966-281.293-429.313-545.799c-35-101.345-48.827-254.558,51.362-477.621l-377.671-12.783
						c-26.511-0.897-48.047,19.643-48.047,45.881v2106.427c0,26.238,21.535,46.282,48.047,44.774l1033.965-58.796
						C1690.724,2589.514,1615.755,2397.641,1603.635,2249.601z"/>
				</g>
				<linearGradient id="SVGID_1_" gradientUnits="userSpaceOnUse" x1="2070.9492" y1="784.488" x2="1215.0355" y2="2185.0723">
					<stop  offset="0" style="stop-color:#FFFFFF"/>
					<stop  offset="0.9964" style="stop-color:#EBEFF2"/>
				</linearGradient>
				<path style="fill:url(#SVGID_1_);" d="M2079.417,720.761l-1159.593-37.91c-10.867-0.355-19.715,8.1-19.715,18.849v2103.969
					c0,10.749,8.848,19,19.715,18.395l1159.593-64.602c9.844-0.548,17.845-9.307,17.845-19.525V739.876
					C2097.261,729.658,2089.26,721.083,2079.417,720.761z"/>
			</g>
			<g>
				<path style="fill:#D8DEE8;" d="M1860.411,2313.542l-703.618,25.353c-16.61,0.598-30.092,14.537-30.092,31.132l0,0
					c0,16.595,13.483,29.529,30.092,28.889l703.618-27.114c15.629-0.602,28.282-14.116,28.282-30.184l0,0
					C1888.694,2325.549,1876.04,2312.979,1860.411,2313.542z"/>
				<path style="fill:#D8DEE8;" d="M1860.411,2417.318l-703.618,28.49c-16.61,0.673-30.092,14.671-30.092,31.267l0,0
					c0,16.595,13.483,29.469,30.092,28.755l703.618-30.251c15.629-0.672,28.282-14.242,28.282-30.311l0,0
					C1888.694,2429.199,1876.04,2416.686,1860.411,2417.318z"/>
				<path style="fill:#D8DEE8;" d="M1860.411,2521.094l-703.618,31.626c-16.61,0.746-30.092,14.805-30.092,31.401l0,0
					c0,16.595,13.483,29.408,30.092,28.62l703.618-33.387c15.629-0.742,28.282-14.368,28.282-30.437l0,0
					C1888.694,2532.849,1876.04,2520.392,1860.411,2521.094z"/>
			</g>
			<g>
				<path style="fill:#D8DEE8;" d="M1495.542,804.995l-353.938-10.025c-8.229-0.233-14.904,6.236-14.904,14.45l0,0
					c0,8.214,6.675,15.053,14.904,15.276l353.938,9.586c7.982,0.216,14.449-6.161,14.449-14.243l0,0
					C1509.992,811.956,1503.525,805.221,1495.542,804.995z"/>
				<path style="fill:#D8DEE8;" d="M1495.542,857.164l-353.938-9.244c-8.229-0.215-14.904,6.269-14.904,14.483l0,0
					c0,8.213,6.675,15.038,14.904,15.243l353.938,8.805c7.982,0.198,14.449-6.193,14.449-14.276l0,0
					C1509.992,864.093,1503.525,857.372,1495.542,857.164z"/>
				<path style="fill:#D8DEE8;" d="M1495.542,909.332l-353.938-8.463c-8.229-0.197-14.904,6.302-14.904,14.516l0,0
					c0,8.214,6.675,15.024,14.904,15.21l353.938,8.024c7.982,0.181,14.449-6.225,14.449-14.307l0,0
					C1509.992,916.23,1503.525,909.523,1495.542,909.332z"/>
			</g>
			<g style="opacity:0.5;">
				<polygon style="fill:#D8DEE8;" points="1345.149,1599.185 1175.007,1599.185 1089.936,1746.532 1175.007,1893.879 
					1345.149,1893.879 1430.22,1746.532 				"/>
				<polygon style="fill:#D8DEE8;" points="1899.189,1599.185 1729.047,1599.185 1643.976,1746.532 1729.047,1893.879 
					1899.189,1893.879 1984.26,1746.532 				"/>
				<polygon style="fill:#D8DEE8;" points="1345.149,1273.465 1175.007,1273.465 1089.936,1420.812 1175.007,1568.16 
					1345.149,1568.16 1430.22,1420.812 				"/>
				<polygon style="fill:#D8DEE8;" points="1899.189,1273.465 1729.047,1273.465 1643.976,1420.812 1729.047,1568.16 
					1899.189,1568.16 1984.26,1420.812 				"/>
				<polygon style="fill:#D8DEE8;" points="1625.055,1763.123 1454.913,1763.123 1369.842,1910.471 1454.913,2057.818 
					1625.055,2057.818 1710.126,1910.471 				"/>
				<polygon style="fill:#D8DEE8;" points="1624.333,1436.325 1454.191,1436.325 1369.12,1583.672 1454.191,1731.02 
					1624.333,1731.02 1709.404,1583.672 				"/>
				<polygon style="fill:#D8DEE8;" points="1623.612,1109.526 1453.47,1109.526 1368.399,1256.874 1453.47,1404.221 
					1623.612,1404.221 1708.683,1256.874 				"/>
			</g>
		</g>
		<g>
			<g>
				<g>
					<g>
						<path style="fill:#D8DEE8;" d="M2805.971,831.16c-0.746,0-1.351-0.605-1.351-1.351v-19.926c0-0.746,0.604-1.351,1.351-1.351
							c0.746,0,1.351,0.605,1.351,1.351v19.926C2807.321,830.555,2806.717,831.16,2805.971,831.16z"/>
						<path style="fill:#D8DEE8;" d="M2805.971,1102.96c-0.746,0-1.351-0.604-1.351-1.351V829.809c0-0.746,0.604-1.351,1.351-1.351
							c0.746,0,1.351,0.605,1.351,1.351v271.801C2807.321,1102.356,2806.717,1102.96,2805.971,1102.96z"/>
						<path style="fill:#D8DEE8;" d="M2805.971,1122.886c-0.746,0-1.351-0.604-1.351-1.351v-19.926c0-0.746,0.604-1.351,1.351-1.351
							c0.746,0,1.351,0.604,1.351,1.351v19.926C2807.321,1122.282,2806.717,1122.886,2805.971,1122.886z"/>
					</g>
					<g>
						<path style="fill:#D8DEE8;" d="M2805.971,770.413c-0.746,0-1.351-0.605-1.351-1.351v-19.926c0-0.746,0.604-1.351,1.351-1.351
							c0.746,0,1.351,0.605,1.351,1.351v19.926C2807.321,769.808,2806.717,770.413,2805.971,770.413z"/>
						<path style="fill:#D8DEE8;" d="M2805.971,771.94c-0.746,0-1.351-0.605-1.351-1.351v-1.527c0-0.746,0.604-1.351,1.351-1.351
							c0.746,0,1.351,0.605,1.351,1.351v1.527C2807.321,771.336,2806.717,771.94,2805.971,771.94z"/>
						<path style="fill:#D8DEE8;" d="M2805.971,791.866c-0.746,0-1.351-0.605-1.351-1.351V770.59c0-0.746,0.604-1.351,1.351-1.351
							c0.746,0,1.351,0.605,1.351,1.351v19.926C2807.321,791.261,2806.717,791.866,2805.971,791.866z"/>
					</g>
					<path style="fill:#D8DEE8;" d="M2805.971,733.485c-0.746,0-1.351-0.605-1.351-1.351v-17.333c0-0.746,0.604-1.351,1.351-1.351
						c0.746,0,1.351,0.605,1.351,1.351v17.333C2807.321,732.88,2806.717,733.485,2805.971,733.485z"/>
				</g>
				<g>
					
						<linearGradient id="SVGID_00000120532697517423346120000015180013147383968697_" gradientUnits="userSpaceOnUse" x1="622.015" y1="1634.2434" x2="798.5839" y2="1573.1234" gradientTransform="matrix(0.948 -0.3182 0.3182 0.948 1402.5181 105.504)">
						<stop  offset="0" style="stop-color:#FFC444"/>
						<stop  offset="0.9964" style="stop-color:#F36F56"/>
					</linearGradient>
					<path style="fill:url(#SVGID_00000120532697517423346120000015180013147383968697_);" d="M2884.781,1397.91l-240.128,9.983
						c-25.987,1.081-47.707-18.593-48.417-43.919l-2.779-225.892c-0.702-25.017,10.173-36.512,37.674-45.792l55.795-18.73
						l186.689,3.035c24.77-0.404,45.486,19.011,46.359,43.39l61.628,247.341C2982.486,1391.999,2909.716,1396.873,2884.781,1397.91z
						"/>
				</g>
				<g>
					
						<linearGradient id="SVGID_00000059291700066291312550000008927467687800670628_" gradientUnits="userSpaceOnUse" x1="919.0424" y1="1304.1548" x2="1284.2462" y2="2475.4795" gradientTransform="matrix(0.948 -0.3182 0.3182 0.948 1402.5181 105.504)">
						<stop  offset="0" style="stop-color:#FFC444"/>
						<stop  offset="0.9964" style="stop-color:#F36F56"/>
					</linearGradient>
					<path style="fill:url(#SVGID_00000059291700066291312550000008927467687800670628_);" d="M2948.631,1389.335l-240.128,9.983
						c-25.987,1.08-47.707-18.593-48.417-43.919l-6.659-237.449c-0.702-25.017,19.727-45.618,45.534-46.039l238.504-3.891
						c24.77-0.404,45.486,19.012,46.359,43.39l8.283,231.356C2992.991,1367.439,2973.566,1388.298,2948.631,1389.335z"/>
				</g>
				<path style="fill:#FFFFFF;" d="M2832.566,1263.685l-38.117,1.198l2.782,89.052l-48.258,1.85l-7.328-243.304l86.324-1.684
					c27.204-0.531,48.317,5.366,63.409,17.67c15.065,12.286,22.981,29.918,23.767,52.936c0.558,16.348-2.347,30.083-8.724,41.205
					c-6.386,11.143-16.349,20.177-29.904,27.098l52.916,96.838l0.08,2.319l-50.75,1.946L2832.566,1263.685z M2793.185,1224.406
					l38.562-1.09c11.957-0.338,21.096-3.773,27.43-10.301c6.324-6.517,9.301-15.338,8.933-26.461
					c-0.375-11.336-3.746-20.174-10.117-26.521c-6.375-6.348-15.948-9.382-28.731-9.093l-38.344,0.868L2793.185,1224.406z"/>
				<g style="opacity:0.3;">
					
						<linearGradient id="SVGID_00000103964216438832064400000001690412995649575305_" gradientUnits="userSpaceOnUse" x1="856.675" y1="1324.0074" x2="1221.5292" y2="2494.2107" gradientTransform="matrix(0.948 -0.3182 0.3182 0.948 1402.5181 105.504)">
						<stop  offset="0" style="stop-color:#FFC444"/>
						<stop  offset="0.9964" style="stop-color:#F36F56"/>
					</linearGradient>
					<path style="fill:url(#SVGID_00000103964216438832064400000001690412995649575305_);" d="M2822.678,1323.763
						c-15.919-70.252,47.408-119.521,26.4-181.008c-8.885-26.005-31.768-51.096-78.126-72.019l-71.032,1.16
						c-26.335,0.43-47.183,21.455-46.467,46.986l6.607,235.574c0.724,25.846,22.891,45.924,49.409,44.822l157.368-6.542
						C2844.458,1373.035,2828.672,1350.215,2822.678,1323.763z"/>
				</g>
			</g>
			<g>
				<g>
					<g>
						<path style="fill:#D8DEE8;" d="M2453.956,827.839c-0.746,0-1.351-0.605-1.351-1.351v-19.925c0-0.746,0.604-1.351,1.351-1.351
							c0.746,0,1.351,0.605,1.351,1.351v19.925C2455.307,827.234,2454.702,827.839,2453.956,827.839z"/>
						<path style="fill:#D8DEE8;" d="M2453.956,1099.64c-0.746,0-1.351-0.604-1.351-1.351V826.488c0-0.746,0.604-1.351,1.351-1.351
							c0.746,0,1.351,0.605,1.351,1.351v271.801C2455.307,1099.036,2454.702,1099.64,2453.956,1099.64z"/>
						<path style="fill:#D8DEE8;" d="M2453.956,1119.565c-0.746,0-1.351-0.604-1.351-1.351v-19.925c0-0.746,0.604-1.351,1.351-1.351
							c0.746,0,1.351,0.604,1.351,1.351v19.925C2455.307,1118.96,2454.702,1119.565,2453.956,1119.565z"/>
					</g>
					<g>
						<path style="fill:#D8DEE8;" d="M2453.956,767.092c-0.746,0-1.351-0.605-1.351-1.351v-19.925c0-0.746,0.604-1.351,1.351-1.351
							c0.746,0,1.351,0.605,1.351,1.351v19.925C2455.307,766.487,2454.702,767.092,2453.956,767.092z"/>
						<path style="fill:#D8DEE8;" d="M2453.956,768.62c-0.746,0-1.351-0.605-1.351-1.351v-1.528c0-0.746,0.604-1.351,1.351-1.351
							c0.746,0,1.351,0.605,1.351,1.351v1.528C2455.307,768.015,2454.702,768.62,2453.956,768.62z"/>
						<path style="fill:#D8DEE8;" d="M2453.956,788.545c-0.746,0-1.351-0.605-1.351-1.351v-19.925c0-0.746,0.604-1.351,1.351-1.351
							c0.746,0,1.351,0.605,1.351,1.351v19.925C2455.307,787.94,2454.702,788.545,2453.956,788.545z"/>
					</g>
					<path style="fill:#D8DEE8;" d="M2453.956,730.164c-0.746,0-1.351-0.605-1.351-1.351v-17.332c0-0.746,0.604-1.351,1.351-1.351
						c0.746,0,1.351,0.605,1.351,1.351v17.332C2455.307,729.559,2454.702,730.164,2453.956,730.164z"/>
				</g>
				<g>
					<path style="fill:#B7C0CE;" d="M2609.747,1267.025c-9.664,10.788-21.909,18.935-35.573,23.737l-225.96,79.419
						c-25.367,8.849-53.914-3.666-63.682-28.02l-89.469-220.708c-6.042-14.906-6.009-31.567,0.038-46.471
						c13.661-33.669,43.004-95.389,65.161-103.248l199.432,2.317c24.826-7.958,52.531,5.253,61.955,29.445l140.796,153.728
						c4.526,15.599,4.775,25.724-6.039,47.55C2646.903,1223.953,2624.838,1250.178,2609.747,1267.025z"/>
				</g>
				<g>
					<path style="fill:#D8DEE8;" d="M2632.44,1204.644l-234.427,81.781c-25.367,8.849-53.914-3.666-63.682-28.02l-92.893-231.586
						c-9.926-24.747,3.071-51.585,28.95-59.88l239.106-76.645c24.826-7.958,52.531,5.253,61.955,29.445l88.213,226.449
						C2668.94,1170.008,2656.786,1196.151,2632.44,1204.644z"/>
				</g>
				<path style="fill:#FFFFFF;" d="M2414.728,1237.241l-96.392-241.989l82.939-26.869c28.48-9.226,52.208-10.582,71.235-4.117
					c18.97,6.449,32.667,20.453,41.125,42.007c4.613,11.756,5.766,23.069,3.462,33.945c-2.305,10.883-7.824,20.144-16.569,27.784
					c13.073-0.893,24.838,2.174,35.301,9.198c10.447,7.015,18.298,17.235,23.566,30.667c8.984,22.906,8.752,42.636-0.695,59.232
					c-9.463,16.621-27.226,29.567-53.365,38.842L2414.728,1237.241z M2407.507,1080.895l35.733-11.898
					c24.07-8.512,32.233-22.498,24.549-41.996c-4.302-10.916-10.469-17.769-18.506-20.555c-8.048-2.789-18.72-2.009-32.028,2.35
					l-33.936,11.115L2407.507,1080.895z M2421.437,1116.018l25.743,64.906l41.092-14.049c11.251-3.847,18.933-9.606,23.054-17.286
					c4.118-7.671,4.26-16.376,0.421-26.121c-8.632-21.916-24.007-29.36-46.171-22.284L2421.437,1116.018z"/>
				<g style="opacity:0.4;">
					<path style="fill:#B7C0CE;" d="M2481.285,1132.486c-33.642-67.247-7.498-120.439-46.51-162.389
						c-12.351-13.281-32.794-27.105-69.208-33.666l-94.217,30.201c-26.408,8.465-39.672,35.855-29.543,61.109l92.16,229.756
						c9.97,24.856,39.103,37.629,64.99,28.599l175.639-61.274C2540.03,1205.341,2503.117,1176.125,2481.285,1132.486z"/>
				</g>
			</g>
			<g>
				<g>
					<g>
						<g>
							<path style="fill:#B7C0CE;" d="M2361.904,2326.737l136.541,69.44c16.53,7.723,37.744-8.783,37.744-34.41v-241.752
								c0-25.627,250.87-59.287,234.34-64.428l-408.625-36.18c-14.136-4.397-25.448,10.922-25.448,34.16v219.207
								C2336.456,2296.01,2347.767,2320.132,2361.904,2326.737z"/>
						</g>
					</g>
					<g>
						<g>
							<path style="fill:#D8DEE8;" d="M2770.529,2382.367l-245.73,19.282c-26.623,2.089-48.288-16.986-48.288-42.613v-241.752
								c0-25.627,21.665-47.529,48.288-48.914l245.73-12.784c25.488-1.326,46.073,17.82,46.073,42.758v235.254
								C2816.602,2358.535,2796.017,2380.367,2770.529,2382.367z"/>
							<path style="fill:#FFFFFF;" d="M2571.086,2356.472v-248.965l74.074-4.099c21.004-1.162,39.733,2.688,56.207,11.527
								c16.43,8.819,29.224,21.929,38.405,39.329c9.166,17.377,13.745,37.459,13.745,60.261v11.29
								c0,22.806-4.499,43.396-13.502,61.785c-9.018,18.42-21.758,33.137-38.24,44.158c-16.528,11.05-35.228,17.427-56.121,19.109
								L2571.086,2356.472z M2620.787,2146.143v165.547l23.881-1.717c19.257-1.384,33.935-8.936,44.063-22.647
								c10.112-13.686,15.269-32.596,15.487-56.749v-13.027c0-25.039-4.996-43.708-14.997-56.026
								c-10.02-12.335-24.694-17.947-44.059-16.811L2620.787,2146.143z"/>
						</g>
						<path style="opacity:0.4;fill:#B7C0CE;" d="M2727.78,2254.044c-18.451-91.496-56.768-143.152-89.873-191.558l-112.119,5.833
							c-27.167,1.413-49.277,23.765-49.277,49.92v239.843c0,26.154,22.11,45.621,49.277,43.49l210.633-16.528
							C2738.963,2343.227,2736.886,2299.205,2727.78,2254.044z"/>
					</g>
				</g>
				<g>
					<g>
						
							<linearGradient id="SVGID_00000155122488306112954720000017119191865393774491_" gradientUnits="userSpaceOnUse" x1="2336.4553" y1="1888.486" x2="2789.4941" y2="1888.486">
							<stop  offset="0" style="stop-color:#444B8C"/>
							<stop  offset="0.9964" style="stop-color:#26264F"/>
						</linearGradient>
						<path style="fill:url(#SVGID_00000155122488306112954720000017119191865393774491_);" d="M2336.455,1751.074v217.477
							c0,23.715,11.546,46.531,25.979,51.02l75.444,23.465l67.578,21.018c16.863,5.245,30.732-11.644,30.732-37.798v-239.844
							c0-26.154,269.408-51.472,252.545-54.082l-335.762-20.367l-90.537,0.193
							C2348.001,1709.922,2336.455,1727.359,2336.455,1751.074z"/>
					</g>
					<g>
						
							<linearGradient id="SVGID_00000032614890379775527270000016363111592219557788_" gradientUnits="userSpaceOnUse" x1="2509.1714" y1="1525.7019" x2="3121.7993" y2="3188.5457">
							<stop  offset="0" style="stop-color:#AA80F9"/>
							<stop  offset="0.9964" style="stop-color:#6165D7"/>
						</linearGradient>
						<path style="fill:url(#SVGID_00000032614890379775527270000016363111592219557788_);" d="M2769.577,1728.829l-136.862,3.501
							l-106.927,2.735c-27.167,0.695-49.277,22.463-49.277,48.617v239.844c0,26.154,22.11,46.206,49.277,44.793l112.119-5.833
							l131.67-6.85c26.016-1.354,47.026-23.079,47.026-48.53v-233.396C2816.602,1748.259,2795.593,1728.164,2769.577,1728.829z"/>
						<path style="fill:#FFFFFF;" d="M2600.721,2000.247v-124.348l95.936,158.626l48.714-2.437v-245.51l-48.551,1.466v162.509
							l-95.039-157.847c-13.147,31.957-22.068,67.431-22.204,108.356C2579.443,1941.158,2587.793,1972.39,2600.721,2000.247z"/>
						<path style="fill:#FFFFFF;" d="M2550.861,1792.451v249.366l49.86-2.494v-39.077c-12.927-27.857-21.278-59.089-21.144-99.185
							c0.135-40.924,9.056-76.399,22.204-108.356l-1.06-1.76L2550.861,1792.451z"/>
						<g style="opacity:0.3;">
							
								<linearGradient id="SVGID_00000079477117721701124540000011973153515835112098_" gradientUnits="userSpaceOnUse" x1="2432.5593" y1="1550.6488" x2="3054.6365" y2="3239.1406">
								<stop  offset="0" style="stop-color:#AA80F9"/>
								<stop  offset="0.9964" style="stop-color:#6165D7"/>
							</linearGradient>
							<path style="fill:url(#SVGID_00000079477117721701124540000011973153515835112098_);" d="M2632.715,1732.33L2632.715,1732.33
								l-106.927,2.735c-27.167,0.695-49.277,22.463-49.277,48.617v239.844c0,26.154,22.11,46.206,49.277,44.793l112.119-5.833
								h0.001c-31.701-46.355-58.57-89.657-58.331-161.424C2579.804,1832.508,2604.634,1779.327,2632.715,1732.33z"/>
						</g>
					</g>
				</g>
				<g>
					<g>
						<g>
							<path style="fill:#B7C0CE;" d="M2361.904,1711.888l144.163,22.504c16.53,2.58,30.122-16.245,30.122-42.084v-243.752
								c0-25.839,254.314-46.565,237.783-46.541l-174.792-4.685l-237.277,4.685c-14.136,0.02-25.448,19.029-25.448,42.458v221.021
								C2336.456,1688.922,2347.767,1709.681,2361.904,1711.888z"/>
						</g>
					</g>
					<g>
						<g>
							<path style="fill:#D8DEE8;" d="M2770.529,1728.805l-245.73,6.286c-26.623,0.681-48.288-19.54-48.288-45.167v-241.752
								c0-25.627,21.665-46.383,48.288-46.36l245.73,0.212c25.488,0.022,46.073,20.256,46.073,45.194v235.254
								C2816.602,1707.41,2796.017,1728.153,2770.529,1728.805z"/>
						</g>
						<path style="fill:#FFFFFF;" d="M2691.678,1642.475l-86.07,1.59l-16.498,51.328l-52.921,1.193l89.652-248.929l45.49-0.127
							l88.227,244.021l-51.489,1.161L2691.678,1642.475z M2618.939,1613.798l59.562-0.958l-29.873-91.772L2618.939,1613.798z"/>
						<path style="opacity:0.4;fill:#B7C0CE;" d="M2707.54,1521.065c-13.092-51.314-50.177-90.211-90.765-119.173l-90.988-0.079
							c-27.167-0.023-49.277,21.16-49.277,47.314v239.843c0,26.155,22.11,46.791,49.277,46.096l106.927-2.735
							C2676.443,1659.149,2727.963,1601.114,2707.54,1521.065z"/>
					</g>
				</g>
			</g>
		</g>
		<g>
			<g>
				<g>
					
						<linearGradient id="SVGID_00000068666312659736847960000012261773361150157211_" gradientUnits="userSpaceOnUse" x1="1215.0056" y1="2279.583" x2="1300.8401" y2="2696.134">
						<stop  offset="0" style="stop-color:#AA80F9"/>
						<stop  offset="0.9964" style="stop-color:#6165D7"/>
					</linearGradient>
					
						<ellipse style="fill:url(#SVGID_00000068666312659736847960000012261773361150157211_);" cx="1310.858" cy="2744.752" rx="221.422" ry="90.368"/>
					
						<linearGradient id="SVGID_00000028304610051163150400000001555272238276177836_" gradientUnits="userSpaceOnUse" x1="1089.4362" y1="2714.7078" x2="1532.2803" y2="2714.7078">
						<stop  offset="0" style="stop-color:#AA80F9"/>
						<stop  offset="0.9964" style="stop-color:#6165D7"/>
					</linearGradient>
					<path style="fill:url(#SVGID_00000028304610051163150400000001555272238276177836_);" d="M1089.436,2734.155
						c0,47.113,99.134,85.305,221.422,85.305c122.289,0,221.423-38.193,221.423-85.305c0-47.111-99.134-124.199-221.423-124.199
						C1188.57,2609.956,1089.436,2687.043,1089.436,2734.155z"/>
					
						<linearGradient id="SVGID_00000179626349482916462290000014106271737344366762_" gradientUnits="userSpaceOnUse" x1="-949.9637" y1="2692.9851" x2="-577.8591" y2="2692.9851" gradientTransform="matrix(-1 0 0 1 511.5771 0)">
						<stop  offset="0" style="stop-color:#AA80F9"/>
						<stop  offset="0.9964" style="stop-color:#6165D7"/>
					</linearGradient>
					<path style="opacity:0.3;fill:url(#SVGID_00000179626349482916462290000014106271737344366762_);" d="M1089.436,2734.155
						c0-47.112,99.134-124.199,221.422-124.199c56.464,0,107.963,16.451,147.075,38.781c2.737,5.736,4.014,11.438,3.495,16.853
						c-2.54,26.507-45.771,42.803-70.587,48.177c-62.491,13.536-93.008-23.833-144.533-22.408
						c-31.856,0.88-76,16.883-128.358,84.658C1099.826,2763.647,1089.436,2749.372,1089.436,2734.155z"/>
					<path style="fill:#FFFFFF;" d="M1298.73,2652.748c8.847,2.202,17.102,2.115,24.867,0.141
						c7.043-1.788,11.879-8.305,11.879-15.574l-0.001-249.673h-49.236v249.378C1286.24,2644.512,1291.46,2650.938,1298.73,2652.748z
						"/>
					
						<linearGradient id="SVGID_00000037656775556368389600000016637999938998027673_" gradientUnits="userSpaceOnUse" x1="-823.8996" y1="2521.0129" x2="-774.6627" y2="2521.0129" gradientTransform="matrix(-1 0 0 1 511.5771 0)">
						<stop  offset="0" style="stop-color:#AA80F9"/>
						<stop  offset="0.9964" style="stop-color:#6165D7"/>
					</linearGradient>
					<path style="opacity:0.65;fill:url(#SVGID_00000037656775556368389600000016637999938998027673_);" d="M1298.73,2652.748
						c8.847,2.202,17.102,2.115,24.867,0.141c7.043-1.788,11.879-8.305,11.879-15.574l-0.001-249.673h-49.236v249.378
						C1286.24,2644.512,1291.46,2650.938,1298.73,2652.748z"/>
					<g>
						
							<linearGradient id="SVGID_00000100375188295291208910000001661570174176576443_" gradientUnits="userSpaceOnUse" x1="-554.8605" y1="2468.6563" x2="-645.1316" y2="2351.03" gradientTransform="matrix(-1 0 0 1 511.5771 0)">
							<stop  offset="0" style="stop-color:#311944"/>
							<stop  offset="1" style="stop-color:#893976"/>
						</linearGradient>
						<path style="fill:url(#SVGID_00000100375188295291208910000001661570174176576443_);" d="M1571.017,2282.564l-75.217-47.549
							c-3.129-17.762-38.584-203.579-182.525-261.929c-58.535-23.728-121.529-20.913-156.099-19.368
							c-69.011,3.082-118.236,5.28-141.911,38.2c-30.402,42.27,20.588,80.603,10.03,201.513
							c-4.306,49.307-15.255,71.206-1.617,103.87c16.338,39.129,54.224,60.817,83.682,73.026
							c35.213,20.448,96.524,49.587,177.502,56.683c136.402,11.954,238.233-46.558,273.252-68.945
							c15.572-4.91,27.272-17.859,30.583-33.846C1592.054,2308.007,1585.01,2291.41,1571.017,2282.564z"/>
					</g>
					<path style="opacity:0.26;fill:#FFFFFF;" d="M1536.431,2316.423c-2.78-16.719-49.379-2.86-93.459-35.603
						c-65.891-48.946-31.692-131.857-89.009-211.395c-52.601-72.993-158.495-110.144-191.368-82.333
						c-43.758,37.02,63.336,175.466,0,264.8c-30.766,43.396-77.64,41.306-77.882,66.756
						c-0.383,40.219,116.279,86.588,226.972,84.558C1430.686,2401.025,1540.844,2342.961,1536.431,2316.423z"/>
				</g>
				<g>
					
						<linearGradient id="SVGID_00000001663776946480123850000002455902857709206148_" gradientUnits="userSpaceOnUse" x1="1763.4154" y1="1292.6647" x2="1808.8889" y2="1431.4581">
						<stop  offset="0" style="stop-color:#FFC444"/>
						<stop  offset="0.9964" style="stop-color:#F36F56"/>
					</linearGradient>
					<path style="fill:url(#SVGID_00000001663776946480123850000002455902857709206148_);" d="M1792.066,1385.751l-10.263-19.311
						c0,0-9.441-1.947-13.723-8.694c-4.281-6.748-4.281-6.748-4.281-6.748s-2.141-7.088,5.63-14.78
						c1.756-1.738,2.665-4.165,2.31-6.61c-1.067-7.343-3.231-22.368-3.658-26.211c-0.284-2.542,0.754-5.573,1.875-7.988
						c0.764-1.645,3.144-1.476,3.619,0.274l8.229,30.276c0,0,6.593-1.662,8.858,3.881c0,0,5.699,3.401,6.552,9.327
						c0.855,5.926-0.01,20.25-0.01,20.25l9.032,20.373L1792.066,1385.751z"/>
					
						<linearGradient id="SVGID_00000002361941684927748100000012883305798730831516_" gradientUnits="userSpaceOnUse" x1="1698.2" y1="1427.4296" x2="1763.4175" y2="2362.2175">
						<stop  offset="0" style="stop-color:#FFC444"/>
						<stop  offset="0.9964" style="stop-color:#F36F56"/>
					</linearGradient>
					<path style="fill:url(#SVGID_00000002361941684927748100000012883305798730831516_);" d="M1778.572,1382.544
						c5.63,13.063,37.028,89.14,0.796,159.759c-40.403,78.751-149.125,119.952-257.905,84.419
						c-0.853,14.074-9.799,192.162,77.661,234.678c93.915,45.654,270.709-78.624,299.574-234.678
						c24.698-133.53-70.548-241.634-85.977-258.615C1801.338,1372.919,1789.954,1377.732,1778.572,1382.544z"/>
					
						<linearGradient id="SVGID_00000036953281855785076300000004735702042645649802_" gradientUnits="userSpaceOnUse" x1="1219.3932" y1="2873.3184" x2="1291.674" y2="2873.3184" gradientTransform="matrix(-0.996 0.0897 0.0897 0.996 2456.5469 -160.4537)">
						<stop  offset="0" style="stop-color:#444B8C"/>
						<stop  offset="0.9964" style="stop-color:#26264F"/>
					</linearGradient>
					<path style="fill:url(#SVGID_00000036953281855785076300000004735702042645649802_);" d="M1432.186,2800.057
						c-3.75,3.447-3.987,11.5-4.142,16.764c-0.071,2.351-0.105,3.528,0.207,4.338c2.274,5.909,13.996,5.83,32.434,6.585
						c29.137,1.193,37.892,2.947,39.896-1.5c1.877-4.168-3.665-10.467-4.288-11.161c-3.351-3.729-7.257-4.922-14.788-6.902
						c-13.936-3.663-23.316-5.563-26.156-6.138C1437.615,2798.449,1434.648,2797.794,1432.186,2800.057z"/>
					
						<linearGradient id="SVGID_00000170989087673689691410000001931851777425241278_" gradientUnits="userSpaceOnUse" x1="780.213" y1="2826.9951" x2="811.9252" y2="2761.3582" gradientTransform="matrix(-0.9976 0.0694 0.0694 0.9976 2040.621 -60.6691)">
						<stop  offset="0" style="stop-color:#FFC444"/>
						<stop  offset="0.9964" style="stop-color:#F36F56"/>
					</linearGradient>
					<path style="fill:url(#SVGID_00000170989087673689691410000001931851777425241278_);" d="M1452.621,2771.003l1.136,33.165
						c-0.908,1.551-10.975,5.808-18.55,1.291l-5.716-32.846L1452.621,2771.003z"/>
					
						<linearGradient id="SVGID_00000054239395349940846070000005208078760858673061_" gradientUnits="userSpaceOnUse" x1="855.9006" y1="2893.0496" x2="932.6938" y2="2893.0496" gradientTransform="matrix(-0.977 0.2133 0.2133 0.977 1968.0525 -210.6557)">
						<stop  offset="0" style="stop-color:#444B8C"/>
						<stop  offset="0.9964" style="stop-color:#26264F"/>
					</linearGradient>
					<path style="fill:url(#SVGID_00000054239395349940846070000005208078760858673061_);" d="M1677.617,2795.472
						c-5.009,4.972-6.602,14.534-2.74,19.493c3.794,4.876,10.061,1.706,27.278,3.141c18.441,1.539,23.031,6.158,35.768,3.366
						c5.146-1.13,14.283-4.052,14.307-7.683c0.016-2.553-4.473-4.111-19.43-10.026c-21.23-8.396-21.114-8.786-25.664-9.792
						C1695.708,2791.445,1684.233,2788.908,1677.617,2795.472z"/>
					
						<linearGradient id="SVGID_00000169559909282767928440000016859116681553918097_" gradientUnits="userSpaceOnUse" x1="695.8576" y1="2865.7227" x2="728.2411" y2="2798.6963" gradientTransform="matrix(-0.9894 0.1453 0.1453 0.9894 1974.5804 -128.6684)">
						<stop  offset="0" style="stop-color:#FFC444"/>
						<stop  offset="0.9964" style="stop-color:#F36F56"/>
					</linearGradient>
					<path style="fill:url(#SVGID_00000169559909282767928440000016859116681553918097_);" d="M1691.06,2765.979l7.619,31.312
						c-0.788,1.615-10.501,6.627-18.398,2.702l-12.161-30.646L1691.06,2765.979z"/>
					
						<linearGradient id="SVGID_00000119839434163700010330000008761272870316223360_" gradientUnits="userSpaceOnUse" x1="2108.6021" y1="2582.7761" x2="1903.7797" y2="2121.0579" gradientTransform="matrix(0.9986 0.0533 -0.0533 0.9986 -237.5799 -19.3005)">
						<stop  offset="0" style="stop-color:#311944"/>
						<stop  offset="1" style="stop-color:#893976"/>
					</linearGradient>
					<path style="fill:url(#SVGID_00000119839434163700010330000008761272870316223360_);" d="M1644.787,2086.642
						c-4.203,103.64-3.355,220.467,6.848,347.889c10.082,125.937,27.536,240.175,47.851,340.893
						c-11.99,2.549-23.98,5.098-35.97,7.646c-28.495-29.563-63.974-75.601-78.907-138.779c-9.267-39.212-4.432-58.849-9.082-106.719
						c-7.404-76.22-28.466-117.07-49.165-179.32c-18.6-55.938-39.752-137.704-47.655-245.911
						C1534.067,2103.775,1589.427,2095.208,1644.787,2086.642z"/>
					
						<linearGradient id="SVGID_00000134228430276161531680000001457902442194739867_" gradientUnits="userSpaceOnUse" x1="2076.8386" y1="2596.8655" x2="1872.0167" y2="2135.1477" gradientTransform="matrix(0.9986 0.0533 -0.0533 0.9986 -237.5799 -19.3005)">
						<stop  offset="0" style="stop-color:#311944"/>
						<stop  offset="1" style="stop-color:#893976"/>
					</linearGradient>
					<path style="opacity:0.3;fill:url(#SVGID_00000134228430276161531680000001457902442194739867_);" d="M1628.227,2570.996
						c-13.202-52.285-38.637-66.11-39.543-115.463c-0.641-34.909,11.904-37.763,11.072-71.177
						c-1.263-50.683-30.953-77.257-45.87-109.138c-15.754-33.67-21.789-87.752,20.667-177.708
						c-31.949,4.944-63.897,9.888-95.847,14.831c7.903,108.207,29.055,189.974,47.655,245.911
						c20.699,62.251,41.761,103.101,49.165,179.32c4.651,47.87-0.185,67.508,9.082,106.719
						c14.932,63.179,50.412,109.216,78.907,138.78c3.05-0.648,6.099-1.296,9.149-1.945c-30.803-36.768-41.673-69.604-44.438-96.248
						C1623.729,2641.531,1641.537,2623.713,1628.227,2570.996z"/>
					
						<linearGradient id="SVGID_00000174582044908759231560000002013292138442436746_" gradientUnits="userSpaceOnUse" x1="1590.9344" y1="2721.7898" x2="1386.1071" y2="2260.0601" gradientTransform="matrix(0.9976 -0.0694 0.0694 0.9976 -160.8932 92.9864)">
						<stop  offset="0" style="stop-color:#311944"/>
						<stop  offset="1" style="stop-color:#893976"/>
					</linearGradient>
					<path style="fill:url(#SVGID_00000174582044908759231560000002013292138442436746_);" d="M1524.947,2080.164
						c-14.269,131.335-27.385,265.191-39.185,401.5c-8.856,102.286-16.744,203.322-23.726,303.069
						c-12.153,0.845-24.308,1.692-36.461,2.537c-10.507-22.344-24.23-56.381-32.572-99.513c-10.133-52.385-5.508-82.925-8.3-136.806
						c-3.135-60.432-11.651-74.015-23.927-150.693c-24.916-155.616-37.374-233.425,2.14-279.301
						C1375.741,2106.062,1415.433,2069.103,1524.947,2080.164z"/>
					
						<linearGradient id="SVGID_00000108309790951092053870000014301887441474107546_" gradientUnits="userSpaceOnUse" x1="1458.1414" y1="2371.5955" x2="1819.6912" y2="1536.1951">
						<stop  offset="0" style="stop-color:#FFC444"/>
						<stop  offset="0.9964" style="stop-color:#F36F56"/>
					</linearGradient>
					<path style="opacity:0.3;fill:url(#SVGID_00000108309790951092053870000014301887441474107546_);" d="M1883.224,1482.1
						c-0.582,16.075-3.862,29.346-8.251,40.23c-15.895,39.401-53.719,68.145-45.87,112.301c3.923,22.068,16.024,29.81,11.072,45.87
						c-7.018,22.764-35.792,21.695-66.431,47.451c-27.18,22.847-28.71,44.01-42.707,63.268
						c-18.953,26.08-61.755,49.933-165.497,42.362c9.214,11.701,20.269,21.346,33.583,27.819
						c93.916,45.654,270.71-78.624,299.575-234.678C1908.642,1572.959,1899.129,1523.332,1883.224,1482.1z"/>
					
						<linearGradient id="SVGID_00000121255725427620287150000017731625935542414999_" gradientUnits="userSpaceOnUse" x1="1435.1987" y1="1445.7784" x2="1500.4161" y2="2380.5642">
						<stop  offset="0" style="stop-color:#FFC444"/>
						<stop  offset="0.9964" style="stop-color:#F36F56"/>
					</linearGradient>
					<path style="fill:url(#SVGID_00000121255725427620287150000017731625935542414999_);" d="M1210.189,1671.762
						c65.652-22.259,165.826-46.925,288.338-41.876c70.972,2.924,131.988,15.102,180.333,28.645
						c6.537,36.558,13.073,73.117,19.61,109.674c1.503,36.655,1.987,86.309-2.131,144.976c-4.118,58.663-8.15,59.547-17.584,142.356
						c-15.381,135.014-8.948,170.287-36.083,186.505c-17.649,10.549-24.032-2.185-114.093-11.111
						c-60.39-5.986-91.208-8.768-121.79,1.582c-41.644,14.091-55.579,37.749-72.759,30.052
						c-16.474-7.383-18.572-35.825-20.562-85.412c-3.069-76.494-2.88-128.488-3.163-147.098
						c-1.299-85.39-22.922-150.589-50.615-234.091C1242.37,1743.739,1224.127,1701.471,1210.189,1671.762z"/>
					<g>
						
							<linearGradient id="SVGID_00000083078690144949284440000004359186371959417988_" gradientUnits="userSpaceOnUse" x1="1488.1563" y1="1616.7567" x2="1496.3625" y2="1398.1676">
							<stop  offset="0" style="stop-color:#FFC444"/>
							<stop  offset="0.9964" style="stop-color:#F36F56"/>
						</linearGradient>
						<path style="fill:url(#SVGID_00000083078690144949284440000004359186371959417988_);" d="M1521.687,1618.083
							c-5.39-11.267,2.138-26.452,10.743-38.9c-6.901-14.779-35.115-19.113-42.016-33.889c-0.965,21.468-4.267,38.36-7.155,49.894
							c-3.309,13.215-5.361,16.565-7.898,19.237c-3.815,4.022-9.447,7.267-40.605,13.25c-16.956,3.255-19.104,3.027-19.562,4.667
							c-2.234,8.006,41.923,38.053,89.419,33.914c29.071-2.532,56.199-17.591,55.05-26.319
							C1558.506,1631.152,1529.438,1634.281,1521.687,1618.083z"/>
						<g>
							
								<linearGradient id="SVGID_00000014635386865696507270000011271878867956450733_" gradientUnits="userSpaceOnUse" x1="261.8136" y1="1415.1635" x2="207.153" y2="1276.3354" gradientTransform="matrix(-0.9988 -0.0496 -0.0496 0.9988 1789.584 252.4768)">
								<stop  offset="0" style="stop-color:#311944"/>
								<stop  offset="1" style="stop-color:#6B3976"/>
							</linearGradient>
							<path style="fill:url(#SVGID_00000014635386865696507270000011271878867956450733_);" d="M1543.512,1556.637
								c7.292-8.681,8.556-24.449,1.243-34.85c-6.293-8.95-16.852-10.742-23.174-11.817c-18.319-3.112-41.987,3.34-50.983,19.873
								c-5.329,9.798,3.924,31.241,5.347,35.083c1.612,4.344,4.867,5.979,7.78,9.355c4.036,4.681,10.349,12.118,20.637,24.542
								c1.035-3.449,2.557-7.705,4.857-12.284c0.885-1.763,4.431-8.642,9.538-14.229
								C1528.989,1561.106,1536.599,1564.864,1543.512,1556.637z"/>
							
								<linearGradient id="SVGID_00000011009361215733876090000004832063486102087827_" gradientUnits="userSpaceOnUse" x1="1213.9442" y1="1341.4507" x2="1211.4304" y2="1543.9854" gradientTransform="matrix(0.9999 -0.0116 0.0116 0.9999 281.3529 228.061)">
								<stop  offset="0" style="stop-color:#FFC444"/>
								<stop  offset="0.9964" style="stop-color:#F36F56"/>
							</linearGradient>
							<path style="fill:url(#SVGID_00000011009361215733876090000004832063486102087827_);" d="M1489.316,1588.032
								c0,0,11.056,20.527,35.266,20.246c21.676-0.253,27.426-48.525,14.179-59.54c-4.421-3.676-13.563-5.593-21.171-3.892
								c-4.493,1.005-6.091,2.764-13.465,4.261c-6.802,1.383-8.657,0.538-10.773,2.133c-2.646,1.998-4.782,7.124-1.307,21.512
								c-3.899-4.392-8.76-6.258-12.353-4.791c-0.573,0.236-2.11,1.165-3.026,2.65
								C1473.349,1575.981,1478.026,1583.318,1489.316,1588.032z"/>
							
								<linearGradient id="SVGID_00000152249823774767790420000015687101777239861946_" gradientUnits="userSpaceOnUse" x1="245.1165" y1="1421.8121" x2="190.3993" y2="1282.8405" gradientTransform="matrix(-0.9988 -0.0496 -0.0496 0.9988 1789.584 252.4768)">
								<stop  offset="0" style="stop-color:#311944"/>
								<stop  offset="1" style="stop-color:#6B3976"/>
							</linearGradient>
							<path style="fill:url(#SVGID_00000152249823774767790420000015687101777239861946_);" d="M1492.53,1548.291
								c1,0.832-2.391,4.548-2.922,10.037c-1.033,10.652,9.091,24.047,20.058,25.723c6.484,0.989,8.486-2.843,19.322-3.406
								c6.71-0.348,12.218,0.797,15.671,1.747c2.761,11.891-1.049,23.396-9.166,28.396c-8.739,5.382-19.315,1.269-23.737-0.451
								c-2.957-1.151-12.437-4.816-17.007-13.934c-4.761-9.501,0.691-14.783-5.003-21.341c-2.873-3.307-6.792-4.883-10.355-11.18
								c-0.967-1.71-1.594-3.212-1.972-4.219C1483.308,1554.055,1491.081,1547.085,1492.53,1548.291z"/>
							
								<linearGradient id="SVGID_00000073688109518819187630000017874384952479570872_" gradientUnits="userSpaceOnUse" x1="191.5648" y1="1338.0769" x2="194.4104" y2="1363.4452" gradientTransform="matrix(-0.9988 -0.0496 -0.0496 0.9988 1789.584 252.4768)">
								<stop  offset="0" style="stop-color:#FFC444"/>
								<stop  offset="1" style="stop-color:#F36F56"/>
							</linearGradient>
							<path style="fill:url(#SVGID_00000073688109518819187630000017874384952479570872_);" d="M1536.586,1586.313
								c0,0-4.795,2.189-12.833,1.305c-0.39-0.043-0.829,0.048-0.89,0.249c-0.226,0.755,4.763,4.46,9.599,3.376
								c3.435-0.772,6.238-3.834,5.826-4.674C1538.114,1586.216,1537.347,1586.22,1536.586,1586.313z"/>
						</g>
					</g>
					
						<linearGradient id="SVGID_00000065071732510323227790000017463255365130208172_" gradientUnits="userSpaceOnUse" x1="1397.4506" y1="2190.5347" x2="1710.6277" y2="1466.9047">
						<stop  offset="0" style="stop-color:#FFC444"/>
						<stop  offset="0.9964" style="stop-color:#F36F56"/>
					</linearGradient>
					<path style="opacity:0.3;fill:url(#SVGID_00000065071732510323227790000017463255365130208172_);" d="M1607.664,2197.716
						c-44.296-18.901-44.039-58.016-85.411-74.34c-59.036-23.294-124.261,30.823-134.445,15.816
						c-10.598-15.614,67.304-63.496,56.941-110.719c-8.236-37.528-62.615-30.877-91.739-82.248
						c-27.628-48.73-0.843-93.785-25.307-110.719c-8.774-6.074-24.25-8.471-53.593,4.443
						c20.461,63.902,35.132,120.253,36.195,190.106c0.283,18.611,0.094,70.604,3.163,147.098
						c1.99,49.587,4.088,78.029,20.562,85.412c17.179,7.697,31.115-15.961,72.759-30.052c30.582-10.349,61.401-7.567,121.79-1.582
						c90.06,8.926,96.444,21.66,114.093,11.111c11.494-6.87,16.958-17.199,20.615-37.041
						C1645.232,2206.949,1626.079,2205.573,1607.664,2197.716z"/>
					
						<linearGradient id="SVGID_00000172398916374176618420000013272718390165275264_" gradientUnits="userSpaceOnUse" x1="1310.2366" y1="2066.9929" x2="1303.7148" y2="2380.0378">
						<stop  offset="0" style="stop-color:#FFC444"/>
						<stop  offset="0.9964" style="stop-color:#F36F56"/>
					</linearGradient>
					<path style="fill:url(#SVGID_00000172398916374176618420000013272718390165275264_);" d="M1270.762,2030.125l21.734-1.214
						c0,0,23.812-19.927,34.651-18.683c10.838,1.243,27.051,8.763,29.028,10.342c1.977,1.577-5.932,10.414-13.84,9.555
						c-7.908-0.86-25.556,3.408-28.712,10.374c-3.156,6.967-16.853,11.174-19.18,7.088l-29.216,5.799L1270.762,2030.125z"/>
					
						<linearGradient id="SVGID_00000002351953679557535960000008432572593627302791_" gradientUnits="userSpaceOnUse" x1="1147.1808" y1="1465.8728" x2="1212.3982" y2="2400.6599">
						<stop  offset="0" style="stop-color:#FFC444"/>
						<stop  offset="0.9964" style="stop-color:#F36F56"/>
					</linearGradient>
					<path style="fill:url(#SVGID_00000002351953679557535960000008432572593627302791_);" d="M1277.338,2022.521
						c1.522,17.83-2.362,29.94-8.843,38.243c-28.725,36.807-126.35,21.757-184.372-27.545c-42.949-36.494-65.69-93.16-64.85-143.934
						c1.639-99.075,93.458-196.156,230.038-229.696c20.217,60.436,61.533,115.777,81.751,176.214
						c-84.204,1.284-156.46,69.854-148.873,115.169C1187.839,1984.729,1227.21,2015.094,1277.338,2022.521z"/>
				</g>
			</g>
			<g>
				<g>
					<path style="fill:#B7C0CE;" d="M2061.263,2930.496c-1.826,0-3.368-1.392-3.539-3.23l-64.485-696.894
						c-0.181-1.956,1.258-3.688,3.214-3.87c1.949-0.162,3.69,1.259,3.87,3.215l57.385,620.16v-635.256
						c0-1.965,1.593-3.558,3.558-3.558c1.965,0,3.558,1.593,3.558,3.558v712.317c0,1.902-1.494,3.467-3.395,3.554
						C2061.374,2930.495,2061.318,2930.496,2061.263,2930.496z"/>
					<g>
						<polygon style="fill:#D8DEE8;" points="2780.333,2290.852 2072.899,2213.343 713.797,2275.119 1425.607,2360.354 						"/>
						<polygon style="fill:#B7C0CE;" points="1425.607,2360.355 2780.333,2290.851 2780.333,2324.422 1425.607,2393.926 
							713.797,2308.689 713.797,2275.118 						"/>
					</g>
					<path style="fill:#B7C0CE;" d="M1430.417,3173.555c-0.047,0-0.094-0.001-0.141-0.002c-1.909-0.075-3.419-1.645-3.419-3.555
						V2385.76c0-1.965,1.593-3.558,3.558-3.558c1.965,0,3.558,1.593,3.558,3.558v693.103l54.218-693.379
						c0.155-1.959,1.85-3.42,3.825-3.27c1.958,0.154,3.422,1.866,3.27,3.824l-61.324,784.238
						C1433.816,3172.132,1432.265,3173.555,1430.417,3173.555z"/>
					<path style="fill:#B7C0CE;" d="M721.572,3034.239c-0.047,0-0.094-0.001-0.141-0.002c-1.909-0.075-3.419-1.644-3.419-3.555
						v-723.844c0-1.965,1.593-3.558,3.558-3.558c1.965,0,3.558,1.593,3.558,3.558v633.084l49.73-633.363
						c0.155-1.959,1.899-3.426,3.825-3.268c1.96,0.154,3.422,1.865,3.27,3.825l-56.835,723.844
						C724.971,3032.817,723.42,3034.239,721.572,3034.239z"/>
					<path style="fill:#B7C0CE;" d="M2773.629,3034.239c-1.842,0-3.389-1.411-3.544-3.262l-60.349-723.844
						c-0.163-1.958,1.292-3.677,3.25-3.841c1.965-0.159,3.677,1.292,3.841,3.25l53.246,638.647v-620.766
						c0-1.965,1.593-3.558,3.558-3.558c1.965,0,3.558,1.593,3.558,3.558v706.259c0,1.907-1.504,3.475-3.41,3.554
						C2773.728,3034.238,2773.677,3034.239,2773.629,3034.239z"/>
				</g>
				<g>
					<g>
						<g>
							<path style="fill:#BFC8D6;" d="M1835.11,2317.31l-486.074-3.617v10.702c0,2.905,2.12,5.375,4.991,5.815l137.447,21.075
								c1.631,0.25,3.285,0.316,4.931,0.197l333.422-24.028c2.977-0.214,5.282-2.692,5.282-5.676V2317.31z"/>
							<g>
								<path style="fill:#BFC8D6;" d="M1658.716,2299.62l-304.653,19.578c-5.451,0.35-9.884-3.373-9.884-8.316V2112.83
									c0-4.943,4.433-8.95,9.884-8.95h304.653c4.491,0,8.123,3.622,8.123,8.091v179.035
									C1666.839,2295.475,1663.208,2299.331,1658.716,2299.62z"/>
								<path style="fill:#D8DEE8;" d="M1663.574,2299.62l-304.653,19.578c-5.452,0.35-9.884-3.373-9.884-8.316V2112.83
									c0-4.943,4.432-8.95,9.884-8.95h304.653c4.491,0,8.123,3.622,8.123,8.091v179.035
									C1671.697,2295.475,1668.065,2299.331,1663.574,2299.62z"/>
								<path style="fill:#EFF2F6;" d="M1654.083,2286.998l-283.753,17.007c-4.437,0.266-8.042-2.79-8.042-6.826v-173.395
									c0-4.035,3.605-7.32,8.042-7.337l283.753-1.068c3.705-0.014,6.702,2.954,6.702,6.63v157.932
									C1660.785,2283.616,1657.788,2286.776,1654.083,2286.998z"/>
								<path style="fill:#FFFFFF;" d="M1522.007,2109.297c0,1.84-1.569,3.336-3.505,3.342c-1.939,0.005-3.512-1.485-3.512-3.33
									c0-1.844,1.573-3.341,3.512-3.342C1520.439,2105.966,1522.007,2107.456,1522.007,2109.297z"/>
								<path style="opacity:0.48;fill:#FFFFFF;" d="M1591.407,2245.398c-23.606-11.499-42.168,3.072-60.081-11.304
									c-10.86-8.716-5.528-15.215-18.892-28.24c-14.8-14.426-24.437-9.577-39.311-22.561
									c-18.808-16.417-9.401-29.189-25.602-40.976c-19.654-14.299-40.849-1.064-59.558-14.778
									c-8.069-5.915-12.497-14.513-14.809-23.658h-18.305c-3.208,0-5.813,2.354-5.813,5.257v205.439
									c0,2.904,2.605,5.09,5.813,4.884l312.081-20.056c1.532-0.098,2.89-0.908,3.761-2.081
									c-22.845-0.754-36.88-7.688-45.852-14.856C1607.289,2268.445,1610.333,2254.617,1591.407,2245.398z"/>
							</g>
							<path style="fill:#FFFFFF;" d="M1675.717,2299.073l-326.68,20.608l142.439,21.84c1.631,0.25,3.285,0.316,4.931,0.198
								l338.704-24.409l-154.197-18.097C1679.189,2299.011,1677.449,2298.964,1675.717,2299.073z"/>
							<polygon style="opacity:0.47;fill:#D8DEE8;" points="1396.704,2319.858 1668.675,2302.446 1752.848,2312.245 
								1483.22,2330.858 							"/>
						</g>
					</g>
					
						<linearGradient id="SVGID_00000115476169204593551770000006427553228857497521_" gradientUnits="userSpaceOnUse" x1="2330.0959" y1="2841.7456" x2="2346.0725" y2="3045.0854" gradientTransform="matrix(1 0 0 1 -626.2627 0)">
						<stop  offset="0.0036" style="stop-color:#26264F"/>
						<stop  offset="1" style="stop-color:#444B8C"/>
					</linearGradient>
					<path style="fill:url(#SVGID_00000115476169204593551770000006427553228857497521_);" d="M1737.592,2942.951
						c0,0-71.453,4.966-72.504,9.631c-1.051,4.666,48.5,22.701,65.812,23.373c17.313,0.673,31.556-4.444,29.988-11.776
						c-1.567-7.334-7.627-25.778-7.627-25.778L1737.592,2942.951z"/>
					
						<linearGradient id="SVGID_00000096029849841885600050000014497593420114049951_" gradientUnits="userSpaceOnUse" x1="1418.4204" y1="2788.7263" x2="1415.0659" y2="2545.5164" gradientTransform="matrix(0.9853 0.171 -0.171 0.9853 820.6597 -36.2046)">
						<stop  offset="0" style="stop-color:#FFC444"/>
						<stop  offset="0.9964" style="stop-color:#F36F56"/>
					</linearGradient>
					<path style="fill:url(#SVGID_00000096029849841885600050000014497593420114049951_);" d="M1734.217,2911.204l-1.268,33.722
						c0,0,10.869,6.135,19.498,2.611l9.595-35.561L1734.217,2911.204z"/>
					
						<linearGradient id="SVGID_00000104685318295921184730000006726190077566538153_" gradientUnits="userSpaceOnUse" x1="2130.2649" y1="2828.1472" x2="2146.2417" y2="3031.4873" gradientTransform="matrix(1 0 0 1 -626.2627 0)">
						<stop  offset="0.0036" style="stop-color:#26264F"/>
						<stop  offset="1" style="stop-color:#444B8C"/>
					</linearGradient>
					<path style="fill:url(#SVGID_00000104685318295921184730000006726190077566538153_);" d="M1537.761,2929.353
						c0,0-71.453,4.966-72.504,9.631c-1.051,4.667,48.5,22.701,65.812,23.374c17.314,0.673,31.555-4.444,29.989-11.776
						c-1.568-7.334-7.628-25.779-7.628-25.779L1537.761,2929.353z"/>
					
						<linearGradient id="SVGID_00000054963318787640650290000007970949885150903939_" gradientUnits="userSpaceOnUse" x1="1219.2126" y1="2809.4976" x2="1215.8582" y2="2566.2893" gradientTransform="matrix(0.9853 0.171 -0.171 0.9853 820.6597 -36.2046)">
						<stop  offset="0" style="stop-color:#FFC444"/>
						<stop  offset="0.9964" style="stop-color:#F36F56"/>
					</linearGradient>
					<path style="fill:url(#SVGID_00000054963318787640650290000007970949885150903939_);" d="M1534.386,2897.606l-1.268,33.721
						c0,0,10.869,6.135,19.498,2.611l9.594-35.561L1534.386,2897.606z"/>
					
						<linearGradient id="SVGID_00000179621055915452164820000018184430960319758744_" gradientUnits="userSpaceOnUse" x1="2101.4739" y1="2409.9607" x2="2010.2401" y2="2545.6985">
						<stop  offset="0" style="stop-color:#893976"/>
						<stop  offset="1" style="stop-color:#311944"/>
					</linearGradient>
					<path style="fill:url(#SVGID_00000179621055915452164820000018184430960319758744_);" d="M1726.625,2915.97
						c13.351,1.482,26.703,2.969,40.054,4.45c18.032-19.988,44.952-54.839,59.339-103.842
						c27.737-94.476-12.433-162.558,13.351-179.503c36.495-23.982,115.592,114.09,242.554,110.543
						c52.092-1.456,120.085-26.968,146.218-82.528c3.946-8.388,23.323-52.297,4.451-93.459
						c-19.484-42.501-116.143-60.994-308.665-96.253c-82.64-15.133-124.369-22.682-141.137-14.677
						C1663.967,2517.426,1713.517,2838.174,1726.625,2915.97z"/>
					
						<linearGradient id="SVGID_00000018217788596931461460000005342327993629993362_" gradientUnits="userSpaceOnUse" x1="1522.7509" y1="2708.8337" x2="2177.5034" y2="2708.8337">
						<stop  offset="0" style="stop-color:#893976"/>
						<stop  offset="1" style="stop-color:#311944"/>
					</linearGradient>
					<path style="fill:url(#SVGID_00000018217788596931461460000005342327993629993362_);" d="M1522.771,2916.539
						c13.81,2.403,27.62,4.807,41.431,7.21c16.774-24.707,42.161-63.419,70.55-112.539
						c59.179-102.394,58.098-123.191,85.447-136.372c57.884-27.893,101.618,47.464,244.774,68.243
						c46.829,6.798,150.787,21.892,192.851-34.121c17.052-22.708,26.847-60.98,13.351-93.459
						c-24.195-58.225-103.886-51.232-366.418-102.36c-102.381-19.94-116.339-23.495-141.137-14.677
						C1525.119,2547.715,1522.421,2849.279,1522.771,2916.539z"/>
					
						<linearGradient id="SVGID_00000124878073984666330720000000451392226865098927_" gradientUnits="userSpaceOnUse" x1="1872.8662" y1="2217.4746" x2="2164.2993" y2="2495.76">
						<stop  offset="0" style="stop-color:#FF9085"/>
						<stop  offset="1" style="stop-color:#FB6FBB"/>
					</linearGradient>
					<path style="fill:url(#SVGID_00000124878073984666330720000000451392226865098927_);" d="M1809.584,2114.702
						c13.629-33.33,42.883-52.497,58.053-62.436c7.592-4.976,14.606-8.705,21.728-11.613
						c54.937-22.43,109.787-20.887,119.572-20.153c23.726,1.777,82.327,6.163,125.745,43.783
						c21.015,18.21,37.813,43.63,62.306,186.918c34.158,199.834,6.434,179.351,33.378,260.35
						c14.257,42.862,36.469,92.038,12.976,123.443c-7.588,10.144-18.429,13.056-40.528,23
						c-82.552,37.146-156.568,30.745-201.544,26.29c-49.491-4.903-74.505-7.706-87.628-25.194
						c-20.962-27.933,0.616-63.432,4.381-124.868c2.703-44.109-7.326-79.065-27.384-148.968
						C1844.01,2222.738,1783.472,2178.551,1809.584,2114.702z"/>
					
						<linearGradient id="SVGID_00000159430170742927972510000010739216348552809396_" gradientUnits="userSpaceOnUse" x1="1524.3733" y1="2304.9607" x2="1517.7299" y2="2335.2893">
						<stop  offset="0" style="stop-color:#FFC444"/>
						<stop  offset="0.9964" style="stop-color:#F36F56"/>
					</linearGradient>
					<path style="fill:url(#SVGID_00000159430170742927972510000010739216348552809396_);" d="M1576.979,2313.693l-52.749-10.145
						c-3.79-0.729-7.679-0.767-11.483-0.113l-45.628,7.846c0,0,29.669,11.934,54.889,8.192
						c25.219-3.742,52.769,10.447,52.769,10.447L1576.979,2313.693z"/>
					<g>
						<g>
							
								<linearGradient id="SVGID_00000165932929977500646720000011841246355024174761_" gradientUnits="userSpaceOnUse" x1="5223.8818" y1="1525.4148" x2="5405.6377" y2="1754.0865" gradientTransform="matrix(0.9663 0.2576 -0.2576 0.9663 -2744.3408 -923.8408)">
								<stop  offset="0" style="stop-color:#FFC444"/>
								<stop  offset="0.9964" style="stop-color:#F36F56"/>
							</linearGradient>
							<path style="fill:url(#SVGID_00000165932929977500646720000011841246355024174761_);" d="M1926.271,1983.557
								c-8.871-13.403,4.408-39.189,9.661-49.389c0.181-0.352,0.412-0.813,0.906-1.726c8.069-14.886,10.135-16.92,13.985-19.497
								l5.351-3.303c0,0,0.31-0.121,0.636-0.239c3.434-1.221,15.138-1.578,17.51-1.069c7.575,1.616,15.64,32.474,13.339,76.1
								c0.314,1.665,0.617,3.342,0.91,5.033c1.193,6.889,2.141,13.643,2.873,20.244c0.701,6.315,9.656,6.172,15.998,5.767
								c25.74-1.643,38.337,0.547,39.432,4.381c2.052,7.184-28.479,30.671-66.18,35.951c-50.596,0.378-91.754-5.011-87.331-12.978
								c1.964-3.538,41.167-13.781,52.192-23.934c10.095-9.296,9.272-18.892,10.103-25.763
								C1950.438,1993.414,1933.035,1993.779,1926.271,1983.557z"/>
							<path style="fill:#26264F;" d="M1940.474,1897.251c-4.16,9.175,5.932,27.598,9.659,30.271c0.418,0.3,2.776,2.16,4.895,5.346
								c0.289,0.434,0.543,0.943,0.77,1.599c2.961,8.518-10.582,18.541-7.968,22.352c1.896,2.769,11.1-0.93,12.195,1.456
								c1.031,2.251-6.618,6.906-5.447,9.597c0.883,2.034,5.591,0.174,8.56,3.29c2.295,2.408,2.562,5.819,2.613,7.523
								c0.368,12.108-27.091,55.839-32.811,75.571c-6.067,20.927,4.786,40.845,44.206,95.884
								c56.073,78.291,84.109,117.437,99.697,128.628c76.18,54.687,165.76,47.985,202.494,42.279
								c44.131-6.854,135.303-21.018,164.666-91.234c33.751-80.712-32.7-191.16-100.877-209.913
								c-31.177-8.575-47.777,4.45-88.267-9.64c-44.718-15.563-39.3-43.079-80.702-59.329
								c-55.219-21.675-90.848,17.071-128.468-11.139c-20.472-15.355-17.096-32.209-42.279-44.504
								C1978.568,1883.157,1945.927,1885.226,1940.474,1897.251z"/>
							
								<linearGradient id="SVGID_00000009578613576357134330000012815500004917532858_" gradientUnits="userSpaceOnUse" x1="5232.582" y1="1513.9065" x2="5435.5127" y2="1769.2186" gradientTransform="matrix(0.9663 0.2576 -0.2576 0.9663 -2744.3408 -923.8408)">
								<stop  offset="0" style="stop-color:#FFC444"/>
								<stop  offset="0.9964" style="stop-color:#F36F56"/>
							</linearGradient>
							<path style="fill:url(#SVGID_00000009578613576357134330000012815500004917532858_);" d="M1952.689,1953.644
								c3.313-4.552,9.134-0.275,9.168,5.614c0.035,5.889-5.672,12.012-11.208,10.849
								C1945.112,1968.945,1948.23,1959.771,1952.689,1953.644z"/>
						</g>
					</g>
					
						<linearGradient id="SVGID_00000121265869107675980560000003601096845592285585_" gradientUnits="userSpaceOnUse" x1="1793.1208" y1="2300.9443" x2="2084.4841" y2="2579.1631">
						<stop  offset="0" style="stop-color:#FF9085"/>
						<stop  offset="1" style="stop-color:#FB6FBB"/>
					</linearGradient>
					<path style="opacity:0.3;fill:url(#SVGID_00000121265869107675980560000003601096845592285585_);" d="M2043.989,2626.229
						c-14.56-28.991,21.118-67.529-2.191-111.726c-19.796-37.537-55.758-29.128-72.292-63.53
						c-19.972-41.552,23.462-72.608,21.906-135.823c-1.859-75.571-66.885-151.22-105.153-144.586
						c-24.76,4.292-27.941,41.231-45.361,81.67c15.415,33.802,33.425,76.15,49.742,133.019
						c20.058,69.906,30.087,104.858,27.384,148.968c-3.765,61.439-25.343,96.938-4.381,124.87
						c13.123,17.486,38.137,20.293,87.628,25.193c44.976,4.453,118.992,10.856,201.544-26.288
						c10.449-4.702,18.272-8.223,24.653-11.698C2098.495,2665.665,2055.538,2649.224,2043.989,2626.229z"/>
					
						<linearGradient id="SVGID_00000059291419140940686960000000334026483282843536_" gradientUnits="userSpaceOnUse" x1="1806.22" y1="2268.3079" x2="2136.7458" y2="2583.9229">
						<stop  offset="0" style="stop-color:#FF9085"/>
						<stop  offset="1" style="stop-color:#FB6FBB"/>
					</linearGradient>
					<path style="fill:url(#SVGID_00000059291419140940686960000000334026483282843536_);" d="M1563.545,2329.083
						c1.496-6.732,2.991-13.46,4.487-20.192c101.344,18.167,145.661-2.225,167.068-26.055c19.65-21.87,11.271-33.169,42.718-116.654
						c29.953-79.516,63.937-99.952,81.056-107.345c9.562-4.129,16.163-6.867,24.098-4.929
						c36.51,8.923,48.581,104.068,38.337,175.258c-5.772,40.106-17.089,118.753-81.604,156.087
						c-1.186,0.687-3.064,1.773-5.543,3.099c-8.123,4.346-40.407,19.87-103.992,8.401
						C1655.201,2383.227,1582.059,2340.261,1563.545,2329.083z"/>
				</g>
				<g>
					
						<linearGradient id="SVGID_00000014620515923053950920000011227170426248277399_" gradientUnits="userSpaceOnUse" x1="1816.4431" y1="2032.9697" x2="1902.2776" y2="2449.5208">
						<stop  offset="0" style="stop-color:#AA80F9"/>
						<stop  offset="0.9964" style="stop-color:#6165D7"/>
					</linearGradient>
					
						<ellipse style="fill:url(#SVGID_00000014620515923053950920000011227170426248277399_);" cx="2032.79" cy="3082.891" rx="221.422" ry="90.368"/>
					
						<linearGradient id="SVGID_00000054953671441606237180000007195928329630955188_" gradientUnits="userSpaceOnUse" x1="1811.3678" y1="3052.8464" x2="2254.2119" y2="3052.8464">
						<stop  offset="0" style="stop-color:#AA80F9"/>
						<stop  offset="0.9964" style="stop-color:#6165D7"/>
					</linearGradient>
					<path style="fill:url(#SVGID_00000054953671441606237180000007195928329630955188_);" d="M2254.212,3072.293
						c0,47.113-99.134,85.305-221.422,85.305c-122.289,0-221.423-38.193-221.423-85.305c0-47.111,99.134-124.199,221.423-124.199
						C2155.078,2948.094,2254.212,3025.182,2254.212,3072.293z"/>
					
						<linearGradient id="SVGID_00000058558890759797044000000005430589119961570456_" gradientUnits="userSpaceOnUse" x1="1956.4365" y1="3031.1238" x2="2328.5413" y2="3031.1238" gradientTransform="matrix(1 0 0 1 -74.3293 0)">
						<stop  offset="0" style="stop-color:#AA80F9"/>
						<stop  offset="0.9964" style="stop-color:#6165D7"/>
					</linearGradient>
					<path style="opacity:0.3;fill:url(#SVGID_00000058558890759797044000000005430589119961570456_);" d="M2254.212,3072.293
						c0-47.112-99.134-124.199-221.422-124.199c-56.464,0-107.963,16.451-147.075,38.781c-2.738,5.735-4.013,11.438-3.494,16.852
						c2.539,26.507,45.771,42.803,70.587,48.177c62.491,13.536,93.008-23.833,144.533-22.408
						c31.856,0.88,75.999,16.884,128.358,84.658C2243.822,3101.786,2254.212,3087.511,2254.212,3072.293z"/>
					<path style="fill:#FFFFFF;" d="M2044.917,2990.886c-8.847,2.202-17.101,2.115-24.867,0.141
						c-7.044-1.788-11.879-8.305-11.879-15.574l0.001-249.673h49.236v249.378C2057.408,2982.65,2052.187,2989.077,2044.917,2990.886
						z"/>
					
						<linearGradient id="SVGID_00000001653589476673240440000004030831204557865138_" gradientUnits="userSpaceOnUse" x1="2082.5007" y1="2859.1516" x2="2131.7375" y2="2859.1516" gradientTransform="matrix(1 0 0 1 -74.3293 0)">
						<stop  offset="0" style="stop-color:#AA80F9"/>
						<stop  offset="0.9964" style="stop-color:#6165D7"/>
					</linearGradient>
					<path style="opacity:0.65;fill:url(#SVGID_00000001653589476673240440000004030831204557865138_);" d="M2044.917,2990.886
						c-8.847,2.202-17.101,2.115-24.867,0.141c-7.044-1.788-11.879-8.305-11.879-15.574l0.001-249.673h49.236v249.378
						C2057.408,2982.65,2052.187,2989.077,2044.917,2990.886z"/>
					<g>
						
							<linearGradient id="SVGID_00000064333208925030352900000018087303045308587177_" gradientUnits="userSpaceOnUse" x1="2351.5398" y1="2806.7949" x2="2261.2686" y2="2689.1687" gradientTransform="matrix(1 0 0 1 -74.3293 0)">
							<stop  offset="0" style="stop-color:#311944"/>
							<stop  offset="1" style="stop-color:#893976"/>
						</linearGradient>
						<path style="fill:url(#SVGID_00000064333208925030352900000018087303045308587177_);" d="M1772.631,2620.703l75.217-47.549
							c3.129-17.762,38.584-203.579,182.525-261.929c58.535-23.728,121.53-20.913,156.099-19.368
							c69.011,3.082,118.236,5.281,141.911,38.2c30.402,42.27-20.588,80.603-10.03,201.513c4.305,49.307,15.255,71.206,1.617,103.87
							c-16.338,39.129-54.224,60.817-83.681,73.026c-35.213,20.448-96.524,49.587-177.502,56.683
							c-136.403,11.954-238.234-46.558-273.252-68.945c-15.572-4.91-27.272-17.859-30.583-33.846
							C1751.594,2646.146,1758.638,2629.549,1772.631,2620.703z"/>
					</g>
					<path style="opacity:0.26;fill:#FFFFFF;" d="M1807.216,2654.562c2.78-16.719,49.38-2.86,93.459-35.604
						c65.891-48.946,31.692-131.857,89.008-211.395c52.601-72.993,158.495-110.144,191.368-82.333
						c43.758,37.02-63.336,175.466,0,264.8c30.766,43.396,77.64,41.306,77.883,66.757c0.383,40.219-116.28,86.588-226.972,84.558
						C1912.962,2739.164,1802.804,2681.1,1807.216,2654.562z"/>
				</g>
				<g>
					
						<linearGradient id="SVGID_00000049207930990691495240000002756126760838855082_" gradientUnits="userSpaceOnUse" x1="2032.1166" y1="3093.9548" x2="2074.5503" y2="3131.6997" gradientTransform="matrix(-0.9902 -0.14 -0.14 0.9902 3687.3257 206.9384)">
						<stop  offset="0" style="stop-color:#444B8C"/>
						<stop  offset="0.9964" style="stop-color:#26264F"/>
					</linearGradient>
					<path style="fill:url(#SVGID_00000049207930990691495240000002756126760838855082_);" d="M1230.038,3005.275
						c-1.207-6.652-22.69-12.674-33.327-3.763c-5.282,4.424-8.919,13.392-5.863,17.442c1.112,1.473-3.442,4.065,0.921,4.116
						C1206.241,3023.239,1231.24,3011.885,1230.038,3005.275z"/>
					
						<linearGradient id="SVGID_00000072999240086893505250000012537469895933689275_" gradientUnits="userSpaceOnUse" x1="1788.0535" y1="3461.2754" x2="1788.0535" y2="3387.3516" gradientTransform="matrix(-0.9988 0.0498 0.0498 0.9988 2810.8794 -528.7908)">
						<stop  offset="0" style="stop-color:#FFC444"/>
						<stop  offset="0.9964" style="stop-color:#F36F56"/>
					</linearGradient>
					<path style="fill:url(#SVGID_00000072999240086893505250000012537469895933689275_);" d="M1206.547,3005.31l-22.286,1.111
						c7.721-14.037-1.562-52.216-1.562-52.216l24.065,0.707c0,0-0.592,11.084-2.06,27.549
						C1204.202,2988.097,1205.128,2996.587,1206.547,3005.31z"/>
					
						<linearGradient id="SVGID_00000043455285393922398810000013524711373178503854_" gradientUnits="userSpaceOnUse" x1="2036.3827" y1="3089.1599" x2="2078.8162" y2="3126.9048" gradientTransform="matrix(-0.9902 -0.14 -0.14 0.9902 3687.3257 206.9384)">
						<stop  offset="0" style="stop-color:#444B8C"/>
						<stop  offset="0.9964" style="stop-color:#26264F"/>
					</linearGradient>
					<path style="fill:url(#SVGID_00000043455285393922398810000013524711373178503854_);" d="M1209.481,3004.975
						c0,0-26.599-6.129-29.476-0.853c-2.878,5.277-5.112,19.405,11.764,18.948
						C1208.646,3022.615,1210.98,3009.448,1209.481,3004.975z"/>
					
						<linearGradient id="SVGID_00000170257494623665921110000011735640454195234492_" gradientUnits="userSpaceOnUse" x1="2209.6323" y1="3011.689" x2="2252.0681" y2="3049.4358" gradientTransform="matrix(-1 0 0 1 3584.4829 0)">
						<stop  offset="0" style="stop-color:#444B8C"/>
						<stop  offset="0.9964" style="stop-color:#26264F"/>
					</linearGradient>
					<path style="fill:url(#SVGID_00000170257494623665921110000011735640454195234492_);" d="M1365.725,3032.37
						c-2.127-6.417-24.242-9.373-33.527,0.938c-4.61,5.119-6.957,14.509-3.364,18.09c1.307,1.305-2.838,4.508,1.489,3.948
						C1344.675,3053.488,1367.838,3038.746,1365.725,3032.37z"/>
					
						<linearGradient id="SVGID_00000051351611617471382990000015956741941794239906_" gradientUnits="userSpaceOnUse" x1="2026.5468" y1="3305.3206" x2="2026.5468" y2="3231.395" gradientTransform="matrix(-0.9813 0.1926 0.1926 0.9813 2684.261 -582.0115)">
						<stop  offset="0" style="stop-color:#FFC444"/>
						<stop  offset="0.9964" style="stop-color:#F36F56"/>
					</linearGradient>
					<path style="fill:url(#SVGID_00000051351611617471382990000015956741941794239906_);" d="M1339.592,3038.551l-21.895,4.297
						c5.627-14.999-9.038-51.452-9.038-51.452l23.917-2.753c0,0,1.004,11.055,1.914,27.56
						C1334.802,3021.852,1336.936,3030.123,1339.592,3038.551z"/>
					
						<linearGradient id="SVGID_00000045618219894641993830000004762156576337766316_" gradientUnits="userSpaceOnUse" x1="2213.8987" y1="3006.8943" x2="2256.3337" y2="3044.6404" gradientTransform="matrix(-1 0 0 1 3584.4829 0)">
						<stop  offset="0" style="stop-color:#444B8C"/>
						<stop  offset="0.9964" style="stop-color:#26264F"/>
					</linearGradient>
					<path style="fill:url(#SVGID_00000045618219894641993830000004762156576337766316_);" d="M1345.327,3034.949
						c0,0-27.196-2.345-29.306,3.283c-2.11,5.626-2.345,19.927,14.301,17.114
						C1346.969,3052.533,1347.438,3039.169,1345.327,3034.949z"/>
					<g>
						<path style="fill:#26264F;" d="M1228.988,2368.547l93.967-220.116c4.695-10.997-1.609-23.578-13.229-26.4l-172.127-41.802
							c-9.303-2.259-18.859,2.624-22.479,11.485l-86.429,211.559c-4.304,10.535,1.369,22.491,12.251,25.821l164.589,50.359
							C1214.987,2382.347,1225.104,2377.643,1228.988,2368.547z"/>
						<path style="fill:#EFF2F6;" d="M1224.735,2357.96l87.772-205.604c4.385-10.272-1.504-22.024-12.358-24.66l-160.779-39.046
							c-8.689-2.11-17.615,2.45-20.996,10.728l-80.732,197.611c-4.02,9.841,1.278,21.009,11.443,24.119l153.738,47.039
							C1211.657,2370.85,1221.107,2366.456,1224.735,2357.96z"/>
					</g>
					
						<linearGradient id="SVGID_00000117653466183205082230000003870160826060473223_" gradientUnits="userSpaceOnUse" x1="-300.8778" y1="2218.2708" x2="-326.8154" y2="2336.6812" gradientTransform="matrix(-1 0 0 1 975.4035 0)">
						<stop  offset="0" style="stop-color:#FFC444"/>
						<stop  offset="0.9964" style="stop-color:#F36F56"/>
					</linearGradient>
					<path style="fill:url(#SVGID_00000117653466183205082230000003870160826060473223_);" d="M1278.922,2297.519l2.819-25.937
						l14.945-28.489c2.035-3.88,3.098-8.195,3.098-12.577v-28.289l-18.043,41.726c0,0-11.841-10.713-16.352-12.969
						c-4.511-2.255-3.947,6.767-0.564,10.15c3.383,3.383-1.692,31.012,1.692,33.831l-1.128,16.916L1278.922,2297.519z"/>
					
						<linearGradient id="SVGID_00000124844954309622283960000012685557134933779857_" gradientUnits="userSpaceOnUse" x1="-66.5071" y1="2208.084" x2="233.4656" y2="2494.5239" gradientTransform="matrix(-1 0 0 1 975.4035 0)">
						<stop  offset="0.0036" style="stop-color:#E38DDD"/>
						<stop  offset="1" style="stop-color:#9571F6"/>
					</linearGradient>
					<path style="fill:url(#SVGID_00000124844954309622283960000012685557134933779857_);" d="M1135.701,2132.308
						c-14.032-34.312-44.151-54.046-59.769-64.28c-36.954-24.213-60.612-19.792-145.476-32.704
						c-113.098-17.208-126.636-33.513-164.646-20.299c-49.931,17.358-76.011,62.682-87.962,83.451
						c-60.252,104.709,10.192,157.929-7.894,366.509c-7.386,85.184-26.325,159.21,19.171,202.989
						c9.579,9.218,20.295,14.039,41.726,23.682c84.992,38.242,161.194,31.65,207.5,27.065c50.954-5.045,76.707-7.935,90.217-25.938
						c21.582-28.757-0.634-65.306-4.511-128.56c-2.783-45.413,7.542-81.398,28.193-153.369
						C1100.258,2243.537,1162.585,2198.047,1135.701,2132.308z"/>
					<g>
						<g>
							
								<linearGradient id="SVGID_00000142166379129018744440000004082266284728533409_" gradientUnits="userSpaceOnUse" x1="3385.6914" y1="2016.5745" x2="3572.8154" y2="2252.0002" gradientTransform="matrix(-0.9663 0.2576 0.2576 0.9663 3719.7444 -923.8408)">
								<stop  offset="0" style="stop-color:#FFC444"/>
								<stop  offset="0.9964" style="stop-color:#F36F56"/>
							</linearGradient>
							<path style="fill:url(#SVGID_00000142166379129018744440000004082266284728533409_);" d="M946.394,1973.603
								c5.148-18.344-3.853-35.332-5.837-38.992c-8.307-15.325-10.435-17.418-14.398-20.073l-5.509-3.399
								c0,0-0.319-0.128-0.655-0.248c-3.535-1.258-15.586-1.624-18.027-1.103c-7.799,1.665-16.102,33.436-13.733,78.353
								c-0.323,1.711-0.635,3.438-0.937,5.179c-1.228,7.093-2.204,14.046-2.958,20.844c-0.722,6.502-9.942,6.353-16.471,5.936
								c-26.501-1.691-39.47,0.564-40.598,4.511c-2.113,7.397,29.321,31.577,68.135,37.016c52.091,0.387,94.466-5.159,89.912-13.363
								c-2.022-3.641-42.383-14.188-53.734-24.641c-10.393-9.573-9.546-19.453-10.401-26.528
								C924.332,1995.461,942.603,1987.118,946.394,1973.603z"/>
							<path style="fill:#26264F;" d="M936.812,1898.381c-0.047,13.915-6.603,28.777-9.944,31.164
								c-0.431,0.309-2.858,2.226-5.04,5.506c-0.297,0.446-0.559,0.969-0.793,1.645c-3.049,8.769,10.894,19.088,8.203,23.015
								c-1.952,2.848-11.428-0.961-12.555,1.499c-1.062,2.314,6.814,7.108,5.608,9.88c-0.909,2.094-5.756,0.178-8.813,3.385
								c-1.523,1.597-1.076,2.863-2.69,7.745c-0.913,2.761-2.189,5.782-3.179,7.462c-4.81,8.17-18.43,11.155-21.051,7.885
								c-0.729-0.911-0.103-1.677-0.848-4.735c0,0-0.69-2.834-2.662-6.11c-2.818-4.682-9.619-8.03-16.482-12.972
								c-12.709-9.152-16.163-16.953-17.199-19.588c-0.369-0.939-0.598-1.647-0.763-2.158c-3.305-10.257-3.32-25.323,1.291-34.588
								c7.724-15.52,25.15-8.151,39.413-23.53c16.456-17.742,6.655-41.994,15.585-44.672
								C914.736,1846.26,936.897,1872.65,936.812,1898.381z"/>
							
								<linearGradient id="SVGID_00000006706933580000816340000009897991566869703816_" gradientUnits="userSpaceOnUse" x1="3394.6477" y1="2004.7246" x2="3603.5735" y2="2267.5798" gradientTransform="matrix(-0.9663 0.2576 0.2576 0.9663 3719.7444 -923.8408)">
								<stop  offset="0" style="stop-color:#FFC444"/>
								<stop  offset="0.9964" style="stop-color:#F36F56"/>
							</linearGradient>
							<path style="fill:url(#SVGID_00000006706933580000816340000009897991566869703816_);" d="M924.237,1956.44
								c-3.411-4.687-9.404-0.283-9.439,5.78c-0.036,6.063,5.84,12.367,11.539,11.17
								C932.037,1972.193,928.827,1962.748,924.237,1956.44z"/>
						</g>
						<path style="fill:#26264F;" d="M921.471,1946.296l7.912,10.293c0,0,8.53,12.61,13.51,5.702
							c4.068-5.645,5.122-5.519,5.372-5.282c0.047,0.045,0.06,0.113,0.071,0.109c0.071-0.019-0.597-2.81-1.197-5.263
							c2.106,3.024,5.009,7.929,6.767,14.528c1.708,6.41,3.538,13.273-0.079,19.866c-0.209,0.38-4.193,7.398-11.632,9.096
							c0,0-2.925,0.667-15.286-1.505c0,0,13.51-9.804,13.717-12.133c0.56-6.333-8.223-9.755-14.744-22.738
							C923.368,1953.962,922.128,1949.421,921.471,1946.296z"/>
					</g>
					
						<linearGradient id="SVGID_00000137126374408622035380000009824670888827186075_" gradientUnits="userSpaceOnUse" x1="-177.2473" y1="2324.0562" x2="122.7257" y2="2610.4963" gradientTransform="matrix(-1 0 0 1 975.4035 0)">
						<stop  offset="0.0036" style="stop-color:#E38DDD"/>
						<stop  offset="1" style="stop-color:#9571F6"/>
					</linearGradient>
					<path style="opacity:0.3;fill:url(#SVGID_00000137126374408622035380000009824670888827186075_);" d="M894.369,2658.952
						c14.99-29.848-21.742-69.524,2.256-115.027c20.381-38.647,57.406-29.989,74.429-65.408
						c20.562-42.78-24.155-74.754-22.554-139.837c1.914-77.804,68.861-155.689,108.261-148.858
						c25.491,4.419,28.766,42.448,46.702,84.083c-15.871,34.801-34.413,78.4-51.212,136.95
						c-20.651,71.971-30.976,107.956-28.193,153.369c3.876,63.254,26.092,99.803,4.511,128.56
						c-13.511,18.003-39.263,20.893-90.217,25.938c-46.305,4.585-122.508,11.177-207.5-27.065
						c-10.758-4.841-18.812-8.467-25.381-12.043C838.253,2699.554,882.48,2682.628,894.369,2658.952z"/>
					
						<linearGradient id="SVGID_00000031927242386122571550000015117676991466900105_" gradientUnits="userSpaceOnUse" x1="-132.4078" y1="2277.0981" x2="167.5651" y2="2563.5383" gradientTransform="matrix(-1 0 0 1 975.4035 0)">
						<stop  offset="0.0036" style="stop-color:#E38DDD"/>
						<stop  offset="1" style="stop-color:#9571F6"/>
					</linearGradient>
					<path style="fill:url(#SVGID_00000031927242386122571550000015117676991466900105_);" d="M1283.996,2292.444
						c-8.27-3.571-16.54-7.143-24.81-10.713c-13.977,14.294-31.804,28.195-46.8,23.682c-22.353-6.727-16.764-47.849-43.981-120.102
						c-30.838-81.865-65.826-102.907-83.451-110.516c-9.845-4.25-16.641-7.072-24.81-5.075
						c-37.589,9.189-50.017,107.142-39.47,180.435c5.942,41.295,17.594,122.265,84.015,160.7
						c9.435,5.46,61.372,35.513,112.772,11.841C1261.371,2402.472,1288.505,2350.586,1283.996,2292.444z"/>
					
						<linearGradient id="SVGID_00000161600947595590192480000006577637644939185561_" gradientUnits="userSpaceOnUse" x1="139.8837" y1="2546.073" x2="-106.0135" y2="2721.7139" gradientTransform="matrix(-1 0 0 1 975.4035 0)">
						<stop  offset="0" style="stop-color:#444B8C"/>
						<stop  offset="0.9964" style="stop-color:#26264F"/>
					</linearGradient>
					<path style="fill:url(#SVGID_00000161600947595590192480000006577637644939185561_);" d="M1221.111,2957.257
						c-13.745,1.526-27.491,3.056-41.237,4.582c-18.565-20.578-46.281-56.46-61.093-106.91
						c-28.375-96.646,16.05-160.082-13.746-184.808c-34.352-28.508-102.208,48.513-252.006,70.259
						c-48.213,6.998-155.244,22.538-198.551-35.13c-17.556-23.379-27.64-62.782-13.746-96.22
						c24.91-59.946,106.956-52.746,377.246-105.384c104.12-20.279,120.571-26.919,145.308-15.111
						C1285.621,2546.936,1234.607,2877.163,1221.111,2957.257z"/>
					
						<linearGradient id="SVGID_00000028282783638277368480000018051954188955565242_" gradientUnits="userSpaceOnUse" x1="-390.4566" y1="2761.1465" x2="218.4937" y2="2761.1465" gradientTransform="matrix(-1 0 0 1 975.4035 0)">
						<stop  offset="0" style="stop-color:#444B8C"/>
						<stop  offset="0.9964" style="stop-color:#26264F"/>
					</linearGradient>
					<path style="fill:url(#SVGID_00000028282783638277368480000018051954188955565242_);" d="M1343.804,2996.135
						c-13.746,1.525-27.492,3.056-41.237,4.582c-18.565-20.579-46.281-56.46-61.092-106.91
						c-28.375-96.646,16.05-160.081-13.746-184.808c-34.352-28.507-102.208,48.513-252.007,70.26
						c-48.213,6.998-155.244,22.538-198.55-35.129c-17.556-23.38-27.641-62.783-13.746-96.221
						c24.91-59.945,106.956-52.746,377.246-105.385c104.12-20.279,120.571-26.919,145.308-15.111
						C1408.313,2585.814,1357.3,2916.041,1343.804,2996.135z"/>
				</g>
				<g>
					
						<linearGradient id="SVGID_00000178912749199506487700000009247236855686927800_" gradientUnits="userSpaceOnUse" x1="691.1558" y1="2387.5281" x2="776.9904" y2="2804.0801">
						<stop  offset="0" style="stop-color:#AA80F9"/>
						<stop  offset="0.9964" style="stop-color:#6165D7"/>
					</linearGradient>
					
						<ellipse style="fill:url(#SVGID_00000178912749199506487700000009247236855686927800_);" cx="852.03" cy="3168.246" rx="212.566" ry="86.754"/>
					
						<linearGradient id="SVGID_00000136412554169172261040000012224382106064083868_" gradientUnits="userSpaceOnUse" x1="639.4645" y1="3139.4036" x2="1064.5966" y2="3139.4036">
						<stop  offset="0" style="stop-color:#AA80F9"/>
						<stop  offset="0.9964" style="stop-color:#6165D7"/>
					</linearGradient>
					<path style="fill:url(#SVGID_00000136412554169172261040000012224382106064083868_);" d="M639.464,3158.073
						c0,45.228,95.169,81.893,212.566,81.893c117.398,0,212.566-36.665,212.566-81.893c0-45.227-95.169-119.232-212.566-119.232
						C734.633,3038.841,639.464,3112.845,639.464,3158.073z"/>
					
						<linearGradient id="SVGID_00000049221298910297420320000008131184664773956492_" gradientUnits="userSpaceOnUse" x1="-485.1093" y1="3118.55" x2="-127.8874" y2="3118.55" gradientTransform="matrix(-1 0 0 1 511.5771 0)">
						<stop  offset="0" style="stop-color:#AA80F9"/>
						<stop  offset="0.9964" style="stop-color:#6165D7"/>
					</linearGradient>
					<path style="opacity:0.3;fill:url(#SVGID_00000049221298910297420320000008131184664773956492_);" d="M639.464,3158.073
						c0-45.228,95.169-119.232,212.566-119.232c54.206,0,103.645,15.793,141.193,37.23c2.628,5.506,3.853,10.98,3.355,16.178
						c-2.438,25.447-43.94,41.091-67.764,46.25c-59.992,12.994-89.288-22.88-138.752-21.512
						c-30.582,0.845-72.96,16.208-123.224,81.272C649.439,3186.386,639.464,3172.682,639.464,3158.073z"/>
					<path style="fill:#FFFFFF;" d="M840.388,3079.922c8.493,2.114,16.418,2.03,23.873,0.135
						c6.761-1.716,11.404-7.973,11.404-14.951l-0.001-239.687h-47.267v239.404C828.397,3072.015,833.409,3078.185,840.388,3079.922z
						"/>
					
						<linearGradient id="SVGID_00000085934234900719497470000008702985201926709153_" gradientUnits="userSpaceOnUse" x1="-364.0873" y1="2953.4561" x2="-316.8197" y2="2953.4561" gradientTransform="matrix(-1 0 0 1 511.5771 0)">
						<stop  offset="0" style="stop-color:#AA80F9"/>
						<stop  offset="0.9964" style="stop-color:#6165D7"/>
					</linearGradient>
					<path style="opacity:0.65;fill:url(#SVGID_00000085934234900719497470000008702985201926709153_);" d="M840.388,3079.922
						c8.493,2.114,16.418,2.03,23.873,0.135c6.761-1.716,11.404-7.973,11.404-14.951l-0.001-239.687h-47.267v239.404
						C828.397,3072.015,833.409,3078.185,840.388,3079.922z"/>
					<g>
						
							<linearGradient id="SVGID_00000103975479523091136310000008496862649261774511_" gradientUnits="userSpaceOnUse" x1="-105.8086" y1="2903.1934" x2="-192.4693" y2="2790.2717" gradientTransform="matrix(-1 0 0 1 511.5771 0)">
							<stop  offset="0" style="stop-color:#311944"/>
							<stop  offset="1" style="stop-color:#893976"/>
						</linearGradient>
						<path style="fill:url(#SVGID_00000103975479523091136310000008496862649261774511_);" d="M1101.784,2724.544l-72.208-45.647
							c-3.004-17.052-37.041-195.437-175.224-251.453c-56.194-22.779-116.669-20.077-149.855-18.593
							c-66.251,2.959-113.507,5.069-136.235,36.672c-29.186,40.579,19.765,77.379,9.629,193.453
							c-4.133,47.335-14.645,68.358-1.552,99.716c15.684,37.564,52.055,58.385,80.335,70.105
							c33.805,19.63,92.664,47.603,170.403,54.416c130.947,11.476,228.705-44.696,262.323-66.188
							c14.949-4.713,26.182-17.144,29.36-32.493C1121.98,2748.969,1115.218,2733.037,1101.784,2724.544z"/>
					</g>
					<path style="opacity:0.26;fill:#FFFFFF;" d="M1068.582,2757.049c-2.669-16.051-47.404-2.745-89.721-34.179
						c-63.256-46.988-30.425-126.583-85.449-202.94c-50.497-70.074-152.156-105.739-183.714-79.04
						c-42.008,35.54,60.803,168.448,0,254.209c-29.536,41.661-74.535,39.654-74.767,64.086
						c-0.367,38.61,111.629,83.125,217.894,81.176C967.066,2838.267,1072.818,2782.525,1068.582,2757.049z"/>
				</g>
			</g>
		</g>
		<g>
			
				<linearGradient id="SVGID_00000134231043559268960350000017665050617844160441_" gradientUnits="userSpaceOnUse" x1="2872.4548" y1="2451.3325" x2="3081.1384" y2="2521.4785">
				<stop  offset="0" style="stop-color:#AB316D"/>
				<stop  offset="1" style="stop-color:#792D3D"/>
			</linearGradient>
			<path style="fill:url(#SVGID_00000134231043559268960350000017665050617844160441_);" d="M2988.645,2583.666
				c-0.835,7.227-4.348,13.05-8.975,14.871c-11.557,4.549-26.513,6.267-43.998,6.288c-17.753,0.022-32.909-1.781-44.561-6.398
				c-4.484-1.777-7.927-7.313-8.882-14.277l-30.998-225.924h163.461L2988.645,2583.666z"/>
			
				<linearGradient id="SVGID_00000145052664758869490410000001829228328107813308_" gradientUnits="userSpaceOnUse" x1="2851.2312" y1="2357.2002" x2="3014.9773" y2="2357.2002">
				<stop  offset="0" style="stop-color:#FFC444"/>
				<stop  offset="0.9964" style="stop-color:#F36F56"/>
			</linearGradient>
			
				<ellipse style="fill:url(#SVGID_00000145052664758869490410000001829228328107813308_);" cx="2933.104" cy="2357.2" rx="81.873" ry="13.158"/>
			<g>
				<g style="opacity:0.6;">
					<defs>
						<path id="SVGID_00000102505829571971079730000012662523981096200321_" style="opacity:0.6;" d="M2855.177,2354.125
							c4.34,2.648,13.755,11.507,26.305,12.495c83.517,6.576,118.618-10.65,121.659-13.152c0.519-0.427-2.592-36.078-2.095-36.525
							c-2.378-12.976-1.889-27.007,4.181-40.982c17.92-41.258,132.189-61.022,100.513-139.742
							c-23.203-57.661-106.024-77.304-2.667-163.619c103.357-86.315,138.131-274.684,22.231-294.556
							c-66.516-11.405-91.664,98.922-161.711,117.745c-66.563,17.887-90.508,76.014-69.981,149.136s-19.065,86.58-68.823,123.194
							c-59.77,43.981-0.179,111.587,25.999,140.084C2871.867,2231.151,2893.726,2326.061,2855.177,2354.125z"/>
					</defs>
					
						<linearGradient id="SVGID_00000074411661567028216230000005960674128079675577_" gradientUnits="userSpaceOnUse" x1="2799.0598" y1="2022.6625" x2="3197.7764" y2="2022.6625">
						<stop  offset="0.0036" style="stop-color:#E38DDD"/>
						<stop  offset="1" style="stop-color:#9571F6"/>
					</linearGradient>
					
						<use xlink:href="#SVGID_00000102505829571971079730000012662523981096200321_"  style="overflow:visible;fill:url(#SVGID_00000074411661567028216230000005960674128079675577_);"/>
					<clipPath id="SVGID_00000119822299253637449840000017046867720451620766_">
						<use xlink:href="#SVGID_00000102505829571971079730000012662523981096200321_"  style="overflow:visible;"/>
					</clipPath>
					<g style="clip-path:url(#SVGID_00000119822299253637449840000017046867720451620766_);">
						<path style="fill:#FCFDFE;" d="M2937.848,2360.286c-31.331-247.789,57.752-509.567,232.481-683.179l2.008,2.02
							c-174.118,173.003-262.885,433.87-231.663,680.802L2937.848,2360.286z"/>
						<path style="fill:#FCFDFE;" d="M2932.476,2224.287c-31.363-93.219-135.544-138.97-136.593-139.422l1.127-2.616
							c1.06,0.456,106.401,46.719,138.167,141.129L2932.476,2224.287z"/>
						<path style="fill:#FCFDFE;" d="M2936.154,2314.089l-2.807-0.483c16.833-97.954,184.167-167.323,185.856-168.012l1.076,2.636
							C3118.605,2148.913,2952.721,2217.688,2936.154,2314.089z"/>
						<path style="fill:#FCFDFE;" d="M2982.373,1982.969l-2.838-0.241c6.692-78.789-73.753-169.482-74.566-170.389l2.121-1.902
							C2907.911,1811.353,2989.171,1902.948,2982.373,1982.969z"/>
						<path style="fill:#FCFDFE;" d="M3048.989,1838.764l-2.189-1.824c57.564-69.019,178.284-82.195,179.497-82.32l0.294,2.833
							C3225.388,1757.578,3105.803,1770.644,3048.989,1838.764z"/>
					</g>
				</g>
			</g>
		</g>
		<g>
			<defs>
				
					<filter id="Adobe_OpacityMaskFilter" filterUnits="userSpaceOnUse" x="408.847" y="1128.199" width="1090.602" height="674.356">
					<feColorMatrix  type="matrix" values="1 0 0 0 0  0 1 0 0 0  0 0 1 0 0  0 0 0 1 0"/>
				</filter>
			</defs>
			
				<mask maskUnits="userSpaceOnUse" x="408.847" y="1128.199" width="1090.602" height="674.356" id="SVGID_00000124120540610262885390000009054141885713484204_">
				<g style="filter:url(#Adobe_OpacityMaskFilter);">
					
						<linearGradient id="SVGID_00000057117586240765825440000006942519710378145691_" gradientUnits="userSpaceOnUse" x1="954.1481" y1="1802.5548" x2="954.1481" y2="1128.1991">
						<stop  offset="0.3022" style="stop-color:#000000"/>
						<stop  offset="0.3631" style="stop-color:#070707"/>
						<stop  offset="0.4525" style="stop-color:#1B1B1B"/>
						<stop  offset="0.5595" style="stop-color:#3B3B3B"/>
						<stop  offset="0.6802" style="stop-color:#686868"/>
						<stop  offset="0.8122" style="stop-color:#A2A2A2"/>
						<stop  offset="0.9517" style="stop-color:#E7E7E7"/>
						<stop  offset="0.9964" style="stop-color:#FFFFFF"/>
					</linearGradient>
					<polygon style="fill:url(#SVGID_00000057117586240765825440000006942519710378145691_);" points="815.399,1128.199 
						408.847,1802.555 1499.449,1802.555 1112.285,1142.135 					"/>
				</g>
			</mask>
			<polygon style="opacity:0.82;mask:url(#SVGID_00000124120540610262885390000009054141885713484204_);fill:#FFFFFF;" points="
				815.399,1128.199 408.847,1802.555 1499.449,1802.555 1112.285,1142.135 			"/>
			<g>
				<path style="fill:#6567D9;" d="M958.996,628.997c-1.047,0-1.897-0.849-1.897-1.896v-27.977c0-1.047,0.85-1.896,1.897-1.896
					s1.897,0.849,1.897,1.896v27.977C960.893,628.148,960.042,628.997,958.996,628.997z"/>
				<path style="fill:#6567D9;" d="M958.996,1010.629c-1.047,0-1.897-0.849-1.897-1.896V627.101c0-1.047,0.85-1.896,1.897-1.896
					s1.897,0.849,1.897,1.896v381.632C960.893,1009.781,960.042,1010.629,958.996,1010.629z"/>
				<path style="fill:#6567D9;" d="M958.996,1038.606c-1.047,0-1.897-0.849-1.897-1.896v-27.977c0-1.048,0.85-1.896,1.897-1.896
					s1.897,0.849,1.897,1.896v27.977C960.893,1037.757,960.042,1038.606,958.996,1038.606z"/>
			</g>
			<g>
				<path style="fill:#6567D9;" d="M958.996,543.703c-1.047,0-1.897-0.849-1.897-1.896V513.83c0-1.047,0.85-1.896,1.897-1.896
					s1.897,0.849,1.897,1.896v27.977C960.893,542.854,960.042,543.703,958.996,543.703z"/>
				<path style="fill:#6567D9;" d="M958.996,545.848c-1.047,0-1.897-0.849-1.897-1.896v-2.145c0-1.047,0.85-1.896,1.897-1.896
					s1.897,0.849,1.897,1.896v2.145C960.893,544.999,960.042,545.848,958.996,545.848z"/>
				<path style="fill:#6567D9;" d="M958.996,573.825c-1.047,0-1.897-0.849-1.897-1.896v-27.977c0-1.047,0.85-1.896,1.897-1.896
					s1.897,0.849,1.897,1.896v27.977C960.893,572.976,960.042,573.825,958.996,573.825z"/>
			</g>
			<path style="fill:#6567D9;" d="M958.996,491.853c-1.047,0-1.897-0.849-1.897-1.896V465.62c0-1.047,0.85-1.896,1.897-1.896
				s1.897,0.849,1.897,1.896v24.337C960.893,491.004,960.042,491.853,958.996,491.853z"/>
			
				<linearGradient id="SVGID_00000103965373784716228510000002511737284738297218_" gradientUnits="userSpaceOnUse" x1="825.6398" y1="1006.741" x2="1060.7249" y2="1203.0491">
				<stop  offset="0.0036" style="stop-color:#E38DDD"/>
				<stop  offset="1" style="stop-color:#9571F6"/>
			</linearGradient>
			<path style="fill:url(#SVGID_00000103965373784716228510000002511737284738297218_);" d="M1121.217,1159.182v-49.52
				c0-38.507-31.505-70.012-70.012-70.012H866.785c-38.507,0-70.012,31.505-70.012,70.012v49.52H1121.217z"/>
			
				<linearGradient id="SVGID_00000043425698757841140160000004129794224071634325_" gradientUnits="userSpaceOnUse" x1="806.3624" y1="1029.8263" x2="1041.4474" y2="1226.1342">
				<stop  offset="0.0036" style="stop-color:#E38DDD"/>
				<stop  offset="1" style="stop-color:#9571F6"/>
			</linearGradient>
			
				<ellipse style="fill:url(#SVGID_00000043425698757841140160000004129794224071634325_);" cx="959.225" cy="1157.474" rx="162.452" ry="32.153"/>
			<path style="fill:#726BDF;" d="M959.224,1115.777c-68.778,0-128.787-9.761-142.69-23.209c-0.449-0.433-0.461-1.147-0.027-1.596
				c0.435-0.448,1.148-0.458,1.595-0.026c13.524,13.08,72.874,22.574,141.122,22.574c63.428,0,120.271-8.344,138.23-20.291
				c0.521-0.348,1.219-0.203,1.564,0.314c0.345,0.519,0.205,1.219-0.314,1.564
				C1080.121,1107.471,1024.068,1115.777,959.224,1115.777z"/>
			
				<linearGradient id="SVGID_00000066500697097242693330000003822766711317621163_" gradientUnits="userSpaceOnUse" x1="894.9274" y1="1035.156" x2="1023.1817" y2="1035.156">
				<stop  offset="0" style="stop-color:#AA80F9"/>
				<stop  offset="0.9964" style="stop-color:#6165D7"/>
			</linearGradient>
			<path style="fill:url(#SVGID_00000066500697097242693330000003822766711317621163_);" d="M1023.042,1042.151
				c-0.228-15.015-12.563-27.232-27.629-27.232h-72.835c-15.208,0-27.65,12.443-27.65,27.65h0.033
				c-0.002,0.044-0.033,0.086-0.033,0.13c0,7.01,28.711,12.692,64.127,12.692c35.416,0,64.127-5.682,64.127-12.692
				C1023.182,1042.515,1023.081,1042.335,1023.042,1042.151z"/>
		</g>
	</g>
</g>
</svg>
