<?xml version="1.0" encoding="utf-8"?>
<!-- Generator: Adobe Illustrator 27.5.0, SVG Export Plug-In . SVG Version: 6.00 Build 0)  -->
<svg version="1.1" xmlns="http://www.w3.org/2000/svg" xmlns:xlink="http://www.w3.org/1999/xlink" x="0px" y="0px"
	 viewBox="0 0 750 500" style="enable-background:new 0 0 750 500;" xml:space="preserve">
<g id="BACKGROUND">
	<rect transform="matrix(-1 -1.224647e-16 1.224647e-16 -1 750 500)" style="fill:#EDEEF1;" width="750" height="500"/>
	
		<rect y="444.288" transform="matrix(-1 -1.224647e-16 1.224647e-16 -1 750 944.2884)" style="fill:#DCDEE2;" width="750" height="55.712"/>
	<g>
		<g style="opacity:0.5;">
			<g>
				<g>
					<g>
						<ellipse style="fill:#DCDEE2;" cx="44.002" cy="146.065" rx="10.803" ry="12.004"/>
					</g>
				</g>
			</g>
		</g>
		<g>
			<g>
				<g>
					<ellipse style="fill:#DCDEE2;" cx="68.75" cy="107.953" rx="17.899" ry="18.479"/>
				</g>
			</g>
			<g>
				<g>
					<path style="fill:#DCDEE2;" d="M678.494,45.071c0-10.206,8.014-18.479,17.899-18.479c9.886,0,17.9,8.273,17.9,18.479
						c0,10.206-8.014,18.48-17.9,18.48C686.508,63.55,678.494,55.277,678.494,45.071z"/>
				</g>
			</g>
			<g>
				<g>
					<ellipse style="fill:#DCDEE2;" cx="714.293" cy="89.474" rx="9.72" ry="10.035"/>
				</g>
			</g>
			<g>
				<path style="fill:#DCDEE2;" d="M44.002,280.166c0.01,69.426,56.001,145.5,125.685,150.096c1.224,0.081,2.459,0.19,3.709,0.211
					c118.392,2.004,107.55-75.329,198.292-86.839c98.656-12.514,199.836,72.623,296.21-18.858
					c77.514-73.578,94.402-296.571-190.996-306.028C248.559,11.182,43.972,73.032,44.002,280.166z"/>
			</g>
		</g>
	</g>
</g>
<g id="OBJECTS">
	<g>
		<g>
			<g>
				<g>
					<rect x="244.564" y="146.608" style="fill:#DCDEE2;" width="113.106" height="28.409"/>
					<path style="opacity:0.9;fill:#FFFFFF;" d="M344.261,168.77h-87.084c-0.49,0-0.888-0.397-0.888-0.888v-14.14
						c0-0.49,0.397-0.888,0.888-0.888h87.084c0.49,0,0.888,0.398,0.888,0.888v14.14C345.149,168.373,344.751,168.77,344.261,168.77z
						"/>
					<path style="fill:#EDEEF1;" d="M361.271,395.242H241.015V177.575c0-1.413,1.145-2.558,2.558-2.558h115.14
						c1.413,0,2.558,1.145,2.558,2.558V395.242z"/>
					<rect x="259.331" y="187.902" style="fill:#DCDEE2;" width="83.623" height="207.34"/>
					
						<rect x="205.772" y="257.883" transform="matrix(-1.836970e-16 1 -1 -1.836970e-16 593.7635 -8.5221)" style="fill:#EDEEF1;" width="190.742" height="69.476"/>
					<rect x="270.447" y="201.292" style="fill:#EDEEF1;" width="61.391" height="182.658"/>
					<rect x="314.154" y="201.292" style="fill:#DCDEE2;" width="17.685" height="28.043"/>
					<rect x="291.416" y="201.292" style="fill:#DCDEE2;" width="19.453" height="28.043"/>
					<rect x="270.447" y="201.292" style="fill:#DCDEE2;" width="17.685" height="28.043"/>
					<rect x="314.154" y="232.619" style="fill:#DCDEE2;" width="17.685" height="28.043"/>
					<rect x="270.447" y="232.619" style="fill:#DCDEE2;" width="17.685" height="28.043"/>
					<rect x="291.416" y="232.619" style="fill:#DCDEE2;" width="19.453" height="28.043"/>
					<rect x="314.154" y="263.441" style="fill:#DCDEE2;" width="17.685" height="28.043"/>
					<rect x="270.447" y="263.441" style="fill:#DCDEE2;" width="17.685" height="28.043"/>
					<rect x="291.416" y="263.441" style="fill:#DCDEE2;" width="19.453" height="28.043"/>
					<rect x="314.154" y="293.758" style="fill:#DCDEE2;" width="17.685" height="28.043"/>
					<rect x="270.447" y="293.758" style="fill:#DCDEE2;" width="17.685" height="28.043"/>
					<rect x="291.416" y="293.758" style="fill:#DCDEE2;" width="19.453" height="28.043"/>
					<rect x="314.154" y="324.58" style="fill:#DCDEE2;" width="17.685" height="28.043"/>
					<rect x="270.447" y="324.58" style="fill:#DCDEE2;" width="17.685" height="28.043"/>
					<rect x="291.416" y="324.58" style="fill:#DCDEE2;" width="19.453" height="28.043"/>
					<rect x="314.154" y="355.907" style="fill:#DCDEE2;" width="17.685" height="28.043"/>
					<rect x="270.447" y="355.907" style="fill:#DCDEE2;" width="17.685" height="28.043"/>
					<rect x="291.416" y="355.907" style="fill:#DCDEE2;" width="19.453" height="28.043"/>
					<g>
						<g>
							<rect x="310.869" y="199.018" style="fill:#EDEEF1;" width="3.284" height="184.932"/>
							<rect x="288.132" y="199.018" style="fill:#EDEEF1;" width="3.284" height="184.932"/>
						</g>
					</g>
					<g>
						<g>
							<rect x="270.447" y="229.335" style="fill:#EDEEF1;" width="61.391" height="3.284"/>
							<rect x="270.447" y="260.156" style="fill:#EDEEF1;" width="61.391" height="3.284"/>
							<rect x="270.447" y="290.978" style="fill:#EDEEF1;" width="61.391" height="3.284"/>
							<rect x="270.447" y="321.801" style="fill:#EDEEF1;" width="61.391" height="3.284"/>
							<rect x="270.447" y="352.622" style="fill:#EDEEF1;" width="61.391" height="3.284"/>
						</g>
					</g>
				</g>
				<path style="fill:#EDEEF1;" d="M363.246,146.608c0.001-0.852,0.004-1.704,0-2.557c-0.003-0.681,0.095-1.327-0.102-1.997
					c-0.538-1.823-2.819-3.118-4.333-4.117c-2.015-1.33-4.117-2.529-6.252-3.654c-2.818-1.485-5.707-2.835-8.644-4.069
					c-3.482-1.463-7.034-2.762-10.638-3.892c-4.019-1.26-8.103-2.31-12.236-3.125c-4.435-0.875-8.924-1.478-13.436-1.768
					c-2.013-0.129-4.03-0.196-6.047-0.196c-4.616,0-9.23,0.35-13.797,1.018c-4.239,0.62-8.437,1.514-12.567,2.652
					c-3.749,1.032-7.443,2.265-11.066,3.679c-3.155,1.231-6.257,2.6-9.293,4.101c-2.463,1.217-4.883,2.521-7.248,3.918
					c-1.863,1.101-3.668,2.281-5.438,3.51c-0.302,0.21-0.618,0.398-0.92,0.608c-0.69,0.483-1.204,1.012-1.178,1.867
					c0.011,0.374,0,0.749,0,1.123c0,0.966,0,1.932,0,2.898H363.246z"/>
			</g>
			<line style="fill:none;stroke:#DCDEE2;stroke-miterlimit:10;" x1="256.289" y1="160.813" x2="345.149" y2="160.813"/>
		</g>
		<g>
			<path style="fill:#EDEEF1;" d="M441.48,60.086h-2.026c0,0-1.519,44.463-14.281,67.15h15.294h15.294
				C443,104.549,441.48,60.086,441.48,60.086z"/>
			<rect x="408.64" y="196.387" style="fill:#EDEEF1;" width="63.099" height="25.549"/>
			<rect x="422.034" y="127.236" style="fill:#EDEEF1;" width="36.31" height="4.102"/>
			<rect x="422.034" y="134.833" style="fill:#EDEEF1;" width="36.31" height="25.523"/>
			<rect x="420.009" y="131.339" style="fill:#DCDEE2;" width="40.462" height="3.494"/>
			<path style="fill:#DCDEE2;" d="M454.047,156.511h-2.378c-0.35,0-0.634-0.284-0.634-0.634v-15.492c0-0.179,0.076-0.35,0.209-0.471
				l1.189-1.073c0.241-0.218,0.609-0.218,0.85,0l1.189,1.073c0.133,0.12,0.209,0.291,0.209,0.471v15.492
				C454.682,156.227,454.398,156.511,454.047,156.511z"/>
			<g>
				<path style="fill:#DCDEE2;" d="M463.589,218.268h-2.377c-0.35,0-0.634-0.284-0.634-0.634v-11.845
					c0-0.179,0.076-0.35,0.209-0.471l1.189-1.073c0.242-0.218,0.609-0.218,0.85,0l1.189,1.073c0.133,0.12,0.21,0.291,0.21,0.471
					v11.845C464.223,217.984,463.939,218.268,463.589,218.268z"/>
				<path style="fill:#DCDEE2;" d="M454.704,218.268h-2.378c-0.35,0-0.634-0.284-0.634-0.634v-11.845c0-0.179,0.076-0.35,0.21-0.471
					l1.189-1.073c0.241-0.218,0.608-0.218,0.85,0l1.189,1.073c0.133,0.12,0.209,0.291,0.209,0.471v11.845
					C455.339,217.984,455.055,218.268,454.704,218.268z"/>
				<path style="fill:#DCDEE2;" d="M445.82,218.268h-2.378c-0.35,0-0.634-0.284-0.634-0.634v-11.845c0-0.179,0.076-0.35,0.21-0.471
					l1.188-1.073c0.241-0.218,0.609-0.218,0.85,0l1.189,1.073c0.133,0.12,0.209,0.291,0.209,0.471v11.845
					C446.454,217.984,446.17,218.268,445.82,218.268z"/>
				<path style="fill:#DCDEE2;" d="M436.936,218.268h-2.378c-0.351,0-0.634-0.284-0.634-0.634v-11.845
					c0-0.179,0.076-0.35,0.209-0.471l1.189-1.073c0.242-0.218,0.609-0.218,0.85,0l1.189,1.073c0.133,0.12,0.209,0.291,0.209,0.471
					v11.845C437.57,217.984,437.286,218.268,436.936,218.268z"/>
				<path style="fill:#DCDEE2;" d="M428.051,218.268h-2.378c-0.35,0-0.634-0.284-0.634-0.634v-11.845
					c0-0.179,0.076-0.35,0.209-0.471l1.189-1.073c0.241-0.218,0.609-0.218,0.85,0l1.189,1.073c0.133,0.12,0.209,0.291,0.209,0.471
					v11.845C428.686,217.984,428.402,218.268,428.051,218.268z"/>
				<path style="fill:#DCDEE2;" d="M419.167,218.268h-2.378c-0.35,0-0.634-0.284-0.634-0.634v-11.845
					c0-0.179,0.076-0.35,0.209-0.471l1.189-1.073c0.241-0.218,0.608-0.218,0.85,0l1.189,1.073c0.133,0.12,0.209,0.291,0.209,0.471
					v11.845C419.801,217.984,419.517,218.268,419.167,218.268z"/>
			</g>
			<path style="fill:#DCDEE2;" d="M445.601,156.511h-2.378c-0.35,0-0.634-0.284-0.634-0.634v-15.492c0-0.179,0.076-0.35,0.21-0.471
				l1.189-1.073c0.241-0.218,0.608-0.218,0.85,0l1.189,1.073c0.133,0.12,0.209,0.291,0.209,0.471v15.492
				C446.235,156.227,445.951,156.511,445.601,156.511z"/>
			<path style="fill:#DCDEE2;" d="M437.155,156.511h-2.378c-0.35,0-0.634-0.284-0.634-0.634v-15.492c0-0.179,0.076-0.35,0.209-0.471
				l1.189-1.073c0.241-0.218,0.609-0.218,0.85,0l1.189,1.073c0.133,0.12,0.209,0.291,0.209,0.471v15.492
				C437.789,156.227,437.505,156.511,437.155,156.511z"/>
			<path style="fill:#DCDEE2;" d="M428.708,156.511h-2.378c-0.35,0-0.634-0.284-0.634-0.634v-15.492c0-0.179,0.076-0.35,0.209-0.471
				l1.189-1.073c0.241-0.218,0.609-0.218,0.85,0l1.189,1.073c0.133,0.12,0.209,0.291,0.209,0.471v15.492
				C429.343,156.227,429.059,156.511,428.708,156.511z"/>
			<polygon style="fill:#EDEEF1;" points="458.344,160.356 440.189,160.356 422.034,160.356 408.64,196.387 440.189,196.387 
				471.738,196.387 			"/>
			<g>
				<g>
					<rect x="448.884" y="171.299" style="fill:#EDEEF1;" width="5.322" height="7.449"/>
					<rect x="455.085" y="183.756" style="fill:#EDEEF1;" width="5.321" height="7.449"/>
					<rect x="443.33" y="183.756" style="fill:#EDEEF1;" width="5.321" height="7.449"/>
					<rect x="431.575" y="183.756" style="fill:#EDEEF1;" width="5.322" height="7.449"/>
					<rect x="419.819" y="183.756" style="fill:#EDEEF1;" width="5.322" height="7.449"/>
					<rect x="437.452" y="171.299" style="fill:#EDEEF1;" width="5.322" height="7.449"/>
					<rect x="426.02" y="171.299" style="fill:#EDEEF1;" width="5.322" height="7.449"/>
				</g>
				<g>
					<polygon style="fill:#DCDEE2;" points="451.621,166.357 447.476,173.62 455.765,173.62 					"/>
					<polygon style="fill:#DCDEE2;" points="457.822,178.816 453.676,186.077 461.966,186.077 					"/>
					<polygon style="fill:#DCDEE2;" points="441.921,186.077 450.21,186.077 446.067,178.816 					"/>
					<polygon style="fill:#DCDEE2;" points="430.168,186.077 438.455,186.077 434.312,178.816 					"/>
					<polygon style="fill:#DCDEE2;" points="418.413,186.077 426.7,186.077 422.556,178.816 					"/>
					<polygon style="fill:#DCDEE2;" points="440.189,166.357 436.044,173.62 444.333,173.62 					"/>
					<polygon style="fill:#DCDEE2;" points="428.757,166.357 424.611,173.62 432.901,173.62 					"/>
				</g>
			</g>
			<rect x="403.854" y="221.936" style="fill:#EDEEF1;" width="72.67" height="53.072"/>
			<rect x="405.399" y="196.286" style="fill:#DCDEE2;" width="69.581" height="3.368"/>
			<g>
				<rect x="414.892" y="226.088" style="opacity:0.9;fill:#FFFFFF;" width="50.595" height="48.92"/>
				<rect x="418.943" y="230.005" style="fill:#EDEEF1;" width="42.493" height="41.085"/>
				
					<ellipse transform="matrix(0.9821 -0.1884 0.1884 0.9821 -39.3216 87.4214)" style="fill:#EDEEF1;" cx="440.189" cy="250.548" rx="20.543" ry="20.543"/>
				<circle style="fill:#DCDEE2;" cx="440.189" cy="250.548" r="15.073"/>
				<path style="opacity:0.9;fill:#FFFFFF;" d="M450.102,250.548c0,5.475-4.438,9.913-9.913,9.913c-5.475,0-9.913-4.438-9.913-9.913
					c0-5.475,4.438-9.913,9.913-9.913C445.664,240.635,450.102,245.073,450.102,250.548z"/>
				<path style="fill:#DCDEE2;" d="M441.35,248.342v-5.276c0-0.641-0.519-1.16-1.161-1.16c-0.641,0-1.16,0.519-1.16,1.16v5.276
					c-0.8,0.424-1.365,1.24-1.365,2.207c0,0.251,0.075,0.478,0.143,0.707l-11.073,11.714c-0.441,0.466-0.419,1.2,0.046,1.64
					c0.223,0.212,0.51,0.317,0.797,0.317c0.308,0,0.615-0.122,0.843-0.364l11.006-11.643c0.245,0.079,0.492,0.154,0.762,0.154
					c1.393,0,2.525-1.132,2.525-2.525C442.714,249.581,442.15,248.766,441.35,248.342z"/>
			</g>
			<rect x="403.854" y="275.008" style="fill:#EDEEF1;" width="72.67" height="14.99"/>
			<rect x="403.854" y="289.997" style="fill:#EDEEF1;" width="72.67" height="151.384"/>
			<rect x="403.854" y="340.841" style="fill:#DCDEE2;" width="72.67" height="3.241"/>
			<rect x="403.854" y="350.97" style="fill:#DCDEE2;" width="72.67" height="3.241"/>
			<rect x="403.854" y="392.09" style="fill:#DCDEE2;" width="72.67" height="3.241"/>
			<rect x="403.854" y="402.219" style="fill:#DCDEE2;" width="72.67" height="3.241"/>
			<rect x="437.53" y="56.389" style="fill:#DCDEE2;" width="5.874" height="3.697"/>
			<rect x="439.718" y="33.752" style="fill:#EDEEF1;" width="1.5" height="22.636"/>
			<g>
				<rect x="459.499" y="297.2" style="fill:#DCDEE2;" width="8.295" height="38.09"/>
				<rect x="443.861" y="297.2" style="fill:#DCDEE2;" width="8.295" height="38.09"/>
				<rect x="428.222" y="297.2" style="fill:#DCDEE2;" width="8.295" height="38.09"/>
				<rect x="412.584" y="297.2" style="fill:#DCDEE2;" width="8.295" height="38.09"/>
			</g>
			<g>
				<rect x="459.499" y="359.797" style="fill:#DCDEE2;" width="8.295" height="27.483"/>
				<rect x="443.861" y="359.797" style="fill:#DCDEE2;" width="8.295" height="27.483"/>
				<rect x="428.222" y="359.797" style="fill:#DCDEE2;" width="8.295" height="27.483"/>
				<rect x="412.584" y="359.797" style="fill:#DCDEE2;" width="8.295" height="27.483"/>
			</g>
			<g>
				<rect x="459.499" y="413.898" style="fill:#DCDEE2;" width="8.295" height="27.483"/>
				<rect x="443.861" y="413.898" style="fill:#DCDEE2;" width="8.295" height="27.483"/>
				<rect x="428.222" y="413.898" style="fill:#DCDEE2;" width="8.295" height="27.483"/>
				<rect x="412.584" y="413.898" style="fill:#DCDEE2;" width="8.295" height="27.483"/>
			</g>
		</g>
	</g>
	<g>
		<g>
			<path style="fill:#FFFFFF;" d="M131.139,22.723c0,1.609,1.305,2.914,2.914,2.914s2.914-1.305,2.914-2.914
				c0-1.61-1.305-2.915-2.914-2.915S131.139,21.113,131.139,22.723z"/>
			<path style="fill:#FFFFFF;" d="M109.555,22.723c0,1.609,1.305,2.914,2.915,2.914c1.61,0,2.914-1.305,2.914-2.914
				c0-1.61-1.305-2.915-2.914-2.915C110.86,19.808,109.555,21.113,109.555,22.723z"/>
			<path style="fill:#FFFFFF;" d="M87.972,22.723c0,1.609,1.305,2.914,2.914,2.914c1.61,0,2.914-1.305,2.914-2.914
				c0-1.61-1.305-2.915-2.914-2.915C89.276,19.808,87.972,21.113,87.972,22.723z"/>
			<path style="fill:#FFFFFF;" d="M66.388,22.723c0,1.609,1.305,2.914,2.914,2.914c1.61,0,2.915-1.305,2.915-2.914
				c0-1.61-1.305-2.915-2.915-2.915C67.693,19.808,66.388,21.113,66.388,22.723z"/>
			<path style="fill:#FFFFFF;" d="M44.804,22.723c0,1.609,1.305,2.914,2.914,2.914c1.61,0,2.914-1.305,2.914-2.914
				c0-1.61-1.305-2.915-2.914-2.915C46.109,19.808,44.804,21.113,44.804,22.723z"/>
			<path style="fill:#FFFFFF;" d="M23.221,22.723c0,1.609,1.305,2.914,2.914,2.914c1.61,0,2.915-1.305,2.915-2.914
				c0-1.61-1.305-2.915-2.915-2.915C24.526,19.808,23.221,21.113,23.221,22.723z"/>
			<path style="fill:#FFFFFF;" d="M131.139,40.833c0,1.61,1.305,2.914,2.914,2.914s2.914-1.305,2.914-2.914
				c0-1.61-1.305-2.914-2.914-2.914S131.139,39.223,131.139,40.833z"/>
			<path style="fill:#FFFFFF;" d="M109.555,40.833c0,1.61,1.305,2.914,2.915,2.914c1.61,0,2.914-1.305,2.914-2.914
				c0-1.61-1.305-2.914-2.914-2.914C110.86,37.918,109.555,39.223,109.555,40.833z"/>
			<path style="fill:#FFFFFF;" d="M87.972,40.833c0,1.61,1.305,2.914,2.914,2.914c1.61,0,2.914-1.305,2.914-2.914
				c0-1.61-1.305-2.914-2.914-2.914C89.276,37.918,87.972,39.223,87.972,40.833z"/>
			<path style="fill:#FFFFFF;" d="M66.388,40.833c0,1.61,1.305,2.914,2.914,2.914c1.61,0,2.915-1.305,2.915-2.914
				c0-1.61-1.305-2.914-2.915-2.914C67.693,37.918,66.388,39.223,66.388,40.833z"/>
			<path style="fill:#FFFFFF;" d="M44.804,40.833c0,1.61,1.305,2.914,2.914,2.914c1.61,0,2.914-1.305,2.914-2.914
				c0-1.61-1.305-2.914-2.914-2.914C46.109,37.918,44.804,39.223,44.804,40.833z"/>
			<path style="fill:#FFFFFF;" d="M23.221,40.833c0,1.61,1.305,2.914,2.914,2.914c1.61,0,2.915-1.305,2.915-2.914
				c0-1.61-1.305-2.914-2.915-2.914C24.526,37.918,23.221,39.223,23.221,40.833z"/>
			<path style="fill:#FFFFFF;" d="M131.139,58.942c0,1.61,1.305,2.915,2.914,2.915s2.914-1.305,2.914-2.915
				c0-1.61-1.305-2.914-2.914-2.914S131.139,57.333,131.139,58.942z"/>
			<path style="fill:#FFFFFF;" d="M109.555,58.942c0,1.61,1.305,2.915,2.915,2.915c1.61,0,2.914-1.305,2.914-2.915
				c0-1.61-1.305-2.914-2.914-2.914C110.86,56.028,109.555,57.333,109.555,58.942z"/>
			<path style="fill:#FFFFFF;" d="M87.972,58.942c0,1.61,1.305,2.915,2.914,2.915c1.61,0,2.914-1.305,2.914-2.915
				c0-1.61-1.305-2.914-2.914-2.914C89.276,56.028,87.972,57.333,87.972,58.942z"/>
			<path style="fill:#FFFFFF;" d="M66.388,58.942c0,1.61,1.305,2.915,2.914,2.915c1.61,0,2.915-1.305,2.915-2.915
				c0-1.61-1.305-2.914-2.915-2.914C67.693,56.028,66.388,57.333,66.388,58.942z"/>
			<path style="fill:#FFFFFF;" d="M44.804,58.942c0,1.61,1.305,2.915,2.914,2.915c1.61,0,2.914-1.305,2.914-2.915
				c0-1.61-1.305-2.914-2.914-2.914C46.109,56.028,44.804,57.333,44.804,58.942z"/>
			<path style="fill:#FFFFFF;" d="M23.221,58.942c0,1.61,1.305,2.915,2.914,2.915c1.61,0,2.915-1.305,2.915-2.915
				c0-1.61-1.305-2.914-2.915-2.914C24.526,56.028,23.221,57.333,23.221,58.942z"/>
		</g>
	</g>
	<line style="fill:none;stroke:#39393B;stroke-miterlimit:10;" x1="750" y1="442.213" x2="0" y2="442.213"/>
	<g>
		<g style="opacity:0.15;">
			<g>
				<ellipse style="fill:#39393B;" cx="601.828" cy="469.545" rx="133.347" ry="8.115"/>
			</g>
		</g>
		<g>
			<g>
				<g>
					<path style="fill:#BA7056;" d="M610.147,243.679l-13.47,49.251l4.801-5.535c-1.78,0.945-3.837,1.672-6.116,2.183
						c-2.277,0.512-4.761,0.808-7.357,0.943c-2.597,0.135-5.305,0.112-8.072-0.003c-2.768-0.116-5.598-0.323-8.469-0.568
						l-0.015-0.001c-4.236-0.361-7.963,2.78-8.324,7.016c-0.344,4.038,2.522,7.618,6.458,8.256c2.961,0.472,5.974,0.919,9.063,1.276
						c3.09,0.356,6.257,0.625,9.537,0.699c3.278,0.071,6.676-0.051,10.188-0.561c3.505-0.509,7.142-1.423,10.696-2.956
						c2.275-0.981,3.895-2.848,4.631-5.024l0.171-0.511l16.159-48.435c1.816-5.444-1.125-11.33-6.569-13.147
						c-5.444-1.816-11.33,1.125-13.147,6.569C610.256,243.302,610.195,243.507,610.147,243.679z"/>
				</g>
			</g>
			<g>
				<g>
					<g>
						<g>
							<g>
								<g>
									<g>
										<path style="fill:#39393B;" d="M604.96,422.225c0.201,0,0.404-0.034,0.604-0.106l70.563-25.44
											c0.925-0.333,1.404-1.353,1.071-2.278c-0.333-0.925-1.353-1.405-2.278-1.071l-70.563,25.44
											c-0.925,0.333-1.404,1.353-1.071,2.278C603.547,421.774,604.231,422.225,604.96,422.225z"/>
									</g>
								</g>
							</g>
						</g>
					</g>
					<g>
						<g>
							<path style="fill:#39393B;" d="M678.454,422.225c0.728,0,1.411-0.45,1.674-1.174c0.335-0.924-0.143-1.945-1.068-2.279
								l-71.4-25.859c-0.924-0.334-1.945,0.143-2.279,1.067c-0.335,0.924,0.143,1.945,1.067,2.279l71.4,25.859
								C678.048,422.191,678.253,422.225,678.454,422.225z"/>
						</g>
					</g>
					<g>
						<g>
							<g>
								<g>
									<g>
										<g>
											<g>
												<path style="fill:#39393B;" d="M598.685,467.691c1.503,0,2.81-1.112,3.015-2.642l12.745-95.163h53.333l12.546,95.157
													c0.22,1.668,1.75,2.841,3.418,2.622c1.668-0.22,2.842-1.75,2.622-3.418l-12.895-97.805
													c-0.2-1.515-1.492-2.648-3.02-2.648H611.78c-1.526,0-2.816,1.129-3.019,2.642l-13.099,97.805
													c-0.224,1.667,0.947,3.2,2.615,3.423C598.414,467.682,598.55,467.691,598.685,467.691z"/>
											</g>
										</g>
									</g>
								</g>
							</g>
						</g>
					</g>
					<g>
						<g>
							<path style="fill:#39393B;" d="M628.772,366.84h38.104c12.072,0,24.999-6.607,26.852-18.535
								c2.478-15.951,3.091-31.398,2.399-45.574c-0.782-16.032-8.438-30.947-21.041-40.887l0,0c0,0-7.611,33.17,1.959,78.951
								C673.391,358.191,628.772,366.84,628.772,366.84z"/>
						</g>
					</g>
				</g>
				<g>
					<g>
						<g>
							<g>
								<g>
									<g>
										<g>
											<g>
												<g>
													<g>
														<path style="fill:#DF615C;" d="M540.619,426.913h17.019c0,0,3.938-18.891,5.26-29.484
															c1.323-10.593,2.008-35.706,2.008-35.706s13.564,4.405,41.955,2.745c62.908-3.675,39.055-49.892,39.055-49.892
															c-2.125,2.936-15.144,0.9-24.043,2.302c-27.312,2.621-50.998,13.341-65.214,19.474
															c-3.424,1.476-6.466,3.038-9.131,4.682c-3.428,2.113-5.572,8.522-6.864,16.952
															C536.779,383.323,540.619,426.913,540.619,426.913z"/>
													</g>
												</g>
											</g>
										</g>
									</g>
								</g>
							</g>
							<g>
								<g>
									<g>
										<g>
											<g>
												<g>
													<g>
														<g>
															<g>
																<path style="fill:#EDEEF1;" d="M540.293,418.131c0.004,0,0.009,0,0.013,0l18.926-0.406
																	c0.336-0.007,0.603-0.285,0.596-0.622c-0.007-0.337-0.282-0.611-0.622-0.596l-18.926,0.406
																	c-0.336,0.007-0.603,0.286-0.596,0.622C539.691,417.866,539.963,418.131,540.293,418.131z"/>
															</g>
														</g>
													</g>
												</g>
											</g>
										</g>
									</g>
								</g>
							</g>
						</g>
						<g>
							<g>
								<g>
									<g>
										<g>
											<g>
												<g>
													<g>
														<g>
															<g>
																<polygon style="fill:#BA7056;" points="541.088,448.718 553.1,448.718 555.414,434.625 556.681,426.913 
																	541.756,426.913 541.519,434.625 																"/>
															</g>
														</g>
													</g>
												</g>
											</g>
										</g>
									</g>
								</g>
							</g>
							<g>
								<g>
									<g>
										<g>
											<g>
												<g>
													<polygon style="fill:#EBB12B;" points="541.088,448.718 553.1,448.718 554.823,438.226 555.414,434.625 
														541.519,434.625 541.404,438.358 													"/>
												</g>
											</g>
										</g>
									</g>
								</g>
								<g>
									<g>
										<g>
											<g>
												<g>
													<polygon style="fill:#BA7056;" points="541.404,438.358 554.823,438.226 555.414,434.625 541.519,434.625 
																											"/>
												</g>
											</g>
										</g>
									</g>
								</g>
							</g>
							<g>
								<g>
									<g>
										<g>
											<g>
												<g>
													<g>
														<g>
															<path style="fill:#084FC7;" d="M511.443,467.691h45.437c0.337-0.613,0.521-1.484,0.597-2.523
																c0.285-3.844-0.94-9.977-1.541-13.845c-0.073-0.452-0.136-0.873-0.184-1.254c-0.084-0.647-0.136-1.185-0.136-1.581
																c0-3.156-2.793-2.615-2.793-2.615c-4.598,4.51-9.803-2.251-12.844-0.034c0,0-0.124,0.09-0.402,0.308
																c-0.255,0.201-0.643,0.513-1.181,0.965c-0.775,0.647-1.862,1.587-3.333,2.91c-3.605,3.246-9.741,5.388-14.965,7.571
																c-0.666,0.278-1.283,0.557-1.857,0.833c-0.435,0.21-0.846,0.421-1.233,0.63c-4.269,2.305-5.628,4.508-5.936,6.11
																C510.775,466.704,511.443,467.691,511.443,467.691z"/>
														</g>
													</g>
												</g>
											</g>
										</g>
									</g>
								</g>
								<g>
									<g>
										<g>
											<g>
												<g>
													<g>
														<g>
															<path style="fill:#EDEEF1;" d="M517.006,459.058c1.171,0.932,3.773,2.795,5.861,2.795
																c0.092,0,0.184-0.002,0.274-0.01c1.474-0.124,6.889-2.785,11.294-5.205c2.525-1.388,4.831-2.753,6.489-3.849
																c2.72-1.792,3.191-2.477,3.298-2.952c0.398-1.792-2.567-3.042-4.646-3.689c-0.255,0.201-0.643,0.513-1.181,0.965
																c2.582,0.704,4.703,1.807,4.604,2.435c-0.253,0.532-2.942,2.582-9.372,6.101c-4.906,2.684-9.558,4.856-10.591,4.942
																c-1.399,0.113-3.455-1.16-4.797-2.163C517.804,458.637,517.394,458.848,517.006,459.058z"/>
														</g>
													</g>
												</g>
											</g>
										</g>
									</g>
								</g>
								<g>
									<g>
										<g>
											<g>
												<g>
													<g>
														<g>
															<g>
																<g>
																	<g>
																		<path style="fill:#EDEEF1;" d="M511.443,467.691h45.435c0.338-0.614,0.522-1.485,0.598-2.523H511.07
																			C510.775,466.703,511.443,467.691,511.443,467.691z"/>
																	</g>
																</g>
															</g>
														</g>
													</g>
												</g>
											</g>
										</g>
									</g>
								</g>
								<g>
									<g>
										<g>
											<g>
												<g>
													<g>
														<g>
															<g>
																<g>
																	<g>
																		<g>
																			<path style="fill:#EDEEF1;" d="M552.243,467.691h1.35c-1.347-1.539-2.607-3.9-2.442-7.275
																				c0.219-4.49,2.913-7.516,4.784-9.092c-0.073-0.452-0.135-0.874-0.184-1.255
																				c-2.017,1.542-5.417,4.917-5.682,10.293C549.912,463.585,550.969,465.989,552.243,467.691z"/>
																		</g>
																	</g>
																</g>
															</g>
														</g>
													</g>
												</g>
											</g>
										</g>
									</g>
								</g>
								<g>
									<g>
										<g>
											<g>
												<g>
													<g>
														<g>
															<g>
																<g>
																	<g>
																		<path style="fill:#FFFFFF;" d="M535.832,452.703c0.336,0,0.642-0.228,0.726-0.569
																			c0.1-0.401-0.145-0.807-0.546-0.907l-2.838-0.704c-0.401-0.101-0.807,0.145-0.907,0.546
																			c-0.099,0.401,0.145,0.808,0.546,0.907l2.838,0.705C535.712,452.695,535.772,452.703,535.832,452.703z"/>
																	</g>
																</g>
															</g>
														</g>
													</g>
												</g>
											</g>
										</g>
									</g>
								</g>
								<g>
									<g>
										<g>
											<g>
												<g>
													<g>
														<g>
															<g>
																<g>
																	<g>
																		<path style="fill:#FFFFFF;" d="M538.652,450.34c0.336,0,0.642-0.228,0.726-0.568
																			c0.1-0.401-0.145-0.808-0.546-0.907l-2.838-0.705c-0.401-0.1-0.807,0.145-0.907,0.546
																			c-0.1,0.401,0.145,0.807,0.546,0.907l2.838,0.705C538.532,450.332,538.593,450.34,538.652,450.34z"/>
																	</g>
																</g>
															</g>
														</g>
													</g>
												</g>
											</g>
										</g>
									</g>
								</g>
								<g>
									<g>
										<g>
											<g>
												<g>
													<g>
														<g>
															<g>
																<g>
																	<g>
																		<path style="fill:#FFFFFF;" d="M532.994,454.353c0.336,0,0.641-0.228,0.726-0.569
																			c0.1-0.401-0.145-0.807-0.546-0.907l-2.838-0.705c-0.401-0.1-0.807,0.145-0.907,0.546
																			c-0.1,0.401,0.145,0.807,0.546,0.907l2.838,0.705C532.873,454.345,532.934,454.353,532.994,454.353z"/>
																	</g>
																</g>
															</g>
														</g>
													</g>
												</g>
											</g>
										</g>
									</g>
								</g>
								<g>
									<g>
										<g>
											<g>
												<g>
													<g>
														<g>
															<path style="fill:#FFFFFF;" d="M530.156,455.939c0.336,0,0.642-0.228,0.726-0.569c0.1-0.401-0.145-0.807-0.546-0.907
																l-2.838-0.705c-0.401-0.1-0.807,0.145-0.907,0.546c-0.1,0.401,0.145,0.807,0.546,0.907l2.838,0.705
																C530.035,455.931,530.096,455.939,530.156,455.939z"/>
														</g>
													</g>
												</g>
											</g>
										</g>
									</g>
								</g>
								<g>
									<g>
										<g>
											<g>
												<g>
													<g>
														<g>
															<g>
																<g>
																	<g>
																		<path style="fill:#FFFFFF;" d="M527.061,457.405c0.336,0,0.642-0.228,0.726-0.568
																			c0.1-0.401-0.145-0.807-0.546-0.907l-2.838-0.705c-0.401-0.1-0.808,0.145-0.907,0.546
																			c-0.1,0.401,0.145,0.807,0.547,0.907l2.838,0.705C526.941,457.398,527.001,457.405,527.061,457.405z"/>
																	</g>
																</g>
															</g>
														</g>
													</g>
												</g>
											</g>
										</g>
									</g>
								</g>
								<g>
									<g>
										<g>
											<g>
												<g>
													<g>
														<g>
															<g>
																<g>
																	<g>
																		<path style="fill:#FFFFFF;" d="M523.705,458.656c0.336,0,0.641-0.228,0.726-0.569
																			c0.1-0.401-0.145-0.808-0.546-0.907l-2.838-0.704c-0.401-0.1-0.808,0.145-0.907,0.546
																			c-0.1,0.401,0.145,0.807,0.546,0.907l2.838,0.705C523.584,458.649,523.645,458.656,523.705,458.656z"/>
																	</g>
																</g>
															</g>
														</g>
													</g>
												</g>
											</g>
										</g>
									</g>
								</g>
							</g>
						</g>
					</g>
					<g>
						<g>
							<g>
								<path style="fill:#084FC7;" d="M677.418,299.925c0,0,0.538,3.669-4.379,4.701l-51.258,1.709c0,0-3.464-1.741-2.839-6.034
									C618.941,300.302,640.584,288.147,677.418,299.925z"/>
							</g>
						</g>
						<g>
							<g>
								<g>
									<g>
										<path style="fill:#BA7056;" d="M621.078,316.878c26.607,14.635,55.659,2.85,55.659,2.85
											c-1.421-3.878-2.474-8.251-3.238-12.228c-0.887-4.627-1.384-8.715-1.611-10.864c-11.319-0.621-39.061-1.801-49.931,0.777
											l-0.086,4.356L621.078,316.878z"/>
									</g>
								</g>
							</g>
							<g>
								<g>
									<g>
										<path style="fill:#A35740;" d="M640.731,309.858c0.197,1.372,0.816,2.418,1.384,2.336
											c0.568-0.081,0.868-1.259,0.671-2.631c-0.197-1.372-0.817-2.418-1.384-2.336
											C640.835,307.309,640.535,308.487,640.731,309.858z"/>
									</g>
								</g>
							</g>
							<g>
								<g>
									<g>
										<path style="fill:#A35740;" d="M621.871,301.77c11.33-0.689,33.624-0.927,51.628,5.73
											c-0.887-4.627-1.384-8.715-1.611-10.864c-11.319-0.621-39.061-1.801-49.931,0.777L621.871,301.77z"/>
									</g>
								</g>
							</g>
						</g>
						<g>
							<g>
								<g>
									<g>
										<g>
											<path style="fill:#084FC7;" d="M609.23,280.719c0.106,0.328,0.235,0.635,0.382,0.925c0.054,0.109,0.111,0.217,0.17,0.323
												c1.424,2.643,3.631,4.933,5.478,6.563c0.384,0.337,0.753,0.647,1.094,0.925c0.683,0.554,1.262,0.983,1.66,1.268
												c0.366,0.262,0.581,0.398,0.581,0.398c0.002,0.025,0.004,0.05,0.007,0.079c0.02,0.197,0.036,0.405,0.054,0.624
												c0.063,0.837,0.12,1.836,0.16,2.973c0.036,0.916,0.061,1.92,0.086,2.998c0.014,0.8,0.029,1.637,0.038,2.507
												c15.037-6.717,46.003-2.478,58.476-0.378c-0.228-1.078-0.436-2.132-0.629-3.163c-0.882-4.757-1.377-9.041-1.574-12.876
												c-0.296-5.711,0.204-14.293,1.415-23.158c0.077-0.577,0.158-1.148,0.242-1.725c0.054-0.375,0.111-0.748,0.172-1.124
												c0.425-2.783,0.92-5.571,1.485-8.275c2.46-11.799,0.732-24.184-11.23-25.649c-0.868-0.106-1.725-0.204-2.555-0.292
												c-5.639-0.601-10.278-0.807-11.566-0.857c-0.235-0.009-0.423,0.272-0.423,0.272l-23.06,6.432l-2.2,0.637
												c-1.264,0.407-2.433,0.8-3.513,1.185c-0.461,0.167-0.909,0.33-1.339,0.491c-1.121,0.421-2.139,0.832-3.061,1.239
												c-1.852,0.818-3.319,1.617-4.479,2.442c-5.073,3.602-4.286,7.671-4.158,15.708c0,0.036,0.002,0.072,0.002,0.108
												c0.002,0.102,0.002,0.204,0.005,0.31c0.002,0.045,0,0.093,0,0.138c0.004,0.328,0.004,0.656,0.002,0.984
												c-0.007,1.038-0.043,2.071-0.106,3.104c-0.086,1.517-0.222,3.025-0.387,4.504c-0.066,0.592-0.133,1.182-0.206,1.766
												c-0.068,0.549-0.138,1.097-0.21,1.637C609.12,270.798,607.973,276.964,609.23,280.719z"/>
										</g>
									</g>
								</g>
							</g>
							<g>
								<g>
									<g>
										<g>
											<path style="fill:#BA7056;" d="M615.103,235.505c0.476,5.306-0.828,14.061-4.253,20.352
												c0.081-1.358,0.118-2.721,0.104-4.088c-0.001-0.045,0.001-0.093,0-0.139c-0.003-0.14-0.005-0.278-0.008-0.416
												C610.817,243.177,610.031,239.105,615.103,235.505z"/>
										</g>
									</g>
								</g>
							</g>
							<g>
								<g>
									<g>
										<g>
											<path style="fill:#BA7056;" d="M657.642,244.84c2.653,10.237,12.353,18.451,18.987,15.889
												c0.078-0.575,0.16-1.148,0.244-1.724c0.054-0.375,0.111-0.748,0.17-1.125c0.425-2.783,0.922-5.57,1.487-8.274
												c2.459-11.798,0.732-24.183-11.23-25.648c-0.869-0.106-1.725-0.204-2.556-0.293
												C658.755,226.217,654.587,233.052,657.642,244.84z"/>
										</g>
									</g>
								</g>
							</g>
							<g>
								<g>
									<path style="fill:#BA7056;" d="M656.275,237.033l-15.545,56.84l5.541-6.387c-2.054,1.09-4.428,1.929-7.058,2.519
										c-2.628,0.591-5.495,0.933-8.491,1.088c-2.997,0.156-6.123,0.129-9.316-0.004c-3.195-0.133-6.46-0.373-9.774-0.655
										l-0.018-0.002c-4.889-0.417-9.19,3.208-9.607,8.097c-0.397,4.661,2.911,8.792,7.453,9.528
										c3.418,0.545,6.894,1.061,10.46,1.473c3.566,0.411,7.222,0.721,11.007,0.807c3.784,0.082,7.705-0.059,11.758-0.647
										c4.045-0.588,8.243-1.642,12.344-3.411c2.625-1.133,4.495-3.287,5.344-5.798l0.197-0.59l18.649-55.898
										c2.096-6.283-1.298-13.076-7.581-15.173c-6.283-2.096-13.076,1.298-15.172,7.581
										C656.401,236.599,656.33,236.835,656.275,237.033z"/>
								</g>
							</g>
							<g>
								<g>
									<path style="fill:#A35740;" d="M649.319,292.054c0.16,0,0.315-0.083,0.4-0.232c0.126-0.221,0.049-0.502-0.172-0.628
										c-0.143-0.082-3.545-2.002-7.099-2.277c-0.256-0.02-0.475,0.17-0.494,0.424c-0.02,0.254,0.17,0.475,0.423,0.494
										c3.345,0.258,6.681,2.14,6.714,2.159C649.163,292.034,649.241,292.054,649.319,292.054z"/>
								</g>
								<g>
									<path style="fill:#A35740;" d="M643.671,290.002c0.081,0,0.164-0.022,0.238-0.067c2.144-1.301,4.739-1.498,4.765-1.5
										c0.254-0.018,0.445-0.238,0.427-0.492c-0.018-0.254-0.232-0.442-0.492-0.427c-0.115,0.008-2.845,0.216-5.177,1.631
										c-0.217,0.132-0.287,0.415-0.155,0.632C643.363,289.923,643.515,290.002,643.671,290.002z"/>
								</g>
							</g>
						</g>
					</g>
					<g>
						<g>
							<g>
								<g>
									<g>
										<g>
											<g>
												<g>
													<path style="fill:#DF615C;" d="M570.248,426.971h17.019c0,0,3.939-18.891,5.26-29.483
														c1.323-10.593,2.008-35.707,2.008-35.707s13.564,4.406,41.955,2.745c62.908-3.675,39.055-49.892,39.055-49.892
														c-2.125,2.935-18.068,6.981-26.967,8.384c-27.312,2.621-48.075,7.259-62.29,13.392
														c-3.423,1.476-6.466,3.038-9.131,4.682c-3.428,2.113-5.572,8.522-6.864,16.952
														C566.408,383.382,570.248,426.971,570.248,426.971z"/>
												</g>
											</g>
										</g>
									</g>
								</g>
							</g>
						</g>
						<g>
							<g>
								<g>
									<g>
										<g>
											<g>
												<g>
													<g>
														<g>
															<path style="fill:#EDEEF1;" d="M569.923,418.189c0.004,0,0.009,0,0.013,0l18.926-0.406
																c0.336-0.007,0.603-0.286,0.596-0.622c-0.007-0.336-0.282-0.611-0.622-0.596l-18.926,0.406
																c-0.336,0.007-0.603,0.286-0.596,0.622C569.321,417.925,569.592,418.189,569.923,418.189z"/>
														</g>
													</g>
												</g>
											</g>
										</g>
									</g>
								</g>
							</g>
						</g>
					</g>
					<g>
						<g>
							<g>
								<g>
									<g>
										<g>
											<g>
												<g>
													<g>
														<g>
															<polygon style="fill:#BA7056;" points="570.717,448.777 582.73,448.777 585.043,434.683 586.31,426.971 
																571.385,426.971 571.148,434.683 															"/>
														</g>
													</g>
												</g>
											</g>
										</g>
									</g>
								</g>
							</g>
						</g>
						<g>
							<g>
								<g>
									<g>
										<g>
											<g>
												<polygon style="fill:#EBB12B;" points="570.717,448.777 582.73,448.777 584.453,438.285 585.043,434.683 
													571.148,434.683 571.034,438.417 												"/>
											</g>
										</g>
									</g>
								</g>
							</g>
							<g>
								<g>
									<g>
										<g>
											<g>
												<polygon style="fill:#BA7056;" points="571.034,438.417 584.453,438.285 585.043,434.683 571.148,434.683 												
													"/>
											</g>
										</g>
									</g>
								</g>
							</g>
						</g>
						<g>
							<g>
								<g>
									<g>
										<g>
											<g>
												<g>
													<g>
														<path style="fill:#084FC7;" d="M541.073,467.749h45.436c0.337-0.614,0.521-1.485,0.597-2.523
															c0.285-3.844-0.94-9.977-1.541-13.845c-0.073-0.452-0.136-0.873-0.184-1.254c-0.084-0.647-0.136-1.185-0.136-1.581
															c0-3.155-2.793-2.615-2.793-2.615c-4.598,4.51-9.803-2.251-12.844-0.033c0,0-0.124,0.09-0.402,0.308
															c-0.255,0.201-0.643,0.513-1.181,0.965c-0.775,0.647-1.862,1.587-3.333,2.91c-3.606,3.246-9.741,5.387-14.965,7.571
															c-0.666,0.279-1.284,0.557-1.857,0.833c-0.436,0.209-0.846,0.421-1.233,0.63c-4.269,2.305-5.628,4.508-5.936,6.11
															C540.405,466.763,541.073,467.749,541.073,467.749z"/>
													</g>
												</g>
											</g>
										</g>
									</g>
								</g>
							</g>
							<g>
								<g>
									<g>
										<g>
											<g>
												<g>
													<g>
														<path style="fill:#EDEEF1;" d="M546.636,459.116c1.171,0.932,3.773,2.795,5.861,2.795c0.092,0,0.184-0.002,0.274-0.01
															c1.474-0.124,6.889-2.785,11.294-5.205c2.525-1.388,4.83-2.753,6.489-3.849c2.72-1.792,3.191-2.477,3.298-2.952
															c0.398-1.792-2.567-3.042-4.646-3.689c-0.255,0.201-0.643,0.513-1.181,0.965c2.582,0.703,4.703,1.807,4.604,2.435
															c-0.253,0.532-2.942,2.582-9.372,6.101c-4.906,2.684-9.559,4.856-10.591,4.941c-1.399,0.113-3.455-1.16-4.797-2.163
															C547.434,458.695,547.023,458.907,546.636,459.116z"/>
													</g>
												</g>
											</g>
										</g>
									</g>
								</g>
							</g>
							<g>
								<g>
									<g>
										<g>
											<g>
												<g>
													<g>
														<g>
															<g>
																<g>
																	<path style="fill:#EDEEF1;" d="M541.073,467.749h45.435c0.338-0.614,0.522-1.485,0.598-2.523H540.7
																		C540.405,466.762,541.073,467.749,541.073,467.749z"/>
																</g>
															</g>
														</g>
													</g>
												</g>
											</g>
										</g>
									</g>
								</g>
							</g>
							<g>
								<g>
									<g>
										<g>
											<g>
												<g>
													<g>
														<g>
															<g>
																<g>
																	<g>
																		<path style="fill:#EDEEF1;" d="M581.873,467.749h1.35c-1.347-1.539-2.607-3.9-2.442-7.275
																			c0.219-4.489,2.913-7.516,4.784-9.092c-0.073-0.452-0.135-0.874-0.184-1.255
																			c-2.017,1.542-5.417,4.917-5.682,10.293C579.541,463.644,580.599,466.048,581.873,467.749z"/>
																	</g>
																</g>
															</g>
														</g>
													</g>
												</g>
											</g>
										</g>
									</g>
								</g>
							</g>
							<g>
								<g>
									<g>
										<g>
											<g>
												<g>
													<g>
														<g>
															<g>
																<g>
																	<path style="fill:#FFFFFF;" d="M565.462,452.761c0.336,0,0.642-0.228,0.726-0.569
																		c0.1-0.401-0.145-0.807-0.546-0.907l-2.838-0.704c-0.401-0.101-0.807,0.145-0.907,0.546
																		c-0.1,0.401,0.145,0.808,0.546,0.907l2.838,0.705C565.341,452.754,565.402,452.761,565.462,452.761z"/>
																</g>
															</g>
														</g>
													</g>
												</g>
											</g>
										</g>
									</g>
								</g>
							</g>
							<g>
								<g>
									<g>
										<g>
											<g>
												<g>
													<g>
														<g>
															<g>
																<g>
																	<path style="fill:#FFFFFF;" d="M568.282,450.398c0.336,0,0.641-0.228,0.726-0.569
																		c0.1-0.401-0.145-0.807-0.546-0.907l-2.838-0.705c-0.401-0.1-0.807,0.145-0.907,0.546
																		c-0.1,0.401,0.145,0.807,0.546,0.907l2.838,0.705C568.161,450.391,568.222,450.398,568.282,450.398z"/>
																</g>
															</g>
														</g>
													</g>
												</g>
											</g>
										</g>
									</g>
								</g>
							</g>
							<g>
								<g>
									<g>
										<g>
											<g>
												<g>
													<g>
														<g>
															<g>
																<g>
																	<path style="fill:#FFFFFF;" d="M562.623,454.411c0.336,0,0.641-0.228,0.726-0.569
																		c0.1-0.401-0.145-0.807-0.546-0.907l-2.839-0.705c-0.401-0.1-0.807,0.145-0.907,0.546
																		c-0.1,0.401,0.145,0.808,0.546,0.907l2.838,0.704C562.503,454.404,562.564,454.411,562.623,454.411z"/>
																</g>
															</g>
														</g>
													</g>
												</g>
											</g>
										</g>
									</g>
								</g>
							</g>
							<g>
								<g>
									<g>
										<g>
											<g>
												<g>
													<g>
														<path style="fill:#FFFFFF;" d="M559.785,455.997c0.336,0,0.642-0.228,0.726-0.569c0.1-0.401-0.145-0.808-0.546-0.907
															l-2.838-0.705c-0.401-0.1-0.807,0.145-0.907,0.546c-0.1,0.401,0.145,0.807,0.546,0.907l2.838,0.704
															C559.665,455.99,559.725,455.997,559.785,455.997z"/>
													</g>
												</g>
											</g>
										</g>
									</g>
								</g>
							</g>
							<g>
								<g>
									<g>
										<g>
											<g>
												<g>
													<g>
														<g>
															<g>
																<g>
																	<path style="fill:#FFFFFF;" d="M556.69,457.464c0.336,0,0.642-0.228,0.726-0.568
																		c0.1-0.401-0.145-0.808-0.546-0.907l-2.838-0.705c-0.401-0.1-0.807,0.145-0.907,0.546
																		c-0.1,0.401,0.145,0.807,0.546,0.907l2.838,0.705C556.57,457.456,556.631,457.464,556.69,457.464z"/>
																</g>
															</g>
														</g>
													</g>
												</g>
											</g>
										</g>
									</g>
								</g>
							</g>
							<g>
								<g>
									<g>
										<g>
											<g>
												<g>
													<g>
														<g>
															<g>
																<g>
																	<path style="fill:#FFFFFF;" d="M553.334,458.715c0.336,0,0.641-0.228,0.726-0.569
																		c0.1-0.401-0.145-0.807-0.546-0.907l-2.838-0.705c-0.401-0.1-0.808,0.145-0.907,0.546
																		c-0.1,0.401,0.145,0.807,0.546,0.907l2.838,0.705C553.214,458.707,553.275,458.715,553.334,458.715z"/>
																</g>
															</g>
														</g>
													</g>
												</g>
											</g>
										</g>
									</g>
								</g>
							</g>
						</g>
					</g>
					<g>
						<g>
							<path style="fill:#39393B;" d="M640.675,170.474c2.979,7.936,11.828,11.955,19.764,8.976
								c7.936-2.979,11.955-11.827,8.976-19.764c-2.979-7.936-11.828-11.955-19.764-8.976
								C641.715,153.689,637.696,162.537,640.675,170.474z"/>
							<path style="fill:#EBB12B;" d="M637.477,171.652c0,0,3.467-7.079,9.585-3.639c5.137,2.888,3.931,8.212,0.125,10.12
								C643.381,180.041,637.477,171.652,637.477,171.652z"/>
						</g>
						<path style="fill:#39393B;" d="M651.684,187.11c-0.61,11.682-10.574,20.657-22.256,20.047
							c-11.682-0.61-20.657-10.574-20.047-22.256c0.61-11.682,10.574-20.658,22.256-20.047
							C643.319,165.463,652.294,175.428,651.684,187.11z"/>
						<path style="fill:#A35740;" d="M622.243,198.508c0.732,3.6-1.593,7.112-5.193,7.844c-3.6,0.732-7.112-1.593-7.844-5.193
							c-0.732-3.6,1.593-7.112,5.193-7.844C617.999,192.583,621.511,194.908,622.243,198.508z"/>
						<path style="fill:#BA7056;" d="M630.253,212.996l2.721,12.364c0.859,4.404,3.487,3.323,7.815,2.443l0,0
							c3.694-0.751,8.428-0.58,8.14-4.339l-5.104-19.451L630.253,212.996z"/>
						<polygon style="fill:#A35740;" points="632.059,221.202 643.535,206.991 629.974,211.716 						"/>
						<path style="fill:#BA7056;" d="M631.148,215.43L631.148,215.43c-8.429,1.137-16.461-5.248-17.621-12.1l-2.426-14.876
							c-1.454-8.588,4.166-16.782,12.702-18.517l0,0c8.738-1.777,18.794,3.555,20.571,12.293l1.981,13.039
							C647.888,205.354,641.144,213.398,631.148,215.43z"/>
						<g>
							
								<path style="fill:none;stroke:#39393B;stroke-width:0.5;stroke-linecap:round;stroke-linejoin:round;stroke-miterlimit:10;" d="
								M622.378,203.111l0.022,2.055c0.005,0.487,0.426,0.865,0.91,0.819l1.127-0.107"/>
							<path style="fill:#39393B;" d="M628.231,191.097c0,0-3.463,0.544-3.162,1.934c0,0,0.23,0.935,3.237,0.403
								c3.007-0.532,4.63-1.051,4.687-1.996C633.05,190.494,629.825,190.719,628.231,191.097z"/>
							<path style="fill:#39393B;" d="M615.237,193.596c0,0,2.764-0.875,3.265,0.386c0,0,0.317,0.858-2.114,1.568
								c-2.431,0.71-3.301,0.562-3.682-0.104C612.274,194.69,613.899,193.893,615.237,193.596z"/>
							<path style="fill:#39393B;" d="M618.481,200.237c0.132,0.799-0.409,1.554-1.208,1.686c-0.799,0.132-1.554-0.409-1.686-1.208
								c-0.132-0.799,0.409-1.554,1.208-1.686C617.594,198.898,618.349,199.438,618.481,200.237z"/>
							<path style="fill:#39393B;" d="M631.173,198.127c0.132,0.799-0.409,1.554-1.208,1.686c-0.799,0.132-1.554-0.409-1.686-1.208
								c-0.132-0.799,0.409-1.554,1.208-1.686C630.286,196.788,631.041,197.328,631.173,198.127z"/>
							
								<path style="fill:none;stroke:#39393B;stroke-width:0.5;stroke-linecap:round;stroke-linejoin:round;stroke-miterlimit:10;" d="
								M624.529,209.081c0,0,1.793,1.276,4.013-0.888"/>
						</g>
						<path style="fill:#39393B;" d="M619.446,169.262c0,0,5.336,2.395,8.218,7.037c3.557,5.729,5.829,13.928,19.173,13.847
							c0,0,4.953-12.358-3.335-17.794c-8.289-5.436-13.879-5.22-13.879-5.22L619.446,169.262z"/>
						<path style="fill:#39393B;" d="M611.101,188.454c0,0,21.653-1.523,19.333-15.827c0,0-7.486-6.176-13.357-2.746
							C611.205,173.311,608.529,184.589,611.101,188.454z"/>
						<path style="fill:#39393B;" d="M636.36,185.432c0.065,0.346,6.118,11.143,6.118,11.143l0.889-11.132L636.36,185.432z"/>
						<g>
							<path style="fill:#BA7056;" d="M653.894,192.709c0.737,3.625-1.604,7.162-5.229,7.899c-3.625,0.737-7.162-1.604-7.899-5.229
								c-0.737-3.625,1.604-7.162,5.229-7.899C649.62,186.742,653.157,189.083,653.894,192.709z"/>
							
								<path style="fill:none;stroke:#39393B;stroke-width:0.5;stroke-linecap:round;stroke-linejoin:round;stroke-miterlimit:10;" d="
								M645.432,196.462c0,0-0.968-4.759,3.735-4.935"/>
						</g>
						<path style="fill:#BA7056;" d="M646.194,222.558l6.984,0.25c0,0-1.089,11.428-14.418,13.663
							c-10.144,1.7-11.265-6.322-11.265-6.322l8.927-4.021L646.194,222.558z"/>
						<g>
							<g>
								<g>
									<g>
										<g>
											<g>
												<path style="fill:#A35740;" d="M633.949,202.133c0.166,0.533-0.798,1.308-2.154,1.729
													c-1.355,0.421-2.588,0.331-2.754-0.202c-0.166-0.533,0.798-1.308,2.154-1.729
													C632.55,201.509,633.783,201.6,633.949,202.133z"/>
											</g>
										</g>
									</g>
								</g>
							</g>
						</g>
						<g>
							<g>
								<g>
									<g>
										<g>
											<g>
												<path style="fill:#A35740;" d="M620.487,205.256c0.166,0.533-0.798,1.308-2.154,1.729
													c-1.355,0.421-2.588,0.331-2.754-0.203c-0.166-0.533,0.798-1.308,2.153-1.729
													C619.087,204.632,620.321,204.723,620.487,205.256z"/>
											</g>
										</g>
									</g>
								</g>
							</g>
						</g>
					</g>
				</g>
			</g>
			<g>
				<g>
					<g>
						<g>
							<g>
								<g>
									<g>
										<g>
											<g>
												<g>
													<g>
														<path style="fill:#169B5B;" d="M507.553,313.956v3.773c0,2.172,1.312,3.93,2.931,3.93h203.889
															c1.618,0,2.93-1.759,2.93-3.93v-3.773c0-2.17-1.312-3.928-2.93-3.928H510.485
															C508.865,310.028,507.553,311.787,507.553,313.956z"/>
													</g>
												</g>
											</g>
										</g>
									</g>
								</g>
							</g>
							<g>
								<g>
									<g>
										<g>
											<g>
												<g>
													<g>
														<rect x="507.553" y="315.152" style="fill:#EBB12B;" width="209.75" height="1.726"/>
													</g>
												</g>
											</g>
										</g>
									</g>
								</g>
							</g>
							<g>
								<g>
									<path style="fill:#EBB12B;" d="M513.68,331.357h191.654c0.858,0,1.553-0.696,1.553-1.553v-8.189H512.127v8.189
										C512.127,330.661,512.822,331.357,513.68,331.357z"/>
								</g>
							</g>
							<g>
								<g>
									<g>
										<g>
											<g>
												<g>
													<g>
														<polygon style="fill:#169B5B;" points="706.041,468.939 672.858,331.357 684.511,331.357 717.694,468.939 
																													"/>
													</g>
												</g>
											</g>
										</g>
									</g>
								</g>
							</g>
							<g>
								<g>
									<g>
										<g>
											<g>
												<g>
													<g>
														<polygon style="fill:#169B5B;" points="510.158,468.939 543.341,331.357 531.687,331.357 498.505,468.939 
																													"/>
													</g>
												</g>
											</g>
										</g>
									</g>
								</g>
							</g>
						</g>
					</g>
				</g>
			</g>
			<g>
				<g>
					<g>
						<g>
							<g>
								<path style="fill:#39393B;" d="M508.741,237.065l12.199,51.59l0.321,1.356l0.821,3.475c0.355,1.506,1.696,2.566,3.242,2.566
									h82.179c2.15,0,3.739-2.008,3.244-4.099l-13.341-56.421c-0.355-1.503-1.696-2.564-3.242-2.564h-82.179
									C509.835,232.968,508.246,234.973,508.741,237.065z"/>
							</g>
						</g>
						<g>
							<polygon style="fill:#DCDEE2;" points="520.94,288.655 521.262,290.011 606.59,290.011 606.59,288.655 							"/>
						</g>
						<g>
							<g>
								<g>
									<g>
										<g>
											<g>
												<g>
													<path style="fill:#DCDEE2;" d="M548.672,266.715c0.391,3.551,3.587,6.43,7.139,6.43s6.113-2.879,5.721-6.43
														c-0.391-3.551-3.587-6.43-7.139-6.43C550.842,260.285,548.28,263.164,548.672,266.715z"/>
												</g>
											</g>
										</g>
									</g>
								</g>
							</g>
						</g>
						<g>
							<g>
								<g>
									<g>
										<g>
											<g>
												<g>
													<path style="fill:#DCDEE2;" d="M590.908,232.967l14.203,63.085h2.393c2.15,0,3.738-2.007,3.243-4.098l-13.34-56.421
														c-0.356-1.504-1.698-2.565-3.243-2.565H590.908z"/>
												</g>
											</g>
										</g>
									</g>
								</g>
							</g>
						</g>
						<g>
							<g>
								<g>
									<polygon style="fill:#FFFFFF;" points="567.104,296.051 569.597,310.07 561.363,310.07 558.87,296.051 									"/>
								</g>
							</g>
						</g>
						<g>
							<g>
								<g>
									<path style="fill:#FFFFFF;" d="M581.92,307.658l-1.686-2.37c-0.602-0.846-1.576-1.348-2.614-1.348h-22.575
										c-1.194,0-2.29,0.664-2.843,1.722l-1.137,2.174c-0.531,1.017,0.206,2.234,1.353,2.234h28.258
										C581.916,310.07,582.639,308.669,581.92,307.658z"/>
								</g>
							</g>
						</g>
					</g>
				</g>
				<g>
					<g>
						<g>
							<path style="fill:#FFFFFF;" d="M628.956,310.064h-67.815l-0.736-2.559c-0.463-1.609,0.745-3.214,2.42-3.214h62.575
								c1.122,0,2.109,0.743,2.42,1.822L628.956,310.064z"/>
						</g>
					</g>
				</g>
			</g>
		</g>
	</g>
	<g>
		<g>
			<defs>
				
					<ellipse id="SVGID_1_" transform="matrix(0.5213 -0.8534 0.8534 0.5213 -56.907 204.9694)" cx="154.251" cy="153.21" rx="26.07" ry="26.07"/>
			</defs>
			<clipPath id="SVGID_00000075846219403716229000000007687364648883830964_">
				<use xlink:href="#SVGID_1_"  style="overflow:visible;"/>
			</clipPath>
			<g style="clip-path:url(#SVGID_00000075846219403716229000000007687364648883830964_);">
				<rect x="126.124" y="126.267" style="fill:#FFFFFF;" width="76.415" height="53.886"/>
				<g>
					<defs>
						
							<rect id="SVGID_00000097473584740862426580000016150357962194321798_" x="126.124" y="126.267" width="76.415" height="53.886"/>
					</defs>
					<clipPath id="SVGID_00000027573440752802817430000011079395404046953113_">
						<use xlink:href="#SVGID_00000097473584740862426580000016150357962194321798_"  style="overflow:visible;"/>
					</clipPath>
					<g style="clip-path:url(#SVGID_00000027573440752802817430000011079395404046953113_);">
						<g>
							<rect x="122.678" y="176.702" style="fill:#A92F4B;" width="89.861" height="3.451"/>
							<rect x="122.678" y="168.296" style="fill:#A92F4B;" width="89.861" height="3.451"/>
							<rect x="122.678" y="159.89" style="fill:#A92F4B;" width="89.861" height="3.451"/>
							<rect x="122.678" y="151.484" style="fill:#A92F4B;" width="89.861" height="3.451"/>
							<rect x="122.678" y="143.079" style="fill:#A92F4B;" width="89.861" height="3.451"/>
							<rect x="122.678" y="134.673" style="fill:#A92F4B;" width="89.861" height="3.451"/>
							<rect x="122.678" y="126.267" style="fill:#A92F4B;" width="89.861" height="3.451"/>
						</g>
						<g>
							<rect x="122.678" y="124.132" style="fill:#084FC7;" width="40.77" height="30.804"/>
							<g>
								<g>
									<polygon style="fill:#FFFFFF;" points="129.561,129.098 129.991,130.121 131.097,130.214 130.257,130.94 130.51,132.02 
										129.561,131.445 128.611,132.02 128.864,130.94 128.024,130.214 129.13,130.121 									"/>
									<polygon style="fill:#FFFFFF;" points="135.606,129.098 136.037,130.121 137.143,130.214 136.303,130.94 136.556,132.02 
										135.606,131.445 134.657,132.02 134.91,130.94 134.07,130.214 135.176,130.121 									"/>
									<polygon style="fill:#FFFFFF;" points="141.652,129.098 142.083,130.121 143.189,130.214 142.349,130.94 142.602,132.02 
										141.652,131.445 140.703,132.02 140.956,130.94 140.116,130.214 141.222,130.121 									"/>
									<polygon style="fill:#FFFFFF;" points="147.698,129.098 148.128,130.121 149.234,130.214 148.395,130.94 148.648,132.02 
										147.698,131.445 146.749,132.02 147.002,130.94 146.162,130.214 147.268,130.121 									"/>
									<polygon style="fill:#FFFFFF;" points="153.744,129.098 154.174,130.121 155.28,130.214 154.44,130.94 154.694,132.02 
										153.744,131.445 152.794,132.02 153.048,130.94 152.208,130.214 153.314,130.121 									"/>
									<polygon style="fill:#FFFFFF;" points="159.631,129.098 160.062,130.121 161.168,130.214 160.328,130.94 160.581,132.02 
										159.631,131.445 158.682,132.02 158.935,130.94 158.095,130.214 159.201,130.121 									"/>
								</g>
								<g>
									<polygon style="fill:#FFFFFF;" points="129.561,133.964 129.991,134.987 131.097,135.08 130.257,135.806 130.51,136.886 
										129.561,136.312 128.611,136.886 128.864,135.806 128.024,135.08 129.13,134.987 									"/>
									<polygon style="fill:#FFFFFF;" points="135.606,133.964 136.037,134.987 137.143,135.08 136.303,135.806 136.556,136.886 
										135.606,136.312 134.657,136.886 134.91,135.806 134.07,135.08 135.176,134.987 									"/>
									<polygon style="fill:#FFFFFF;" points="141.652,133.964 142.083,134.987 143.189,135.08 142.349,135.806 142.602,136.886 
										141.652,136.312 140.703,136.886 140.956,135.806 140.116,135.08 141.222,134.987 									"/>
									<polygon style="fill:#FFFFFF;" points="147.698,133.964 148.128,134.987 149.234,135.08 148.395,135.806 148.648,136.886 
										147.698,136.312 146.749,136.886 147.002,135.806 146.162,135.08 147.268,134.987 									"/>
									<polygon style="fill:#FFFFFF;" points="153.744,133.964 154.174,134.987 155.28,135.08 154.44,135.806 154.694,136.886 
										153.744,136.312 152.795,136.886 153.048,135.806 152.208,135.08 153.314,134.987 									"/>
									<polygon style="fill:#FFFFFF;" points="159.631,133.964 160.062,134.987 161.168,135.08 160.328,135.806 160.581,136.886 
										159.631,136.312 158.682,136.886 158.935,135.806 158.095,135.08 159.201,134.987 									"/>
								</g>
								<g>
									<polygon style="fill:#FFFFFF;" points="129.561,138.83 129.991,139.853 131.097,139.946 130.257,140.672 130.51,141.752 
										129.561,141.178 128.611,141.752 128.864,140.672 128.024,139.946 129.13,139.853 									"/>
									<polygon style="fill:#FFFFFF;" points="135.606,138.83 136.037,139.853 137.143,139.946 136.303,140.672 136.556,141.752 
										135.606,141.178 134.657,141.752 134.91,140.672 134.07,139.946 135.176,139.853 									"/>
									<polygon style="fill:#FFFFFF;" points="141.652,138.83 142.083,139.853 143.189,139.946 142.349,140.672 142.602,141.752 
										141.652,141.178 140.703,141.752 140.956,140.672 140.116,139.946 141.222,139.853 									"/>
									<polygon style="fill:#FFFFFF;" points="147.698,138.83 148.128,139.853 149.234,139.946 148.395,140.672 148.648,141.752 
										147.698,141.178 146.749,141.752 147.002,140.672 146.162,139.946 147.268,139.853 									"/>
									<polygon style="fill:#FFFFFF;" points="153.744,138.83 154.174,139.853 155.28,139.946 154.44,140.672 154.694,141.752 
										153.744,141.178 152.795,141.752 153.048,140.672 152.208,139.946 153.314,139.853 									"/>
									<polygon style="fill:#FFFFFF;" points="159.631,138.83 160.062,139.853 161.168,139.946 160.328,140.672 160.581,141.752 
										159.631,141.178 158.682,141.752 158.935,140.672 158.095,139.946 159.201,139.853 									"/>
								</g>
								<g>
									<polygon style="fill:#FFFFFF;" points="129.561,143.696 129.991,144.719 131.097,144.812 130.257,145.538 130.51,146.618 
										129.561,146.044 128.611,146.618 128.864,145.538 128.024,144.812 129.13,144.719 									"/>
									<polygon style="fill:#FFFFFF;" points="135.606,143.696 136.037,144.719 137.143,144.812 136.303,145.538 136.556,146.618 
										135.606,146.044 134.657,146.618 134.91,145.538 134.07,144.812 135.176,144.719 									"/>
									<polygon style="fill:#FFFFFF;" points="141.652,143.696 142.083,144.719 143.189,144.812 142.349,145.538 142.602,146.618 
										141.652,146.044 140.703,146.618 140.956,145.538 140.116,144.812 141.222,144.719 									"/>
									<polygon style="fill:#FFFFFF;" points="147.698,143.696 148.128,144.719 149.234,144.812 148.395,145.538 148.648,146.618 
										147.698,146.044 146.749,146.618 147.002,145.538 146.162,144.812 147.268,144.719 									"/>
									<polygon style="fill:#FFFFFF;" points="153.744,143.696 154.174,144.719 155.28,144.812 154.44,145.538 154.694,146.618 
										153.744,146.044 152.794,146.618 153.048,145.538 152.208,144.812 153.314,144.719 									"/>
									<polygon style="fill:#FFFFFF;" points="159.631,143.696 160.062,144.719 161.168,144.812 160.328,145.538 160.581,146.618 
										159.631,146.044 158.682,146.618 158.935,145.538 158.095,144.812 159.201,144.719 									"/>
								</g>
								<g>
									<polygon style="fill:#FFFFFF;" points="129.561,148.562 129.991,149.585 131.097,149.678 130.257,150.404 130.51,151.484 
										129.561,150.91 128.611,151.484 128.864,150.404 128.024,149.678 129.13,149.585 									"/>
									<polygon style="fill:#FFFFFF;" points="135.606,148.562 136.037,149.585 137.143,149.678 136.303,150.404 136.556,151.484 
										135.606,150.91 134.657,151.484 134.91,150.404 134.07,149.678 135.176,149.585 									"/>
									<polygon style="fill:#FFFFFF;" points="141.652,148.562 142.083,149.585 143.189,149.678 142.349,150.404 142.602,151.484 
										141.652,150.91 140.703,151.484 140.956,150.404 140.116,149.678 141.222,149.585 									"/>
									<polygon style="fill:#FFFFFF;" points="147.698,148.562 148.128,149.585 149.234,149.678 148.395,150.404 148.648,151.484 
										147.698,150.91 146.749,151.484 147.002,150.404 146.162,149.678 147.268,149.585 									"/>
									<polygon style="fill:#FFFFFF;" points="153.744,148.562 154.174,149.585 155.28,149.678 154.44,150.404 154.694,151.484 
										153.744,150.91 152.794,151.484 153.048,150.404 152.208,149.678 153.314,149.585 									"/>
									<polygon style="fill:#FFFFFF;" points="159.631,148.562 160.062,149.585 161.168,149.678 160.328,150.404 160.581,151.484 
										159.631,150.91 158.682,151.484 158.935,150.404 158.095,149.678 159.201,149.585 									"/>
								</g>
							</g>
						</g>
					</g>
				</g>
			</g>
		</g>
		<g>
			<defs>
				<circle id="SVGID_00000090981559764230741270000005787253994308999554_" cx="365.282" cy="70.941" r="24.709"/>
			</defs>
			<clipPath id="SVGID_00000068644074104188080380000010327249344814966681_">
				<use xlink:href="#SVGID_00000090981559764230741270000005787253994308999554_"  style="overflow:visible;"/>
			</clipPath>
			<g style="clip-path:url(#SVGID_00000068644074104188080380000010327249344814966681_);">
				
					<rect x="330.39" y="46.336" transform="matrix(-1 0.0042 -0.0042 -1 730.8596 140.339)" style="fill:#084FC7;" width="69.784" height="49.209"/>
				<g>
					<defs>
						<polyline id="SVGID_00000173868567340084023430000006166044354195460766_" points="400.277,95.398 400.069,46.189 
							330.286,46.484 330.494,95.693 						"/>
					</defs>
					<clipPath id="SVGID_00000166634443743341527480000016072231364928384153_">
						<use xlink:href="#SVGID_00000173868567340084023430000006166044354195460766_"  style="overflow:visible;"/>
					</clipPath>
					<g style="clip-path:url(#SVGID_00000166634443743341527480000016072231364928384153_);">
						<g>
							
								<rect x="363.375" y="24.728" transform="matrix(-0.5622 -0.827 0.827 -0.5622 512.8936 414.2528)" style="fill:#FFFFFF;" width="5.441" height="93.281"/>
							
								<rect x="365.219" y="24.728" transform="matrix(-0.5622 -0.827 0.827 -0.5622 512.8738 414.2613)" style="fill:#A92F4B;" width="1.753" height="93.281"/>
						</g>
						<g>
							
								<rect x="362.563" y="24.731" transform="matrix(0.5552 -0.8317 0.8317 0.5552 103.1223 335.5638)" style="fill:#FFFFFF;" width="5.441" height="93.281"/>
							
								<rect x="364.407" y="24.731" transform="matrix(0.5552 -0.8317 0.8317 0.5552 103.1253 335.5668)" style="fill:#A92F4B;" width="1.753" height="93.281"/>
						</g>
						<g>
							
								<rect x="359.173" y="33.866" transform="matrix(-0.0042 -1 1 -0.0042 295.8839 436.5191)" style="fill:#FFFFFF;" width="12.218" height="74.151"/>
							
								<rect x="359.173" y="33.866" transform="matrix(-1 0.0042 -0.0042 -1 730.8597 140.339)" style="fill:#FFFFFF;" width="12.218" height="74.151"/>
							
								<rect x="362.227" y="33.866" transform="matrix(-1 0.0042 -0.0042 -1 730.8597 140.3389)" style="fill:#A92F4B;" width="6.109" height="74.151"/>
							
								<rect x="362.227" y="33.866" transform="matrix(-0.0042 -1 1 -0.0042 295.8838 436.5192)" style="fill:#A92F4B;" width="6.109" height="74.151"/>
						</g>
					</g>
				</g>
			</g>
		</g>
	</g>
	<g>
		<g>
			<g>
				<g>
					<g>
						<g>
							<ellipse style="fill:#EDEEF1;" cx="527.809" cy="84.837" rx="38.062" ry="37.59"/>
						</g>
					</g>
					<g>
						<g>
							<g>
								<ellipse style="fill:#FFFFFF;" cx="527.809" cy="84.837" rx="30.943" ry="30.559"/>
							</g>
						</g>
					</g>
				</g>
				<g>
					<g>
						<path style="fill:#DCDEE2;" d="M527.808,88.017c0.239,0,0.472-0.11,0.622-0.309l15.18-20.183
							c0.255-0.339,0.183-0.818-0.16-1.069c-0.342-0.252-0.828-0.182-1.083,0.158l-14.812,19.693l-16.833-7.296
							c-0.391-0.17-0.848,0.006-1.02,0.393c-0.172,0.387,0.006,0.838,0.398,1.007l17.398,7.541
							C527.598,87.996,527.704,88.017,527.808,88.017z"/>
					</g>
				</g>
			</g>
		</g>
		<g>
			<g>
				<polygon style="fill:#EDEEF1;" points="250.98,84.837 214.453,100.805 203.848,91.406 				"/>
				<polygon style="fill:#EDEEF1;" points="250.98,84.837 219.765,106.239 234.592,120.281 				"/>
			</g>
			<g>
				<polygon style="fill:#DCDEE2;" points="225.488,111.66 208.074,116.392 214.453,100.805 250.98,84.837 219.765,106.239 				"/>
				<polyline style="fill:none;stroke:#EDEEF1;stroke-miterlimit:10;" points="219.765,106.239 208.074,116.392 214.453,100.805 
									"/>
			</g>
		</g>
		<g>
			<g>
				<polygon style="fill:#EDEEF1;" points="598.811,102.559 635.338,118.527 645.944,109.128 				"/>
				<polygon style="fill:#EDEEF1;" points="598.811,102.559 630.026,123.961 615.199,138.003 				"/>
			</g>
			<g>
				<polygon style="fill:#DCDEE2;" points="624.303,129.381 641.717,134.114 635.338,118.527 598.811,102.559 630.026,123.961 				
					"/>
				<polyline style="fill:none;stroke:#EDEEF1;stroke-miterlimit:10;" points="630.026,123.961 641.717,134.114 635.338,118.527 
									"/>
			</g>
		</g>
	</g>
	<g>
		<g>
			<g>
				<g>
					<polygon style="fill:#39393B;" points="452.772,293.288 400.859,293.165 400.859,293.165 400.859,354.526 441.179,354.526 
											"/>
					<polygon style="fill:#39393B;" points="96.211,293.288 153.637,293.165 153.637,293.165 153.637,354.526 107.803,354.526 					
						"/>
					<path style="fill:#39393B;" d="M406.218,467.489h8.202c1.123,0,2.034-0.911,2.034-2.034v-39.874h-12.269v39.874
						C404.184,466.578,405.094,467.489,406.218,467.489z"/>
					<path style="fill:#39393B;" d="M134.498,467.489h8.202c1.123,0,2.034-0.911,2.034-2.034v-39.874h-12.269v39.874
						C132.464,466.578,133.374,467.489,134.498,467.489z"/>
					
						<rect x="117.05" y="338.417" transform="matrix(-1 -1.224647e-16 1.224647e-16 -1 545.8619 758.249)" style="fill:#084FC7;" width="311.762" height="81.415"/>
					<path style="fill:#084FC7;" d="M161.193,258.979h81.218h79.256h64.181c8.719,0,15.788,7.069,15.788,15.788v98.156
						c0,8.72-7.069,15.788-15.788,15.788h-64.181h-79.256h-81.218c-8.72,0-15.788-7.069-15.788-15.788v-98.156
						C145.405,266.048,152.474,258.979,161.193,258.979z"/>
					<path style="fill:#084FC7;" d="M430.7,434.246h-29.841l28.165-122.564c2.83-12.685,15.407-20.675,28.092-17.845l0,0
						c12.685,2.83,20.675,15.407,17.845,28.092l-21.718,97.355C450.98,429.435,443.667,434.927,430.7,434.246z"/>
					<path style="fill:#084FC7;" d="M118.282,434.246h29.841l-28.165-122.564c-2.83-12.685-15.407-20.675-28.092-17.845l0,0
						c-12.685,2.83-20.675,15.407-17.845,28.092l21.718,97.355C98.002,429.435,105.315,434.927,118.282,434.246z"/>
					<polygon style="fill:#084FC7;" points="242.411,402.014 321.668,402.014 412.598,402.014 412.598,434.246 321.668,434.246 
						242.411,434.246 134.444,434.246 134.444,402.014 					"/>
					
						<rect x="404.016" y="386.356" transform="matrix(-1 -1.224647e-16 1.224647e-16 -1 815.7278 820.6011)" style="fill:#084FC7;" width="7.696" height="47.89"/>
					
						<rect x="140.885" y="386.356" transform="matrix(-1 -1.224647e-16 1.224647e-16 -1 289.4664 820.6011)" style="fill:#084FC7;" width="7.696" height="47.89"/>
					<path style="opacity:0.3;fill:#084FC7;" d="M243.986,351.281h79.256h76.412c8.018,0,14.519,5.24,14.519,11.705v17.62
						c0,6.464-6.5,11.705-14.519,11.705h-76.412h-79.256h-93.449c-8.018,0-14.518-5.241-14.518-11.705v-17.62
						c0-6.465,6.5-11.705,14.518-11.705H243.986z"/>
				</g>
				<g>
					<path style="fill:#EBB12B;" d="M142.995,366.094h63.712c3.686,0,6.674-2.988,6.674-6.674v-51.85
						c0-3.686-2.988-6.674-6.674-6.674h-63.712c-3.686,0-6.674,2.988-6.674,6.674v51.85
						C136.321,363.106,139.309,366.094,142.995,366.094z"/>
				</g>
			</g>
			<g>
				<g>
					<g>
						<g>
							<g>
								<path style="fill:#DF615C;" d="M209.295,326.561c0.972,8.616,8.026,14.081,8.026,14.081l47.09-6.193
									c3.865-0.094,7.07-2.987,7.561-6.822c2.11-16.479,2.609-49.939,1.752-63.165c-0.372-5.741-16.87-10.159-20.87-10.486
									l-13.725-0.737l-9.013,1.005c-1.762,0.337-16.968,4.591-16.895,6.383L209.295,326.561z"/>
							</g>
						</g>
					</g>
					<g>
						<g>
							<path style="fill:#FFAC94;" d="M189.612,264.143c0,0-43.556,12.378-39.118,26.434h25.238l26.05-8.988L189.612,264.143z"/>
							<g>
								<path style="fill:#DF615C;" d="M230.116,254.243c0,0-23.93,1.158-47.86,11.634l11.609,26.622l23.548,0.212L230.116,254.243z
									"/>
								
									<line style="fill:none;stroke:#EBB12B;stroke-width:0.5;stroke-miterlimit:10;" x1="211.314" y1="292.657" x2="217.412" y2="292.711"/>
							</g>
						</g>
						<g>
							<path style="fill:#FFAC94;" d="M198.682,294.939l7.74,3.462c0.742,0.332,1.414,0.805,1.923,1.439
								c1.186,1.476,4.419,4.806,4.718,11.237c0.458,9.851,1.735,12.742-3.993,12.971c-5.727,0.229-13.058-0.916-14.662-11.913
								l-2.062-6.186l-5.269-0.855L198.682,294.939z"/>
							<g>
								<path style="fill:#FFAC94;" d="M174.224,282.551l25.553,12.943l-4.982,10.843c0,0-42.744-5.803-44.3-15.759L174.224,282.551
									z"/>
								
									<line style="fill:none;stroke:#A35740;stroke-width:0.5;stroke-miterlimit:10;" x1="184.261" y1="287.635" x2="169.799" y2="284.047"/>
							</g>
						</g>
					</g>
				</g>
				<g>
					<path style="fill:#FFAC94;" d="M253.542,237.911l-1.748,15.844c-0.602,5.565-4.245,8.167-9.544,7.528l0,0
						c-4.523-0.546-9.254-3.29-8.515-8.173l1.997-24.866L253.542,237.911z"/>
					<path style="fill:#F28268;" d="M252.051,251.43c0,0-12.123-0.124-17.163-12.668l18.442,1.405L252.051,251.43z"/>
					<path style="fill:#F28268;" d="M258.156,223.096c-0.646,3.628,1.677,7.089,5.188,7.73c3.511,0.642,6.881-1.779,7.528-5.406
						c0.646-3.628-1.676-7.089-5.187-7.73C262.173,217.048,258.802,219.469,258.156,223.096z"/>
					<path style="fill:#FFAC94;" d="M248.308,244.053L248.308,244.053c9.045,1.018,17.323-5.522,18.429-13.122l2.227-15.912
						c1.386-9.526-4.794-18.416-13.966-20.092l0,0c-9.39-1.716-20.048,4.457-21.776,14.157l-1.585,12.421
						C230.197,232.685,237.567,242.09,248.308,244.053z"/>
					<path style="fill:#39393B;" d="M267.098,228.346c0,0-0.411,5.569-4.883,6.695c0,0-4.763-4.073-12.648-1.57
						c-7.885,2.503-13.626-13.294-13.626-13.294l-4.206,7.471c0,0-1.265,18.616,20.366,18.567
						c3.814-0.008,13.985-2.062,14.636-15.284"/>
					<path style="fill:#39393B;" d="M268.529,207.195c0,0-11.685,2.274-27.931-1.873l-0.099,6.214c0,0-3.857,4.166-4.558,8.641
						l-4.736-3.288l-1.146-7.242c-0.544-3.438,0.101-7.026,2.103-9.872c3.555-5.054,10.68-8.229,20.759-6.827
						C263.001,194.349,267.662,201.83,268.529,207.195L268.529,207.195z"/>
					<g>
						<g>
							
								<polyline style="fill:none;stroke:#39393B;stroke-width:0.5;stroke-linecap:round;stroke-linejoin:round;stroke-miterlimit:10;" points="
								258.424,223.943 257.846,230.99 255.572,231.022 							"/>
							<path style="fill:#39393B;" d="M250.322,214.441c0,0,3.741,0.091,3.607,1.638c0,0-0.118,1.044-3.375,0.901
								c-3.257-0.143-4.071-0.477-4.258-1.49C246.11,214.476,248.583,214.262,250.322,214.441z"/>
							<path style="fill:#39393B;" d="M264.477,215.853c0,0-3.024-0.654-3.434,0.768c0,0-0.254,0.965,2.4,1.477
								c2.654,0.512,3.564,0.258,3.905-0.506C267.734,216.725,265.929,216.034,264.477,215.853z"/>
							<path style="fill:#39393B;" d="M261.333,224.865c-0.125,0.876,0.467,1.684,1.323,1.806c0.856,0.122,1.651-0.489,1.776-1.364
								c0.125-0.875-0.467-1.684-1.323-1.805C262.253,223.378,261.458,223.989,261.333,224.865z"/>
							<path style="fill:#39393B;" d="M247.753,222.923c-0.125,0.875,0.467,1.684,1.323,1.806c0.856,0.122,1.651-0.489,1.776-1.364
								c0.125-0.875-0.467-1.684-1.323-1.805C248.673,221.437,247.878,222.048,247.753,222.923z"/>
							<g>
								<g>
									<g>
										<g>
											<g>
												<g>
													<path style="fill:#DF615C;" d="M264.8,231.114c-0.054,0.556-1.243,0.895-2.656,0.758
														c-1.413-0.137-2.514-0.699-2.46-1.255c0.054-0.556,1.243-0.895,2.656-0.758
														C263.752,229.996,264.854,230.558,264.8,231.114z"/>
												</g>
											</g>
										</g>
									</g>
								</g>
							</g>
							<g>
								<g>
									<g>
										<g>
											<g>
												<g>
													<path style="fill:#DF615C;" d="M251.18,228.77c-0.054,0.556-1.243,0.895-2.656,0.758
														c-1.413-0.137-2.514-0.699-2.46-1.255c0.054-0.556,1.243-0.896,2.656-0.758
														C250.133,227.652,251.234,228.214,251.18,228.77z"/>
												</g>
											</g>
										</g>
									</g>
								</g>
							</g>
							<path style="fill:#FFFFFF;" d="M254.182,238.391c0,0.741-0.899,1.341-2.008,1.341c-1.109,0-2.007-0.6-2.007-1.341
								c0-0.741,0.899-1.341,2.007-1.341C253.284,237.05,254.182,237.651,254.182,238.391z"/>
						</g>
					</g>
					<g>
						<path style="fill:#FFAC94;" d="M223.355,220.27c-0.64,3.592,1.66,7.02,5.137,7.655c3.477,0.635,6.814-1.761,7.454-5.354
							c0.64-3.592-1.66-7.019-5.137-7.655C227.332,214.281,223.995,216.678,223.355,220.27z"/>
						
							<path style="fill:none;stroke:#39393B;stroke-width:0.5;stroke-linecap:round;stroke-linejoin:round;stroke-miterlimit:10;" d="
							M231.507,223.757c0,0,0.84-4.716-3.657-4.771"/>
					</g>
					<path style="fill:#FFAC94;" d="M225.962,254.592c0,0,8.349-1.356,15.663-1.22c0,0,11.094,0.021,16.18,1.587
						c0,0,2.882,9.066-11.61,8.926C231.702,263.744,225.962,254.592,225.962,254.592z"/>
				</g>
				<g>
					<g>
						<g>
							<polygon style="fill:#FFBC99;" points="376.317,354.911 349.472,344.198 342.481,359.763 371.362,371.302 377.473,356.043 
															"/>
							<g>
								<path style="fill:#39393B;" d="M365.192,369.876c0,0,9.319-9.712,3.947-18.107l25.554-22.449l-19.456,48.651
									L365.192,369.876z"/>
								<polygon style="fill:#FFFFFF;" points="398.777,330.96 379.322,379.61 375.238,377.971 394.694,329.321 								"/>
								<path style="fill:#FFFFFF;" d="M375.363,354.552c-0.002-0.145-0.041-0.291-0.119-0.422c-1.67-2.757-2.128-5.048-2.133-5.071
									c-0.087-0.45-0.513-0.73-0.952-0.624c-0.438,0.105-0.716,0.565-0.635,1.006c0.019,0.105,0.509,2.589,2.341,5.616
									c0.234,0.386,0.733,0.492,1.113,0.237C375.23,355.124,375.367,354.838,375.363,354.552z"/>
								<path style="fill:#FFFFFF;" d="M378.783,351.478c-0.002-0.145-0.041-0.291-0.119-0.422c-1.67-2.757-2.128-5.048-2.133-5.071
									c-0.087-0.45-0.513-0.73-0.952-0.624c-0.437,0.105-0.721,0.565-0.635,1.005c0.019,0.105,0.509,2.589,2.341,5.617
									c0.235,0.386,0.733,0.492,1.113,0.236C378.649,352.049,378.786,351.763,378.783,351.478z"/>
								<path style="fill:#FFFFFF;" d="M382.201,348.403c-0.002-0.145-0.041-0.291-0.119-0.422
									c-1.669-2.758-2.127-5.048-2.132-5.071c-0.087-0.45-0.513-0.73-0.952-0.624c-0.437,0.105-0.721,0.564-0.635,1.005
									c0.019,0.105,0.509,2.589,2.34,5.617c0.233,0.387,0.733,0.492,1.113,0.237C382.067,348.975,382.204,348.689,382.201,348.403
									z"/>
							</g>
						</g>
						<polygon style="fill:#EDEEF1;" points="291.924,309.779 363.706,341.349 350.573,373.425 268.622,345.447 						"/>
					</g>
					<g>
						<g>
							<g>
								<polygon style="fill:#FFBC99;" points="321.65,456.837 321.8,427.934 304.756,427.121 304.583,458.222 321.021,458.327 
																	"/>
								<g>
									<path style="fill:#39393B;" d="M303.653,451.959c0,0,12.448,5.12,18.296-2.951l30.242,15.569l-52.396-0.308
										L303.653,451.959z"/>
									<polygon style="fill:#FFFFFF;" points="352.159,468.977 299.763,468.669 299.794,464.269 352.19,464.577 									"/>
									<path style="fill:#FFFFFF;" d="M321.636,455.818c0.134-0.055,0.256-0.144,0.349-0.266c1.956-2.563,3.919-3.828,3.939-3.84
										c0.387-0.246,0.492-0.745,0.233-1.114c-0.258-0.37-0.788-0.46-1.168-0.224c-0.091,0.056-2.223,1.421-4.371,4.233
										c-0.274,0.36-0.19,0.862,0.187,1.123C321.055,455.903,321.371,455.926,321.636,455.818z"/>
									<path style="fill:#FFFFFF;" d="M325.748,457.875c0.135-0.055,0.256-0.144,0.349-0.266c1.955-2.563,3.919-3.828,3.939-3.841
										c0.387-0.246,0.492-0.745,0.233-1.114c-0.258-0.369-0.79-0.464-1.168-0.224c-0.091,0.056-2.223,1.422-4.371,4.234
										c-0.274,0.36-0.19,0.862,0.187,1.123C325.167,457.96,325.483,457.983,325.748,457.875z"/>
									<path style="fill:#FFFFFF;" d="M329.86,459.932c0.134-0.055,0.256-0.144,0.349-0.266c1.956-2.562,3.92-3.827,3.939-3.84
										c0.387-0.246,0.492-0.745,0.233-1.114c-0.258-0.369-0.789-0.464-1.168-0.224c-0.091,0.056-2.223,1.421-4.371,4.232
										c-0.274,0.359-0.19,0.862,0.187,1.123C329.278,460.017,329.595,460.04,329.86,459.932z"/>
								</g>
							</g>
							<g>
								<path style="fill:#DCDEE2;" d="M222.754,350.779c0,0-6.654,25.526,24.098,25.526h48.84v63.963h37.61v-82.373
									c0-10.579-8.621-19.132-19.2-19.047l-49.767,0.411L222.754,350.779z"/>
							</g>
						</g>
						<path style="fill:#EDEEF1;" d="M214.033,337.597l-1.051,6.009c-0.271,1.552-0.346,3.135-0.202,4.704
							c1.307,14.241,12.428,26.262,26.893,27.163c6.04,0.376,12.002-1.029,16.724-4.655l40.068-36.718l-22.48-23.367
							L214.033,337.597z"/>
					</g>
				</g>
				<g>
					<path style="fill:#DF615C;" d="M257.805,254.959c0,0,32.768,3.768,41.989,34.63l-30.893,11.739L257.805,254.959z"/>
					<g>
						<g>
							<polygon style="fill:#FFFFFF;" points="306.378,290.88 306.95,277.536 289.538,280.864 289.045,292.365 							"/>
							<polygon style="fill:#FFFFFF;" points="302.414,290.71 303.049,275.883 289.538,280.864 289.045,292.365 							"/>
							<polygon style="fill:#FFFFFF;" points="287.434,280.774 249.416,275.07 246.704,323.897 285.519,325.464 							"/>
							<polygon style="fill:#169B5B;" points="291.641,280.954 289.673,326.864 307.019,321.915 308.744,281.688 							"/>
							<polygon style="fill:#169B5B;" points="291.641,280.954 287.434,280.774 285.428,327.586 289.673,326.864 							"/>
							<polygon style="fill:#169B5B;" points="287.434,280.774 251.616,279.239 249.604,326.18 285.428,327.586 							"/>
							
								<line style="fill:none;stroke:#FFFFFF;stroke-width:0.5;stroke-miterlimit:10;" x1="287.434" y1="280.774" x2="285.428" y2="327.586"/>
							
								<line style="fill:none;stroke:#FFFFFF;stroke-width:0.5;stroke-miterlimit:10;" x1="291.641" y1="280.954" x2="289.673" y2="326.864"/>
						</g>
						<path style="fill:#FFAC94;" d="M308.305,291.831c0,0,11.542,9.233,3.077,17.746c-2.51,2.525-6.206,3.709-9.589,2.6
							c-2.723-0.893-5.26-3.156-4.508-8.639c1.502-10.957,10.925-9.472,10.925-9.472L308.305,291.831z"/>
					</g>
					
						<rect x="259.157" y="296.399" transform="matrix(0.9916 -0.1296 0.1296 0.9916 -36.9244 37.2188)" style="fill:#FFFFFF;" width="16.488" height="11.627"/>
					
						<rect x="258.185" y="295.713" transform="matrix(0.9916 -0.1296 0.1296 0.9916 -36.9239 37.2182)" style="fill:#FFFFFF;" width="18.432" height="12.998"/>
					<g>
						<defs>
							
								<rect id="SVGID_00000078008019895334515340000002240264351289528211_" x="259.157" y="296.399" transform="matrix(0.9916 -0.1296 0.1296 0.9916 -36.9244 37.2188)" width="16.488" height="11.627"/>
						</defs>
						<clipPath id="SVGID_00000129901936631993235820000010776915111793958812_">
							<use xlink:href="#SVGID_00000078008019895334515340000002240264351289528211_"  style="overflow:visible;"/>
						</clipPath>
						<g style="clip-path:url(#SVGID_00000129901936631993235820000010776915111793958812_);">
							<g>
								
									<rect x="259.113" y="307.143" transform="matrix(0.9916 -0.1296 0.1296 0.9916 -37.5993 37.445)" style="fill:#A92F4B;" width="19.39" height="0.745"/>
								
									<rect x="258.878" y="305.345" transform="matrix(0.9916 -0.1297 0.1297 0.9916 -37.3695 37.4009)" style="fill:#A92F4B;" width="19.39" height="0.745"/>
								
									<rect x="258.643" y="303.547" transform="matrix(0.9916 -0.1296 0.1296 0.9916 -37.137 37.3536)" style="fill:#A92F4B;" width="19.39" height="0.745"/>
								
									<rect x="258.408" y="301.748" transform="matrix(0.9916 -0.1297 0.1297 0.9916 -36.9073 37.3097)" style="fill:#A92F4B;" width="19.39" height="0.745"/>
								
									<rect x="258.173" y="299.95" transform="matrix(0.9916 -0.1296 0.1296 0.9916 -36.6746 37.2623)" style="fill:#A92F4B;" width="19.39" height="0.745"/>
								
									<rect x="257.937" y="298.151" transform="matrix(0.9916 -0.1296 0.1296 0.9916 -36.4436 37.2169)" style="fill:#A92F4B;" width="19.39" height="0.745"/>
								
									<rect x="257.702" y="296.353" transform="matrix(0.9916 -0.1296 0.1296 0.9916 -36.2123 37.171)" style="fill:#A92F4B;" width="19.39" height="0.745"/>
							</g>
							<g>
								
									<rect x="258.07" y="296.558" transform="matrix(0.9916 -0.1297 0.1297 0.9916 -36.6658 36.5617)" style="fill:#084FC7;" width="8.797" height="6.647"/>
								<g>
									<g>
										<polygon style="fill:#FFFFFF;" points="259.288,298.026 259.408,298.233 259.647,298.222 259.488,298.401 
											259.573,298.625 259.353,298.528 259.166,298.678 259.19,298.439 258.99,298.308 259.224,298.257 										"/>
										<polygon style="fill:#FFFFFF;" points="260.581,297.857 260.702,298.064 260.941,298.053 260.782,298.231 
											260.866,298.456 260.647,298.359 260.46,298.509 260.484,298.27 260.284,298.139 260.518,298.088 										"/>
										<polygon style="fill:#FFFFFF;" points="261.875,297.688 261.995,297.895 262.235,297.884 262.075,298.062 262.16,298.286 
											261.94,298.19 261.753,298.34 261.777,298.101 261.577,297.97 261.811,297.919 										"/>
										<polygon style="fill:#FFFFFF;" points="263.168,297.518 263.289,297.725 263.528,297.714 263.369,297.893 
											263.453,298.117 263.234,298.021 263.047,298.17 263.071,297.932 262.871,297.8 263.105,297.75 										"/>
										<polygon style="fill:#FFFFFF;" points="264.462,297.349 264.582,297.556 264.822,297.545 264.662,297.724 
											264.747,297.948 264.527,297.852 264.34,298.001 264.364,297.763 264.164,297.631 264.398,297.58 										"/>
										<polygon style="fill:#FFFFFF;" points="265.721,297.185 265.842,297.392 266.081,297.381 265.922,297.559 
											266.006,297.783 265.787,297.687 265.6,297.836 265.624,297.598 265.424,297.466 265.658,297.416 										"/>
									</g>
									<g>
										<polygon style="fill:#FFFFFF;" points="259.424,299.067 259.544,299.274 259.784,299.263 259.624,299.442 
											259.709,299.666 259.489,299.569 259.302,299.719 259.326,299.481 259.126,299.349 259.36,299.298 										"/>
										<polygon style="fill:#FFFFFF;" points="260.717,298.898 260.838,299.105 261.077,299.094 260.918,299.272 
											261.002,299.497 260.783,299.4 260.596,299.55 260.62,299.311 260.42,299.18 260.654,299.129 										"/>
										<polygon style="fill:#FFFFFF;" points="262.011,298.729 262.132,298.936 262.371,298.925 262.211,299.103 
											262.296,299.328 262.077,299.231 261.889,299.381 261.913,299.142 261.713,299.011 261.947,298.96 										"/>
										<polygon style="fill:#FFFFFF;" points="263.304,298.56 263.425,298.767 263.664,298.755 263.505,298.934 263.589,299.158 
											263.37,299.062 263.183,299.211 263.207,298.973 263.007,298.841 263.241,298.791 										"/>
										<polygon style="fill:#FFFFFF;" points="264.598,298.391 264.719,298.597 264.958,298.586 264.798,298.765 
											264.883,298.989 264.663,298.893 264.477,299.042 264.5,298.804 264.3,298.672 264.534,298.621 										"/>
										<polygon style="fill:#FFFFFF;" points="265.857,298.226 265.978,298.433 266.217,298.422 266.058,298.6 266.142,298.824 
											265.923,298.728 265.736,298.878 265.76,298.639 265.56,298.508 265.794,298.457 										"/>
									</g>
									<g>
										<polygon style="fill:#FFFFFF;" points="259.56,300.108 259.68,300.315 259.92,300.304 259.76,300.483 259.845,300.707 
											259.625,300.61 259.438,300.76 259.462,300.522 259.262,300.39 259.496,300.339 										"/>
										<polygon style="fill:#FFFFFF;" points="260.853,299.939 260.974,300.146 261.213,300.135 261.054,300.314 
											261.138,300.538 260.919,300.441 260.732,300.591 260.756,300.353 260.556,300.221 260.79,300.17 										"/>
										<polygon style="fill:#FFFFFF;" points="262.147,299.77 262.268,299.977 262.507,299.966 262.347,300.145 262.432,300.369 
											262.213,300.272 262.025,300.422 262.049,300.183 261.849,300.052 262.083,300.001 										"/>
										<polygon style="fill:#FFFFFF;" points="263.44,299.601 263.561,299.808 263.8,299.797 263.641,299.975 263.725,300.199 
											263.506,300.103 263.319,300.253 263.343,300.014 263.143,299.883 263.377,299.832 										"/>
										<polygon style="fill:#FFFFFF;" points="264.734,299.432 264.855,299.638 265.094,299.628 264.935,299.806 265.019,300.03 
											264.8,299.934 264.613,300.083 264.637,299.845 264.436,299.713 264.671,299.663 										"/>
										<polygon style="fill:#FFFFFF;" points="265.994,299.267 266.114,299.474 266.353,299.463 266.194,299.642 
											266.279,299.866 266.059,299.769 265.872,299.919 265.896,299.681 265.696,299.549 265.93,299.498 										"/>
									</g>
									<g>
										<polygon style="fill:#FFFFFF;" points="259.696,301.149 259.817,301.356 260.056,301.345 259.896,301.524 
											259.981,301.748 259.762,301.651 259.575,301.801 259.598,301.563 259.398,301.431 259.633,301.38 										"/>
										<polygon style="fill:#FFFFFF;" points="260.99,300.98 261.11,301.187 261.349,301.176 261.19,301.355 261.274,301.579 
											261.055,301.482 260.868,301.632 260.892,301.394 260.692,301.262 260.926,301.211 										"/>
										<polygon style="fill:#FFFFFF;" points="262.283,300.811 262.404,301.018 262.643,301.007 262.483,301.186 262.568,301.41 
											262.349,301.313 262.162,301.463 262.186,301.224 261.986,301.093 262.22,301.042 										"/>
										<polygon style="fill:#FFFFFF;" points="263.577,300.642 263.697,300.849 263.936,300.838 263.777,301.016 
											263.861,301.241 263.642,301.144 263.455,301.294 263.479,301.055 263.279,300.924 263.513,300.873 										"/>
										<polygon style="fill:#FFFFFF;" points="264.87,300.473 264.991,300.68 265.23,300.669 265.071,300.847 265.155,301.071 
											264.936,300.975 264.749,301.125 264.773,300.886 264.573,300.755 264.807,300.704 										"/>
										<polygon style="fill:#FFFFFF;" points="266.13,300.308 266.25,300.515 266.49,300.504 266.33,300.683 266.415,300.907 
											266.195,300.81 266.008,300.96 266.032,300.722 265.832,300.59 266.066,300.539 										"/>
									</g>
									<g>
										<polygon style="fill:#FFFFFF;" points="259.832,302.19 259.953,302.397 260.192,302.386 260.033,302.565 260.117,302.789 
											259.898,302.693 259.711,302.842 259.735,302.604 259.535,302.472 259.769,302.421 										"/>
										<polygon style="fill:#FFFFFF;" points="261.126,302.021 261.246,302.228 261.486,302.217 261.326,302.396 261.41,302.62 
											261.191,302.523 261.004,302.673 261.028,302.435 260.828,302.303 261.062,302.252 										"/>
										<polygon style="fill:#FFFFFF;" points="262.419,301.852 262.54,302.059 262.779,302.048 262.62,302.227 262.704,302.451 
											262.485,302.354 262.298,302.504 262.322,302.266 262.122,302.134 262.356,302.083 										"/>
										<polygon style="fill:#FFFFFF;" points="263.713,301.683 263.833,301.89 264.073,301.879 263.913,302.058 263.998,302.282 
											263.778,302.185 263.591,302.335 263.615,302.096 263.415,301.965 263.649,301.914 										"/>
										<polygon style="fill:#FFFFFF;" points="265.006,301.514 265.127,301.721 265.366,301.71 265.207,301.888 265.291,302.112 
											265.072,302.016 264.885,302.166 264.909,301.927 264.709,301.796 264.943,301.745 										"/>
										<polygon style="fill:#FFFFFF;" points="266.266,301.349 266.387,301.556 266.626,301.545 266.466,301.724 
											266.551,301.948 266.331,301.851 266.145,302.001 266.168,301.763 265.968,301.631 266.202,301.58 										"/>
									</g>
								</g>
							</g>
						</g>
					</g>
				</g>
			</g>
		</g>
		<g style="opacity:0.15;">
			<g>
				<ellipse style="fill:#39393B;" cx="273.565" cy="469.545" rx="175.191" ry="8.115"/>
			</g>
		</g>
	</g>
	<g>
		<g>
			<g>
				<path style="fill:#DF615C;" d="M188.318,240.438l-36.022-0.025c-3.425-0.002-6.199-2.781-6.197-6.205l0.013-19.65
					c0.002-3.425,2.781-6.199,6.205-6.197l36.022,0.025c3.425,0.002,6.199,2.781,6.197,6.205l-0.014,19.65
					C194.521,237.666,191.743,240.44,188.318,240.438z"/>
			</g>
			<g>
				<polygon style="fill:#DF615C;" points="192.088,225.751 203.602,235.56 188.284,235.727 				"/>
			</g>
			<g>
				<g>
					<g>
						<g>
							<path style="fill:#FFFFFF;" d="M181.042,222.031c-0.866,5.479-11.091,12.334-11.091,12.334s-9.842-6.869-10.401-12.349
								c-0.607-5.941,6.427-7.758,10.838-3.277C175.048,214.264,181.982,216.091,181.042,222.031z"/>
						</g>
					</g>
				</g>
			</g>
		</g>
		<g>
			<g>
				<g>
					<path style="fill:#084FC7;" d="M509.79,157.369c2.272-3.275,6.06-5.42,10.348-5.42h38.43c4.008,0,7.579,1.874,9.884,4.793
						c1.692,2.143,2.702,4.85,2.702,7.793v16.65c0,4.061-1.923,7.672-4.908,9.973c-2.125,1.638-4.787,2.612-7.678,2.612h-11.079
						v17.359L530.13,193.77h-9.992c-3.06,0-5.865-1.092-8.046-2.908c-2.774-2.309-4.539-5.787-4.539-9.678v-16.65
						C507.552,161.872,508.379,159.402,509.79,157.369z"/>
				</g>
			</g>
			<g>
				<circle style="fill:#EBB12B;" cx="566.21" cy="195.771" r="13.17"/>
				<g>
					<g>
						<g>
							<g>
								<g>
									<g>
										<g>
											<g>
												<g>
													<g>
														<path style="fill:#39393B;" d="M567.826,193.181c-0.076,1.578,0.394,2.984,1.051,3.14
															c0.657,0.156,1.252-0.997,1.329-2.575c0.077-1.578-0.394-2.984-1.051-3.14
															C568.498,190.449,567.903,191.602,567.826,193.181z"/>
													</g>
												</g>
											</g>
										</g>
									</g>
								</g>
							</g>
						</g>
					</g>
					<g>
						<g>
							<g>
								<g>
									<g>
										<g>
											<g>
												<g>
													<g>
														<path style="fill:#39393B;" d="M561.614,193.181c-0.077,1.578,0.394,2.984,1.051,3.14
															c0.657,0.156,1.252-0.997,1.329-2.575c0.077-1.578-0.394-2.984-1.051-3.14
															C562.286,190.449,561.691,191.602,561.614,193.181z"/>
													</g>
												</g>
											</g>
										</g>
									</g>
								</g>
							</g>
						</g>
					</g>
					<path style="fill:none;stroke:#39393B;stroke-linecap:round;stroke-linejoin:round;stroke-miterlimit:10;" d="M558.128,196.782
						c0,0,0.518,6.694,7.988,6.694c7.471,0,8.177-6.694,8.177-6.694"/>
				</g>
			</g>
		</g>
	</g>
	<g>
		<path style="opacity:0.15;fill:#39393B;" d="M88.474,469.269c0,2.241-15.566,4.057-34.768,4.057
			c-19.202,0-34.768-1.816-34.768-4.057c0-2.241,15.566-4.057,34.768-4.057C72.908,465.212,88.474,467.028,88.474,469.269z"/>
		<g>
			<g>
				<g>
					<g>
						<g>
							<path style="fill:#169B5B;" d="M37.221,287.596c0,0-25.091-4.96-32.093-22.465c-7.002-17.505,18.599-30.634,32.093-21.234
								C51.657,253.954,37.221,287.596,37.221,287.596z"/>
						</g>
					</g>
					<g>
						<g>
							<path style="fill:#39393B;" d="M52.14,333.585c-0.222,0-0.415-0.162-0.449-0.388c-2.404-16.259-12.092-39.652-19.796-56.413
								c-8.354-18.176-16.239-32.681-16.318-32.826c-0.12-0.22-0.039-0.496,0.181-0.616c0.22-0.12,0.496-0.038,0.616,0.181
								c0.079,0.145,7.978,14.677,16.345,32.881c7.729,16.815,17.451,40.295,19.87,56.66c0.037,0.248-0.135,0.479-0.383,0.516
								C52.185,333.583,52.162,333.585,52.14,333.585z"/>
						</g>
					</g>
				</g>
				<g>
					<g>
						<path style="fill:#39393B;" d="M36.279,285.902c-0.162,0-0.318-0.087-0.4-0.239c-10.913-20.327-28.635-35.074-28.813-35.22
							c-0.194-0.16-0.221-0.446-0.062-0.639c0.159-0.193,0.446-0.221,0.639-0.061c0.179,0.147,18.035,15.003,29.035,35.491
							c0.119,0.221,0.036,0.496-0.185,0.615C36.425,285.885,36.351,285.902,36.279,285.902z"/>
					</g>
				</g>
				<g>
					<g>
						<path style="fill:#39393B;" d="M36.775,287.358c-0.129,0-0.256-0.054-0.346-0.16c-7.959-9.368-16.11-15.192-21.546-18.428
							c-5.892-3.508-9.955-4.815-9.995-4.828c-0.239-0.076-0.371-0.331-0.295-0.57c0.076-0.239,0.331-0.371,0.57-0.296
							c0.168,0.053,4.18,1.343,10.155,4.896c5.503,3.272,13.753,9.162,21.804,18.639c0.162,0.191,0.139,0.478-0.052,0.64
							C36.983,287.323,36.878,287.358,36.775,287.358z"/>
					</g>
				</g>
				<g>
					<g>
						<path style="fill:#39393B;" d="M34.566,282.029c-0.189,0-0.365-0.119-0.43-0.307c-6.118-17.954-3.867-39.775-3.844-39.993
							c0.027-0.249,0.249-0.429,0.5-0.403c0.249,0.027,0.43,0.251,0.403,0.5c-0.023,0.216-2.251,21.843,3.8,39.603
							c0.081,0.238-0.046,0.496-0.283,0.576C34.664,282.022,34.615,282.029,34.566,282.029z"/>
					</g>
				</g>
				<g>
					<g>
						<path style="fill:#39393B;" d="M36.105,285.583c-0.218,0-0.411-0.158-0.448-0.38c-1.872-11.365-0.433-20.636,1.103-26.412
							c1.669-6.273,3.754-9.805,3.842-9.952c0.128-0.215,0.407-0.285,0.622-0.157c0.215,0.129,0.286,0.407,0.157,0.622
							c-0.021,0.035-2.119,3.596-3.754,9.757c-1.507,5.683-2.918,14.806-1.075,25.994c0.041,0.247-0.127,0.481-0.374,0.522
							C36.154,285.581,36.13,285.583,36.105,285.583z"/>
					</g>
				</g>
			</g>
			<g>
				<g>
					<g>
						<g>
							<path style="fill:#EBB12B;" d="M61.805,270.62c0,0,23.185-3.171,30.529-18.78c7.343-15.609-15.329-28.987-28.162-21.132
								C50.442,239.11,61.805,270.62,61.805,270.62z"/>
						</g>
					</g>
					<g>
						<g>
							<path style="fill:#39393B;" d="M53.01,307.152c-0.002,0-0.003,0-0.005,0c-0.229-0.003-0.413-0.191-0.41-0.42
								c0.091-7.661,1.762-16.388,4.966-25.939c2.559-7.628,6.097-15.798,10.516-24.283c7.521-14.441,15.094-24.935,15.17-25.039
								c0.135-0.186,0.395-0.227,0.58-0.092c0.186,0.134,0.227,0.394,0.092,0.58c-0.076,0.104-7.618,10.557-15.112,24.946
								c-6.905,13.26-15.179,32.671-15.383,49.837C53.423,306.969,53.237,307.152,53.01,307.152z"/>
						</g>
					</g>
				</g>
				<g>
					<g>
						<path style="fill:#39393B;" d="M62.781,269.124c-0.074,0-0.15-0.02-0.217-0.062c-0.195-0.12-0.256-0.376-0.136-0.572
							c11.156-18.118,28.27-30.719,28.441-30.844c0.185-0.135,0.445-0.095,0.58,0.091c0.135,0.185,0.095,0.445-0.091,0.581
							c-0.17,0.124-17.155,12.633-28.224,30.608C63.057,269.054,62.921,269.124,62.781,269.124z"/>
					</g>
				</g>
				<g>
					<g>
						<path style="fill:#39393B;" d="M62.25,270.427c-0.103,0-0.207-0.038-0.287-0.115c-0.166-0.159-0.172-0.422-0.013-0.587
							c7.866-8.219,15.72-13.152,20.924-15.843c5.65-2.922,9.384-3.882,9.54-3.921c0.221-0.057,0.448,0.078,0.504,0.301
							c0.056,0.222-0.078,0.448-0.301,0.505c-0.038,0.009-3.819,0.984-9.39,3.868c-5.141,2.661-12.9,7.539-20.677,15.665
							C62.469,270.384,62.36,270.427,62.25,270.427z"/>
					</g>
				</g>
				<g>
					<g>
						<path style="fill:#39393B;" d="M64.555,265.679c-0.052,0-0.105-0.01-0.157-0.031c-0.212-0.086-0.314-0.329-0.227-0.542
							c6.489-15.894,5.625-35.767,5.616-35.965c-0.011-0.229,0.166-0.424,0.395-0.435c0.226-0.012,0.424,0.166,0.435,0.395
							c0.009,0.201,0.883,20.252-5.676,36.32C64.874,265.582,64.719,265.679,64.555,265.679z"/>
					</g>
				</g>
				<g>
					<g>
						<path style="fill:#39393B;" d="M62.957,268.842c-0.03,0-0.061-0.004-0.092-0.01c-0.224-0.051-0.364-0.273-0.314-0.497
							c2.289-10.119,1.495-18.528,0.426-23.8c-1.159-5.716-2.883-9.082-2.9-9.115c-0.106-0.204-0.026-0.454,0.177-0.56
							c0.204-0.105,0.454-0.026,0.56,0.177c0.072,0.139,1.785,3.478,2.97,9.298c1.09,5.359,1.902,13.904-0.423,24.184
							C63.318,268.711,63.147,268.842,62.957,268.842z"/>
					</g>
				</g>
			</g>
			<g>
				<g>
					<g>
						<g>
							<path style="fill:#169B5B;" d="M52.977,220.774c0,0-26.546-17.184-26.574-40.495c-0.028-23.311,35.387-26.668,46.581-9.695
								C84.96,188.743,52.977,220.774,52.977,220.774z"/>
						</g>
					</g>
					<g>
						<g>
							<path style="fill:#39393B;" d="M49.266,438.358c-0.043,0-0.086-0.005-0.13-0.015c-0.302-0.072-0.488-0.374-0.417-0.676
								c4.683-19.774,4.266-208.972,3.092-231.75c-1.274-24.701-3.688-44.97-3.713-45.172c-0.037-0.308,0.183-0.587,0.49-0.624
								c0.305-0.035,0.588,0.183,0.624,0.49c0.024,0.202,2.443,20.51,3.719,45.248c1.178,22.851,1.594,212.164-3.12,232.067
								C49.751,438.184,49.521,438.358,49.266,438.358z"/>
						</g>
					</g>
				</g>
				<g>
					<g>
						<path style="fill:#39393B;" d="M52.878,218.437c-0.282,0-0.525-0.212-0.557-0.498c-3.227-28.342-16.83-53.393-16.967-53.643
							c-0.149-0.272-0.05-0.613,0.222-0.762c0.271-0.15,0.613-0.05,0.762,0.222c0.138,0.252,13.845,25.488,17.098,54.056
							c0.035,0.308-0.186,0.586-0.494,0.621C52.92,218.435,52.899,218.437,52.878,218.437z"/>
					</g>
				</g>
				<g>
					<g>
						<path style="fill:#39393B;" d="M52.782,220.335c-0.234,0-0.453-0.148-0.532-0.382c-4.851-14.404-11.547-24.825-16.309-31.03
							c-5.162-6.726-9.229-10.088-9.269-10.121c-0.24-0.196-0.275-0.55-0.079-0.79c0.197-0.24,0.55-0.275,0.79-0.079
							c0.169,0.138,4.186,3.455,9.422,10.272c4.822,6.278,11.601,16.82,16.509,31.389c0.099,0.294-0.059,0.612-0.353,0.711
							C52.901,220.326,52.841,220.335,52.782,220.335z"/>
					</g>
				</g>
				<g>
					<g>
						<path style="fill:#39393B;" d="M52.686,213.204c-0.01,0-0.019,0-0.029-0.001c-0.309-0.016-0.548-0.279-0.532-0.589
							c1.194-23.422,13.769-47.452,13.896-47.692c0.145-0.274,0.485-0.378,0.758-0.234c0.274,0.145,0.379,0.484,0.234,0.758
							c-0.126,0.238-12.586,24.056-13.767,47.225C53.231,212.971,52.983,213.204,52.686,213.204z"/>
					</g>
				</g>
				<g>
					<g>
						<path style="fill:#39393B;" d="M52.827,217.991c-0.04,0-0.08-0.004-0.121-0.014c-0.303-0.066-0.495-0.366-0.428-0.668
							c3.053-13.909,8.968-23.977,13.393-29.973c4.805-6.511,8.832-9.683,9.001-9.814c0.244-0.19,0.597-0.147,0.787,0.097
							c0.191,0.244,0.147,0.597-0.097,0.788c-0.041,0.031-4.099,3.233-8.815,9.633c-4.35,5.903-10.167,15.814-13.173,29.51
							C53.317,217.812,53.085,217.991,52.827,217.991z"/>
					</g>
				</g>
			</g>
			<g>
				<g>
					<path style="fill:#39393B;" d="M87.566,430.844l-0.926,2.455l-0.585,1.556l-1.679,4.456l-0.587,1.556l-1.724,4.577
						l-0.584,1.554l-7.395,19.636H33.686l-7.395-19.636l-0.584-1.554l-1.724-4.577l-0.587-1.556l-1.679-4.456l-0.584-1.556
						l-0.926-2.455c-0.635-1.684,0.608-3.48,2.407-3.48h62.546C86.955,427.364,88.199,429.161,87.566,430.844z"/>
				</g>
			</g>
			<g>
				<g>
					<g>
						<polygon style="fill:#EDEEF1;" points="86.641,433.3 86.056,434.856 21.716,434.856 21.132,433.3 						"/>
					</g>
				</g>
				<g>
					<g>
						<polygon style="fill:#EDEEF1;" points="84.377,439.312 83.791,440.868 23.982,440.868 23.395,439.312 						"/>
					</g>
				</g>
				<g>
					<g>
						<polygon style="fill:#EDEEF1;" points="82.066,445.445 81.482,446.999 26.291,446.999 25.706,445.445 						"/>
					</g>
				</g>
			</g>
		</g>
	</g>
</g>
<g id="TEXTS">
	
		<text transform="matrix(1 0 0 1 520.2115 179.5867)" style="fill:#FFFFFF; font-family:'PatrickHand-Regular'; font-size:19.0044px;">Hello!</text>
</g>
</svg>
