<?xml version="1.0" encoding="UTF-8"?>
<svg id="Layer_1" data-name="Layer 1" xmlns="http://www.w3.org/2000/svg" xmlns:xlink="http://www.w3.org/1999/xlink" viewBox="0 0 321.9 136.54">
  <defs>
    <style>
      .cls-1 {
        font-family: Torpedo-Bold, Torpedo;
        font-size: 69.47px;
        font-weight: 700;
      }

      .cls-2 {
        fill: url(#linear-gradient);
      }

      .cls-2, .cls-3, .cls-4, .cls-5, .cls-6, .cls-7, .cls-8, .cls-9 {
        stroke-width: 0px;
      }

      .cls-3 {
        fill: url(#linear-gradient-6);
      }

      .cls-10 {
        letter-spacing: .01em;
      }

      .cls-11 {
        letter-spacing: .01em;
      }

      .cls-4 {
        fill: url(#linear-gradient-5);
      }

      .cls-5 {
        fill: url(#linear-gradient-2);
      }

      .cls-12 {
        letter-spacing: 0em;
      }

      .cls-6 {
        fill: url(#linear-gradient-7);
      }

      .cls-7 {
        fill: url(#linear-gradient-3);
      }

      .cls-8 {
        fill: url(#linear-gradient-8);
      }

      .cls-13 {
        letter-spacing: 0em;
      }

      .cls-9 {
        fill: url(#linear-gradient-4);
      }
    </style>
    <linearGradient id="linear-gradient" x1="0" y1="22.59" x2="114.94" y2="22.59" gradientUnits="userSpaceOnUse">
      <stop offset=".09" stop-color="#797c7d"/>
      <stop offset=".62" stop-color="#1a1617"/>
    </linearGradient>
    <linearGradient id="linear-gradient-2" x1="0" y1="89.1" x2="114.94" y2="89.1" xlink:href="#linear-gradient"/>
    <linearGradient id="linear-gradient-3" x1="230.36" y1="9.72" x2="230.36" y2="59.67" gradientUnits="userSpaceOnUse">
      <stop offset=".09" stop-color="#737677"/>
      <stop offset=".62" stop-color="#1a1617"/>
    </linearGradient>
    <linearGradient id="linear-gradient-4" x1="228.28" y1="71.87" x2="228.28" y2="121.82" xlink:href="#linear-gradient-3"/>
    <linearGradient id="linear-gradient-5" x1="228.28" y1="71.87" x2="228.28" y2="121.82" xlink:href="#linear-gradient-3"/>
    <linearGradient id="linear-gradient-6" x1="228.28" y1="71.87" x2="228.28" y2="121.82" xlink:href="#linear-gradient-3"/>
    <linearGradient id="linear-gradient-7" x1="228.28" y1="71.87" x2="228.28" y2="121.82" xlink:href="#linear-gradient-3"/>
    <linearGradient id="linear-gradient-8" x1="228.28" y1="71.87" x2="228.28" y2="121.82" xlink:href="#linear-gradient-3"/>
  </defs>
  <g>
    <path class="cls-2" d="m13.15,35.74h88.27c7.08,0,13.17-5.44,13.51-12.51.36-7.55-5.66-13.78-13.13-13.78H13.52c-7.08,0-13.17,5.44-13.51,12.51-.36,7.55,5.66,13.78,13.13,13.78Z"/>
    <path class="cls-5" d="m92.63,54.89H12.25c-6.53,0-12.13,5.11-12.25,11.64s5.23,12.08,11.86,12.08h68.86c6.11,0,11.01,5.22,10.46,11.45-.48,5.48-5.32,9.55-10.81,9.55h-1.94s-30.23,0-30.23,0H11.85c-6.54,0-11.85,5.31-11.85,11.85h0c0,6.55,5.31,11.86,11.85,11.86h80.78c12.32,0,22.31-9.99,22.31-22.31v-23.81c0-12.32-9.99-22.31-22.31-22.31Z"/>
  </g>
  <g>
    <text class="cls-1" transform="translate(137.05 59.53) scale(1.7 1)"><tspan class="cls-12" x="0" y="0">S</tspan><tspan x="21.33" y="0">TU</tspan><tspan class="cls-10" x="64.81" y="0">D</tspan><tspan x="88.22" y="0">Y</tspan></text>
    <g>
      <path class="cls-7" d="m159.22,18.82c0-2.08-1.3-3.13-3.89-3.13s-3.89.97-3.89,4.24c0,2.78.35,4.79.94,5.97s2.12,2.57,4.48,4.17l6.72,4.45c2,1.32,3.54,2.36,4.48,3.2,2.01,1.67,4.25,5.42,4.25,10.35s-.71,6.67-3.18,8.61c-2.59,2.01-7.19,2.99-13.68,2.99s-11.09-.97-13.68-2.99c-2-1.53-2.95-3.82-2.95-6.88v-2.85c0-4.52,12.27-4.52,12.27,0v3.68c0,2.22,1.18,3.13,4.36,3.13s4.48-.97,4.48-4.79c0-2.71-.35-4.52-.94-5.42-.59-.9-2.48-2.36-5.54-4.38l-7.43-4.86c-5.31-3.54-6.96-7.16-6.96-13.62,0-3.82,1.06-6.53,3.3-8.13,2.6-1.88,6.96-2.85,13.21-2.85s10.38,1.04,12.97,3.06c2.01,1.53,2.95,3.82,2.95,6.88v2.85c0,4.52-12.27,4.52-12.27,0v-3.68Z"/>
      <path class="cls-7" d="m196.61,56.34c0,1.94-2.71,3.33-6.13,3.33s-6.13-1.39-6.13-3.33V16.04h-6.72c-2.83,0-4.84-1.39-4.84-3.06s2-3.06,4.84-3.06h25.71c2.83,0,4.95,1.39,4.95,3.06s-2.12,3.06-4.95,3.06h-6.72v40.3Z"/>
      <path class="cls-7" d="m223.04,50.64c0,2.22,1.18,3.13,4.36,3.13s4.36-.9,4.36-3.13V13.12c0-1.95,2.71-3.4,6.13-3.4s6.13,1.46,6.13,3.4v36.68c0,3.06-.94,5.35-2.95,6.88-2.59,2.01-7.2,2.99-13.68,2.99s-11.09-.97-13.68-2.99c-2.01-1.53-2.95-3.82-2.95-6.88V13.12c0-1.95,2.71-3.4,6.13-3.4s6.13,1.46,6.13,3.4v37.52Z"/>
      <path class="cls-7" d="m250.64,56.48V12.98c0-1.67,2.36-3.06,5.19-3.06h6.61c5.07,0,8.61.14,10.73.35,2.24.21,4.01.69,5.54,1.46,2.83,1.39,4.25,4.1,4.25,8.13v29.74c0,4.03-1.42,6.74-4.25,8.13-1.53.76-3.3,1.25-5.54,1.46-2.12.21-5.66.35-10.73.35h-6.61c-2.83,0-5.19-1.39-5.19-3.06Zm20.05-35.64c0-4.17-.83-4.79-5.19-4.79h-2.59v37.38h2.59c4.36,0,5.19-.63,5.19-4.79v-27.79Z"/>
      <path class="cls-7" d="m310.56,40.43v15.91c0,1.94-2.71,3.33-6.13,3.33s-6.13-1.39-6.13-3.33v-15.91l-11.09-26.54c-.83-2.29,2.01-4.17,5.78-4.17,3.18,0,5.31.97,6.01,2.99l5.43,14.66,5.66-14.59c.83-2.01,2.71-3.06,5.9-3.06,3.66,0,6.61,1.95,5.78,3.96l-11.21,26.75Z"/>
    </g>
  </g>
  <g>
    <text class="cls-1" transform="translate(133.64 121.68) scale(1.65 1)"><tspan x="0" y="0">BUD</tspan><tspan class="cls-11" x="68.77" y="0">D</tspan><tspan class="cls-13" x="92.18" y="0">Y</tspan></text>
    <g>
      <path class="cls-9" d="m149.2,72.08c4.92,0,8.35.14,10.41.35,2.17.21,3.89.7,5.38,1.46,2.75,1.39,4.12,4.1,4.12,8.13v6.53c0,4.52-2.4,5.56-5.72,6.74,4.35,1.25,6.52,3.75,6.52,7.57v8.89c0,4.03-1.37,6.74-4.12,8.13-1.49.76-3.2,1.25-5.38,1.46-2.06.21-5.49.35-10.41.35h-7.9c-2.75,0-5.03-1.39-5.03-3.06v-43.49c0-1.67,2.29-3.06,5.03-3.06h7.09Zm8.01,10.91c0-3.96-1.6-4.79-6.18-4.79h-2.06v14.17h2.06c4.58,0,6.18-.83,6.18-4.79v-4.58Zm-8.24,15.35v17.23h2.86c4.58,0,6.18-.83,6.18-4.79v-7.85c0-3.61-1.26-4.58-5.84-4.58h-3.2Z"/>
      <path class="cls-4" d="m186.51,112.79c0,2.22,1.14,3.13,4.23,3.13s4.23-.9,4.23-3.13v-37.52c0-1.95,2.63-3.4,5.95-3.4s5.95,1.46,5.95,3.4v36.68c0,3.06-.92,5.35-2.86,6.88-2.52,2.01-6.98,2.99-13.27,2.99s-10.76-.97-13.27-2.99c-1.95-1.53-2.86-3.82-2.86-6.88v-36.68c0-1.95,2.63-3.4,5.95-3.4s5.95,1.46,5.95,3.4v37.52Z"/>
      <path class="cls-3" d="m213.28,118.62v-43.49c0-1.67,2.29-3.06,5.03-3.06h6.41c4.92,0,8.35.14,10.41.35,2.17.21,3.89.7,5.38,1.46,2.75,1.39,4.12,4.1,4.12,8.13v29.73c0,4.03-1.37,6.74-4.12,8.13-1.49.76-3.2,1.25-5.38,1.46-2.06.21-5.49.35-10.41.35h-6.41c-2.75,0-5.03-1.39-5.03-3.06Zm19.45-35.64c0-4.17-.8-4.79-5.03-4.79h-2.52v37.38h2.52c4.23,0,5.03-.63,5.03-4.79v-27.79Z"/>
      <path class="cls-6" d="m250.36,118.62v-43.49c0-1.67,2.29-3.06,5.04-3.06h6.41c4.92,0,8.35.14,10.41.35,2.17.21,3.89.7,5.38,1.46,2.75,1.39,4.12,4.1,4.12,8.13v29.73c0,4.03-1.37,6.74-4.12,8.13-1.49.76-3.2,1.25-5.38,1.46-2.06.21-5.49.35-10.41.35h-6.41c-2.75,0-5.04-1.39-5.04-3.06Zm19.45-35.64c0-4.17-.8-4.79-5.03-4.79h-2.52v37.38h2.52c4.23,0,5.03-.63,5.03-4.79v-27.79Z"/>
      <path class="cls-8" d="m308.49,102.57v15.91c0,1.94-2.63,3.33-5.95,3.33s-5.95-1.39-5.95-3.33v-15.91l-10.76-26.54c-.8-2.29,1.94-4.17,5.61-4.17,3.09,0,5.15.97,5.84,2.99l5.26,14.66,5.49-14.59c.8-2.01,2.63-3.06,5.72-3.06,3.55,0,6.41,1.95,5.61,3.96l-10.87,26.75Z"/>
    </g>
  </g>
</svg>