<?xml version="1.0" encoding="UTF-8"?>
<svg id="Layer_1" data-name="Layer 1" xmlns="http://www.w3.org/2000/svg" xmlns:xlink="http://www.w3.org/1999/xlink" viewBox="0 0 114.94 113.88">
  <defs>
    <style>
      .cls-1 {
        fill: url(#linear-gradient);
      }

      .cls-1, .cls-2 {
        stroke-width: 0px;
      }

      .cls-2 {
        fill: url(#linear-gradient-2);
      }
    </style>
    <linearGradient id="linear-gradient" x1="0" y1="13.15" x2="114.94" y2="13.15" gradientUnits="userSpaceOnUse">
      <stop offset=".09" stop-color="#797c7d"/>
      <stop offset=".62" stop-color="#1a1617"/>
    </linearGradient>
    <linearGradient id="linear-gradient-2" x1="0" y1="79.66" x2="114.94" y2="79.66" xlink:href="#linear-gradient"/>
  </defs>
  <path class="cls-1" d="m13.15,26.3h88.27c7.08,0,13.17-5.44,13.51-12.51C115.28,6.23,109.26,0,101.79,0H13.52C6.44,0,.35,5.44.02,12.51c-.36,7.55,5.66,13.78,13.13,13.78Z"/>
  <path class="cls-2" d="m92.63,45.45H12.25c-6.53,0-12.13,5.11-12.25,11.64s5.23,12.08,11.86,12.08h68.86c6.11,0,11.01,5.22,10.46,11.45-.48,5.48-5.32,9.55-10.81,9.55h-1.94s-30.23,0-30.23,0H11.85c-6.54,0-11.85,5.31-11.85,11.85h0c0,6.55,5.31,11.86,11.85,11.86h80.78c12.32,0,22.31-9.99,22.31-22.31v-23.81c0-12.32-9.99-22.31-22.31-22.31Z"/>
</svg>